<svg width="100%" viewBox="0 0 19 20" fill="none" xmlns="http://www.w3.org/2000/svg">
<path opacity="0.4" d="M9.32542 15.1894L4.45662 17.678C4.08894 17.8822 3.63029 17.7459 3.42464 17.3712C3.36458 17.2534 3.33282 17.1224 3.33203 16.9894V11.4189C3.33203 11.9712 3.63633 12.3121 4.43677 12.6939L9.32542 15.1894Z" fill="#D7D8DD"/>
<path fill-rule="evenodd" clip-rule="evenodd" d="M7.00348 2.43262H11.6341C13.665 2.43262 15.3122 3.25079 15.332 5.34396V16.9893C15.3312 17.1202 15.2994 17.249 15.2394 17.3643C15.143 17.5525 14.9765 17.6922 14.7781 17.7514C14.5798 17.8105 14.3666 17.784 14.1876 17.678L9.32542 15.1893L4.43677 12.6939C3.63633 12.3121 3.33203 11.9712 3.33203 11.4189V5.34396C3.33203 3.25079 4.97922 2.43262 7.00348 2.43262ZM6.50072 8.28258H12.1435C12.4687 8.28258 12.7323 8.0109 12.7323 7.67576C12.7323 7.34063 12.4687 7.06895 12.1435 7.06895H6.50072C6.17556 7.06895 5.91197 7.34063 5.91197 7.67576C5.91197 8.0109 6.17556 8.28258 6.50072 8.28258Z" fill="#D7D8DD"/>
</svg>
