<svg width="100%" viewBox="0 0 18 19" fill="none" xmlns="http://www.w3.org/2000/svg">
<path fill-rule="evenodd" clip-rule="evenodd" d="M2.25 13.2967V7.58691H15.75V13.3424C15.75 15.6967 14.2681 17.1442 11.8971 17.1442H6.0955C3.74671 17.1442 2.25 15.6667 2.25 13.2967ZM5.96954 11.4517C5.6287 11.4674 5.34715 11.1967 5.33233 10.8524C5.33233 10.5074 5.59907 10.2224 5.9399 10.2067C6.27333 10.2067 6.54748 10.4699 6.55488 10.8067C6.5697 11.1524 6.30296 11.4374 5.96954 11.4517ZM9.01482 11.4517C8.67399 11.4674 8.39243 11.1967 8.37761 10.8524C8.37761 10.5074 8.64435 10.2224 8.98518 10.2067C9.31861 10.2067 9.59276 10.4699 9.60016 10.8067C9.61498 11.1524 9.34824 11.4374 9.01482 11.4517ZM12.0379 14.2117C11.697 14.2042 11.4229 13.9192 11.4229 13.5742C11.4155 13.2292 11.6896 12.9449 12.0305 12.9374H12.0379C12.3861 12.9374 12.6677 13.2224 12.6677 13.5742C12.6677 13.9267 12.3861 14.2117 12.0379 14.2117ZM8.37761 13.5742C8.39243 13.9192 8.67399 14.1899 9.01482 14.1742C9.34824 14.1599 9.61498 13.8749 9.60016 13.5299C9.59276 13.1924 9.31861 12.9292 8.98518 12.9292C8.64435 12.9449 8.37761 13.2292 8.37761 13.5742ZM5.32492 13.5742C5.33974 13.9192 5.6213 14.1899 5.96213 14.1742C6.29555 14.1599 6.56229 13.8749 6.54748 13.5299C6.54007 13.1924 6.26592 12.9292 5.93249 12.9292C5.59166 12.9449 5.32492 13.2292 5.32492 13.5742ZM11.4303 10.8449C11.4303 10.4999 11.697 10.2224 12.0379 10.2149C12.3713 10.2149 12.638 10.4842 12.6529 10.8149C12.6603 11.1599 12.3935 11.4449 12.0601 11.4517C11.7193 11.4592 11.4377 11.1967 11.4303 10.8524V10.8449Z" fill="#02B5A5"/>
<path opacity="0.4" d="M2.25195 7.58697C2.26159 7.14672 2.29863 6.27297 2.36828 5.99172C2.72393 4.40997 3.93167 3.40497 5.65807 3.26172H12.3414C14.053 3.41247 15.2755 4.42422 15.6312 5.99172C15.7001 6.26547 15.7371 7.14597 15.7468 7.58697H2.25195Z" fill="#02B5A5"/>
<path d="M6.22873 5.58703C6.55475 5.58703 6.79926 5.34028 6.79926 5.00953V2.72278C6.79926 2.39203 6.55475 2.14453 6.22873 2.14453C5.90271 2.14453 5.6582 2.39203 5.6582 2.72278V5.00953C5.6582 5.34028 5.90271 5.58703 6.22873 5.58703Z" fill="#02B5A5"/>
<path d="M11.7717 5.58703C12.0903 5.58703 12.3422 5.34028 12.3422 5.00953V2.72278C12.3422 2.39203 12.0903 2.14453 11.7717 2.14453C11.4457 2.14453 11.2012 2.39203 11.2012 2.72278V5.00953C11.2012 5.34028 11.4457 5.58703 11.7717 5.58703Z" fill="#02B5A5"/>
</svg>
