<svg width="15" height="14" viewBox="0 0 15 14" fill="none" xmlns="http://www.w3.org/2000/svg">
<path d="M3.04629 4.1164C3.04629 3.38782 3.63663 2.79749 4.36521 2.7969H4.96546C5.31371 2.7969 5.64738 2.65865 5.89471 2.41365L6.31413 1.99365C6.82804 1.47682 7.66338 1.47449 8.18021 1.9884L8.18079 1.98899L8.18604 1.99365L8.60604 2.41365C8.85338 2.65924 9.18704 2.7969 9.53529 2.7969H10.135C10.8635 2.7969 11.4545 3.38724 11.4545 4.1164V4.71549C11.4545 5.06374 11.5921 5.39799 11.8377 5.64532L12.2577 6.06532C12.7745 6.57924 12.7775 7.41457 12.2635 7.9314L12.263 7.93199L12.2577 7.93724L11.8377 8.35724C11.5921 8.60399 11.4545 8.93765 11.4545 9.2859V9.88615C11.4545 10.6147 10.8641 11.2051 10.1355 11.2051H10.135H9.53413C9.18588 11.2051 8.85163 11.3433 8.60488 11.5889L8.18488 12.0083C7.67154 12.5252 6.83679 12.5281 6.31996 12.0153C6.31938 12.0147 6.31879 12.0142 6.31821 12.0136L6.31296 12.0083L5.89354 11.5889C5.64679 11.3433 5.31254 11.2057 4.96429 11.2051H4.36521C3.63663 11.2051 3.04629 10.6147 3.04629 9.88615V9.28474C3.04629 8.93649 2.90804 8.60282 2.66246 8.35607L2.24304 7.93607C1.72621 7.42274 1.72329 6.58799 2.23663 6.07115C2.23663 6.07057 2.23721 6.06999 2.23779 6.0694L2.24304 6.06415L2.66246 5.64415C2.90804 5.39682 3.04629 5.06315 3.04629 4.71432V4.1164" stroke="#828792" stroke-width="1.5" stroke-linecap="round" stroke-linejoin="round"/>
</svg>
