<svg width="100%" viewBox="0 0 21 21" fill="none" xmlns="http://www.w3.org/2000/svg">
<path d="M19.2472 0.646484H1.73228C1.13254 0.646845 0.646364 1.13326 0.646484 1.73324V19.2482C0.646845 19.8479 1.13326 20.3341 1.73324 20.334H11.1631V12.7205H8.60608V9.74042H11.1631V7.54732C11.1631 5.00407 12.7158 3.6198 14.9844 3.6198C16.0711 3.6198 17.0049 3.70079 17.277 3.73696V6.39508H15.7126C14.4783 6.39508 14.2393 6.9816 14.2393 7.84244V9.74042H17.1905L16.806 12.7205H14.2393V20.334H19.2472C19.8473 20.3341 20.3339 19.8478 20.334 19.2477C20.334 19.2476 20.334 19.2475 20.334 19.2472V1.73228C20.3337 1.13254 19.8472 0.646364 19.2472 0.646484Z" fill="#262626"/>
</svg>
