<svg width="100%" viewBox="0 0 22 21" fill="none" xmlns="http://www.w3.org/2000/svg">
<path fill-rule="evenodd" clip-rule="evenodd" d="M1.375 2.48325C1.375 2.05672 1.54444 1.64765 1.84605 1.34605C2.14765 1.04444 2.55672 0.875002 2.98325 0.875002H19.015C19.2264 0.874657 19.4357 0.916007 19.6311 0.996685C19.8265 1.07736 20.004 1.19579 20.1536 1.34517C20.3031 1.49456 20.4218 1.67197 20.5026 1.86726C20.5835 2.06255 20.6251 2.27187 20.625 2.48325V18.515C20.6252 18.7264 20.5838 18.9358 20.503 19.1312C20.4222 19.3266 20.3037 19.5041 20.1543 19.6536C20.0048 19.8032 19.8273 19.9218 19.632 20.0027C19.4367 20.0835 19.2273 20.1251 19.0159 20.125H2.98325C2.77198 20.125 2.56278 20.0834 2.3676 20.0025C2.17242 19.9216 1.99509 19.8031 1.84574 19.6536C1.69639 19.5042 1.57794 19.3268 1.49717 19.1316C1.4164 18.9364 1.37489 18.7271 1.375 18.5159V2.48325ZM8.9945 8.2145H11.6011V9.5235C11.9774 8.771 12.9399 8.09375 14.3862 8.09375C17.1591 8.09375 17.8162 9.59263 17.8162 12.3428V17.437H15.0101V12.9693C15.0101 11.403 14.6339 10.5193 13.6784 10.5193C12.3527 10.5193 11.8015 11.4721 11.8015 12.9693V17.437H8.9945V8.2145ZM4.182 17.3171H6.989V8.09375H4.182V17.3163V17.3171ZM7.39063 5.0855C7.39592 5.32584 7.35315 5.56482 7.26483 5.7884C7.17652 6.01199 7.04443 6.21568 6.87633 6.38753C6.70822 6.55938 6.50749 6.69592 6.2859 6.78913C6.06431 6.88235 5.82633 6.93037 5.58594 6.93037C5.34554 6.93037 5.10757 6.88235 4.88598 6.78913C4.66439 6.69592 4.46365 6.55938 4.29555 6.38753C4.12744 6.21568 3.99536 6.01199 3.90704 5.7884C3.81872 5.56482 3.77596 5.32584 3.78125 5.0855C3.79164 4.61375 3.98634 4.16482 4.32365 3.83485C4.66096 3.50489 5.11407 3.32012 5.58594 3.32012C6.0578 3.32012 6.51091 3.50489 6.84823 3.83485C7.18554 4.16482 7.38024 4.61375 7.39063 5.0855Z" fill="black"/>
</svg>
