<svg width="100%" viewBox="0 0 18 19" fill="none" xmlns="http://www.w3.org/2000/svg">
<path fill-rule="evenodd" clip-rule="evenodd" d="M6.39872 2.63031C8.03736 1.67819 10.0515 1.69483 11.6748 2.67391C13.2821 3.67292 14.259 5.45587 14.2499 7.37382C14.2125 9.27919 13.165 11.0702 11.8556 12.4548C11.0999 13.2575 10.2545 13.9674 9.33663 14.5698C9.24211 14.6244 9.13856 14.661 9.03111 14.6777C8.9277 14.6733 8.82699 14.6428 8.73806 14.5888C7.33682 13.6837 6.1075 12.5283 5.10925 11.1782C4.27394 10.0513 3.79938 8.68974 3.75 7.27855C3.74892 5.35692 4.76007 3.58244 6.39872 2.63031ZM7.34562 8.07382C7.62126 8.75336 8.27189 9.19662 8.9937 9.19662C9.46658 9.20002 9.92114 9.01061 10.2561 8.67059C10.5911 8.33058 10.7786 7.86821 10.7769 7.38652C10.7795 6.65126 10.3466 5.98697 9.68045 5.70381C9.0143 5.42066 8.24628 5.5745 7.73499 6.09349C7.22369 6.61249 7.06998 7.39428 7.34562 8.07382Z" fill="white"/>
<ellipse opacity="0.4" cx="9" cy="16.1777" rx="3.75" ry="0.75" fill="white"/>
</svg>
