<svg width="100%" viewBox="0 0 18 19" fill="none" xmlns="http://www.w3.org/2000/svg">
<path fill-rule="evenodd" clip-rule="evenodd" d="M16.3361 5.16712L4.97081 1.57872C4.62827 1.47057 4.27872 1.66508 4.19006 2.01317L3.8271 3.43823L2.7793 7.55207H13.6497C14.0089 7.55207 14.3001 7.84326 14.3001 8.20246V13.5475C14.6108 13.5972 14.9073 13.4076 14.988 13.091L16.4328 7.41827L16.7958 5.99321C16.8844 5.64512 16.6786 5.27527 16.3361 5.16712Z" fill="white" fill-opacity="0.5"/>
<path fill-rule="evenodd" clip-rule="evenodd" d="M1.84571 7.55176C1.4865 7.55176 1.19531 7.84295 1.19531 8.20215V15.5893C1.19531 15.9485 1.4865 16.2397 1.84571 16.2397H13.6477C14.0069 16.2397 14.2981 15.9485 14.2981 15.5893V8.20215C14.2981 7.84295 14.0069 7.55176 13.6477 7.55176H1.84571ZM2.86667 10.1454C2.73698 10.1454 2.63184 10.2505 2.63184 10.3802V11.8458C2.63184 11.9755 2.73698 12.0807 2.86667 12.0807H5.07896C5.20866 12.0807 5.3138 11.9755 5.3138 11.8458V10.3802C5.3138 10.2505 5.20866 10.1454 5.07896 10.1454H2.86667ZM2.41455 14.4365C2.41455 14.2984 2.52648 14.1865 2.66455 14.1865H4.23838C4.37645 14.1865 4.48838 14.2984 4.48838 14.4365C4.48838 14.5746 4.37645 14.6865 4.23838 14.6865H2.66455C2.52648 14.6865 2.41455 14.5746 2.41455 14.4365ZM5.55563 14.1865C5.41756 14.1865 5.30563 14.2984 5.30563 14.4365C5.30563 14.5746 5.41756 14.6865 5.55563 14.6865H7.12946C7.26753 14.6865 7.37946 14.5746 7.37946 14.4365C7.37946 14.2984 7.26753 14.1865 7.12946 14.1865H5.55563ZM8.19586 14.4365C8.19586 14.2984 8.30779 14.1865 8.44586 14.1865H10.0197C10.1578 14.1865 10.2697 14.2984 10.2697 14.4365C10.2697 14.5746 10.1578 14.6865 10.0197 14.6865H8.44586C8.30779 14.6865 8.19586 14.5746 8.19586 14.4365ZM11.3369 14.1865C11.1989 14.1865 11.0869 14.2984 11.0869 14.4365C11.0869 14.5746 11.1989 14.6865 11.3369 14.6865H12.9108C13.0488 14.6865 13.1608 14.5746 13.1608 14.4365C13.1608 14.2984 13.0488 14.1865 12.9108 14.1865H11.3369Z" fill="white"/>
</svg>
