<svg width="100%" viewBox="0 0 20 19" fill="none" xmlns="http://www.w3.org/2000/svg">
<path d="M8.84287 0.912189C9.12592 0.0410488 10.3584 0.0410488 10.6414 0.912189L12.224 5.78294C12.3506 6.17253 12.7136 6.43629 13.1233 6.43629H18.2447C19.1607 6.43629 19.5415 7.60841 18.8005 8.1468L14.6572 11.1571C14.3258 11.3979 14.1871 11.8247 14.3137 12.2142L15.8963 17.085C16.1793 17.9561 15.1823 18.6805 14.4412 18.1421L10.2979 15.1319C9.96652 14.8911 9.51776 14.8911 9.18636 15.1319L5.04306 18.1421C4.30202 18.6805 3.30496 17.9561 3.58801 17.085L5.17061 12.2142C5.2972 11.8247 5.15853 11.3979 4.82712 11.1571L0.683818 8.1468C-0.0572186 7.60841 0.323623 6.43629 1.2396 6.43629H6.361C6.77064 6.43629 7.13369 6.17253 7.26027 5.78294L8.84287 0.912189Z" fill="#C4C4C4" fill-opacity="0.5"/>
</svg>
