<svg width="100%" viewBox="0 0 20 19" fill="none" xmlns="http://www.w3.org/2000/svg">
<path d="M9.10069 0.912189C9.38374 0.0410488 10.6162 0.0410488 10.8992 0.912189L12.4818 5.78294C12.6084 6.17253 12.9715 6.43629 13.3811 6.43629H18.5025C19.4185 6.43629 19.7993 7.60841 19.0583 8.1468L14.915 11.1571C14.5836 11.3979 14.4449 11.8247 14.5715 12.2142L16.1541 17.085C16.4371 17.9561 15.4401 18.6805 14.699 18.1421L10.5557 15.1319C10.2243 14.8911 9.77558 14.8911 9.44417 15.1319L5.30087 18.1421C4.55983 18.6805 3.56277 17.9561 3.84582 17.085L5.42843 12.2142C5.55501 11.8247 5.41634 11.3979 5.08494 11.1571L0.94163 8.1468C0.200594 7.60841 0.581436 6.43629 1.49741 6.43629H6.61882C7.02845 6.43629 7.3915 6.17253 7.51808 5.78294L9.10069 0.912189Z" fill="#FAAE4B"/>
</svg>
