<svg width="100%" viewBox="0 0 21 21" fill="none" xmlns="http://www.w3.org/2000/svg">
<path d="M6.84197 18.3839C14.2716 18.3839 18.3346 12.2287 18.3346 6.89137C18.3346 6.71655 18.3309 6.54245 18.3231 6.36932C19.1117 5.79912 19.7971 5.08756 20.338 4.27765C19.6143 4.59947 18.8353 4.81583 18.0184 4.91371C18.8523 4.41346 19.4925 3.62244 19.7945 2.67949C19.0141 3.14218 18.1497 3.47833 17.2297 3.65989C16.4926 2.87477 15.4431 2.38379 14.2811 2.38379C12.0506 2.38379 10.2416 4.19265 10.2416 6.42242C10.2416 6.73954 10.2772 7.04776 10.3464 7.34346C6.98934 7.17454 4.01238 5.56735 2.0204 3.12327C1.67365 3.72009 1.47355 4.41358 1.47355 5.15354C1.47355 6.55473 2.18667 7.79206 3.27097 8.51565C2.6083 8.49531 1.98584 8.31339 1.44165 8.01058C1.44104 8.02756 1.44104 8.04405 1.44104 8.06211C1.44104 10.0183 2.83332 11.6517 4.68179 12.0218C4.34227 12.1141 3.98505 12.1638 3.61663 12.1638C3.35681 12.1638 3.1035 12.1383 2.8574 12.091C3.37162 13.6959 4.86287 14.8638 6.63079 14.8965C5.24827 15.9801 3.50671 16.6255 1.61393 16.6255C1.28838 16.6255 0.966555 16.6069 0.650391 16.5695C2.43806 17.7154 4.56079 18.3841 6.84209 18.3841" fill="#262626"/>
</svg>
