<svg width="100%" viewBox="0 0 458 411" fill="none" xmlns="http://www.w3.org/2000/svg">
<g clip-path="url(#clip0_1556_1595)">
<g clip-path="url(#clip1_1556_1595)">
<path d="M344.699 347.802V361.281H335.199L334.046 354.976L333.273 350.755L340.505 348.885L344.699 347.802Z" fill="#F78C68"/>
<path d="M344.699 353.035V353.315L334.046 354.975L333.273 350.755L335.296 343.73L340.505 348.885L344.699 353.035Z" fill="#D34A28"/>
<path d="M374.592 350.755L376.517 361.281H386.017V347.802L374.592 350.755Z" fill="#F78C68"/>
<path d="M386.017 353.181V353.461L375.364 355.121L374.592 350.9L376.614 343.876L381.824 349.03L386.017 353.181Z" fill="#D34A28"/>
<path d="M332.672 185.723C331.432 185.805 330.112 185.405 328.739 184.621C317.228 178.052 302.195 144.579 302.195 144.579L308.648 138.529L321.514 152.402L324.608 155.737L328.599 165.348C328.599 165.348 332.377 170.058 334.856 174.949C337.435 180.033 338.61 185.328 332.672 185.723Z" fill="#F78C68"/>
<path d="M390.074 216.158L386.126 243.978L387.837 347.427V347.668L387.893 351.083C387.902 351.368 387.853 351.653 387.75 351.919C387.647 352.186 387.492 352.429 387.293 352.634C387.094 352.84 386.856 353.003 386.593 353.114C386.33 353.226 386.047 353.283 385.762 353.284H373.229C372.725 353.284 372.237 353.106 371.852 352.78C371.468 352.455 371.211 352.004 371.127 351.508L370.485 347.719L370.441 347.463L355.145 257.238L351.366 272.199L347.383 287.965C346.943 289.706 346.721 291.494 346.721 293.288V351.503C346.721 351.976 346.533 352.429 346.199 352.764C345.865 353.098 345.411 353.286 344.938 353.286H332.18C331.751 353.285 331.336 353.13 331.011 352.848C330.687 352.566 330.475 352.177 330.414 351.751L329.893 348.045L329.857 347.804L321.732 290.132C321.479 288.335 321.44 286.514 321.616 284.708L327.183 227.519L329.239 207.628L330.079 189.784C330.079 189.784 348.84 184.828 352.761 205.599L373.19 198.854L375.509 206.943L390.795 211.064L390.074 216.158Z" fill="#025B95"/>
<path d="M334.854 174.952L328.739 184.618L321.5 152.404L324.593 155.739L328.585 165.35C328.585 165.35 332.376 170.06 334.854 174.952Z" fill="#D34A28"/>
<path d="M252.852 60.026C252.962 60.0259 253.071 60.0511 253.17 60.0996C253.269 60.1482 253.356 60.2187 253.424 60.3059L254.63 61.8502L255.873 60.3517C255.941 60.2695 256.026 60.2034 256.122 60.1579C256.219 60.1124 256.324 60.0888 256.43 60.0887H258.31L262.021 50.0891C262.076 49.9428 262.177 49.8181 262.308 49.7337C262.44 49.6493 262.595 49.6097 262.751 49.6209C262.907 49.632 263.055 49.6933 263.173 49.7955C263.291 49.8977 263.373 50.0354 263.406 50.188L266.661 65.3081L270.542 52.9292C270.587 52.7835 270.677 52.6557 270.799 52.5643C270.922 52.4728 271.07 52.4224 271.222 52.4201C271.374 52.4175 271.523 52.4627 271.647 52.5493C271.772 52.6359 271.866 52.7595 271.917 52.9027L275.199 62.4897L277.334 59.2176C277.399 59.1189 277.486 59.0374 277.589 58.9802C277.692 58.923 277.808 58.8919 277.926 58.8894L292.662 58.8605V52.4852C292.662 51.8453 292.408 51.2315 291.955 50.779C291.503 50.3264 290.889 50.0722 290.249 50.0722H273.515V35.413C273.515 34.7731 273.26 34.1593 272.808 33.7068C272.355 33.2542 271.741 33 271.101 33H257.934C257.294 33 256.68 33.2542 256.227 33.7068C255.775 34.1593 255.521 34.7731 255.521 35.413V50.0722H239.708C239.068 50.0722 238.454 50.3264 238.002 50.779C237.549 51.2315 237.295 51.8453 237.295 52.4852V60.149L252.852 60.026Z" fill="#FF9C00"/>
<path d="M278.324 60.3473L275.59 64.5315C275.515 64.645 275.411 64.7354 275.288 64.7924C275.165 64.8494 275.028 64.8707 274.894 64.8538C274.759 64.837 274.632 64.7827 274.527 64.6971C274.422 64.6115 274.343 64.4981 274.299 64.3698L271.246 55.4706L267.204 68.3634C267.159 68.5107 267.067 68.6396 266.943 68.7312C266.819 68.8227 266.668 68.8723 266.514 68.8725H266.48C266.321 68.8655 266.168 68.8059 266.046 68.7028C265.923 68.5998 265.839 68.4593 265.805 68.3031L262.504 52.9248L259.487 61.0712C259.438 61.212 259.346 61.334 259.224 61.4204C259.102 61.5068 258.956 61.5534 258.807 61.5538H256.768L255.168 63.4842C255.099 63.5676 255.012 63.6344 254.913 63.6796C254.815 63.7249 254.707 63.7474 254.599 63.7455C254.49 63.7437 254.384 63.7175 254.287 63.6689C254.19 63.6204 254.105 63.5507 254.039 63.4649L252.502 61.4887L237.285 61.6117V66.0179C237.285 66.6579 237.539 67.2717 237.992 67.7242C238.444 68.1767 239.058 68.4309 239.698 68.4309H255.511V83.0901C255.511 83.7301 255.765 84.3438 256.218 84.7964C256.67 85.2489 257.284 85.5031 257.924 85.5031H271.092C271.732 85.5031 272.345 85.2489 272.798 84.7964C273.251 84.3438 273.505 83.7301 273.505 83.0901V68.4165H290.239C290.879 68.4165 291.493 68.1622 291.945 67.7097C292.398 67.2572 292.652 66.6434 292.652 66.0034V60.3135L278.324 60.3473Z" fill="#FF9C00"/>
<path opacity="0.32" d="M356.617 251.43L351.371 272.182C348.186 264.337 348.476 217.889 348.476 217.889L356.554 248.908C356.605 250.537 356.617 251.43 356.617 251.43Z" fill="#002E55"/>
<path d="M370.699 119.949L352.746 136.985C352.746 136.985 344.32 126.544 348.533 120.316C349.726 118.541 350.68 116.617 351.371 114.594C352.746 110.618 352.746 107.493 352.746 107.493L364.266 102.059C364.313 102.894 364.371 103.691 364.44 104.45C365.719 118.424 370.699 119.949 370.699 119.949Z" fill="#F78C68"/>
<path d="M364.054 103.152C360.57 114.807 351.371 114.604 351.371 114.604C352.747 110.627 352.747 107.502 352.747 107.502L364.266 102.068C364.312 102.903 363.984 102.392 364.054 103.152Z" fill="#D34A28"/>
<path opacity="0.32" d="M390.794 211.075L390.07 216.159C365.839 222.833 337.02 211.299 329.24 207.585L329.983 192.866C329.983 192.866 348.841 184.797 352.767 205.568L373.189 198.855L375.508 206.944L390.794 211.075Z" fill="#002E55"/>
<path d="M363.526 99.0785C363.554 99.153 363.6 99.2193 363.66 99.2716C363.72 99.3239 363.792 99.3605 363.87 99.3782C363.948 99.3959 364.029 99.3941 364.105 99.3729C364.182 99.3518 364.252 99.312 364.31 99.257C365.159 98.4438 366.849 97.3266 367.447 100.567C368.27 104.969 363.569 104.211 363.195 104.805C362.435 106.011 361.506 108.009 358.282 110.297C356.61 111.481 352.732 112.686 348.418 111.291C345.264 110.273 343.693 99.2715 345.973 85.4883C345.973 85.4883 347.079 87.5756 348.671 88.1137C350.264 88.6518 353.087 87.6866 354.899 87.1919C356.374 86.7913 359.134 85.469 360.98 86.8227C362.095 87.3149 362.787 97.1698 363.526 99.0785Z" fill="#F78C68"/>
<path d="M342.532 87.2738C342.638 88.7216 343.941 94.2233 358.055 88.9629C358.26 88.8857 358.479 88.8558 358.697 88.8755C358.915 88.8952 359.125 88.9639 359.312 89.0765C359.5 89.1891 359.659 89.3427 359.779 89.5257C359.898 89.7087 359.975 89.9164 360.003 90.1332C360.336 92.6717 361.105 97.131 362.58 99.0614C362.703 99.2217 362.859 99.3546 363.036 99.4517C363.214 99.5487 363.41 99.6079 363.612 99.6253C363.813 99.6428 364.016 99.6182 364.208 99.5531C364.4 99.488 364.576 99.3839 364.725 99.2473C365.208 98.8129 365.888 98.4148 366.501 98.796C366.694 98.9171 366.913 98.9909 367.14 99.0115C367.367 99.032 367.595 98.9988 367.807 98.9143C368.018 98.8299 368.207 98.6968 368.358 98.5257C368.508 98.3546 368.616 98.1504 368.673 97.9297C368.899 97.0417 369.01 95.7845 368.837 94.0061C368.807 93.6725 368.892 93.3388 369.078 93.0602C369.889 91.8537 371.911 88.2342 368.931 85.9997C365.333 83.3068 368.074 75.9398 358.555 79.4121C358.441 79.4539 358.323 79.4815 358.203 79.4942C357.095 79.6052 351.255 80.0926 348.097 78.5C344.685 76.7795 340.237 82.9376 342.361 86.6681C342.462 86.855 342.52 87.0618 342.532 87.2738V87.2738Z" fill="#10192E"/>
<path d="M366.749 100.239L364.266 102.068C364.266 102.068 365.192 97.6454 366.749 100.239Z" fill="#D34A28"/>
<path d="M308.649 138.529L302.189 144.562C302.189 144.562 300.413 142.532 298.186 139.805C294.363 135.124 289.221 128.392 289.484 126.35C289.897 123.122 292.001 119.886 294.069 121.211C296.137 122.535 300.553 126.946 300.693 127.086C300.645 126.987 299.486 124.673 300.666 123.298C300.698 123.261 300.738 123.232 300.782 123.212C300.827 123.192 300.875 123.182 300.923 123.182C300.972 123.182 301.02 123.192 301.064 123.212C301.109 123.232 301.148 123.261 301.18 123.298C302.29 124.531 307.015 130.028 308.313 135.742C308.529 136.655 308.642 137.59 308.649 138.529V138.529Z" fill="#F78C68"/>
<path d="M335.353 182.873C333.259 176.308 331.034 171.218 331.034 171.218L324.605 155.739C326.688 127.369 332.742 125.726 332.742 125.726C332.742 125.726 340.087 162.983 335.353 182.873Z" fill="#025B95"/>
<path d="M354.688 131.63C353.879 131.629 353.086 131.407 352.395 130.988C351.704 130.568 351.14 129.968 350.766 129.251L347.258 122.514L347.47 122.4L350.988 129.14C351.261 129.66 351.64 130.117 352.101 130.481C352.561 130.844 353.093 131.107 353.662 131.252C354.231 131.397 354.824 131.421 355.403 131.322C355.981 131.223 356.533 131.003 357.021 130.677L365.052 125.279L365.184 125.479L357.151 130.877C356.423 131.367 355.565 131.629 354.688 131.63V131.63Z" fill="#ECECEC"/>
<path d="M382.899 150.247L388.616 123.006L370.699 116.732L367.21 115.509L365.837 118.653C365.572 119.221 365.353 119.809 365.183 120.412C364.92 121.401 363.762 123.139 363.04 123.875C361.253 125.665 359.316 127.297 357.249 128.754C356.867 129.027 356.435 129.221 355.978 129.327C355.521 129.433 355.048 129.447 354.585 129.37C354.122 129.293 353.679 129.125 353.281 128.877C352.883 128.628 352.538 128.303 352.266 127.921C349.498 124.032 349.747 120.957 350.015 118.704L351.373 114.602C351.373 114.602 349.612 115.567 347.17 116.935C341.919 119.879 333.519 124.683 332.744 125.723C331.608 127.246 328.884 156.492 328.884 156.492C328.884 156.492 328.884 188.31 328.483 194.113C328.484 194.125 328.484 194.138 328.483 194.15C328.329 196.28 328.817 198.408 329.886 200.258C330.955 202.108 332.554 203.595 334.477 204.526C334.96 204.767 335.442 204.989 335.973 205.221C335.973 205.189 335.973 205.16 335.973 205.129L336.374 205.397C346.072 209.632 363.211 213.886 390.792 211.084L382.899 150.247ZM335.845 194.019C335.884 192.212 335.951 190.308 336.038 188.334L335.845 194.019Z" fill="#025B95"/>
<path d="M380.983 215.956L368.346 215.232C364.273 219.653 362.76 217.208 362.76 217.208L368.655 210.155L369.861 208.707L380.983 215.956Z" fill="#F78C68"/>
<path opacity="0.32" d="M379.35 149.148L381.64 177.921L389.04 170.994L379.35 149.148Z" fill="#002E55"/>
<path d="M349.625 375.692L309.754 376.611C309.754 376.611 309.011 375.431 309.754 372.637C309.839 372.323 310.14 371.985 310.613 371.633C314.344 368.849 328.663 365.135 329.054 364.744C329.495 364.302 335.2 360.799 335.2 360.799H341.572L344.709 358.458C348.252 359.208 349.294 365.861 349.564 370.678C349.719 373.501 349.625 375.692 349.625 375.692Z" fill="#ECECEC"/>
<path d="M349.555 370.677L310.613 371.642C314.344 368.857 328.663 365.144 329.054 364.753C329.495 364.311 335.2 360.807 335.2 360.807H341.572L344.709 358.467C348.242 359.208 349.275 365.86 349.555 370.677Z" fill="#025B95"/>
<path d="M395.881 376.324H371.647C371.634 374.435 371.808 372.549 372.168 370.694C372.75 367.642 373.969 363.957 376.512 361.283C376.512 361.283 380.064 357.005 386.012 361.283C386.012 361.283 391.398 366.681 394.216 370.035C395.126 371.114 395.768 371.983 395.876 372.388C396.33 374.053 395.881 376.324 395.881 376.324Z" fill="#ECECEC"/>
<path d="M387.842 347.661C384.558 348.042 381.255 348.241 377.949 348.257C373.704 348.257 371.277 347.861 370.502 347.712L370.459 347.456C371.48 347.666 377.022 348.622 387.85 347.42L387.842 347.661Z" fill="#D7DDDC"/>
<path d="M346.726 347.768V348.009C343.572 348.36 340.402 348.543 337.228 348.557C333.177 348.557 330.781 348.197 329.898 348.033L329.861 347.792C331.131 348.028 336.531 348.863 346.726 347.768Z" fill="#D7DDDC"/>
<path d="M217.245 347.894L216.029 361.317L206.567 360.461L205.988 354.076L205.6 349.802L212.971 348.593L217.245 347.894Z" fill="#F78C68"/>
<path d="M216.772 353.106L216.748 353.386L205.988 354.076L205.6 349.802L208.247 342.99L217.245 347.476L216.772 353.106Z" fill="#D34A28"/>
<path d="M224.564 192.475L221.909 350.618C221.902 351.027 221.735 351.418 221.443 351.705C221.151 351.993 220.758 352.154 220.348 352.155H206.577C206.185 352.155 205.807 352.007 205.519 351.742C205.23 351.476 205.052 351.112 205.02 350.721L204.673 346.532L204.654 346.291L197.494 260.79L207.404 191.746L224.564 192.475Z" fill="#025B95"/>
<path opacity="0.32" d="M193.023 270.886L205.231 233.759L202.992 219.194L193.023 270.886Z" fill="#002E55"/>
<path d="M206.029 133.628L188.076 116.592C188.076 116.592 192.856 115.12 194.251 101.933C194.282 101.658 194.309 101.378 194.336 101.093C194.405 100.333 194.463 99.5354 194.509 98.7021L206.029 104.136C206.093 105.926 206.368 107.703 206.85 109.428C207.004 110.005 207.187 110.61 207.405 111.238C208.096 113.261 209.05 115.185 210.242 116.959C214.455 123.187 206.029 133.628 206.029 133.628Z" fill="#F78C68"/>
<path d="M285.129 193.689C282.014 192.847 279.367 192.649 276.252 191.807L285.701 197.468C285.898 197.587 286.047 197.77 286.125 197.987C286.202 198.203 286.203 198.44 286.127 198.657C286.051 198.874 285.903 199.058 285.707 199.179C285.511 199.3 285.28 199.35 285.052 199.321C283.964 199.139 282.916 198.766 281.956 198.22C280.137 197.241 275.313 195.344 275.313 195.344C274.522 194.98 280.067 198.756 281.966 200.701C282.118 200.856 282.217 201.055 282.246 201.271C282.276 201.486 282.235 201.705 282.13 201.895C282.025 202.085 281.861 202.236 281.664 202.325C281.466 202.414 281.244 202.437 281.032 202.39C278.378 201.772 275.316 198.918 273.006 197.34C273.134 197.581 276.187 200.93 276.508 201.35C277.171 202.212 276.153 203.355 275.207 202.822C271.935 200.976 271.771 200.583 268.892 198.167C267.396 196.91 263.584 194.379 263.101 192.328C261.257 191.715 242.129 185.282 225.151 176.124C212.121 169.1 218.079 162.257 226.179 161.429C229.183 161.123 232.487 161.644 235.223 163.292V165.285L266.204 184.954C266.575 185.071 266.965 185.115 267.353 185.082C268.318 184.973 269.073 184.251 269.98 183.94C270.888 183.629 276.812 184.003 279.944 184.51C280.161 184.549 280.359 184.658 280.507 184.821C280.656 184.984 280.746 185.192 280.765 185.411C280.784 185.631 280.73 185.851 280.612 186.036C280.494 186.222 280.317 186.364 280.11 186.44C279.368 186.667 278.59 186.755 277.816 186.698C276.206 186.597 275.084 186.049 273.887 187.13C278.648 188.94 285.897 191.006 286.363 192.839C286.483 193.288 285.518 193.788 285.129 193.689Z" fill="#F78C68"/>
<path d="M182.708 347.894L181.407 362.254L172.03 360.461L171.451 354.076L171.062 349.802L178.434 348.593L182.708 347.894Z" fill="#F78C68"/>
<path d="M182.235 353.106L182.211 353.386L171.451 354.076L171.062 349.802L173.71 342.99L182.708 347.894L182.235 353.106Z" fill="#D34A28"/>
<path d="M207.405 191.734L202.675 224.689L185.634 346.481L185.588 346.723L184.823 350.794C184.751 351.163 184.544 351.491 184.241 351.714C183.939 351.938 183.564 352.04 183.19 352L171.016 350.736C170.642 350.697 170.296 350.52 170.047 350.239C169.797 349.958 169.662 349.594 169.667 349.218L169.732 344.797V344.556L167.245 249.707C167.138 245.651 167.219 241.597 167.486 237.545L170.804 188.237L207.405 191.734Z" fill="#025B95"/>
<path d="M206.85 109.428C198.986 111.204 195.615 105.7 194.252 101.933C194.283 101.658 194.31 101.378 194.336 101.093C194.406 100.333 194.463 99.5354 194.51 98.7021L206.03 104.136C206.094 105.926 206.369 107.703 206.85 109.428V109.428Z" fill="#D34A28"/>
<path d="M235.228 163.289V164.879L224.213 170.989L226.184 161.426C229.189 161.12 232.492 161.641 235.228 163.289Z" fill="#D34A28"/>
<path d="M193.086 93.8057C193.056 93.885 193.007 93.9556 192.943 94.0113C192.879 94.067 192.803 94.106 192.72 94.1249C192.637 94.1438 192.551 94.1419 192.47 94.1195C192.388 94.097 192.313 94.0547 192.252 93.9963C191.349 93.1324 189.554 91.9452 188.909 95.391C188.034 100.07 193.031 99.2519 193.429 99.8938C194.237 101.173 195.22 103.301 198.651 105.733C200.432 106.993 204.541 108.274 209.14 106.79C212.494 105.709 214.164 94.0011 211.739 79.3564C211.739 79.3564 210.564 81.5764 208.87 82.1483C207.176 82.7202 204.177 81.6947 202.249 81.1686C200.683 80.7415 197.748 79.3371 195.784 80.7777C194.609 81.2989 193.871 91.7787 193.086 93.8057Z" fill="#F78C68"/>
<path d="M188.805 96.6343C187.371 92.8887 186.846 88.8563 187.273 84.8683C187.435 83.4175 187.906 82.0184 188.655 80.7657C189.405 79.513 190.415 78.4359 191.617 77.6075C196.759 74.0579 206.691 69.4804 213.66 80.479C214.589 81.9461 214.207 85.667 212.605 86.3378C209.919 87.4575 205.366 86.7432 200.924 84.7284C200.59 84.5809 200.227 84.511 199.863 84.5239C199.498 84.5368 199.141 84.6322 198.819 84.8029C198.497 84.9736 198.217 85.2152 198.001 85.5095C197.786 85.8038 197.64 86.1431 197.574 86.5019C196.92 90.1601 195.6 95.3722 193.371 95.4133C193.371 95.4133 191.771 92.73 190.453 93.0799C189.136 93.4297 188.805 96.6343 188.805 96.6343Z" fill="#12192F"/>
<path opacity="0.32" d="M168.934 216.26L168.473 223.142C168.473 223.142 220.297 227.232 224.115 219.592L224.221 213.002L168.934 216.26Z" fill="#002E55"/>
<path d="M224.33 215.022C208.213 223.357 181.96 219.156 169.827 216.53C168.053 216.147 166.492 215.102 165.461 213.609C164.43 212.115 164.007 210.285 164.277 208.49L170.189 169.245L171.485 161.342C172.168 156.516 175.553 150.001 174.945 145.175C174.606 142.469 174.065 139.793 173.326 137.168L168.968 121.677C170.384 120.07 177.327 117.741 182.785 116.1C184.537 115.572 186.137 115.118 187.35 114.778C188.564 114.438 189.394 114.22 189.604 114.165L189.657 114.15C189.657 114.15 196.197 131.503 207.494 126.592C210.209 125.41 209.849 119.642 209.183 116.756C208.884 115.446 208.85 114.973 208.701 114.452C208.665 114.341 208.645 114.273 208.643 114.259C209.796 115.136 210.883 115.966 211.903 116.749L212.069 116.875C219.27 122.357 221.881 122.401 221.881 122.401L226.42 158C226.42 158 226.958 189.483 228.205 208.172C228.299 209.567 227.982 210.96 227.294 212.177C226.605 213.395 225.575 214.384 224.33 215.022V215.022Z" fill="#025B95"/>
<path d="M193.076 147.742H178.73V151.557H193.076V147.742Z" fill="#002E55"/>
<path d="M186.268 165.306L190.827 146.622L218.741 148.54L207.404 191.734L180.936 189.671L186.268 165.306Z" fill="#10192E"/>
<path d="M185.541 376.157H161.307C161.307 376.157 160.858 373.886 161.307 372.219C161.396 371.97 161.522 371.735 161.679 371.521C163.512 368.797 171.171 361.116 171.171 361.116C177.119 356.836 180.671 361.116 180.671 361.116C183.567 364.159 184.749 368.505 185.227 371.734C185.451 373.197 185.556 374.676 185.541 376.157V376.157Z" fill="#ECECEC"/>
<path d="M206.722 358.006L209.847 360.346H216.229C216.229 360.346 221.934 363.85 222.378 364.289C222.822 364.729 240.934 369.388 241.682 372.182C242.43 374.977 241.682 376.157 241.682 376.157L201.795 375.247C201.795 375.247 201.102 359.198 206.722 358.006Z" fill="#ECECEC"/>
<path d="M211.991 174.259C210.143 174.382 197.494 173.919 197.494 173.919C181.93 174.966 171.735 174.24 165.275 173.096C163.878 172.855 162.655 172.582 161.59 172.309C158.454 171.506 156.704 170.651 155.898 170.096C153.553 168.482 158.782 155.833 158.782 155.833L171.979 156.912L171.65 159.851L171.484 161.342L172.823 161.627L198.51 167.073H202.991C202.991 167.073 209.919 160.707 213.627 161.74C213.627 161.74 214.004 163.511 212.723 164.351C211.441 165.191 215.179 165.591 214.894 163.239C214.894 163.239 216.583 162.189 217.066 164.351C217.549 166.513 213.84 174.138 211.991 174.259Z" fill="#F78C68"/>
<path d="M178.292 143.31L174.089 161.627H155.904C158.769 138.158 168.973 121.677 168.973 121.677C174.559 122.181 178.292 143.31 178.292 143.31Z" fill="#025B95"/>
<path d="M230.999 136.994C232.268 144.578 235.772 156.091 238.094 163.296H224.233L221.883 122.407C221.883 122.407 229.037 125.257 230.999 136.994Z" fill="#025B95"/>
<path d="M172.824 161.627L165.276 173.096C163.879 172.855 162.656 172.582 161.592 172.309L160.301 166.166L171.36 159.409L171.652 159.851L171.485 161.342L172.824 161.627Z" fill="#D34A28"/>
<path d="M206.726 151.137H206.661L200.387 150.833C200.187 150.824 199.992 150.77 199.816 150.675C199.639 150.579 199.487 150.446 199.37 150.283C199.252 150.121 199.173 149.934 199.138 149.737C199.103 149.54 199.112 149.337 199.166 149.144L199.712 147.214L199.953 147.281L199.408 149.212C199.363 149.37 199.355 149.537 199.384 149.699C199.413 149.861 199.477 150.014 199.574 150.148C199.67 150.281 199.795 150.392 199.94 150.47C200.084 150.549 200.245 150.594 200.409 150.602L206.671 150.906C206.92 150.917 207.166 150.842 207.368 150.695C207.57 150.548 207.715 150.336 207.781 150.095L208.387 147.82L208.628 147.882L208.025 150.155C207.946 150.439 207.776 150.688 207.541 150.866C207.307 151.043 207.021 151.139 206.726 151.137V151.137Z" fill="#D7DDDC"/>
<path d="M221.976 346.448C218.637 346.83 215.279 347.026 211.919 347.037C207.988 347.037 205.616 346.699 204.679 346.528L204.66 346.287C206.108 346.557 211.757 347.344 221.988 346.202L221.976 346.448Z" fill="#D7DDDC"/>
<path d="M185.634 346.481L185.588 346.723C176.079 346.559 171.062 345.219 169.732 344.807V344.565C170.932 344.935 175.932 346.32 185.634 346.481Z" fill="#D7DDDC"/>
<path d="M284.221 223.951L286.754 221.381L283.161 217.841L280.628 220.411C280.165 220.881 279.907 221.516 279.912 222.177C279.917 222.837 280.184 223.468 280.654 223.931L280.7 223.977C281.171 224.44 281.806 224.698 282.466 224.693C283.126 224.688 283.757 224.421 284.221 223.951V223.951Z" fill="#E5ECF3"/>
<path d="M289.374 218.789C289.608 218.551 289.793 218.27 289.918 217.961C290.043 217.652 290.107 217.322 290.104 216.988C290.102 216.655 290.034 216.325 289.904 216.018C289.774 215.711 289.585 215.432 289.347 215.198L289.301 215.153C289.064 214.918 288.782 214.733 288.474 214.608C288.165 214.483 287.834 214.419 287.5 214.422C287.167 214.424 286.837 214.493 286.53 214.622C286.223 214.752 285.945 214.942 285.711 215.179L282.986 217.942C283.838 219.474 285.11 220.729 286.652 221.562L289.374 218.789Z" fill="#FF9C00"/>
<g style="mix-blend-mode:multiply">
<g style="mix-blend-mode:multiply">
<path d="M284.221 223.951L286.605 221.538C286.621 221.546 286.636 221.555 286.651 221.564L289.373 218.801C289.714 218.455 289.948 218.018 290.048 217.543C290.148 217.067 290.11 216.573 289.938 216.118C289.829 216.632 289.491 217.566 288.42 218.794C286.76 220.691 283.444 223.862 283.444 223.862C283.02 224.295 282.456 224.564 281.852 224.619C282.271 224.723 282.709 224.716 283.125 224.599C283.54 224.482 283.918 224.258 284.221 223.951V223.951Z" fill="#D9E0E7"/>
</g>
</g>
<g style="mix-blend-mode:screen" opacity="0.15">
<path d="M285.687 218.362C284.335 219.733 283.006 220.613 282.716 220.329C282.427 220.044 283.286 218.7 284.647 217.327C286.008 215.954 287.328 215.075 287.617 215.36C287.907 215.645 287.036 216.989 285.687 218.362Z" fill="#E5ECF3"/>
</g>
<path d="M256.662 261.642L259.075 264.335L262.837 260.976L260.424 258.283C259.984 257.791 259.367 257.493 258.707 257.456C258.048 257.419 257.401 257.645 256.908 258.085L256.86 258.126C256.368 258.566 256.07 259.184 256.033 259.843C255.996 260.502 256.222 261.149 256.662 261.642Z" fill="#E5ECF3"/>
<path d="M261.481 267.115C261.929 267.617 262.559 267.92 263.231 267.958C263.903 267.996 264.562 267.766 265.064 267.318L265.112 267.274C265.615 266.826 265.919 266.196 265.957 265.524C265.996 264.852 265.766 264.191 265.318 263.689L262.733 260.793C261.154 261.545 259.823 262.733 258.896 264.217L261.481 267.115Z" fill="#FF9C00"/>
<g style="mix-blend-mode:multiply">
<g style="mix-blend-mode:multiply">
<path d="M256.662 261.642L258.925 264.178L258.896 264.22L261.481 267.115C261.806 267.475 262.227 267.734 262.695 267.863C263.162 267.991 263.657 267.983 264.12 267.839C263.614 267.699 262.699 267.301 261.546 266.15C259.76 264.372 256.802 260.861 256.802 260.861C256.396 260.409 256.164 259.827 256.148 259.22C256.014 259.633 255.991 260.075 256.081 260.5C256.172 260.925 256.372 261.319 256.662 261.642Z" fill="#D9E0E7"/>
</g>
</g>
<g style="mix-blend-mode:screen" opacity="0.15">
<path d="M262.143 263.461C260.859 262.014 260.066 260.641 260.37 260.37C260.674 260.1 261.96 261.044 263.241 262.479C264.522 263.915 265.316 265.298 265.015 265.568C264.713 265.838 263.424 264.897 262.143 263.461Z" fill="#E5ECF3"/>
</g>
<path d="M130.904 345.222L125.161 358.45L116.414 355.559L118.275 347.56L119.247 343.381L126.626 344.546L130.904 345.222Z" fill="#F78C68"/>
<path d="M128.82 350.024L128.709 350.28L118.275 347.56L119.248 343.381L123.9 337.744L130.905 345.222L128.82 350.024Z" fill="#D34A28"/>
<path d="M100.855 118.484C100.855 118.484 88.9366 112.746 93.7748 101.976C98.6129 91.207 99.3247 86.8418 99.3247 86.8418L129.372 87.5947L129.36 93.7358C129.36 93.7358 130.615 100.541 132.436 103.904C134.258 107.268 135.503 123.38 100.855 118.484Z" fill="#F1B380"/>
<path d="M120.781 135.197L102.828 118.161C102.828 118.161 106.894 116.908 108.619 106.371C108.766 105.483 108.894 104.526 109.003 103.502C109.034 103.226 109.061 102.947 109.088 102.662C109.157 101.901 109.215 101.104 109.261 100.271L120.781 105.712C120.845 107.502 121.12 109.278 121.602 111.004C121.756 111.58 121.939 112.186 122.157 112.813C122.848 114.837 123.802 116.76 124.994 118.535C129.207 124.756 120.781 135.197 120.781 135.197Z" fill="#F78C68"/>
<path d="M110.109 348.096L108.806 362.458H99.5926L98.8494 354.28L98.4609 350.007L105.833 348.798L110.109 348.096Z" fill="#F78C68"/>
<path d="M109.636 353.308L109.609 353.588L98.8494 354.28L98.4609 350.007L101.11 343.192L110.109 348.096L109.636 353.308Z" fill="#D34A28"/>
<path d="M121.603 110.996C113.69 114.297 110.201 107.698 108.838 104.899C108.921 104.437 108.976 103.97 109.004 103.502C109.036 103.226 109.062 102.947 109.089 102.662C109.158 101.901 109.216 101.104 109.263 100.271L120.782 105.712C120.847 107.5 121.122 109.273 121.603 110.996V110.996Z" fill="#D34A28"/>
<path d="M107.201 97.1214C107.173 97.1961 107.127 97.2627 107.067 97.3152C107.007 97.3678 106.935 97.4047 106.858 97.4226C106.78 97.4405 106.699 97.4389 106.622 97.418C106.545 97.397 106.475 97.3573 106.417 97.3024C105.57 96.4868 103.881 95.372 103.28 98.6127C102.457 103.014 107.158 102.256 107.534 102.85C108.292 104.056 109.223 106.054 112.445 108.34C114.119 109.527 117.995 110.731 122.309 109.336C125.465 108.318 127.034 97.3145 124.756 83.5312C124.756 83.5312 123.648 85.6185 122.056 86.1566C120.463 86.6947 117.642 85.7319 115.828 85.2373C114.356 84.8343 111.593 83.5144 109.749 84.8681C108.635 85.3603 107.94 95.2152 107.201 97.1214Z" fill="#F78C68"/>
<path d="M130.892 346.467C130.86 346.546 130.829 346.624 130.8 346.708C130.636 347.128 130.486 347.512 130.351 347.852C130.138 348.392 129.74 348.839 129.227 349.111C128.714 349.384 128.121 349.466 127.554 349.341L119.35 347.541C118.74 347.407 118.204 347.044 117.854 346.528C117.503 346.011 117.363 345.38 117.463 344.763C117.543 344.281 117.632 343.73 117.731 343.118C117.745 343.038 117.757 342.958 117.772 342.876C120.055 328.844 127.289 283.967 127.084 279.836C126.925 276.634 120.921 264.899 116.773 257.153C115.122 254.062 113.764 251.603 113.19 250.566C112.993 250.214 112.888 249.818 112.883 249.415L112.227 202.916C112.221 202.519 112.312 202.127 112.491 201.774C112.671 201.42 112.934 201.115 113.257 200.886L130.298 188.821C130.628 188.587 131.012 188.439 131.414 188.39C131.815 188.341 132.223 188.393 132.6 188.54C132.977 188.688 133.311 188.927 133.573 189.236C133.834 189.545 134.015 189.914 134.099 190.31L143.2 233.448C143.2 233.496 143.22 233.544 143.227 233.595C143.512 235.525 149.318 274.976 150.297 285.048C151.159 293.839 135.568 334.513 130.892 346.467Z" fill="#002439"/>
<path d="M122.652 230.798L116.781 257.134L105.562 242.304L117.49 215.338L122.652 230.798Z" fill="#160907"/>
<path d="M118.178 224.752L112.881 347.575L112.869 347.817L112.783 349.841C112.757 350.434 112.511 350.996 112.093 351.417C111.674 351.837 111.114 352.087 110.522 352.117L98.5408 352.703C97.9255 352.734 97.3223 352.525 96.8582 352.12C96.394 351.715 96.1054 351.145 96.053 350.531L95.8672 348.376L95.8455 348.135L86.5963 240.914C86.5903 240.812 86.5903 240.708 86.5963 240.606L87.5302 219.465C87.5486 219.04 87.6808 218.628 87.913 218.271C88.1452 217.915 88.4688 217.627 88.8501 217.438L113.463 205.243C113.812 205.069 114.199 204.984 114.589 204.995C114.979 205.006 115.36 205.113 115.699 205.306C116.038 205.499 116.325 205.773 116.533 206.102C116.741 206.432 116.865 206.808 116.894 207.197L118.188 224.47C118.191 224.564 118.187 224.658 118.178 224.752V224.752Z" fill="#002439"/>
<path d="M107.963 219.737L137.356 205.72L130.009 182.123L100.973 214.465L107.963 219.737Z" fill="#160907"/>
<path d="M135.251 197.701C135.15 198.531 134.991 199.098 134.769 199.349L100.986 214.464L103.095 161.182L103.189 158.793L105.868 116.1L114.133 124.149C114.45 124.482 114.839 124.737 115.27 124.896C115.701 125.054 116.162 125.113 116.619 125.066C117.076 125.02 117.516 124.869 117.906 124.627C118.296 124.384 118.625 124.056 118.869 123.667L123.606 116.155C123.606 116.155 130.819 144.388 131.868 155.2C132.797 164.889 136.118 190.67 135.251 197.701Z" fill="#FC461E"/>
<path d="M135.251 197.702C135.15 198.532 134.991 199.099 134.769 199.35L100.986 214.465L103.095 161.183C105.689 156.055 107.557 152.942 107.557 152.942C107.557 152.942 112.711 186.1 133.179 196.321C133.929 196.685 134.626 197.15 135.251 197.702Z" fill="#D82E12"/>
<path d="M116.45 128.86C115.662 128.861 114.904 128.555 114.339 128.006L105.562 119.49L105.731 119.316L114.508 127.832C114.799 128.113 115.148 128.327 115.531 128.46C115.913 128.593 116.32 128.641 116.723 128.601C117.126 128.56 117.515 128.433 117.864 128.227C118.212 128.022 118.512 127.743 118.742 127.41L124.292 119.333L124.493 119.471L118.943 127.547C118.693 127.911 118.367 128.215 117.987 128.44C117.608 128.664 117.183 128.802 116.744 128.845C116.65 128.855 116.549 128.86 116.45 128.86Z" fill="#D7DDDC"/>
<path d="M84.5061 121.677C84.5061 121.677 93.7601 128.093 92.6187 143.307C91.4774 158.521 90.0102 161.627 90.0102 161.627C90.0102 161.627 91.0141 175.113 87.035 184.488C87.035 184.488 68.6091 226.014 67.3422 233.528C66.0754 241.042 74.3931 242.106 74.3931 242.106L95.1934 243.622C95.1934 243.622 107.666 176.469 107.939 171.262C108.212 166.055 106.115 114.575 106.115 114.575C106.115 114.575 88.6734 118.984 84.5061 121.677Z" fill="#ECECEC"/>
<path d="M104.808 96.4358C105.123 96.4545 105.43 96.5417 105.708 96.6913C105.986 96.841 106.228 97.0494 106.417 97.3021C107.141 98.1901 107.436 96.373 107.566 95.6129C107.696 94.8528 116.921 95.0579 119.653 87.3724C119.653 87.3724 123.535 95.3137 129.358 93.7356C129.358 93.7356 131.383 82.4233 123.345 78.0171C115.307 73.6109 100.952 76.9192 98.9274 88.55C96.9029 100.181 104.808 96.4358 104.808 96.4358Z" fill="#F1B380"/>
<path d="M191.857 141.924C189.232 144.171 182.032 147.602 178.135 149.376C176.578 150.085 175.55 150.529 175.55 150.529L171.885 143.307C171.885 143.307 172.23 142.863 172.799 142.161C175.099 139.321 181.071 132.243 182.784 133.146C184.794 134.207 181.38 136.968 180.975 137.286C181.595 136.828 189.292 131.206 191.401 133.068C193.6 135.008 195.523 138.77 191.857 141.924Z" fill="#F78C68"/>
<path d="M178.127 149.388C176.571 150.098 175.543 150.542 175.543 150.542L171.885 143.307C171.885 143.307 172.23 142.863 172.799 142.161L178.127 149.388Z" fill="#D34A28"/>
<path d="M124.994 118.527C124.994 118.527 139.448 122.523 141.516 129.159C143.584 135.795 149.962 160.596 149.962 160.596L168.125 144.188C168.125 144.188 170.842 141.774 171.877 143.3C172.912 144.825 177.767 152.935 177.767 152.935C177.767 152.935 151.559 188.72 146.974 189.116C142.39 189.511 136.755 187.301 134.39 179.097C132.026 170.893 124.994 118.527 124.994 118.527Z" fill="#ECECEC"/>
<path d="M68.089 197.151L112.899 197.745L106.625 233.528L60.2949 229.763C60.2949 229.763 64.6215 199.408 68.089 197.151Z" fill="#FF9C00"/>
<path d="M97.1874 228.294C97.1127 228.433 97.0006 228.549 96.8638 228.628C96.727 228.708 96.5709 228.747 96.4128 228.743C94.6489 228.934 93.4279 223.28 93.3531 222.932L93.6475 225.881C93.8829 228.599 94.5339 231.265 95.5779 233.786C95.6985 234.084 95.7418 234.407 95.704 234.726C95.6661 235.044 95.5483 235.348 95.3615 235.609C95.1746 235.87 94.9248 236.08 94.6353 236.218C94.3458 236.357 94.0259 236.42 93.7054 236.402C91.968 236.301 90.0207 235.437 87.0985 232.819C83.8361 229.904 82.5017 222.298 82.0022 218.147C81.7995 216.458 81.7344 215.351 81.7344 215.351L88.0806 211.323C88.0806 211.323 88.9879 212.288 92.5641 216.825L93.2711 217.723C97.4408 223.007 97.4891 227.797 97.1874 228.294Z" fill="#F78C68"/>
<path d="M92.5621 216.812C89.4758 219.334 83.9283 218.518 82.0003 218.135C81.7976 216.445 81.7324 215.338 81.7324 215.338L88.0787 211.311C88.0787 211.311 88.986 212.285 92.5621 216.812Z" fill="#D34A28"/>
<path d="M84.5056 121.677C84.5056 121.677 68.5048 166.397 68.5 169.175C68.5 171.573 76.4461 205.455 78.6347 214.718C78.7862 215.361 79.1673 215.927 79.7062 216.308C80.2452 216.69 80.9051 216.862 81.5617 216.791L92.1791 215.66C92.5615 215.619 92.931 215.498 93.263 215.303C93.5949 215.109 93.8818 214.847 94.1045 214.533C94.3273 214.219 94.4808 213.862 94.5548 213.485C94.6289 213.107 94.6219 212.718 94.5342 212.344L84.4767 169.324C84.3141 168.627 84.4338 167.894 84.8097 167.285L96.4043 148.445C96.4043 148.445 95.789 122.174 84.5056 121.677Z" fill="#ECECEC"/>
<path d="M131.648 133.628C131.648 133.628 136.768 139.714 137.357 147.216C137.946 154.718 136.457 173.641 137.357 178.042C138.257 182.444 154.214 233.67 153.42 237.946C152.627 242.222 138.416 251.287 130.014 247.385C130.014 247.385 133.634 200.261 133.344 186.693C133.054 173.124 129.592 140.539 129.592 140.539L131.648 133.628Z" fill="#ECECEC"/>
<path d="M100.855 118.484L106.115 114.575C106.115 114.575 111.701 174.452 105.15 184.488C105.15 184.488 102.768 152.877 99.4263 149.533L103.179 142.743L97.6816 142.311C97.6816 142.311 102.008 124.461 100.855 118.484Z" fill="#D7DDDC"/>
<path d="M114.362 364.097C114.362 364.097 112.366 358.976 114.362 356.225C116.357 353.475 117.238 352.02 117.238 352.02C117.238 352.02 121.34 356.394 123.83 355.277C126.321 354.16 127.534 353.619 127.534 353.619L143.195 372.834C143.195 372.834 144.131 377.207 138.024 374.743C131.916 372.279 114.362 364.097 114.362 364.097Z" fill="#170A08"/>
<path d="M122.963 114.853C122.963 114.853 130.412 151.123 131.353 159.643C132.294 168.164 133.479 188.262 133.479 188.262L137.656 147.216L132.041 143.307L135.694 142.149L125.294 118.54L122.963 114.853Z" fill="#D7DDDC"/>
<path d="M99.4109 359.734L107.338 361.532L108.805 361.735C108.805 361.735 110.011 359.964 113.988 360.912C115.511 361.276 117.436 362.039 119.857 363.453C128.584 368.559 137.672 372.009 138.022 374.02C138.065 374.266 138.053 374.519 137.988 374.76C137.923 375.002 137.806 375.226 137.645 375.418C137.484 375.609 137.283 375.763 137.057 375.869C136.83 375.975 136.583 376.029 136.333 376.03H99.4133C99.4133 376.03 96.0785 373.317 97.0244 370.361C97.9703 367.405 99.4109 359.734 99.4109 359.734Z" fill="#002439"/>
<path d="M112.882 347.572L112.87 347.814C109.776 348.537 106.26 348.743 103.189 348.743C99.8779 348.743 97.0812 348.501 95.8674 348.373L95.8457 348.132C98.1115 348.376 106.437 349.09 112.882 347.572Z" fill="#ECECEC"/>
<path d="M130.892 346.468C130.86 346.547 130.829 346.624 130.8 346.709C125.911 346.098 120.704 344.281 117.738 343.118C117.753 343.039 117.765 342.959 117.779 342.877C120.738 344.03 125.981 345.867 130.892 346.468Z" fill="#ECECEC"/>
<path d="M305.244 299.618H243.806C240.577 299.618 237.959 302.236 237.959 305.465V322.045C237.959 325.274 240.577 327.892 243.806 327.892H305.244C308.473 327.892 311.091 325.274 311.091 322.045V305.465C311.091 302.236 308.473 299.618 305.244 299.618Z" fill="#160907"/>
<path d="M302.271 296.37H240.833C237.604 296.37 234.986 298.988 234.986 302.217V318.797C234.986 322.026 237.604 324.644 240.833 324.644H302.271C305.5 324.644 308.118 322.026 308.118 318.797V302.217C308.118 298.988 305.5 296.37 302.271 296.37Z" fill="#FF9C00"/>
<path d="M264.563 314.197L265.257 315.609C265.264 315.62 265.272 315.63 265.283 315.637C265.293 315.645 265.305 315.65 265.318 315.652L266.874 315.877C266.889 315.879 266.902 315.885 266.913 315.895C266.925 315.905 266.933 315.917 266.937 315.931C266.942 315.945 266.942 315.96 266.939 315.974C266.935 315.988 266.928 316.002 266.918 316.012L265.791 317.11C265.782 317.119 265.776 317.13 265.772 317.142C265.768 317.154 265.767 317.167 265.769 317.18L266.034 318.731C266.037 318.746 266.035 318.761 266.03 318.774C266.024 318.788 266.015 318.799 266.003 318.808C265.992 318.817 265.978 318.822 265.963 318.823C265.949 318.825 265.934 318.822 265.921 318.816L264.526 318.092C264.515 318.086 264.503 318.083 264.49 318.083C264.477 318.083 264.465 318.086 264.454 318.092L263.062 318.816C263.048 318.822 263.034 318.824 263.019 318.823C263.005 318.822 262.991 318.816 262.979 318.808C262.967 318.799 262.958 318.787 262.952 318.774C262.946 318.761 262.944 318.746 262.946 318.731L263.214 317.18C263.215 317.167 263.214 317.154 263.209 317.142C263.205 317.13 263.198 317.119 263.189 317.11L262.063 316.012C262.052 316.002 262.045 315.988 262.041 315.974C262.038 315.96 262.038 315.945 262.043 315.931C262.047 315.917 262.056 315.905 262.067 315.895C262.078 315.885 262.092 315.879 262.106 315.877L263.665 315.652C263.677 315.65 263.689 315.645 263.699 315.637C263.709 315.63 263.717 315.62 263.723 315.609L264.42 314.197C264.427 314.184 264.437 314.173 264.449 314.165C264.462 314.157 264.477 314.153 264.491 314.153C264.506 314.153 264.521 314.157 264.533 314.165C264.546 314.173 264.556 314.184 264.563 314.197V314.197Z" fill="#ECECEC"/>
<path d="M271.171 314.198L271.869 315.61C271.875 315.621 271.884 315.631 271.894 315.638C271.905 315.646 271.916 315.651 271.929 315.653L273.486 315.877C273.5 315.88 273.514 315.886 273.525 315.896C273.536 315.905 273.544 315.918 273.549 315.932C273.553 315.946 273.554 315.961 273.55 315.975C273.547 315.989 273.539 316.002 273.529 316.012L272.402 317.11C272.393 317.119 272.386 317.13 272.382 317.143C272.379 317.155 272.378 317.168 272.38 317.18L272.646 318.732C272.648 318.746 272.646 318.761 272.641 318.775C272.636 318.788 272.626 318.8 272.615 318.809C272.603 318.817 272.589 318.823 272.575 318.824C272.56 318.825 272.545 318.823 272.532 318.816L271.138 318.093C271.126 318.087 271.114 318.084 271.101 318.084C271.089 318.084 271.076 318.087 271.065 318.093L269.671 318.816C269.657 318.823 269.643 318.825 269.628 318.824C269.614 318.823 269.6 318.817 269.588 318.809C269.576 318.8 269.567 318.788 269.562 318.775C269.556 318.761 269.555 318.746 269.557 318.732L269.823 317.18C269.825 317.168 269.824 317.155 269.82 317.143C269.817 317.13 269.81 317.119 269.801 317.11L268.674 316.012C268.663 316.002 268.656 315.989 268.653 315.975C268.649 315.961 268.65 315.946 268.654 315.932C268.659 315.918 268.667 315.905 268.678 315.896C268.689 315.886 268.703 315.88 268.717 315.877L270.274 315.653C270.286 315.651 270.298 315.646 270.309 315.638C270.319 315.631 270.328 315.621 270.334 315.61L271.031 314.198C271.038 314.185 271.048 314.173 271.06 314.165C271.072 314.158 271.087 314.153 271.101 314.153C271.116 314.153 271.131 314.158 271.143 314.165C271.155 314.173 271.165 314.185 271.171 314.198V314.198Z" fill="#ECECEC"/>
<path d="M278.037 314.197L278.734 315.609C278.74 315.62 278.748 315.63 278.758 315.637C278.768 315.645 278.78 315.65 278.792 315.652L280.351 315.877C280.365 315.879 280.379 315.885 280.39 315.895C280.401 315.905 280.41 315.917 280.414 315.931C280.419 315.945 280.419 315.96 280.416 315.974C280.412 315.988 280.405 316.002 280.394 316.012L279.267 317.11C279.258 317.119 279.251 317.13 279.247 317.142C279.243 317.154 279.241 317.167 279.243 317.18L279.511 318.731C279.513 318.746 279.511 318.761 279.505 318.774C279.499 318.787 279.49 318.799 279.478 318.808C279.466 318.816 279.452 318.822 279.438 318.823C279.423 318.824 279.409 318.822 279.395 318.816L278.003 318.092C277.991 318.086 277.979 318.083 277.966 318.083C277.953 318.083 277.94 318.086 277.928 318.092L276.536 318.816C276.523 318.822 276.508 318.825 276.494 318.823C276.479 318.822 276.465 318.817 276.453 318.808C276.442 318.799 276.433 318.788 276.427 318.774C276.422 318.761 276.42 318.746 276.422 318.731L276.688 317.18C276.69 317.167 276.689 317.154 276.685 317.142C276.681 317.13 276.675 317.119 276.666 317.11L275.537 316.012C275.526 316.001 275.519 315.988 275.516 315.974C275.512 315.959 275.513 315.944 275.518 315.93C275.523 315.916 275.531 315.904 275.543 315.894C275.554 315.885 275.568 315.879 275.583 315.877L277.139 315.652C277.152 315.65 277.164 315.645 277.174 315.637C277.185 315.63 277.193 315.62 277.199 315.609L277.894 314.197C277.901 314.184 277.911 314.173 277.924 314.165C277.936 314.157 277.951 314.153 277.966 314.153C277.98 314.153 277.995 314.157 278.007 314.165C278.02 314.173 278.03 314.184 278.037 314.197Z" fill="#ECECEC"/>
<path d="M285.168 314.197L285.863 315.609C285.869 315.62 285.878 315.63 285.888 315.637C285.899 315.645 285.911 315.65 285.923 315.652L287.48 315.877C287.494 315.879 287.508 315.885 287.52 315.894C287.531 315.904 287.54 315.916 287.544 315.93C287.549 315.944 287.55 315.959 287.547 315.974C287.543 315.988 287.536 316.001 287.525 316.012L286.396 317.11C286.388 317.119 286.381 317.13 286.377 317.142C286.374 317.154 286.373 317.167 286.374 317.18L286.64 318.731C286.642 318.746 286.641 318.761 286.635 318.774C286.63 318.788 286.621 318.799 286.609 318.808C286.597 318.817 286.583 318.822 286.569 318.823C286.554 318.825 286.54 318.822 286.526 318.816L285.132 318.092C285.121 318.086 285.108 318.083 285.096 318.083C285.083 318.083 285.071 318.086 285.059 318.092L283.667 318.816C283.654 318.822 283.639 318.824 283.625 318.823C283.61 318.822 283.596 318.816 283.584 318.808C283.573 318.799 283.563 318.787 283.557 318.774C283.552 318.761 283.549 318.746 283.551 318.731L283.819 317.18C283.82 317.167 283.819 317.154 283.815 317.142C283.811 317.13 283.804 317.119 283.795 317.11L282.668 316.012C282.658 316.002 282.65 315.988 282.647 315.974C282.643 315.96 282.644 315.945 282.648 315.931C282.653 315.917 282.661 315.905 282.672 315.895C282.683 315.885 282.697 315.879 282.712 315.877L284.27 315.652C284.283 315.65 284.294 315.645 284.304 315.637C284.314 315.63 284.323 315.62 284.328 315.609L285.026 314.197C285.032 314.184 285.042 314.173 285.055 314.165C285.068 314.157 285.082 314.153 285.097 314.153C285.112 314.153 285.126 314.157 285.139 314.165C285.151 314.173 285.161 314.184 285.168 314.197Z" fill="#ECECEC"/>
<path d="M292.084 314.198L292.781 315.61C292.787 315.62 292.795 315.63 292.805 315.638C292.815 315.645 292.827 315.65 292.839 315.653L294.398 315.877C294.412 315.88 294.426 315.886 294.437 315.896C294.448 315.905 294.456 315.918 294.461 315.932C294.465 315.946 294.466 315.961 294.462 315.975C294.459 315.989 294.451 316.002 294.441 316.012L293.314 317.11C293.305 317.119 293.298 317.13 293.294 317.143C293.291 317.155 293.29 317.168 293.292 317.18L293.558 318.732C293.56 318.746 293.559 318.761 293.553 318.775C293.548 318.788 293.539 318.8 293.527 318.809C293.515 318.817 293.501 318.823 293.487 318.824C293.472 318.825 293.458 318.823 293.444 318.816L292.05 318.093C292.039 318.087 292.026 318.084 292.014 318.084C292.001 318.084 291.988 318.087 291.977 318.093L290.583 318.816C290.569 318.823 290.555 318.825 290.54 318.824C290.526 318.823 290.512 318.817 290.5 318.809C290.489 318.8 290.479 318.788 290.474 318.775C290.469 318.761 290.467 318.746 290.469 318.732L290.735 317.18C290.737 317.168 290.736 317.155 290.733 317.143C290.729 317.13 290.722 317.119 290.713 317.11L289.586 316.012C289.576 316.002 289.568 315.989 289.565 315.975C289.561 315.961 289.562 315.946 289.566 315.932C289.571 315.918 289.579 315.905 289.59 315.896C289.601 315.886 289.615 315.88 289.629 315.877L291.186 315.653C291.199 315.651 291.21 315.646 291.221 315.638C291.231 315.631 291.24 315.621 291.246 315.61L291.944 314.198C291.95 314.185 291.96 314.173 291.972 314.165C291.984 314.158 291.999 314.153 292.014 314.153C292.028 314.153 292.043 314.158 292.055 314.165C292.067 314.173 292.077 314.185 292.084 314.198V314.198Z" fill="#ECECEC"/>
<path d="M270.96 302.268H262.483C262.017 302.268 261.639 302.646 261.639 303.112V303.115C261.639 303.581 262.017 303.959 262.483 303.959H270.96C271.427 303.959 271.805 303.581 271.805 303.115V303.112C271.805 302.646 271.427 302.268 270.96 302.268Z" fill="#ECECEC"/>
<path d="M284.507 307.817H262.483C262.017 307.817 261.639 308.196 261.639 308.662V308.664C261.639 309.131 262.017 309.509 262.483 309.509H284.507C284.973 309.509 285.352 309.131 285.352 308.664V308.662C285.352 308.196 284.973 307.817 284.507 307.817Z" fill="#ECECEC"/>
<path d="M255.593 310.624C255.593 312.134 255.146 313.61 254.308 314.866C253.469 316.121 252.277 317.1 250.882 317.678C249.488 318.256 247.953 318.407 246.472 318.113C244.991 317.818 243.631 317.091 242.564 316.024C241.496 314.956 240.769 313.596 240.475 312.115C240.18 310.634 240.332 309.099 240.91 307.705C241.488 306.31 242.466 305.118 243.722 304.28C244.977 303.441 246.453 302.994 247.963 302.994C248.966 302.989 249.961 303.184 250.888 303.565C251.816 303.947 252.659 304.509 253.369 305.218C254.078 305.928 254.64 306.771 255.022 307.699C255.404 308.627 255.598 309.621 255.593 310.624Z" fill="#160907"/>
<path d="M247.962 310.853C249.237 310.853 250.271 309.819 250.271 308.544C250.271 307.268 249.237 306.234 247.962 306.234C246.686 306.234 245.652 307.268 245.652 308.544C245.652 309.819 246.686 310.853 247.962 310.853Z" fill="#ECECEC"/>
<path d="M253.465 315.911C252.752 316.652 251.898 317.241 250.952 317.644C250.007 318.046 248.99 318.254 247.962 318.254C246.934 318.254 245.917 318.046 244.972 317.644C244.026 317.241 243.171 316.652 242.459 315.911C242.92 314.833 243.687 313.914 244.665 313.268C245.643 312.623 246.79 312.278 247.962 312.278C249.134 312.278 250.281 312.623 251.259 313.268C252.237 313.914 253.004 314.833 253.465 315.911V315.911Z" fill="#ECECEC"/>
<path d="M63.1089 349.785L61.9023 349.766C61.9023 349.645 62.1195 337.754 63.7073 323.222C65.172 309.787 68.1424 291.274 73.9723 279.38L75.0558 279.911C64.0355 302.398 63.1161 349.314 63.1089 349.785Z" fill="#3F4F21"/>
<path d="M61.9021 348.76C60.254 305.97 64.5178 263.503 64.5564 263.078L65.7629 263.201C65.7195 263.623 61.4653 306.011 63.1086 348.714L61.9021 348.76Z" fill="#3F4F21"/>
<path d="M62.5197 330.78H61.3132C61.4845 312.837 59.0884 298.284 57.047 289.235C54.8342 279.429 52.5515 273.792 52.5273 273.739L53.6446 273.28C53.7435 273.495 62.8575 296.18 62.5197 330.78Z" fill="#3F4F21"/>
<path d="M62.0022 341.687C61.1987 314.608 52.852 308.966 52.7676 308.91L53.4167 307.895C53.7835 308.136 62.3859 313.942 63.2088 341.653L62.0022 341.687Z" fill="#3F4F21"/>
<path d="M49.9299 346.723H75.0785C75.4337 346.723 75.7743 346.864 76.0255 347.115C76.2766 347.366 76.4177 347.707 76.4177 348.062V350.246C76.4177 350.585 76.351 350.92 76.2214 351.233C76.0917 351.546 75.9017 351.83 75.6622 352.07C75.4227 352.309 75.1383 352.499 74.8253 352.629C74.5124 352.759 74.1769 352.825 73.8382 352.825H51.1557C50.4716 352.825 49.8155 352.554 49.3317 352.07C48.8479 351.586 48.5762 350.93 48.5762 350.246V348.062C48.5762 347.885 48.6113 347.71 48.6795 347.546C48.7477 347.383 48.8476 347.234 48.9735 347.11C49.0994 346.985 49.2488 346.887 49.4129 346.82C49.5771 346.754 49.7528 346.721 49.9299 346.723Z" fill="#BA462B"/>
<path d="M74.511 349.78L72.2669 372.12L71.8518 376.246H53.2305L51.5776 358.964L50.6992 349.78H74.511Z" fill="#BA462B"/>
<path opacity="0.48" d="M72.2675 372.111L71.8524 376.237H53.2311L51.5781 358.955C55.1108 363.834 61.8625 370.774 72.2675 372.111Z" fill="#59332B"/>
<path d="M54.4616 279.38C54.4616 279.38 48.0743 277.496 40.1596 269.086C32.2448 260.677 25.8189 257.948 24.6607 240.531L23.5 223.113C23.5 223.113 35.6182 227.107 37.6476 230.767C39.677 234.428 50.2557 238.957 52.5336 251.247C52.5336 251.247 54.4302 258.952 56.2738 261.881C58.1173 264.81 58.0691 272.839 54.4616 279.38Z" fill="#606D29"/>
<path d="M0 305.918C0 305.918 9.5001 291.831 17.4173 290.586C25.3344 289.341 42.4911 285.222 50.6954 296.973C58.8997 308.725 58.1878 314.589 58.1878 314.589C58.1878 314.589 48.736 305.455 38.3817 305.926C28.0274 306.396 21.9393 307.434 17.4655 305.926C12.9918 304.418 1.00865 304.13 0 305.918Z" fill="#3F4F21"/>
<path d="M69.3474 291.954C69.3474 291.954 67.0695 292.866 68.4763 284.956C69.8831 277.047 70.1123 276.214 70.0979 271.986C70.0834 267.759 73.1745 262.023 75.9108 261.765C78.6472 261.507 83.092 252.231 87.0711 251.251C91.0502 250.272 98.1324 248.505 103.111 249.111C103.111 249.111 100.403 257.827 94.9352 259.337C89.4673 260.848 91.1395 266.313 90.2418 269.554C89.3442 272.795 84.6919 285.495 78.7341 287.256C72.7763 289.018 74.2555 293.496 69.3474 291.954Z" fill="#606D29"/>
<path d="M64.5601 264.535C64.5601 264.535 53.868 239.908 61.5221 228.94C69.1762 217.973 72.6076 209.313 97.2953 211.909C97.2953 211.909 79.8177 227.594 76.2054 237.695C72.5931 247.796 67.5861 263.99 64.5601 264.535Z" fill="#3F4F21"/>
<path d="M69.7246 290.2C69.7246 290.2 79.7459 257.368 100.973 251.246C100.973 251.246 82.5619 257.16 69.7246 290.2Z" fill="#3F4F21"/>
<path d="M94.5448 212.349C94.5448 212.349 58.0163 216.369 64.5604 263.078C64.5604 263.078 56.0666 224.571 94.5448 212.349Z" fill="#606D29"/>
<path d="M23.5 223.113C23.5 223.113 50.9506 265.158 54.4616 279.38C54.4616 279.38 26.2581 223.039 23.5 223.113Z" fill="#3F4F21"/>
<path d="M0 305.919C0 305.919 34.4195 276.697 58.1927 314.581C58.1927 314.581 39.6461 278.854 0 305.919Z" fill="#606D29"/>
<path d="M394.223 370.033L372.17 370.694C372.751 367.642 373.97 363.957 376.513 361.283C376.513 361.283 380.065 357.005 386.013 361.283C386.018 361.281 391.416 366.679 394.223 370.033Z" fill="#025B95"/>
<path d="M40.4883 375.496L423.287 376.247" stroke="#ECECEC" stroke-width="1.20652" stroke-miterlimit="10"/>
<path d="M403.968 346.521H432.015C432.37 346.521 432.711 346.662 432.962 346.913C433.213 347.164 433.354 347.505 433.354 347.86V350.044C433.354 350.382 433.288 350.718 433.158 351.031C433.028 351.344 432.838 351.628 432.599 351.868C432.359 352.107 432.075 352.297 431.762 352.427C431.449 352.556 431.114 352.623 430.775 352.623H405.197C404.513 352.623 403.856 352.351 403.373 351.868C402.889 351.384 402.617 350.728 402.617 350.044V347.86C402.617 347.683 402.652 347.508 402.72 347.344C402.788 347.181 402.888 347.033 403.014 346.909C403.139 346.784 403.288 346.686 403.452 346.619C403.616 346.552 403.792 346.519 403.968 346.521V346.521Z" fill="#BA462B"/>
<path d="M431.249 349.577L428.771 371.917L428.315 376.043H407.754L405.927 358.761L404.957 349.577H431.249Z" fill="#BA462B"/>
<path opacity="0.48" d="M428.772 371.918L428.316 376.044H407.754L405.928 358.762C409.83 363.631 417.283 370.571 428.772 371.918Z" fill="#59332B"/>
<path d="M413.639 280.853C413.639 280.853 417.555 329.475 417.35 346.521" stroke="#3F4F21" stroke-width="1.20652" stroke-miterlimit="10"/>
<path d="M416.992 331.791C416.992 331.791 428.435 322.882 428.78 308.901" stroke="#3F4F21" stroke-width="1.20652" stroke-miterlimit="10"/>
<path d="M414.822 296.462C414.822 296.462 423.7 283.14 424.532 263.92" stroke="#3F4F21" stroke-width="1.20652" stroke-miterlimit="10"/>
<path d="M407.598 297.85C407.598 297.85 408.681 310.301 415.498 313.686" stroke="#3F4F21" stroke-width="1.20652" stroke-miterlimit="10"/>
<path d="M407.598 316.569C407.598 316.569 412.301 325.442 416.729 326.528" stroke="#3F4F21" stroke-width="1.20652" stroke-miterlimit="10"/>
<path d="M428.542 311.768C428.542 311.768 418.999 295.914 425.463 280.191C431.928 264.467 436.264 261.538 437.726 266.436C439.189 271.335 442.707 301.618 428.542 311.768Z" fill="#606D29"/>
<path d="M421.562 215.956C421.562 215.956 420.355 220.111 420.575 231.549C420.794 242.986 416.326 239.965 417.358 246.42C418.391 252.875 420.737 266.086 424.53 265.271C428.323 264.455 431.952 254.895 431.212 245.551C430.471 236.208 428.316 234.813 428.772 230.306C429.228 225.798 425.879 211.791 421.562 215.956Z" fill="#3F4F21"/>
<path d="M400.518 236.472C400.518 236.472 397.796 253.477 402.629 259.42C407.462 265.363 402.781 278.686 413.999 285.466C413.999 285.466 419.991 281.33 419.409 272.359C419.12 268.423 417.56 264.688 414.962 261.717C412.735 259.13 409.738 255.011 409.6 251.43C409.381 245.702 402.713 232.063 400.518 236.472Z" fill="#606D29"/>
<path d="M393.786 271.183C393.541 271.157 393.294 271.186 393.063 271.269C392.832 271.351 392.622 271.485 392.449 271.659C392.276 271.834 392.145 272.045 392.065 272.277C391.984 272.509 391.957 272.756 391.985 273C392.668 279.033 396.013 301.599 407.598 300.945C419.928 300.248 402.376 272.151 393.786 271.183Z" fill="#3F4F21"/>
<path d="M396.614 305.347C396.855 309.782 398.643 319.753 409.601 320.346C409.601 320.346 415.761 318.447 410.612 312.434C406.946 308.158 401.404 305.316 398.51 304.032C398.298 303.938 398.066 303.9 397.835 303.922C397.604 303.944 397.383 304.025 397.193 304.157C397.002 304.289 396.849 304.468 396.747 304.676C396.646 304.885 396.6 305.116 396.614 305.347V305.347Z" fill="#606D29"/>
<path d="M398.693 172.07C398.532 172.519 398.343 172.997 398.126 173.504C395.143 180.697 378.655 211.972 378.655 211.972L380.983 215.954L369.859 208.715L385.061 170.663L386.731 166.482L399.762 165.128C399.762 165.128 400.922 166.156 398.693 172.07Z" fill="#F78C68"/>
<path d="M398.693 172.07C393.372 172.268 387.27 171.131 385.055 170.67L386.725 166.488L399.755 165.135C399.755 165.135 400.923 166.155 398.693 172.07Z" fill="#D34A28"/>
<path d="M397.374 168.73L388.248 168.298C386.926 168.236 385.656 167.763 384.615 166.945C383.575 166.127 382.815 165.005 382.442 163.735C381.028 158.909 379.354 152.505 379.354 149.149C379.354 143.34 388.617 123.006 388.617 123.006C396.723 142.291 400.388 155.21 401.981 163.414C402.108 164.08 402.084 164.765 401.908 165.419C401.733 166.073 401.411 166.679 400.968 167.191C400.524 167.702 399.97 168.107 399.348 168.374C398.725 168.64 398.05 168.762 397.374 168.73Z" fill="#025B95"/>
<path opacity="0.67" d="M370.699 116.722C370.796 120.897 364.239 130.788 354.686 131.63C346.388 132.354 346.892 120.161 347.167 116.937C349.609 115.569 351.371 114.604 351.371 114.604L350.012 118.706C349.744 120.959 349.496 124.034 352.264 127.923C352.536 128.305 352.881 128.63 353.279 128.879C353.677 129.127 354.12 129.295 354.582 129.372C355.045 129.449 355.519 129.435 355.976 129.329C356.433 129.223 356.865 129.029 357.246 128.756C359.314 127.299 361.251 125.667 363.038 123.877C363.762 123.153 364.917 121.403 365.18 120.414C365.351 119.811 365.57 119.223 365.834 118.655L367.205 115.501L370.699 116.722Z" fill="#002E55"/>
<path opacity="0.67" d="M335.954 148.108L335.857 151.327H348.473V148.108H335.954Z" fill="#002E55"/>
<path opacity="0.67" d="M212.21 122.582C211.754 126.534 208.861 129.84 204.959 130.622C196.156 132.383 189.822 120.441 187.344 114.778C188.55 114.44 189.388 114.22 189.598 114.165L189.651 114.15C189.651 114.15 196.19 131.503 207.488 126.592C210.202 125.41 209.843 119.642 209.177 116.756C208.878 115.446 208.844 114.973 208.694 114.452C208.658 114.341 208.639 114.273 208.636 114.259C209.79 115.136 210.876 115.966 211.896 116.749L212.063 116.875C212.378 118.761 212.427 120.682 212.21 122.582V122.582Z" fill="#002E55"/>
</g>
</g>
<defs>
<clipPath id="clip0_1556_1595">
<rect width="458" height="411" rx="20" fill="white"/>
</clipPath>
<clipPath id="clip1_1556_1595">
<rect width="439.205" height="343.85" fill="white" transform="translate(0 33)"/>
</clipPath>
</defs>
</svg>
