<svg width="100%" viewBox="0 0 456 449" fill="none" xmlns="http://www.w3.org/2000/svg">
<g clip-path="url(#clip0_1556_1934)">
<g clip-path="url(#clip1_1556_1934)">
<path d="M340.758 419.91V435.051H330.087L328.791 427.969L327.924 423.228L336.047 421.127L340.758 419.91Z" fill="#F78C68"/>
<path d="M340.758 425.79V426.104L328.791 427.969L327.924 423.228L330.195 415.338L336.047 421.128L340.758 425.79Z" fill="#D34A28"/>
<path d="M313.174 292.991L323.108 421.743C323.165 422.493 323.458 423.206 323.945 423.779C324.432 424.353 325.088 424.758 325.819 424.936C329.296 425.773 335.758 427.015 341.285 426.318C342.133 426.208 342.913 425.798 343.483 425.162C344.054 424.526 344.377 423.706 344.394 422.851L347.08 292.986L334.341 256.293C334.341 256.293 315.914 264.883 313.174 292.991Z" fill="#10192E"/>
<path d="M78.8436 418.881L77.4883 418.859C77.4883 418.726 77.7322 405.369 79.5131 389.043C81.1611 373.951 84.4978 353.155 91.0465 339.795L92.2635 340.394C79.8817 365.654 78.8517 418.352 78.8436 418.881Z" fill="#3F4F21"/>
<path d="M77.4898 417.731C75.6384 369.665 80.428 321.959 80.4714 321.484L81.8266 321.62C81.7779 322.097 76.9991 369.708 78.845 417.677L77.4898 417.731Z" fill="#3F4F21"/>
<path d="M78.1912 397.532H76.8359C77.0284 377.379 74.3368 361.032 72.041 350.868C69.5581 339.849 66.9939 333.52 66.9668 333.458L68.2218 332.945C68.3248 333.184 78.5626 358.666 78.1912 397.532Z" fill="#3F4F21"/>
<path d="M77.6038 409.787C76.7012 379.369 67.3253 373.029 67.2305 372.969L67.9596 371.828C68.3716 372.099 78.0347 378.618 78.959 409.746L77.6038 409.787Z" fill="#3F4F21"/>
<path d="M64.0422 415.443H92.2917C92.6906 415.443 93.0733 415.602 93.3554 415.884C93.6375 416.166 93.796 416.549 93.796 416.948V419.409C93.796 420.177 93.4907 420.914 92.9473 421.458C92.4039 422.001 91.6669 422.306 90.8984 422.306H65.4192C64.6531 422.303 63.9195 421.996 63.3791 421.453C62.8386 420.91 62.5352 420.175 62.5352 419.409V416.956C62.5341 416.757 62.5723 416.561 62.6476 416.377C62.7229 416.193 62.8338 416.026 62.9739 415.886C63.1139 415.745 63.2805 415.634 63.4638 415.558C63.6472 415.482 63.8438 415.443 64.0422 415.443V415.443Z" fill="#BA462B"/>
<path d="M91.654 418.878L89.1332 443.972L88.667 448.607H67.7496L65.8929 429.194L64.9062 418.878H91.654Z" fill="#BA462B"/>
<path opacity="0.48" d="M89.1348 443.972L88.6686 448.607H67.7513L65.8945 429.194C69.8628 434.664 77.4469 442.46 89.1348 443.972Z" fill="#59332B"/>
<path d="M69.1327 339.795C69.1327 339.795 61.9578 337.68 53.0672 328.234C44.1766 318.788 36.9584 315.722 35.6546 296.155L34.3535 276.59C34.3535 276.59 47.9659 281.076 50.2455 285.188C52.5251 289.3 64.4082 294.387 66.9669 308.192C66.9669 308.192 69.0974 316.85 71.1683 320.138C73.2392 323.426 73.1849 332.446 69.1327 339.795Z" fill="#606D29"/>
<path d="M7.95508 369.608C7.95508 369.608 18.6265 353.781 27.5199 352.383C36.4132 350.984 55.6853 346.36 64.9066 359.56C74.1279 372.761 73.3229 379.347 73.3229 379.347C73.3229 379.347 62.7056 369.085 51.0746 369.617C39.4436 370.148 32.6049 371.311 27.5768 369.617C22.5487 367.922 9.08809 367.597 7.95508 369.608Z" fill="#3F4F21"/>
<path d="M85.8551 353.908C85.8551 353.908 83.2964 354.933 84.8766 346.048C86.4569 337.162 86.7144 336.227 86.6981 331.476C86.6818 326.724 90.1541 320.286 93.2278 319.996C96.3016 319.706 101.294 309.287 105.761 308.184C110.228 307.081 118.189 305.099 123.781 305.78C123.781 305.78 120.74 315.573 114.598 317.27C108.456 318.966 110.334 325.106 109.326 328.746C108.317 332.386 103.092 346.652 96.3992 348.631C89.7068 350.609 91.3684 355.654 85.8551 353.908Z" fill="#606D29"/>
<path d="M80.4762 323.122C80.4762 323.122 68.4658 295.455 77.0636 283.136C85.6615 270.816 89.5159 261.088 117.248 264.007C117.248 264.007 97.6124 281.626 93.5547 292.97C89.497 304.313 83.8644 322.507 80.4762 323.122Z" fill="#3F4F21"/>
<path d="M86.2773 351.952C86.2773 351.952 97.5343 315.072 121.379 308.192C121.379 308.192 100.698 314.836 86.2773 351.952Z" fill="#3F4F21"/>
<path d="M114.158 264.501C114.158 264.501 73.126 269.014 80.477 321.485C80.477 321.485 70.9359 278.23 114.158 264.501Z" fill="#606D29"/>
<path d="M34.3535 276.59C34.3535 276.59 65.1861 323.821 69.1327 339.795C69.1327 339.795 37.4652 276.506 34.3535 276.59Z" fill="#3F4F21"/>
<path d="M7.95508 369.608C7.95508 369.608 46.6185 336.781 73.3229 379.339C73.3229 379.339 52.4895 339.204 7.95508 369.608Z" fill="#606D29"/>
<path d="M278.433 202.465L276.397 206.468L274.096 210.976C272.348 211.01 270.601 210.878 268.878 210.583C262.414 209.434 259.901 206.124 259.242 205.227C258.429 204.115 259.942 200.985 259.933 196.539C259.925 192.094 261.831 190.983 261.831 190.983C264.148 189.061 271.738 198.136 271.738 198.136L271.326 193.59C270.711 187.432 273.741 188.942 273.741 188.942C274.336 193.145 275.629 197.22 277.566 200.998L277.644 201.145C278.119 202.009 278.433 202.465 278.433 202.465Z" fill="#F78C68"/>
<path d="M277.734 200.827L277.658 201.144L276.39 206.468L274.097 210.975C272.349 211.01 270.602 210.878 268.879 210.582L277.58 200.998L277.734 200.827Z" fill="#D34A28"/>
<path d="M367.223 423.188L369.386 435.014H380.057V419.873L367.223 423.188Z" fill="#F78C68"/>
<path d="M320.211 168.661C320.211 168.661 309.64 194.468 304.94 216.421L281.003 200.827C281.003 200.827 278.293 199.529 276.937 201.624C275.582 203.719 272.286 213.93 272.286 213.93C272.286 213.93 272.164 214.792 273.519 215.773C274.875 216.755 301.842 245.562 310.947 243.421C320.051 241.28 323.293 230.817 323.293 230.817L320.211 168.661Z" fill="#ECECEC"/>
<path d="M380.057 424.161V424.475L367.843 426.34L366.957 421.599L369.275 413.709L375.249 419.499L380.057 424.161Z" fill="#D34A28"/>
<path d="M382.169 421.798C382.18 422.118 382.125 422.438 382.01 422.737C381.894 423.037 381.719 423.31 381.496 423.54C381.273 423.771 381.005 423.954 380.71 424.079C380.415 424.205 380.097 424.269 379.776 424.27H365.697C365.131 424.27 364.584 424.07 364.152 423.704C363.719 423.339 363.431 422.833 363.336 422.275L362.615 418.019L362.567 417.732L335.922 260.56L365.649 250.818L380.18 301.487L382.102 417.691V417.962L382.169 421.798Z" fill="#002439"/>
<path d="M362.851 162.183L342.685 181.32C342.685 181.32 333.219 169.591 337.952 162.595C339.292 160.602 340.363 158.441 341.14 156.168C342.685 151.701 342.685 148.191 342.685 148.191L355.625 142.087C355.677 143.025 355.742 143.92 355.82 144.773C357.257 160.459 362.851 162.183 362.851 162.183Z" fill="#F78C68"/>
<path d="M355.385 143.298C351.471 156.39 341.141 156.162 341.141 156.162C342.686 151.695 342.686 148.185 342.686 148.185L355.626 142.081C355.685 143.027 355.306 142.45 355.385 143.298Z" fill="#D34A28"/>
<path d="M354.79 138.728C354.822 138.811 354.874 138.886 354.941 138.945C355.009 139.003 355.089 139.045 355.177 139.064C355.264 139.084 355.355 139.082 355.441 139.059C355.527 139.035 355.606 138.99 355.671 138.928C356.625 138.015 358.522 136.76 359.195 140.4C360.119 145.344 354.842 144.493 354.419 145.16C353.565 146.515 352.521 148.76 348.903 151.329C347.022 152.66 342.668 154.013 337.822 152.446C334.277 151.302 332.512 138.945 335.073 123.462C335.073 123.462 336.318 125.807 338.107 126.411C339.896 127.015 343.064 125.931 345.103 125.376C346.756 124.926 349.857 123.44 351.93 124.961C353.183 125.514 353.961 136.584 354.79 138.728Z" fill="#F78C68"/>
<path d="M331.209 125.469C331.328 127.095 332.795 133.275 348.646 127.366C348.876 127.279 349.123 127.245 349.368 127.267C349.612 127.289 349.849 127.366 350.06 127.492C350.271 127.619 350.45 127.791 350.585 127.997C350.719 128.203 350.805 128.437 350.836 128.681C351.208 131.532 352.075 136.541 353.728 138.71C353.867 138.89 354.042 139.039 354.241 139.148C354.441 139.257 354.661 139.323 354.887 139.343C355.114 139.363 355.342 139.335 355.557 139.262C355.773 139.189 355.97 139.072 356.138 138.918C356.68 138.43 357.445 137.983 358.136 138.412C358.353 138.548 358.598 138.63 358.853 138.654C359.108 138.677 359.365 138.639 359.603 138.544C359.84 138.45 360.052 138.3 360.221 138.108C360.39 137.916 360.512 137.686 360.575 137.438C360.83 136.441 360.957 135.029 360.76 133.031C360.724 132.656 360.82 132.281 361.031 131.969C361.939 130.613 364.213 126.547 360.865 124.04C356.821 121.012 359.9 112.737 349.21 116.638C349.083 116.686 348.95 116.717 348.814 116.73C347.57 116.854 341.01 117.402 337.462 115.613C333.63 113.683 328.634 120.598 331.022 124.788C331.133 124.999 331.197 125.231 331.209 125.469V125.469Z" fill="#10192E"/>
<path d="M358.41 140.046L355.621 142.098C355.621 142.098 356.662 137.121 358.41 140.046Z" fill="#D34A28"/>
<path d="M320.212 263.832C320.212 263.832 330.94 274.59 352.394 275.655C373.848 276.72 353.934 249.018 353.934 249.018C353.934 249.018 312.904 229.304 320.212 263.832Z" fill="#001B48"/>
<path d="M362.851 212.163L361.01 223.918L355.684 257.871L354.451 265.748C354.451 265.748 336.539 266.802 323.279 257.47L325.177 201.762L325.868 182.059L339.713 157.529C339.632 157.729 337.114 164.056 342.153 171.128C342.459 171.557 342.847 171.921 343.293 172.2C343.74 172.48 344.238 172.668 344.758 172.755C345.278 172.842 345.809 172.825 346.323 172.706C346.836 172.588 347.321 172.369 347.75 172.063C352.087 168.983 359.549 162.763 360.064 156.168L362.851 212.163Z" fill="#FC461E"/>
<path d="M355.684 257.871L354.451 265.748C354.451 265.748 336.539 266.802 323.279 257.47L325.177 201.762C326.11 201.127 327.11 200.596 328.158 200.177C328.158 200.177 326.055 232.099 349.732 250.818C352.162 252.753 354.185 255.15 355.684 257.871V257.871Z" fill="#D82E12"/>
<path d="M344.862 175.283C344.45 175.283 344.039 175.231 343.64 175.129C342.963 174.956 342.329 174.643 341.781 174.21C341.233 173.776 340.782 173.232 340.458 172.613L336.506 165.043L336.747 164.918L340.699 172.486C341.005 173.07 341.431 173.584 341.948 173.993C342.465 174.402 343.063 174.697 343.702 174.86C344.341 175.023 345.008 175.049 345.658 174.938C346.308 174.826 346.927 174.579 347.475 174.212L356.499 168.16L356.651 168.385L347.63 174.448C346.81 174.994 345.847 175.284 344.862 175.283V175.283Z" fill="#ECECEC"/>
<path d="M341.14 156.171C341.14 156.171 321.488 166.951 320.211 168.661C318.935 170.372 315.875 203.226 315.875 203.226C315.875 203.226 315.875 238.965 315.425 245.486C314.975 252.008 309.12 290.129 311.521 297.933C311.521 297.933 314.072 301.535 328.327 304.238C328.327 304.238 323.161 270.356 323.692 245.486C324.223 220.617 329.213 179.433 329.213 179.433L341.14 156.171Z" fill="#ECECEC"/>
<path d="M333.159 175.668L341.139 156.171L336.42 159.223C334.736 160.312 333.288 161.73 332.164 163.392L322.298 177.994L326.681 180.346L320.211 181.807L323.699 245.486L328.866 192.929C329.453 186.998 330.899 181.183 333.159 175.668V175.668Z" fill="#D7DDDC"/>
<path d="M382.976 165.606L357.524 154.113L349.23 204.53L348.555 246.237L349.737 291.427C349.737 291.427 350.235 306.194 357.51 308.333C364.786 310.472 386.614 310.26 391.121 308.333L376.555 196.208L382.976 165.606Z" fill="#ECECEC"/>
<path d="M360.209 269.215L376.887 270.304V274.064L357.33 271.638L360.209 269.215Z" fill="#D7DDDC"/>
<path d="M357.524 154.113L349.856 200.133C348.991 205.329 348.555 210.587 348.555 215.854V246.242C348.555 246.242 355.271 212.008 361.419 200.827C367.567 189.646 369.28 185.786 369.28 185.786L360.703 181.322L367.848 179.069L366.493 163.077C366.385 161.795 365.963 160.558 365.265 159.477C364.567 158.396 363.614 157.502 362.49 156.875L357.524 154.113Z" fill="#D7DDDC"/>
<path d="M376.452 195.512L374.373 227.87L383.714 221.357L376.452 195.512Z" fill="#D7DDDC"/>
<path d="M184.145 216.375V239.336" stroke="#FF9C00" stroke-width="1.35528" stroke-miterlimit="10" stroke-dasharray="3.25 3.25"/>
<path d="M346.29 451.24L301.504 452.272C301.504 452.272 300.669 450.947 301.504 447.808C301.599 447.456 301.938 447.076 302.469 446.68C306.659 443.553 322.744 439.381 323.183 438.942C323.679 438.446 330.087 434.51 330.087 434.51H337.253L340.777 431.881C344.756 432.724 345.927 440.197 346.231 445.607C346.396 448.778 346.29 451.24 346.29 451.24Z" fill="#ECECEC"/>
<path d="M346.212 445.607L302.469 446.691C306.659 443.563 322.744 439.392 323.183 438.953C323.679 438.457 330.087 434.521 330.087 434.521H337.253L340.777 431.892C344.737 432.724 345.897 440.197 346.212 445.607Z" fill="#10192E"/>
<path d="M391.139 451.863H363.917C363.902 449.741 364.098 447.622 364.502 445.539C365.156 442.11 366.524 437.971 369.381 434.968C369.381 434.968 373.371 430.162 380.053 434.968C380.053 434.968 386.103 441.031 389.269 444.799C390.291 446.011 391.012 446.987 391.134 447.442C391.643 449.32 391.139 451.863 391.139 451.863Z" fill="#ECECEC"/>
<path d="M307.124 125.268L302.259 114.182C303.593 108.751 302.901 103.019 300.311 98.0624C297.722 93.1055 293.413 89.2636 288.193 87.257C282.972 85.2505 277.199 85.2172 271.956 87.1634C266.713 89.1096 262.36 92.9016 259.714 97.8283C257.067 102.755 256.309 108.478 257.581 113.924C258.852 119.37 262.067 124.165 266.622 127.41C271.178 130.655 276.76 132.126 282.323 131.549C287.885 130.971 293.046 128.384 296.838 124.273L307.124 125.268Z" fill="#FF9C00"/>
<path d="M226.392 97.8696V217.232C226.392 218.957 225.706 220.612 224.486 221.832C223.266 223.052 221.612 223.737 219.886 223.737H148.39C146.665 223.737 145.01 223.052 143.79 221.832C142.57 220.612 141.885 218.957 141.885 217.232V97.8696C141.885 96.1443 142.57 94.4896 143.79 93.2696C145.01 92.0496 146.665 91.3643 148.39 91.3643H219.886C221.612 91.3643 223.266 92.0496 224.486 93.2696C225.706 94.4896 226.392 96.1443 226.392 97.8696V97.8696Z" fill="#ECECEC"/>
<path d="M239.935 231.99H150.557C146.97 231.99 144.062 234.898 144.062 238.485V318.842C144.062 322.429 146.97 325.336 150.557 325.336H239.935C243.522 325.336 246.429 322.429 246.429 318.842V238.485C246.429 234.898 243.522 231.99 239.935 231.99Z" fill="#ECECEC"/>
<path d="M123.253 163.395H46.7119C43.95 163.395 41.7109 165.634 41.7109 168.396V184.575C41.7109 187.337 43.95 189.576 46.7119 189.576H123.253C126.015 189.576 128.254 187.337 128.254 184.575V168.396C128.254 165.634 126.015 163.395 123.253 163.395Z" fill="#FF9C00"/>
<path d="M115.22 53.9584V111.422C115.22 113.148 114.535 114.802 113.315 116.022C112.095 117.242 110.44 117.928 108.715 117.928H66.769C65.0437 117.928 63.389 117.242 62.169 116.022C60.9491 114.802 60.2637 113.148 60.2637 111.422V44.2573C60.2637 42.532 60.9491 40.8773 62.169 39.6573C63.389 38.4373 65.0437 37.752 66.769 37.752H103.825L115.22 53.9584Z" fill="#FF9C00"/>
<path d="M291.083 108.405C291.083 102.706 286.463 98.0859 280.764 98.0859C275.065 98.0859 270.445 102.706 270.445 108.405C270.445 114.104 275.065 118.724 280.764 118.724C286.463 118.724 291.083 114.104 291.083 108.405Z" fill="#10192E"/>
<path d="M313.491 261.894L318.069 263.01V266.428L313.174 264.531L313.491 261.894Z" fill="#D7DDDC"/>
<path d="M382.107 417.961C378.418 418.389 374.708 418.612 370.994 418.631C366.226 418.631 363.499 418.186 362.629 418.018L362.58 417.731C363.727 417.967 369.953 419.04 382.115 417.69L382.107 417.961Z" fill="#D7DDDC"/>
<path d="M344.463 419.873V420.144C339.584 420.605 335.578 420.759 332.374 420.759C327.224 420.759 324.169 420.356 323.044 420.171L322.998 419.9C324.614 420.166 331.487 421.104 344.463 419.873Z" fill="#D7DDDC"/>
<path d="M389.274 444.796L364.502 445.539C365.155 442.11 366.524 437.971 369.381 434.968C369.381 434.968 373.371 430.162 380.052 434.968C380.058 434.954 386.108 441.029 389.274 444.796Z" fill="#10192E"/>
<path d="M336.628 210.975L325.113 186.493L340.845 178.717L358.412 215.488L336.628 210.975Z" fill="#0F192E"/>
<path d="M354.514 212.575L353.245 221.945C353.147 221.836 353.043 221.732 352.934 221.633C351.959 220.774 350.856 220.074 349.665 219.557C347.859 218.744 345.295 217.931 341.804 217.66C334.757 217.071 333.252 207.088 332.444 203.963C332.29 203.359 332.217 203.001 332.217 203.001V201.562C332.458 202.19 338.026 206.668 338.18 206.793C338.18 206.777 338.093 206.636 337.462 205.519C337.301 205.233 337.232 204.905 337.264 204.579C337.295 204.253 337.426 203.944 337.638 203.695C337.688 203.627 337.75 203.57 337.823 203.527C337.895 203.484 337.975 203.456 338.058 203.445C338.141 203.433 338.226 203.439 338.307 203.461C338.388 203.483 338.464 203.521 338.53 203.573C339.702 204.479 340.92 205.325 342.178 206.107C345.572 208.276 347.464 210.777 348.025 211.702C348.586 212.626 354.514 212.575 354.514 212.575Z" fill="#F78C68"/>
<path d="M352.939 212.852V221.634C351.965 220.775 350.862 220.074 349.67 219.557L352.939 212.852Z" fill="#D34A28"/>
<path d="M382.978 165.606C382.978 165.606 401.374 214.424 397.073 230.118C393.343 243.738 361.903 230.587 353.644 226.865C353.069 226.601 352.59 226.164 352.276 225.615C351.961 225.066 351.827 224.432 351.89 223.802L352.953 212.841C352.976 212.603 353.049 212.374 353.167 212.166C353.284 211.959 353.444 211.778 353.635 211.636C353.827 211.494 354.046 211.393 354.278 211.341C354.511 211.288 354.752 211.285 354.986 211.331L378.026 215.866L376.557 196.209L382.978 165.606Z" fill="#ECECEC"/>
<path d="M103.824 37.7627V54.2266L115.219 53.9583L103.824 37.7627Z" fill="#E88901"/>
<path d="M87.748 123.462V137.557C87.7477 138.151 87.8645 138.74 88.0919 139.289C88.3192 139.839 88.6527 140.338 89.0731 140.758C89.4935 141.179 89.9926 141.512 90.542 141.74C91.0913 141.967 91.6801 142.084 92.2747 142.083H136.02" stroke="#FF9C00" stroke-width="1.35528" stroke-miterlimit="10" stroke-dasharray="3.25 3.25"/>
<path d="M233.07 144.23H274.452C275.375 144.23 276.289 144.413 277.141 144.768C277.993 145.123 278.766 145.643 279.417 146.298C280.067 146.953 280.581 147.73 280.929 148.585C281.277 149.44 281.453 150.355 281.446 151.278L281.004 200.819" stroke="#FF9C00" stroke-width="1.35528" stroke-miterlimit="10" stroke-dasharray="3.25 3.25"/>
<path d="M205.935 174.315V206.253C205.935 207.442 205.463 208.582 204.623 209.423C203.783 210.265 202.643 210.738 201.454 210.739H167.773C166.583 210.739 165.442 210.267 164.601 209.425C163.76 208.584 163.287 207.443 163.287 206.253V174.315C163.287 173.125 163.76 171.984 164.601 171.142C165.442 170.3 166.583 169.827 167.773 169.826H201.454C202.644 169.828 203.783 170.302 204.623 171.144C205.463 171.985 205.935 173.126 205.935 174.315Z" fill="#02B5A5"/>
<path d="M233.071 146.204C234.161 146.204 235.044 145.321 235.044 144.231C235.044 143.141 234.161 142.258 233.071 142.258C231.981 142.258 231.098 143.141 231.098 144.231C231.098 145.321 231.981 146.204 233.071 146.204Z" fill="#FF9C00"/>
<path d="M132.917 144.06C134.006 144.06 134.89 143.176 134.89 142.087C134.89 140.997 134.006 140.113 132.917 140.113C131.827 140.113 130.943 140.997 130.943 142.087C130.943 143.176 131.827 144.06 132.917 144.06Z" fill="#FF9C00"/>
<path d="M205.935 174.315V180.389H163.287V174.315C163.287 173.125 163.76 171.984 164.601 171.142C165.442 170.3 166.583 169.827 167.773 169.826H201.454C202.644 169.828 203.783 170.302 204.623 171.144C205.463 171.985 205.935 173.126 205.935 174.315Z" fill="#049987"/>
<path d="M204.986 163.155H165.152C162.674 163.155 160.666 165.164 160.666 167.641V173.447C160.666 175.925 162.674 177.933 165.152 177.933H204.986C207.464 177.933 209.472 175.925 209.472 173.447V167.641C209.472 165.164 207.464 163.155 204.986 163.155Z" fill="#02B5A5"/>
<path d="M275.705 110.138L278.687 112.848C278.807 112.958 278.95 113.041 279.105 113.091C279.26 113.142 279.425 113.158 279.587 113.14C279.749 113.122 279.905 113.069 280.046 112.986C280.186 112.902 280.307 112.79 280.4 112.656L286.707 103.676" stroke="#FF9C00" stroke-width="1.35528" stroke-miterlimit="10" stroke-linecap="round"/>
<path d="M226.391 97.8696V104.573H141.895V97.8696C141.895 96.1443 142.58 94.4896 143.8 93.2696C145.02 92.0496 146.675 91.3643 148.4 91.3643H219.885C221.611 91.3643 223.265 92.0496 224.485 93.2696C225.705 94.4896 226.391 96.1443 226.391 97.8696V97.8696Z" fill="#0F192E"/>
<path d="M183.748 147.535C182.601 147.535 181.496 147.108 180.647 146.337L172.244 138.682C171.978 138.44 171.819 138.102 171.802 137.743C171.785 137.384 171.912 137.033 172.154 136.767C172.395 136.501 172.733 136.342 173.092 136.325C173.451 136.308 173.803 136.434 174.069 136.676L182.471 144.331C182.671 144.512 182.906 144.648 183.163 144.731C183.419 144.814 183.69 144.841 183.958 144.811C184.225 144.781 184.484 144.695 184.715 144.557C184.947 144.42 185.147 144.234 185.301 144.014L203.158 118.589C203.259 118.44 203.389 118.313 203.54 118.215C203.69 118.117 203.859 118.049 204.036 118.017C204.213 117.985 204.394 117.988 204.57 118.027C204.745 118.065 204.911 118.138 205.059 118.242C205.206 118.345 205.331 118.477 205.426 118.629C205.522 118.781 205.587 118.951 205.616 119.128C205.646 119.305 205.64 119.487 205.598 119.662C205.557 119.837 205.481 120.002 205.375 120.147L187.521 145.57C187.098 146.178 186.534 146.675 185.877 147.017C185.22 147.36 184.489 147.537 183.748 147.535Z" fill="#FF9C00"/>
<path d="M149.769 99.5389C150.714 99.5389 151.479 98.7731 151.479 97.8285C151.479 96.8839 150.714 96.1182 149.769 96.1182C148.824 96.1182 148.059 96.8839 148.059 97.8285C148.059 98.7731 148.824 99.5389 149.769 99.5389Z" fill="#FC461E"/>
<path d="M157.621 99.5389C158.565 99.5389 159.331 98.7731 159.331 97.8285C159.331 96.8839 158.565 96.1182 157.621 96.1182C156.676 96.1182 155.91 96.8839 155.91 97.8285C155.91 98.7731 156.676 99.5389 157.621 99.5389Z" fill="#606D2A"/>
<path d="M166.388 99.5389C167.333 99.5389 168.098 98.7731 168.098 97.8285C168.098 96.8839 167.333 96.1182 166.388 96.1182C165.443 96.1182 164.678 96.8839 164.678 97.8285C164.678 98.7731 165.443 99.5389 166.388 99.5389Z" fill="#FF9C00"/>
<path d="M54.6119 183.783C53.0074 183.781 51.4537 183.22 50.2178 182.197C48.9819 181.174 48.141 179.752 47.8397 178.176C47.5383 176.6 47.7953 174.968 48.5665 173.561C49.3376 172.154 50.5748 171.06 52.0654 170.466C53.556 169.872 55.2069 169.816 56.7343 170.307C58.2618 170.798 59.5705 171.806 60.4354 173.158C61.3004 174.509 61.6676 176.12 61.4739 177.713C61.2803 179.305 60.5379 180.781 59.3744 181.886C58.0905 183.108 56.3845 183.788 54.6119 183.783V183.783Z" fill="#ECECEC"/>
<path d="M54.6163 170.133C55.9516 170.134 57.2568 170.53 58.3668 171.272C59.4768 172.014 60.3418 173.069 60.8524 174.303C61.3631 175.537 61.4964 176.894 61.2356 178.204C60.9747 179.513 60.3314 180.716 59.387 181.66C58.4427 182.604 57.2396 183.247 55.9299 183.507C54.6202 183.768 53.2627 183.634 52.0291 183.123C50.7955 182.612 49.7412 181.746 48.9994 180.636C48.2576 179.526 47.8616 178.22 47.8616 176.885C47.8616 175.998 48.0364 175.12 48.3759 174.301C48.7153 173.481 49.2129 172.737 49.8402 172.11C50.4675 171.483 51.2121 170.985 52.0316 170.646C52.8511 170.307 53.7294 170.133 54.6163 170.133V170.133ZM54.6163 169.821C53.4633 169.825 52.3285 170.11 51.3112 170.653C50.2938 171.195 49.4246 171.979 48.7795 172.934C48.1345 173.89 47.7331 174.989 47.6104 176.136C47.4877 177.282 47.6475 178.441 48.0757 179.512C48.504 180.583 49.1877 181.532 50.0672 182.278C50.9468 183.023 51.9954 183.543 53.1217 183.79C54.2479 184.037 55.4175 184.005 56.5285 183.696C57.6395 183.387 58.6581 182.812 59.4953 182.019C60.1927 181.361 60.7477 180.568 61.1258 179.687C61.5039 178.806 61.6972 177.857 61.6936 176.899C61.6914 175.026 60.9465 173.23 59.6223 171.906C58.2981 170.582 56.5026 169.837 54.6299 169.835L54.6163 169.821Z" fill="#13192F"/>
<path d="M56.6414 175.163C56.6414 175.163 57.4817 175.347 57.0426 176.22C56.6035 177.093 55.8906 176.673 55.8906 176.673L56.6414 175.163Z" fill="#F78C68"/>
<path d="M54.2709 182.685C52.7828 182.601 52.6445 180.902 52.6445 180.902C52.9156 180.411 52.9942 179.476 53.0023 178.698C53.0023 178.625 53.0023 178.552 53.0023 178.481C53.0023 177.877 52.9644 177.413 52.9644 177.413C52.9626 177.292 52.968 177.171 52.9806 177.05C53.1622 175.329 54.7994 175.792 55.4987 176.811C55.7268 177.125 55.8354 177.509 55.805 177.896C55.7489 178.489 55.7827 179.088 55.9053 179.671C55.9859 180.079 56.1142 180.475 56.2875 180.853C56.3607 181.371 55.7508 182.767 54.2709 182.685Z" fill="#F78C68"/>
<path d="M55.8971 179.66C54.3006 180.053 53.4088 179.27 52.9914 178.698C52.9914 178.624 52.9914 178.551 52.9914 178.481C52.9914 177.876 52.9535 177.413 52.9535 177.413C52.9517 177.292 52.9571 177.17 52.9697 177.05C53.5335 175.694 54.6503 176.017 55.4878 176.811C55.7158 177.124 55.8245 177.509 55.7941 177.895C55.74 178.485 55.7747 179.08 55.8971 179.66V179.66Z" fill="#D34A28"/>
<path d="M51.9281 175.722C51.9281 175.722 51.9119 179.349 54.758 178.85C57.6041 178.351 56.4385 173.876 56.4385 173.876C56.4385 173.876 51.3264 172.472 51.9281 175.722Z" fill="#F78C68"/>
<path d="M51.8797 175.364C51.8797 175.364 51.0395 175.549 51.4786 176.421C51.9177 177.294 52.6306 176.874 52.6306 176.874L51.8797 175.364Z" fill="#F78C68"/>
<path d="M52.3386 175.248C52.3386 175.248 54.5559 175.174 55.2199 174.109C55.2199 174.109 55.5506 175.372 56.643 175.164C56.643 175.164 57.4968 174.285 56.8273 173.356C56.7944 173.309 56.7509 173.272 56.7004 173.246C56.65 173.22 56.594 173.206 56.5373 173.207C56.5373 173.207 55.5398 171.271 53.1518 172.372C50.7638 173.472 51.5065 174.63 51.9293 175.722C52.0317 175.683 52.1228 175.62 52.1943 175.537C52.2658 175.454 52.3154 175.354 52.3386 175.248V175.248Z" fill="#14192F"/>
<path d="M90.4086 172.746H65.0866C64.3905 172.746 63.8262 173.31 63.8262 174.007C63.8262 174.703 64.3905 175.267 65.0866 175.267H90.4086C91.1047 175.267 91.669 174.703 91.669 174.007C91.669 173.31 91.1047 172.746 90.4086 172.746Z" fill="#ECECEC"/>
<path d="M119.937 179.367H65.0866C64.3905 179.367 63.8262 179.931 63.8262 180.628C63.8262 181.324 64.3905 181.888 65.0866 181.888H119.937C120.634 181.888 121.198 181.324 121.198 180.628C121.198 179.931 120.634 179.367 119.937 179.367Z" fill="#ECECEC"/>
<path d="M59.2655 181.769C58.5916 182.409 57.7928 182.903 56.9192 183.221C56.0455 183.538 55.1158 183.672 54.1882 183.613C53.2605 183.555 52.355 183.305 51.5281 182.881C50.7013 182.456 49.9709 181.865 49.3828 181.146C50.4969 180.566 51.6922 180.417 52.8198 180.371C52.8198 180.371 54.2862 182.233 56.0725 180.371C56.0833 180.371 57.0483 180.308 59.2655 181.769Z" fill="#160907"/>
<path d="M203.857 168.423C207.54 168.423 210.525 165.438 210.525 161.755C210.525 158.072 207.54 155.087 203.857 155.087C200.175 155.087 197.189 158.072 197.189 161.755C197.189 165.438 200.175 168.423 203.857 168.423Z" fill="#FC461E"/>
<path d="M203.014 164.788C202.758 164.787 202.511 164.691 202.323 164.517L200.659 163.002C200.622 162.968 200.592 162.927 200.571 162.882C200.55 162.837 200.538 162.788 200.536 162.738C200.533 162.688 200.541 162.639 200.558 162.592C200.575 162.545 200.601 162.502 200.634 162.465C200.668 162.428 200.709 162.398 200.754 162.377C200.799 162.356 200.848 162.344 200.898 162.342C200.948 162.339 200.997 162.347 201.044 162.364C201.091 162.381 201.134 162.407 201.171 162.44L202.835 163.956C202.863 163.981 202.896 164 202.931 164.011C202.967 164.023 203.004 164.026 203.041 164.021C203.079 164.018 203.115 164.006 203.148 163.987C203.18 163.968 203.208 163.941 203.229 163.91L206.766 158.876C206.794 158.834 206.83 158.798 206.872 158.77C206.915 158.743 206.962 158.724 207.012 158.714C207.061 158.705 207.112 158.706 207.162 158.717C207.211 158.727 207.258 158.748 207.299 158.777C207.341 158.806 207.376 158.843 207.403 158.886C207.429 158.929 207.447 158.977 207.455 159.026C207.464 159.076 207.462 159.127 207.45 159.176C207.438 159.226 207.416 159.272 207.387 159.313L203.863 164.346C203.78 164.465 203.672 164.565 203.548 164.64C203.423 164.714 203.283 164.761 203.139 164.777C203.098 164.784 203.056 164.787 203.014 164.788Z" fill="#ECECEC"/>
<path d="M192.805 163.155H177.393V177.933H192.805V163.155Z" fill="#FF9C00"/>
<path d="M188.76 183.777H180.463V204.35H188.76V183.777Z" fill="#FF9C00"/>
<path d="M196.102 198.214V189.917H173.124V198.214H196.102Z" fill="#FF9C00"/>
<path d="M94.4926 55.3623H69.1706C68.4745 55.3623 67.9102 55.9266 67.9102 56.6227C67.9102 57.3188 68.4745 57.8831 69.1706 57.8831H94.4926C95.1887 57.8831 95.753 57.3188 95.753 56.6227C95.753 55.9266 95.1887 55.3623 94.4926 55.3623Z" fill="#ECECEC"/>
<path d="M106.321 64.332H69.1706C68.4745 64.332 67.9102 64.8963 67.9102 65.5924C67.9102 66.2885 68.4745 66.8528 69.1706 66.8528H106.321C107.018 66.8528 107.582 66.2885 107.582 65.5924C107.582 64.8963 107.018 64.332 106.321 64.332Z" fill="#ECECEC"/>
<path d="M106.321 73.3311H69.1706C68.4745 73.3311 67.9102 73.8954 67.9102 74.5915C67.9102 75.2876 68.4745 75.8519 69.1706 75.8519H106.321C107.018 75.8519 107.582 75.2876 107.582 74.5915C107.582 73.8954 107.018 73.3311 106.321 73.3311Z" fill="#ECECEC"/>
<path d="M106.321 82.332H69.1706C68.4745 82.332 67.9102 82.8963 67.9102 83.5924C67.9102 84.2885 68.4745 84.8528 69.1706 84.8528H106.321C107.018 84.8528 107.582 84.2885 107.582 83.5924C107.582 82.8963 107.018 82.332 106.321 82.332Z" fill="#ECECEC"/>
<path d="M106.321 92.3369H69.1706C68.4745 92.3369 67.9102 92.9012 67.9102 93.5973C67.9102 94.2934 68.4745 94.8577 69.1706 94.8577H106.321C107.018 94.8577 107.582 94.2934 107.582 93.5973C107.582 92.9012 107.018 92.3369 106.321 92.3369Z" fill="#ECECEC"/>
<path d="M106.321 102.339H69.1706C68.4745 102.339 67.9102 102.903 67.9102 103.599C67.9102 104.295 68.4745 104.86 69.1706 104.86H106.321C107.018 104.86 107.582 104.295 107.582 103.599C107.582 102.903 107.018 102.339 106.321 102.339Z" fill="#ECECEC"/>
<path d="M162.688 261.219C166.37 261.219 169.355 258.233 169.355 254.551C169.355 250.868 166.37 247.883 162.688 247.883C159.005 247.883 156.02 250.868 156.02 254.551C156.02 258.233 159.005 261.219 162.688 261.219Z" fill="#10192E"/>
<path d="M159.268 253.889L162.249 256.599C162.37 256.709 162.513 256.791 162.668 256.841C162.823 256.891 162.987 256.908 163.149 256.89C163.311 256.871 163.467 256.819 163.608 256.736C163.748 256.653 163.869 256.54 163.962 256.407L170.267 247.427" stroke="#FF9C00" stroke-width="1.35528" stroke-miterlimit="10" stroke-linecap="round"/>
<path d="M203.729 249.98H178.407C177.711 249.98 177.146 250.545 177.146 251.241C177.146 251.937 177.711 252.501 178.407 252.501H203.729C204.425 252.501 204.989 251.937 204.989 251.241C204.989 250.545 204.425 249.98 203.729 249.98Z" fill="#10192E"/>
<path d="M233.258 256.603H178.407C177.711 256.603 177.146 257.167 177.146 257.863C177.146 258.559 177.711 259.123 178.407 259.123H233.258C233.954 259.123 234.518 258.559 234.518 257.863C234.518 257.167 233.954 256.603 233.258 256.603Z" fill="#10192E"/>
<path d="M162.666 286.369C166.349 286.369 169.334 283.384 169.334 279.701C169.334 276.019 166.349 273.033 162.666 273.033C158.983 273.033 155.998 276.019 155.998 279.701C155.998 283.384 158.983 286.369 162.666 286.369Z" fill="#10192E"/>
<path d="M159.248 279.051L162.23 281.762C162.351 281.872 162.493 281.954 162.649 282.005C162.804 282.055 162.969 282.072 163.131 282.054C163.293 282.035 163.45 281.983 163.591 281.899C163.731 281.816 163.852 281.703 163.945 281.569L170.237 272.592" stroke="#FF9C00" stroke-width="1.35528" stroke-miterlimit="10" stroke-linecap="round"/>
<path d="M203.707 275.129H178.385C177.689 275.129 177.125 275.693 177.125 276.389C177.125 277.085 177.689 277.65 178.385 277.65H203.707C204.404 277.65 204.968 277.085 204.968 276.389C204.968 275.693 204.404 275.129 203.707 275.129Z" fill="#10192E"/>
<path d="M233.236 281.754H178.385C177.689 281.754 177.125 282.318 177.125 283.014C177.125 283.71 177.689 284.275 178.385 284.275H233.236C233.932 284.275 234.497 283.71 234.497 283.014C234.497 282.318 233.932 281.754 233.236 281.754Z" fill="#10192E"/>
<path d="M162.666 312.543C166.349 312.543 169.334 309.558 169.334 305.875C169.334 302.192 166.349 299.207 162.666 299.207C158.983 299.207 155.998 302.192 155.998 305.875C155.998 309.558 158.983 312.543 162.666 312.543Z" fill="#10192E"/>
<path d="M159.248 305.224L162.23 307.934C162.351 308.044 162.493 308.127 162.649 308.178C162.804 308.228 162.969 308.245 163.131 308.226C163.293 308.208 163.45 308.156 163.591 308.072C163.731 307.989 163.852 307.876 163.945 307.742L170.25 298.765" stroke="#FF9C00" stroke-width="1.35528" stroke-miterlimit="10" stroke-linecap="round"/>
<path d="M203.707 301.302H178.385C177.689 301.302 177.125 301.866 177.125 302.562C177.125 303.258 177.689 303.823 178.385 303.823H203.707C204.404 303.823 204.968 303.258 204.968 302.562C204.968 301.866 204.404 301.302 203.707 301.302Z" fill="#10192E"/>
<path d="M233.236 307.927H178.385C177.689 307.927 177.125 308.491 177.125 309.187C177.125 309.883 177.689 310.448 178.385 310.448H233.236C233.932 310.448 234.497 309.883 234.497 309.187C234.497 308.491 233.932 307.927 233.236 307.927Z" fill="#10192E"/>
</g>
</g>
<defs>
<clipPath id="clip0_1556_1934">
<rect width="456" height="449" rx="20" fill="white"/>
</clipPath>
<clipPath id="clip1_1556_1934">
<rect width="430" height="415.42" fill="white" transform="translate(0 37.7627)"/>
</clipPath>
</defs>
</svg>
