<svg width="100%" viewBox="0 0 418 440" fill="none" xmlns="http://www.w3.org/2000/svg">
<g clip-path="url(#clip0_1556_1764)">
<path d="M90.0853 411.256L89.2022 420.102L88.7208 424.936H76.9141L77.413 418.096L77.7597 413.349L90.0853 411.256Z" fill="#F78C68"/>
<path d="M106.746 177.422C106.746 177.422 94.4255 171.487 99.4271 160.354C104.429 149.221 105.165 144.711 105.165 144.711L136.227 145.487L136.212 151.848C136.212 151.848 137.509 158.88 139.392 162.357C141.276 165.835 142.563 182.481 106.746 177.422Z" fill="#13192F"/>
<path d="M104.773 149.95C104.773 149.95 96.79 145.709 99.8583 139.053C103.021 132.183 109.822 132.318 113.224 136.923C116.627 141.528 111.942 152.973 104.773 149.95Z" fill="#13192F"/>
<path d="M127.347 194.697L108.787 177.085C108.787 177.085 113.527 177.764 115.3 166.87C115.393 166.309 115.283 164.987 115.208 163.802C115.158 163.211 115.142 162.618 115.161 162.026C115.161 161.996 115.161 161.963 115.161 161.931C115.193 161.647 115.221 161.357 115.248 161.063C115.319 160.276 115.379 159.452 115.428 158.591L127.337 164.209C127.02 166.108 127.105 168.054 127.586 169.919L127.623 170.063C127.783 170.659 127.973 171.286 128.197 171.934C128.838 173.798 130.347 175.456 131.705 177.465C136.057 183.903 127.347 194.697 127.347 194.697Z" fill="#F78C68"/>
<path d="M127.583 169.919C120.199 172.615 116.709 166.798 115.208 163.802L114.998 163.378C115.079 162.931 115.133 162.479 115.16 162.026C115.16 161.996 115.16 161.963 115.16 161.931C115.193 161.647 115.22 161.357 115.248 161.063C115.319 160.276 115.379 159.452 115.427 158.591L127.336 164.209C127.019 166.108 127.103 168.053 127.583 169.919V169.919Z" fill="#D34A28"/>
<path d="M90.0864 411.256L89.2033 420.102L77.4141 418.096L77.7608 413.349L90.0864 411.256Z" fill="#D34A28"/>
<path d="M130.885 413.351L130.037 424.936H141.846L143.211 411.256L130.885 413.351Z" fill="#F78C68"/>
<path d="M130.484 418.028L142.229 421.099L142.75 416.202L130.484 418.028Z" fill="#D34A28"/>
<path d="M113.308 155.34C113.279 155.417 113.231 155.486 113.169 155.54C113.107 155.594 113.032 155.632 112.952 155.65C112.872 155.668 112.788 155.667 112.709 155.645C112.629 155.623 112.557 155.582 112.497 155.525C111.621 154.684 109.875 153.529 109.254 156.879C108.403 161.429 113.263 160.646 113.649 161.26C114.435 162.507 115.396 164.573 118.728 166.937C120.46 168.162 124.466 169.407 128.926 167.965C132.189 166.913 133.81 155.54 131.455 141.291C131.455 141.291 130.311 143.449 128.664 144.005C127.018 144.561 124.099 143.564 122.226 143.052C120.704 142.638 117.848 141.271 115.942 142.671C114.789 143.177 114.071 153.365 113.308 155.34Z" fill="#F78C68"/>
<path d="M110.832 154.629C111.158 154.648 111.475 154.738 111.763 154.892C112.05 155.046 112.3 155.261 112.496 155.522C113.244 156.44 113.549 154.562 113.681 153.776C113.813 152.99 123.355 153.202 126.179 145.26C126.179 145.26 130.192 153.469 136.212 151.838C136.212 151.838 138.305 140.143 129.995 135.588C121.686 131.033 106.846 134.453 104.753 146.477C102.66 158.501 110.832 154.629 110.832 154.629Z" fill="#13192F"/>
<path d="M335.955 322.704L379.323 322.205V70.9046C379.323 70.9046 379.383 61.8145 364.086 61.8145C348.789 61.8145 339.425 73.6386 339.425 73.6386L335.955 322.704Z" fill="#E88900"/>
<path d="M135.983 243.341L94.6784 411.835L94.6161 412.084L93.955 414.781C93.731 415.706 93.2023 416.529 92.4539 417.117C91.7055 417.706 90.7809 418.025 89.829 418.024H76.2188C75.6402 418.025 75.0676 417.908 74.5362 417.679C74.0047 417.45 73.5256 417.116 73.1284 416.695C72.7311 416.274 72.4242 415.777 72.2263 415.233C72.0285 414.69 71.944 414.111 71.978 413.534L72.0903 411.466L72.1053 411.216L77.2914 315.825L90.9541 247.686L135.983 243.341Z" fill="#002E55"/>
<path d="M365.755 61.8145H184.945C184.945 61.8145 168.509 62.4456 168.891 81.5214C169.272 100.597 167.496 351.322 167.496 351.322H329.928C329.928 351.322 349.703 355.156 351.382 324.63L351.978 75.2925C351.978 75.2925 351.818 63.6405 365.755 61.8145Z" fill="#FF9C00"/>
<path d="M208.062 257.672C202.927 257.672 197.953 255.884 193.994 252.614C190.035 249.345 187.339 244.798 186.369 239.756C185.398 234.714 186.215 229.491 188.678 224.986C191.141 220.481 195.097 216.974 199.865 215.07C204.633 213.165 209.916 212.98 214.805 214.548C219.694 216.116 223.885 219.338 226.656 223.661C229.427 227.984 230.606 233.136 229.989 238.234C229.373 243.331 227 248.055 223.279 251.592C219.178 255.501 213.728 257.679 208.062 257.672V257.672Z" fill="#ECECEC"/>
<path d="M208.062 213.997C212.332 213.997 216.506 215.263 220.056 217.635C223.606 220.007 226.373 223.379 228.007 227.323C229.641 231.268 230.068 235.609 229.235 239.796C228.402 243.984 226.346 247.83 223.327 250.85C220.308 253.869 216.461 255.925 212.274 256.758C208.086 257.591 203.746 257.163 199.801 255.529C195.856 253.895 192.485 251.128 190.113 247.578C187.74 244.028 186.474 239.854 186.474 235.585C186.474 229.859 188.749 224.368 192.797 220.32C196.846 216.271 202.337 213.997 208.062 213.997V213.997ZM208.062 212.999C203.595 212.999 199.228 214.324 195.514 216.805C191.8 219.287 188.905 222.815 187.196 226.942C185.486 231.068 185.039 235.61 185.911 239.991C186.782 244.372 188.933 248.396 192.092 251.555C195.25 254.714 199.275 256.865 203.656 257.736C208.037 258.608 212.578 258.16 216.705 256.451C220.832 254.742 224.36 251.847 226.841 248.133C229.323 244.418 230.648 240.052 230.648 235.585C230.642 229.596 228.26 223.855 224.026 219.621C219.792 215.386 214.05 213.005 208.062 212.999V212.999Z" fill="#13192F"/>
<path d="M214.545 230.112C214.545 230.112 217.234 230.701 215.827 233.495C214.42 236.289 212.15 234.942 212.15 234.942L214.545 230.112Z" fill="#F78C68"/>
<path d="M206.945 254.159C202.205 253.895 201.719 248.457 201.719 248.457C202.592 246.888 202.831 243.907 202.861 241.42C202.861 241.17 202.861 240.948 202.861 240.721C202.861 238.788 202.739 237.306 202.739 237.306C202.735 236.92 202.753 236.533 202.794 236.149C203.373 230.641 208.604 232.123 210.839 235.386C211.565 236.375 211.918 237.589 211.837 238.813C211.655 240.712 211.762 242.629 212.156 244.496V244.496C212.412 245.798 212.82 247.066 213.373 248.272C213.645 249.959 211.694 254.421 206.945 254.159Z" fill="#F78C68"/>
<path d="M212.148 244.495C207.042 245.742 204.196 243.248 202.861 241.419C202.861 241.17 202.861 240.948 202.861 240.721C202.861 238.788 202.739 237.306 202.739 237.306C202.735 236.919 202.753 236.533 202.794 236.148C204.592 231.823 208.162 232.843 210.839 235.385C211.565 236.374 211.918 237.588 211.837 238.812C211.652 240.712 211.757 242.628 212.148 244.495V244.495Z" fill="#D34A28"/>
<path d="M199.489 231.898C199.489 231.898 199.435 243.528 208.535 241.901C217.635 240.275 213.898 226.003 213.898 226.003C213.898 226.003 197.554 221.508 199.489 231.898Z" fill="#F78C68"/>
<path d="M199.324 230.756C199.324 230.756 196.635 231.345 198.042 234.138C199.449 236.932 201.719 235.585 201.719 235.585L199.324 230.756Z" fill="#F78C68"/>
<path d="M240.3 217.118L241.118 218.776C241.125 218.79 241.135 218.802 241.147 218.811C241.159 218.82 241.173 218.826 241.188 218.829L243.022 219.093C243.038 219.096 243.054 219.104 243.067 219.116C243.08 219.127 243.089 219.142 243.094 219.158C243.099 219.175 243.1 219.192 243.096 219.209C243.092 219.225 243.083 219.241 243.071 219.253L241.747 220.545C241.736 220.556 241.728 220.568 241.723 220.583C241.718 220.597 241.717 220.612 241.719 220.627L242.031 222.451C242.034 222.468 242.033 222.485 242.027 222.501C242.02 222.518 242.01 222.532 241.996 222.542C241.982 222.552 241.966 222.559 241.949 222.56C241.932 222.562 241.914 222.558 241.899 222.551L240.26 221.688C240.247 221.68 240.232 221.676 240.216 221.676C240.201 221.676 240.186 221.68 240.173 221.688L238.534 222.551C238.518 222.558 238.501 222.561 238.484 222.56C238.467 222.558 238.45 222.552 238.436 222.541C238.423 222.531 238.412 222.517 238.405 222.501C238.399 222.485 238.397 222.468 238.399 222.451L238.713 220.627C238.716 220.612 238.715 220.597 238.71 220.583C238.705 220.568 238.697 220.556 238.686 220.545L237.359 219.253C237.347 219.241 237.338 219.225 237.334 219.208C237.331 219.191 237.331 219.174 237.337 219.157C237.342 219.141 237.352 219.126 237.365 219.115C237.378 219.104 237.394 219.096 237.411 219.093L239.245 218.829C239.259 218.826 239.273 218.82 239.285 218.811C239.297 218.802 239.306 218.79 239.312 218.776L240.133 217.118C240.14 217.102 240.152 217.088 240.167 217.079C240.182 217.069 240.199 217.064 240.216 217.064C240.234 217.064 240.251 217.069 240.266 217.079C240.281 217.088 240.293 217.102 240.3 217.118V217.118Z" fill="#ECECEC"/>
<path d="M248.075 217.117L248.896 218.776C248.903 218.79 248.912 218.802 248.924 218.811C248.937 218.82 248.951 218.826 248.966 218.829L250.797 219.093C250.814 219.096 250.83 219.103 250.843 219.115C250.856 219.126 250.866 219.141 250.871 219.157C250.877 219.173 250.878 219.191 250.874 219.208C250.87 219.225 250.861 219.24 250.849 219.253L249.522 220.545C249.511 220.555 249.503 220.568 249.498 220.583C249.494 220.597 249.494 220.613 249.497 220.627L249.809 222.451C249.812 222.468 249.809 222.485 249.803 222.501C249.796 222.517 249.785 222.531 249.772 222.541C249.758 222.551 249.741 222.558 249.724 222.559C249.707 222.561 249.69 222.558 249.674 222.551L248.035 221.687C248.022 221.68 248.008 221.676 247.993 221.676C247.978 221.676 247.963 221.68 247.95 221.687L246.309 222.551C246.294 222.558 246.276 222.562 246.259 222.56C246.242 222.558 246.226 222.552 246.212 222.542C246.198 222.531 246.188 222.517 246.181 222.501C246.175 222.485 246.174 222.468 246.177 222.451L246.489 220.627C246.491 220.612 246.49 220.597 246.485 220.583C246.48 220.568 246.472 220.555 246.461 220.545L245.137 219.253C245.125 219.24 245.116 219.225 245.112 219.208C245.108 219.192 245.109 219.174 245.114 219.158C245.119 219.142 245.128 219.127 245.141 219.115C245.154 219.104 245.17 219.096 245.187 219.093L247.02 218.829C247.035 218.826 247.049 218.82 247.061 218.811C247.073 218.802 247.083 218.79 247.09 218.776L247.911 217.117C247.918 217.101 247.929 217.088 247.944 217.078C247.958 217.069 247.975 217.063 247.993 217.063C248.01 217.063 248.027 217.069 248.042 217.078C248.057 217.088 248.068 217.101 248.075 217.117V217.117Z" fill="#ECECEC"/>
<path d="M256.15 217.117L256.971 218.776C256.977 218.79 256.987 218.802 256.999 218.812C257.011 218.821 257.026 218.827 257.041 218.829L258.872 219.093C258.889 219.096 258.905 219.103 258.918 219.115C258.931 219.126 258.941 219.141 258.946 219.157C258.952 219.173 258.953 219.191 258.949 219.208C258.945 219.225 258.936 219.24 258.924 219.253L257.597 220.545C257.586 220.555 257.578 220.568 257.573 220.583C257.568 220.597 257.567 220.612 257.57 220.627L257.884 222.451C257.887 222.468 257.885 222.485 257.878 222.501C257.871 222.517 257.861 222.531 257.847 222.541C257.833 222.551 257.816 222.558 257.799 222.559C257.782 222.561 257.765 222.558 257.749 222.551L256.115 221.695C256.102 221.687 256.088 221.684 256.073 221.684C256.058 221.684 256.043 221.687 256.031 221.695L254.389 222.558C254.374 222.566 254.356 222.569 254.339 222.568C254.322 222.566 254.306 222.56 254.292 222.549C254.278 222.539 254.268 222.525 254.261 222.509C254.255 222.493 254.254 222.475 254.257 222.458L254.569 220.635C254.571 220.62 254.57 220.604 254.565 220.59C254.561 220.576 254.552 220.563 254.541 220.552L253.217 219.26C253.205 219.248 253.196 219.233 253.192 219.216C253.188 219.199 253.189 219.182 253.194 219.165C253.199 219.149 253.208 219.134 253.221 219.123C253.234 219.111 253.25 219.104 253.267 219.101L255.1 218.836C255.115 218.834 255.129 218.828 255.141 218.818C255.154 218.809 255.163 218.797 255.17 218.784L255.991 217.125C255.997 217.11 256.008 217.097 256.022 217.088C256.036 217.078 256.052 217.073 256.068 217.072C256.085 217.072 256.101 217.075 256.116 217.083C256.13 217.091 256.142 217.103 256.15 217.117V217.117Z" fill="#ECECEC"/>
<path d="M264.536 217.118L265.356 218.777C265.363 218.79 265.373 218.802 265.385 218.811C265.397 218.82 265.411 218.827 265.426 218.829L267.257 219.093C267.274 219.096 267.29 219.104 267.304 219.115C267.317 219.126 267.326 219.141 267.332 219.157C267.337 219.174 267.338 219.191 267.334 219.208C267.33 219.225 267.322 219.241 267.31 219.253L265.983 220.545C265.972 220.556 265.965 220.569 265.961 220.584C265.956 220.598 265.955 220.613 265.958 220.628L266.269 222.451C266.273 222.468 266.272 222.486 266.265 222.503C266.259 222.519 266.248 222.534 266.234 222.544C266.22 222.555 266.203 222.561 266.185 222.562C266.168 222.563 266.15 222.559 266.135 222.551L264.496 221.695C264.483 221.688 264.468 221.684 264.453 221.684C264.439 221.684 264.424 221.688 264.411 221.695L262.772 222.558C262.757 222.567 262.739 222.571 262.722 222.57C262.704 222.568 262.687 222.562 262.673 222.552C262.659 222.541 262.648 222.527 262.642 222.51C262.635 222.494 262.634 222.476 262.637 222.459L262.949 220.635C262.952 220.62 262.951 220.605 262.946 220.591C262.942 220.577 262.934 220.564 262.924 220.553L261.597 219.261C261.585 219.248 261.577 219.233 261.573 219.216C261.569 219.199 261.57 219.181 261.575 219.165C261.58 219.148 261.59 219.134 261.603 219.123C261.617 219.111 261.632 219.104 261.65 219.101L263.481 218.837C263.496 218.834 263.51 218.828 263.522 218.819C263.534 218.81 263.544 218.798 263.55 218.784L264.371 217.125C264.377 217.109 264.388 217.095 264.402 217.084C264.417 217.074 264.433 217.068 264.451 217.067C264.468 217.067 264.486 217.071 264.501 217.08C264.516 217.089 264.528 217.102 264.536 217.118V217.118Z" fill="#ECECEC"/>
<path d="M272.674 217.117L273.495 218.776C273.502 218.79 273.512 218.802 273.524 218.811C273.536 218.82 273.55 218.826 273.565 218.829L275.396 219.093C275.413 219.096 275.429 219.103 275.442 219.115C275.455 219.126 275.465 219.141 275.471 219.157C275.476 219.173 275.477 219.191 275.473 219.208C275.469 219.225 275.46 219.24 275.448 219.253L274.121 220.545C274.111 220.556 274.104 220.569 274.099 220.583C274.095 220.597 274.094 220.612 274.096 220.627L274.408 222.451C274.412 222.468 274.41 222.486 274.404 222.502C274.398 222.519 274.387 222.533 274.373 222.544C274.359 222.554 274.342 222.56 274.324 222.562C274.306 222.563 274.289 222.559 274.273 222.551L272.635 221.687C272.622 221.68 272.607 221.676 272.592 221.676C272.577 221.676 272.563 221.68 272.55 221.687L270.911 222.551C270.895 222.559 270.878 222.563 270.86 222.562C270.843 222.56 270.826 222.554 270.812 222.544C270.797 222.533 270.786 222.519 270.78 222.502C270.774 222.486 270.772 222.468 270.776 222.451L271.088 220.627C271.09 220.612 271.089 220.597 271.085 220.583C271.081 220.569 271.073 220.556 271.063 220.545L269.736 219.253C269.724 219.24 269.715 219.225 269.711 219.208C269.708 219.191 269.708 219.173 269.714 219.157C269.719 219.141 269.729 219.126 269.742 219.115C269.755 219.103 269.771 219.096 269.788 219.093L271.619 218.829C271.634 218.826 271.648 218.82 271.661 218.811C271.673 218.802 271.683 218.79 271.689 218.776L272.51 217.117C272.517 217.101 272.528 217.088 272.543 217.078C272.558 217.069 272.575 217.063 272.592 217.063C272.61 217.063 272.627 217.069 272.641 217.078C272.656 217.088 272.667 217.101 272.674 217.117V217.117Z" fill="#ECECEC"/>
<path d="M259.482 229.91H239.813C238.793 229.91 237.967 230.736 237.967 231.755C237.967 232.774 238.793 233.6 239.813 233.6H259.482C260.502 233.6 261.328 232.774 261.328 231.755C261.328 230.736 260.502 229.91 259.482 229.91Z" fill="#ECECEC"/>
<path d="M276.902 239.584H239.813C238.793 239.584 237.967 240.41 237.967 241.429C237.967 242.448 238.793 243.273 239.813 243.273H276.902C277.921 243.273 278.748 242.448 278.748 241.429C278.748 240.41 277.921 239.584 276.902 239.584Z" fill="#ECECEC"/>
<path d="M298.088 249.285H239.813C238.793 249.285 237.967 250.111 237.967 251.13C237.967 252.149 238.793 252.975 239.813 252.975H298.088C299.107 252.975 299.934 252.149 299.934 251.13C299.934 250.111 299.107 249.285 298.088 249.285Z" fill="#ECECEC"/>
<path d="M328.799 242.776H315.984V255.591H328.799V242.776Z" fill="#ECECEC"/>
<path d="M328.299 243.276V255.093H316.482V243.276H328.299ZM329.297 242.278H315.484V256.091H329.297V242.278Z" fill="#13192F"/>
<path d="M222.937 251.23C220.783 253.277 218.229 254.858 215.436 255.872C212.644 256.887 209.671 257.314 206.706 257.127C203.74 256.939 200.845 256.142 198.202 254.784C195.559 253.426 193.225 251.537 191.346 249.235C194.908 247.376 198.727 246.905 202.322 246.74C202.322 246.74 207.004 252.697 212.754 246.74C212.764 246.76 215.847 246.566 222.937 251.23Z" fill="#025B95"/>
<path d="M199.738 231.606L200.042 232.222C200.472 231.088 200.719 229.894 200.775 228.682C200.779 228.56 200.811 228.441 200.869 228.333C200.926 228.225 201.008 228.132 201.107 228.061C201.207 227.99 201.321 227.943 201.442 227.923C201.563 227.904 201.686 227.913 201.803 227.949C203.799 228.553 208.149 229.535 212.333 228.173C212.423 228.14 212.52 228.127 212.616 228.136C212.712 228.144 212.805 228.173 212.889 228.222C212.972 228.27 213.044 228.336 213.099 228.415C213.155 228.494 213.192 228.585 213.208 228.68L213.742 231.746L214.193 230.833C214.249 230.722 214.326 230.624 214.422 230.545C214.517 230.466 214.628 230.408 214.748 230.375C214.867 230.342 214.992 230.334 215.114 230.353C215.237 230.371 215.354 230.414 215.458 230.481C215.721 230.625 215.921 230.86 216.022 231.142C216.239 231.89 217.322 225.405 215.241 222.865C213.744 221.064 204.712 217.627 199.685 222.274C195.529 226.115 197.887 231.753 197.887 231.753C197.935 231.62 198.007 231.497 198.101 231.391C198.209 231.27 198.346 231.177 198.498 231.12C198.651 231.063 198.815 231.044 198.976 231.066C199.138 231.087 199.291 231.147 199.424 231.241C199.557 231.335 199.664 231.461 199.738 231.606V231.606Z" fill="#13192F"/>
<path d="M208.905 210.635C208.742 210.831 208.554 211.005 208.346 211.154C208.346 211.154 210.2 213.508 206.318 216.2C202.756 218.67 202.389 220.743 188.954 219.084C187.759 218.937 186.459 218.759 185.047 218.55L183.273 211.154C183.273 211.154 184.097 210.54 185.426 209.709C188.669 207.686 194.888 204.373 199.545 205.469C199.545 205.469 200.75 207.025 197.699 208.195L193.262 209.642L207.994 208.849C208.207 208.834 208.42 208.883 208.606 208.988C208.791 209.093 208.942 209.251 209.039 209.441C209.136 209.631 209.175 209.846 209.151 210.058C209.127 210.27 209.042 210.471 208.905 210.635V210.635Z" fill="#F78C68"/>
<path d="M23.1538 408.096H52.1504C52.5176 408.096 52.8697 408.242 53.1294 408.501C53.389 408.761 53.5349 409.113 53.5349 409.48V411.738C53.5349 412.445 53.2539 413.123 52.7538 413.623C52.2537 414.123 51.5755 414.404 50.8682 414.404H24.446C23.7387 414.404 23.0604 414.123 22.5603 413.623C22.0602 413.123 21.7793 412.445 21.7793 411.738V409.48C21.7793 409.113 21.9252 408.761 22.1848 408.501C22.4444 408.242 22.7966 408.096 23.1638 408.096H23.1538Z" fill="#BA462B"/>
<path d="M51.3603 411.256L48.7984 434.35L48.3244 438.616H27.0684L25.1825 420.75L24.1797 411.256H51.3603Z" fill="#BA462B"/>
<path opacity="0.48" d="M48.7975 434.35L48.3235 438.616H27.0675L25.1816 420.76C29.2128 425.784 36.921 432.958 48.7975 434.35Z" fill="#59332B"/>
<path d="M33.1523 340.209C33.1523 340.209 37.201 390.474 36.989 408.096" stroke="#3F4F21" stroke-width="1.24727" stroke-miterlimit="10"/>
<path d="M36.6133 392.868C36.6133 392.868 48.4424 383.656 48.7991 369.205" stroke="#3F4F21" stroke-width="1.24727" stroke-miterlimit="10"/>
<path d="M34.373 356.346C34.373 356.346 43.553 342.573 44.4136 322.704" stroke="#3F4F21" stroke-width="1.24727" stroke-miterlimit="10"/>
<path d="M26.9082 357.778C26.9082 357.778 28.0283 370.653 35.0753 374.153" stroke="#3F4F21" stroke-width="1.24727" stroke-miterlimit="10"/>
<path d="M26.9082 377.133C26.9082 377.133 31.7676 386.303 36.3476 387.425" stroke="#3F4F21" stroke-width="1.24727" stroke-miterlimit="10"/>
<path d="M48.5698 372.169C48.5698 372.169 38.7038 355.777 45.3867 339.525C52.0696 323.273 56.5548 320.242 58.0665 325.306C59.5782 330.37 63.2028 361.676 48.5698 372.169Z" fill="#606D29"/>
<path d="M41.3342 273.12C41.3342 273.12 40.0869 277.416 40.3139 289.24C40.5409 301.064 35.921 297.938 36.9912 304.614C38.0614 311.289 40.4836 324.944 44.405 324.101C48.3264 323.258 52.0782 313.375 51.3124 303.716C50.5466 294.057 48.3189 292.615 48.7904 287.955C49.2619 283.295 45.8069 268.815 41.3342 273.12Z" fill="#3F4F21"/>
<path d="M19.5897 294.329C19.5897 294.329 16.7734 311.906 21.7699 318.052C26.7665 324.199 21.9296 337.969 33.5267 344.979C33.5267 344.979 39.7207 340.703 39.117 331.428C38.8204 327.36 37.2075 323.498 34.5221 320.427C32.2171 317.753 29.1214 313.492 28.9792 309.793C28.7522 303.871 21.8597 289.772 19.5897 294.329Z" fill="#606D29"/>
<path d="M12.6279 330.208C12.3755 330.181 12.1202 330.211 11.8811 330.297C11.642 330.382 11.425 330.52 11.2464 330.7C11.0677 330.88 10.9319 331.098 10.8489 331.338C10.7659 331.578 10.7379 331.834 10.767 332.086C11.4755 338.322 14.9304 361.651 26.9092 360.975C39.6563 360.259 21.5085 331.205 12.6279 330.208Z" fill="#3F4F21"/>
<path d="M15.5513 365.531C15.8007 370.116 17.6492 380.424 28.9794 381.037C28.9794 381.037 35.348 379.074 30.0221 372.858C26.2329 368.437 20.5029 365.499 17.512 364.172C17.2929 364.075 17.0526 364.035 16.814 364.058C16.5754 364.081 16.3467 364.164 16.1498 364.301C15.9529 364.437 15.7944 364.622 15.6896 364.838C15.5847 365.053 15.5371 365.292 15.5513 365.531V365.531Z" fill="#606D29"/>
<path d="M149.27 294.681V413.628C149.27 414.207 149.155 414.78 148.934 415.314C148.712 415.849 148.387 416.335 147.977 416.743C147.567 417.152 147.081 417.476 146.546 417.696C146.011 417.917 145.438 418.03 144.859 418.029H130.486C129.389 418.028 128.332 417.619 127.522 416.881C126.711 416.143 126.205 415.129 126.103 414.037L125.923 412.094L125.901 411.845L116.172 306.156L117.699 248.437L145.258 234.051L149.27 294.681Z" fill="#002E55"/>
<path d="M188.954 219.083C187.759 218.936 186.459 218.759 185.047 218.55L183.273 211.153C183.273 211.153 184.097 210.54 185.426 209.709L188.954 219.083Z" fill="#D34A28"/>
<path d="M185.366 222.845C181.949 225.222 171.878 231.915 162.629 235.046C158.605 236.408 154.738 237.094 151.653 236.46C146.182 235.34 145.002 224.172 145.319 212.47C145.683 198.825 148.083 184.459 148.083 184.459C148.083 184.459 153.701 204.353 155.816 215.935L182.026 208.973C182.355 208.886 182.699 208.869 183.034 208.925C183.37 208.981 183.69 209.107 183.973 209.296C184.256 209.484 184.496 209.731 184.676 210.02C184.857 210.308 184.974 210.631 185.02 210.969L186.362 220.56C186.421 220.996 186.359 221.439 186.184 221.842C186.008 222.245 185.725 222.592 185.366 222.845V222.845Z" fill="#ECECEC"/>
<path d="M148.268 257.173L107.58 265.814L101.875 267.026L84.3379 246.778L85.5577 241.34L111.414 237.858L139.794 234.036L148.268 257.173Z" fill="#001B48"/>
<path d="M162.629 235.046C158.605 236.408 154.738 237.094 151.653 236.461C146.182 235.341 145.002 224.173 145.319 212.471L162.629 235.046Z" fill="#D7DDDC"/>
<path d="M156.445 322.724C152.552 323.409 148.544 323.01 144.863 321.569C144.443 321.401 144.08 321.114 143.819 320.744C143.558 320.374 143.409 319.936 143.391 319.484C143.042 310.641 141.129 262.703 139.794 234.048C139.37 224.97 139.006 217.833 138.769 214.478C137.808 201.008 131.098 181.64 129.718 177.774C129.556 177.325 129.634 177.202 129.634 177.202L129.135 173.827C129.83 174.125 130.503 174.417 131.155 174.703L131.258 174.748C144.391 180.557 148.078 184.476 148.078 184.476L154.439 267.046L154.746 271.022L158.526 320.085C158.57 320.705 158.381 321.319 157.996 321.807C157.612 322.296 157.058 322.623 156.445 322.724V322.724Z" fill="#ECECEC"/>
<path d="M140.161 246.18C140.161 246.18 122.882 250.882 109.147 251.311C103.334 251.49 103.022 237.521 104.597 221.349C106.739 199.312 113.3 173.528 113.3 173.528L124.653 185.674L129.819 176.432C129.819 176.432 135.442 192.357 137.916 207.995C139.468 217.809 139.954 230.344 140.099 238.319C140.194 243.051 140.161 246.18 140.161 246.18Z" fill="#025B95"/>
<path opacity="0.32" d="M140.161 246.179C140.161 246.179 122.882 250.881 109.147 251.31C103.334 251.49 103.022 237.52 104.597 221.348C108.398 213.366 111.831 209.444 111.831 209.444C111.831 209.444 120.482 228.153 140.109 238.319C140.194 243.051 140.161 246.179 140.161 246.179Z" fill="#002E55"/>
<path d="M111.414 237.857C111.232 239.658 111.035 241.488 110.822 243.345C110.002 250.519 108.942 258.043 107.58 265.816C104.516 283.333 99.9288 302.122 93.1461 321.045C93.1461 321.045 87.2715 323.27 71.9974 321.592C71.4504 321.533 70.922 321.359 70.447 321.081C69.9719 320.804 69.561 320.429 69.2411 319.981C68.9211 319.534 68.6995 319.023 68.5907 318.484C68.4819 317.945 68.4884 317.389 68.6098 316.852L82.245 256.14L84.3454 246.78L85.5652 241.342L88.0248 230.381L88.9578 226.223C88.9578 226.223 99.6344 199.608 98.24 191.858C96.8455 184.107 91.5671 178.372 91.5671 178.372C96.6496 176.409 101.907 174.931 107.268 173.959C108.904 173.66 111.538 173.737 113.307 173.53C113.3 173.528 115.28 200.04 111.414 237.857Z" fill="#ECECEC"/>
<path d="M110.823 243.335L102.648 203.922L110.711 200.137L102.648 199.639L107.263 173.945C108.9 173.645 111.554 173.516 113.303 173.516C113.3 173.528 115.473 202.624 110.823 243.335Z" fill="#D7DDDC"/>
<path d="M142.835 203.453L139.794 234.036C139.37 224.959 139.006 217.822 138.769 214.467C137.923 202.607 132.635 186.193 130.427 179.787C129.953 178.397 129.607 176.967 129.392 175.514L129.143 173.815L131.163 174.691L131.265 174.736L140.176 196.236H135.995L142.835 203.453Z" fill="#D7DDDC"/>
<path d="M360.722 45.728C367.703 45.728 373.362 40.0689 373.362 33.0881C373.362 26.1073 367.703 20.4482 360.722 20.4482C353.741 20.4482 348.082 26.1073 348.082 33.0881C348.082 40.0689 353.741 45.728 360.722 45.728Z" fill="#FC461E"/>
<path d="M117.682 211.594L129.992 196.478L153.593 197.515L132.921 223.546L108.898 222.271L117.682 211.594Z" fill="#FF9C00"/>
<path d="M142.127 211.513C141.853 214.257 138.577 221.468 133.646 221.064C131.9 220.922 130.42 220.815 129.228 220.757C127.03 220.633 125.82 220.613 125.82 220.613L123.85 213.181C123.85 213.181 124.349 212.867 125.097 212.406C127.621 210.859 133.079 207.666 132.738 209.195C132.294 211.191 131.263 211.513 131.263 211.513C131.263 211.513 142.402 208.759 142.127 211.513Z" fill="#F78C68"/>
<path d="M129.214 220.757C127.017 220.633 125.807 220.613 125.807 220.613L123.836 213.181C123.836 213.181 123.806 213.181 124.557 212.732L129.214 220.757Z" fill="#D34A28"/>
<path d="M149.27 334.726H314.833C314.833 334.726 313.488 347.465 328.261 351.317H165.831C165.831 351.317 155.149 349.98 149.27 334.726Z" fill="#E88900"/>
<path d="M101.875 230.379L82.2383 256.138L88.0181 230.379H101.875Z" fill="#D7DDDC"/>
<path d="M102.646 215.889L100.309 202.396L92.0566 221.082L102.646 215.889Z" fill="#D7DDDC"/>
<path d="M338.902 439.32C338.853 439.038 333.978 410.732 342.145 376.457L343.358 376.746C335.268 410.755 340.095 438.823 340.142 439.11L338.902 439.32Z" fill="#283115"/>
<path d="M337.877 420.012V418.765V419.388V418.765C338.154 418.765 344.672 418.515 346.66 405.419L347.893 405.606C345.725 419.832 338.186 420.012 337.877 420.012Z" fill="#283115"/>
<path d="M338.34 404.865C337.273 404.85 336.231 404.547 335.324 403.987C332.719 402.433 330.751 399.08 329.477 394.008L330.684 393.704C333.458 404.703 338.634 403.617 338.851 403.565L339.153 404.775C338.886 404.836 338.613 404.866 338.34 404.865Z" fill="#283115"/>
<path d="M91.5595 178.37C91.5595 178.37 76.7569 211.607 76.3253 223.546C75.8938 235.485 84.9589 240.706 99.1579 234.036C110.575 228.673 122.013 224.038 126.054 222.429C126.461 222.266 126.786 221.949 126.96 221.547C127.134 221.145 127.142 220.691 126.982 220.283L124.298 213.431C124.168 213.097 123.927 212.818 123.615 212.642C123.303 212.466 122.94 212.402 122.587 212.463L97.2421 216.816L101.952 194.697C101.952 194.697 99.7541 184.512 91.5595 178.37Z" fill="#ECECEC"/>
<path d="M0 438.143L395.732 438.921" stroke="#ECECEC" stroke-width="1.24727" stroke-miterlimit="10"/>
<path d="M86.045 267.026H101.875L100.666 271.003H84.1367L86.045 267.026Z" fill="#D7DDDC"/>
<path d="M154.738 271.003H146.658L147.848 267.026H154.431L154.738 271.003Z" fill="#D7DDDC"/>
<path d="M336.219 36.7327C336.219 37.4811 336.76 38.0997 337.429 38.0997H361.384C362.052 38.0997 362.594 37.4885 362.594 36.7327V12.2861H336.219V36.7327Z" fill="#D7DDDC"/>
<path d="M338.104 34.47C338.104 35.2184 338.567 35.837 339.139 35.837H359.686C360.26 35.837 360.724 35.2233 360.724 34.47V10.0234H338.104V34.47Z" fill="#ECECEC"/>
<path d="M361.384 4.52246H337.436C336.768 4.52246 336.227 5.13362 336.227 5.88947V12.278H362.611V5.88947C362.604 5.13362 362.063 4.52246 361.384 4.52246Z" fill="#FF9C00"/>
<path d="M343.548 9.50939C344.315 9.50939 344.937 8.88731 344.937 8.11993C344.937 7.35255 344.315 6.73047 343.548 6.73047C342.78 6.73047 342.158 7.35255 342.158 8.11993C342.158 8.88731 342.78 9.50939 343.548 9.50939Z" fill="#100C25"/>
<path d="M343.256 7.37602C343.064 7.37602 342.88 7.2998 342.745 7.16413C342.609 7.02846 342.533 6.84446 342.533 6.6526V3.6342C342.531 3.46401 342.588 3.29836 342.693 3.16458C342.798 3.0308 342.946 2.93687 343.112 2.8983C343.217 2.87728 343.325 2.87978 343.429 2.90562C343.532 2.93147 343.629 2.98003 343.712 3.04779C343.795 3.11555 343.862 3.20083 343.907 3.29749C343.953 3.39414 343.977 3.49977 343.977 3.60675V4.52225H345.2V3.67161C345.205 3.17068 345.022 2.68608 344.686 2.31406C344.351 1.94204 343.887 1.70981 343.389 1.6635C343.123 1.64576 342.856 1.68276 342.605 1.77222C342.354 1.86168 342.124 2.00169 341.929 2.1836C341.734 2.36551 341.579 2.58545 341.473 2.82981C341.366 3.07417 341.311 3.33775 341.311 3.60426V6.59772C341.307 7.08877 341.485 7.56383 341.81 7.93202C342.135 8.3002 342.584 8.53567 343.072 8.59335C343.178 8.60207 343.285 8.60207 343.391 8.59335C344.159 8.54097 344.097 7.37602 343.324 7.37602H343.256Z" fill="white"/>
<path d="M354.62 9.50939C355.387 9.50939 356.009 8.88731 356.009 8.11993C356.009 7.35255 355.387 6.73047 354.62 6.73047C353.853 6.73047 353.23 7.35255 353.23 8.11993C353.23 8.88731 353.853 9.50939 354.62 9.50939Z" fill="#100C25"/>
<path d="M354.326 7.37602C354.231 7.37602 354.137 7.35729 354.05 7.3209C353.962 7.28451 353.882 7.23119 353.815 7.16398C353.748 7.09677 353.695 7.017 353.659 6.92925C353.623 6.84149 353.605 6.74748 353.605 6.6526V3.6342C353.604 3.46401 353.66 3.29836 353.765 3.16458C353.87 3.0308 354.018 2.93687 354.184 2.8983C354.289 2.87728 354.397 2.87978 354.501 2.90562C354.605 2.93147 354.702 2.98003 354.784 3.04779C354.867 3.11555 354.934 3.20083 354.98 3.29749C355.026 3.39414 355.049 3.49977 355.05 3.60675V4.52225H356.272V3.67161C356.277 3.17068 356.094 2.68608 355.758 2.31406C355.423 1.94204 354.96 1.70981 354.461 1.6635C354.195 1.64576 353.928 1.68276 353.677 1.77222C353.426 1.86168 353.196 2.00169 353.001 2.1836C352.807 2.36551 352.651 2.58545 352.545 2.82981C352.438 3.07417 352.383 3.33775 352.383 3.60426V6.59772C352.379 7.08648 352.555 7.55965 352.877 7.9275C353.198 8.29534 353.644 8.53227 354.129 8.59335C354.235 8.60205 354.342 8.60205 354.448 8.59335C355.219 8.54097 355.154 7.37602 354.384 7.37602H354.326Z" fill="white"/>
<path d="M88.9379 422.756V438.142H52.4826C52.4826 438.142 51.5746 426.109 76.9142 424.936V422.756C76.9142 422.756 81.6064 424.278 88.9379 422.756Z" fill="#ECECEC"/>
<path d="M130.037 422.756V438.142H166.492C166.492 438.142 167.403 426.109 142.061 424.936V422.756C142.061 422.756 137.374 424.278 130.037 422.756Z" fill="#ECECEC"/>
<path d="M180.461 133.061L335.956 132.712" stroke="#ECECEC" stroke-width="1.24727" stroke-miterlimit="10"/>
<path d="M180.461 202.582L335.956 202.232" stroke="#ECECEC" stroke-width="1.24727" stroke-miterlimit="10"/>
<path d="M180.461 271.16L335.956 270.811" stroke="#ECECEC" stroke-width="1.24727" stroke-miterlimit="10"/>
<path d="M208.062 123.53C202.929 123.529 197.956 121.74 193.999 118.471C190.041 115.201 187.347 110.655 186.378 105.614C185.409 100.574 186.226 95.3524 188.689 90.8487C191.152 86.345 195.107 82.84 199.874 80.9362C204.642 79.0325 209.923 78.8489 214.811 80.417C219.699 81.9851 223.888 85.207 226.658 89.5288C229.428 93.8506 230.606 99.0023 229.989 104.098C229.372 109.195 227 113.917 223.279 117.453C219.178 121.361 213.727 123.538 208.062 123.53Z" fill="#ECECEC"/>
<path d="M208.063 79.8552C212.333 79.8552 216.507 81.1213 220.057 83.4934C223.607 85.8655 226.374 89.2371 228.008 93.1818C229.642 97.1264 230.069 101.467 229.236 105.655C228.403 109.842 226.347 113.689 223.328 116.708C220.309 119.727 216.462 121.783 212.275 122.616C208.087 123.449 203.747 123.022 199.802 121.388C195.857 119.754 192.486 116.987 190.114 113.437C187.742 109.886 186.475 105.713 186.475 101.443C186.475 95.7176 188.75 90.2267 192.798 86.1782C196.847 82.1297 202.338 79.8552 208.063 79.8552V79.8552ZM208.063 78.8574C203.596 78.8569 199.228 80.1813 195.513 82.6632C191.798 85.145 188.903 88.6728 187.193 92.8003C185.483 96.9278 185.035 101.47 185.907 105.852C186.778 110.234 188.929 114.259 192.089 117.418C195.248 120.577 199.273 122.728 203.655 123.6C208.037 124.471 212.578 124.024 216.706 122.314C220.834 120.604 224.361 117.708 226.843 113.993C229.325 110.278 230.649 105.911 230.649 101.443C230.642 95.455 228.261 89.7141 224.026 85.4799C219.792 81.2457 214.051 78.864 208.063 78.8574V78.8574Z" fill="#13192F"/>
<path d="M214.545 95.9697C214.545 95.9697 217.234 96.5559 215.827 99.3523C214.42 102.149 212.15 100.797 212.15 100.797L214.545 95.9697Z" fill="#F78C68"/>
<path d="M206.945 120.018C202.205 119.753 201.719 114.315 201.719 114.315C202.592 112.746 202.831 109.765 202.861 107.278C202.861 107.029 202.861 106.807 202.861 106.58C202.861 104.646 202.739 103.165 202.739 103.165C202.735 102.778 202.753 102.392 202.794 102.007C203.373 96.4993 208.604 97.9811 210.839 101.244C211.564 102.234 211.917 103.447 211.837 104.671C211.655 106.571 211.762 108.487 212.156 110.354V110.354C212.412 111.657 212.82 112.926 213.373 114.133C213.645 115.817 211.694 120.282 206.945 120.018Z" fill="#F78C68"/>
<path d="M212.148 110.353C207.042 111.601 204.196 109.106 202.861 107.278C202.861 107.028 202.861 106.806 202.861 106.579C202.861 104.646 202.739 103.164 202.739 103.164C202.735 102.778 202.753 102.391 202.794 102.007C204.592 97.6837 208.162 98.7014 210.839 101.243C211.564 102.233 211.917 103.447 211.837 104.671C211.652 106.57 211.757 108.486 212.148 110.353Z" fill="#D34A28"/>
<path d="M199.489 97.7565C199.489 97.7565 199.435 109.386 208.535 107.76C217.635 106.133 213.898 91.8619 213.898 91.8619C213.898 91.8619 197.554 87.3667 199.489 97.7565Z" fill="#F78C68"/>
<path d="M199.324 96.6162C199.324 96.6162 196.635 97.2024 198.042 99.9963C199.449 102.79 201.719 101.443 201.719 101.443L199.324 96.6162Z" fill="#F78C68"/>
<path d="M200.79 96.2398C200.79 96.2398 207.877 96.0128 210 92.6053C210 92.6053 211.055 96.644 214.545 95.9729C214.545 95.9729 217.289 93.169 215.136 90.1931C215.03 90.0455 214.89 89.9253 214.729 89.8424C214.567 89.7596 214.388 89.7164 214.206 89.7166V89.7166C214.206 89.7166 211.02 83.5351 203.389 87.0474C195.759 90.5598 198.131 94.2642 199.488 97.7565C199.814 97.632 200.104 97.4281 200.331 97.1632C200.559 96.8984 200.716 96.581 200.79 96.2398V96.2398Z" fill="#14192F"/>
<path d="M240.301 82.9758L241.119 84.6372C241.126 84.6503 241.136 84.6616 241.148 84.6703C241.16 84.6789 241.174 84.6847 241.189 84.6871L243.022 84.954C243.039 84.9567 243.055 84.964 243.068 84.9752C243.081 84.9864 243.09 85.0009 243.095 85.0172C243.101 85.0335 243.101 85.0509 243.097 85.0675C243.093 85.0841 243.084 85.0992 243.072 85.1112L241.747 86.4033C241.737 86.4139 241.728 86.4268 241.724 86.4412C241.719 86.4555 241.718 86.4707 241.72 86.4857L242.032 88.3117C242.034 88.3284 242.032 88.3456 242.026 88.3613C242.02 88.377 242.009 88.3906 241.995 88.4006C241.982 88.4107 241.966 88.4168 241.949 88.4183C241.932 88.4197 241.915 88.4165 241.9 88.4089L240.261 87.5483C240.247 87.5409 240.232 87.537 240.217 87.537C240.202 87.537 240.187 87.5409 240.173 87.5483L238.534 88.4089C238.519 88.4172 238.502 88.4209 238.485 88.4198C238.467 88.4187 238.451 88.4127 238.437 88.4025C238.423 88.3924 238.412 88.3785 238.405 88.3624C238.399 88.3463 238.397 88.3287 238.4 88.3117L238.714 86.4857C238.716 86.4707 238.715 86.4555 238.71 86.4412C238.706 86.4268 238.697 86.4139 238.687 86.4033L237.36 85.1112C237.347 85.099 237.339 85.0837 237.335 85.067C237.331 85.0502 237.331 85.0326 237.337 85.0163C237.342 84.9999 237.352 84.9854 237.365 84.9744C237.379 84.9634 237.395 84.9563 237.412 84.954L239.245 84.6871C239.26 84.6851 239.274 84.6795 239.285 84.6708C239.297 84.662 239.307 84.6505 239.313 84.6372L240.133 82.9758C240.142 82.9607 240.154 82.9481 240.168 82.9392C240.183 82.9304 240.2 82.9258 240.217 82.9258C240.234 82.9258 240.251 82.9304 240.266 82.9392C240.28 82.9481 240.292 82.9607 240.301 82.9758Z" fill="#ECECEC"/>
<path d="M248.076 82.9763L248.896 84.6377C248.903 84.6511 248.913 84.6626 248.925 84.6713C248.937 84.68 248.951 84.6856 248.966 84.6876L250.797 84.9545C250.814 84.9568 250.83 84.9639 250.844 84.9749C250.857 84.9859 250.867 85.0004 250.872 85.0168C250.878 85.0331 250.879 85.0507 250.875 85.0675C250.871 85.0842 250.862 85.0996 250.85 85.1117L249.523 86.4038C249.511 86.4141 249.503 86.4271 249.499 86.4416C249.495 86.4561 249.494 86.4715 249.498 86.4862L249.809 88.3122C249.812 88.3292 249.811 88.3468 249.804 88.3629C249.798 88.379 249.787 88.3929 249.773 88.403C249.759 88.4132 249.742 88.4192 249.725 88.4203C249.707 88.4215 249.69 88.4177 249.675 88.4095L248.036 87.5488C248.023 87.5414 248.008 87.5375 247.993 87.5375C247.979 87.5375 247.964 87.5414 247.951 87.5488L246.31 88.4095C246.294 88.417 246.277 88.4202 246.261 88.4188C246.244 88.4173 246.227 88.4112 246.214 88.4011C246.2 88.3911 246.19 88.3775 246.183 88.3618C246.177 88.3461 246.175 88.3289 246.177 88.3122L246.489 86.4862C246.492 86.4713 246.49 86.456 246.485 86.4417C246.481 86.4274 246.473 86.4144 246.462 86.4038L245.137 85.1117C245.125 85.0997 245.116 85.0846 245.112 85.068C245.108 85.0514 245.109 85.034 245.114 85.0177C245.119 85.0014 245.128 84.9869 245.141 84.9757C245.154 84.9646 245.17 84.9572 245.187 84.9545L247.021 84.6876C247.035 84.6856 247.049 84.68 247.062 84.6713C247.074 84.6626 247.084 84.6511 247.09 84.6377L247.911 82.9763C247.919 82.9611 247.931 82.9484 247.945 82.9394C247.96 82.9305 247.976 82.9258 247.993 82.9258C248.01 82.9258 248.027 82.9305 248.042 82.9394C248.056 82.9484 248.068 82.9611 248.076 82.9763V82.9763Z" fill="#ECECEC"/>
<path d="M256.15 82.9763L256.971 84.6377C256.977 84.6513 256.987 84.6631 256.999 84.6718C257.011 84.6806 257.026 84.686 257.041 84.6876L258.872 84.9545C258.889 84.9568 258.905 84.9639 258.918 84.9749C258.931 84.9859 258.941 85.0004 258.947 85.0168C258.952 85.0331 258.953 85.0507 258.949 85.0675C258.945 85.0842 258.936 85.0996 258.924 85.1117L257.597 86.4038C257.586 86.4144 257.578 86.4274 257.573 86.4417C257.568 86.456 257.567 86.4713 257.569 86.4862L257.884 88.3122C257.887 88.3292 257.885 88.3468 257.878 88.3629C257.872 88.379 257.861 88.3929 257.847 88.403C257.833 88.4132 257.816 88.4192 257.799 88.4203C257.782 88.4215 257.764 88.4177 257.749 88.4095L256.11 87.5488C256.097 87.5414 256.083 87.5375 256.068 87.5375C256.053 87.5375 256.038 87.5414 256.025 87.5488L254.384 88.4095C254.369 88.417 254.352 88.4202 254.335 88.4188C254.318 88.4173 254.302 88.4112 254.288 88.4011C254.274 88.3911 254.264 88.3775 254.257 88.3618C254.251 88.3461 254.249 88.3289 254.252 88.3122L254.563 86.4862C254.566 86.4713 254.564 86.456 254.56 86.4417C254.555 86.4274 254.547 86.4144 254.536 86.4038L253.211 85.1117C253.199 85.0997 253.19 85.0846 253.186 85.068C253.182 85.0514 253.183 85.034 253.188 85.0177C253.193 85.0014 253.203 84.9869 253.216 84.9757C253.229 84.9646 253.244 84.9572 253.261 84.9545L255.095 84.6876C255.11 84.6856 255.124 84.68 255.136 84.6713C255.148 84.6626 255.158 84.6511 255.165 84.6377L255.985 82.9763C255.993 82.9611 256.005 82.9484 256.019 82.9394C256.034 82.9305 256.051 82.9258 256.068 82.9258C256.085 82.9258 256.101 82.9305 256.116 82.9394C256.13 82.9484 256.142 82.9611 256.15 82.9763V82.9763Z" fill="#ECECEC"/>
<path d="M264.536 82.9763L265.357 84.6377C265.364 84.6511 265.374 84.6626 265.386 84.6713C265.398 84.68 265.412 84.6856 265.427 84.6876L267.258 84.9545C267.275 84.9568 267.291 84.9639 267.304 84.9749C267.318 84.9859 267.328 85.0004 267.333 85.0168C267.339 85.0331 267.339 85.0507 267.335 85.0675C267.331 85.0842 267.323 85.0996 267.31 85.1117L265.983 86.4038C265.973 86.4148 265.966 86.4279 265.961 86.4422C265.957 86.4564 265.956 86.4715 265.958 86.4862L266.27 88.3122C266.273 88.3292 266.271 88.3468 266.265 88.3629C266.258 88.379 266.247 88.3929 266.233 88.403C266.219 88.4132 266.203 88.4192 266.185 88.4203C266.168 88.4215 266.151 88.4177 266.135 88.4095L264.496 87.5488C264.484 87.5414 264.469 87.5375 264.454 87.5375C264.439 87.5375 264.425 87.5414 264.412 87.5488L262.773 88.4095C262.757 88.4177 262.74 88.4215 262.723 88.4203C262.706 88.4192 262.689 88.4132 262.675 88.403C262.661 88.3929 262.65 88.379 262.643 88.3629C262.637 88.3468 262.635 88.3292 262.638 88.3122L262.95 86.4862C262.952 86.4715 262.951 86.4564 262.947 86.4422C262.942 86.4279 262.935 86.4148 262.925 86.4038L261.598 85.1117C261.586 85.0996 261.577 85.0842 261.573 85.0675C261.569 85.0507 261.57 85.0331 261.575 85.0168C261.581 85.0004 261.59 84.9859 261.604 84.9749C261.617 84.9639 261.633 84.9568 261.65 84.9545L263.481 84.6876C263.496 84.6856 263.51 84.68 263.522 84.6713C263.534 84.6626 263.544 84.6511 263.551 84.6377L264.372 82.9763C264.379 82.9611 264.391 82.9484 264.406 82.9394C264.42 82.9305 264.437 82.9258 264.454 82.9258C264.471 82.9258 264.488 82.9305 264.502 82.9394C264.517 82.9484 264.529 82.9611 264.536 82.9763V82.9763Z" fill="#ECECEC"/>
<path d="M272.674 82.9763L273.495 84.6377C273.502 84.6511 273.511 84.6626 273.524 84.6713C273.536 84.68 273.55 84.6856 273.565 84.6876L275.396 84.9545C275.413 84.9568 275.429 84.9639 275.442 84.9749C275.455 84.9859 275.465 85.0004 275.471 85.0168C275.476 85.0332 275.477 85.0507 275.473 85.0675C275.469 85.0843 275.46 85.0996 275.448 85.1117L274.121 86.4039C274.111 86.4148 274.104 86.4279 274.099 86.4422C274.095 86.4564 274.094 86.4715 274.096 86.4862L274.408 88.3122C274.411 88.3293 274.409 88.3468 274.402 88.3629C274.396 88.379 274.385 88.3929 274.371 88.4031C274.357 88.4132 274.34 88.4192 274.323 88.4203C274.306 88.4215 274.288 88.4177 274.273 88.4095L272.634 87.5488C272.621 87.5414 272.607 87.5375 272.592 87.5375C272.577 87.5375 272.562 87.5414 272.549 87.5488L270.911 88.4095C270.895 88.4177 270.878 88.4215 270.861 88.4203C270.843 88.4192 270.827 88.4132 270.813 88.4031C270.799 88.3929 270.788 88.379 270.781 88.3629C270.775 88.3468 270.773 88.3293 270.776 88.3122L271.083 86.4912C271.085 86.4765 271.084 86.4614 271.079 86.4472C271.075 86.4329 271.068 86.4198 271.058 86.4088L269.731 85.1167C269.718 85.1046 269.71 85.0892 269.706 85.0725C269.702 85.0557 269.702 85.0381 269.708 85.0218C269.713 85.0054 269.723 84.9909 269.737 84.9799C269.75 84.9689 269.766 84.9618 269.783 84.9595L271.614 84.6926C271.629 84.6906 271.643 84.685 271.655 84.6763C271.667 84.6676 271.677 84.6561 271.684 84.6427L272.505 82.9813C272.511 82.9645 272.523 82.95 272.537 82.9396C272.552 82.9292 272.57 82.9234 272.588 82.9229C272.606 82.9224 272.624 82.9271 272.639 82.9366C272.654 82.9461 272.667 82.96 272.674 82.9763V82.9763Z" fill="#ECECEC"/>
<path d="M259.482 95.7686H239.813C238.793 95.7686 237.967 96.5945 237.967 97.6133C237.967 98.6321 238.793 99.458 239.813 99.458H259.482C260.502 99.458 261.328 98.6321 261.328 97.6133C261.328 96.5945 260.502 95.7686 259.482 95.7686Z" fill="#ECECEC"/>
<path d="M276.902 105.444H239.813C238.793 105.444 237.967 106.27 237.967 107.289C237.967 108.308 238.793 109.134 239.813 109.134H276.902C277.921 109.134 278.748 108.308 278.748 107.289C278.748 106.27 277.921 105.444 276.902 105.444Z" fill="#ECECEC"/>
<path d="M298.088 115.146H239.813C238.793 115.146 237.967 115.971 237.967 116.99C237.967 118.009 238.793 118.835 239.813 118.835H298.088C299.107 118.835 299.934 118.009 299.934 116.99C299.934 115.971 299.107 115.146 298.088 115.146Z" fill="#ECECEC"/>
<path d="M328.799 108.635H315.984V121.449H328.799V108.635Z" fill="#ECECEC"/>
<path d="M328.299 109.134V120.95H316.482V109.134H328.299ZM329.297 108.136H315.484V121.948H329.297V108.136Z" fill="#13192F"/>
<path d="M222.937 117.092C220.783 119.138 218.229 120.718 215.436 121.733C212.643 122.747 209.671 123.174 206.706 122.987C203.74 122.799 200.845 122.002 198.202 120.644C195.559 119.286 193.225 117.398 191.346 115.096C194.908 113.24 198.727 112.766 202.322 112.602C202.322 112.602 207.004 118.561 212.754 112.602C212.764 112.619 215.847 112.434 222.937 117.092Z" fill="#160907"/>
<path d="M208.062 189.733C202.929 189.732 197.956 187.944 193.999 184.674C190.041 181.405 187.347 176.859 186.378 171.818C185.409 166.777 186.226 161.556 188.689 157.052C191.152 152.548 195.107 149.043 199.874 147.139C204.642 145.236 209.923 145.052 214.811 146.62C219.699 148.188 223.888 151.41 226.658 155.732C229.428 160.054 230.606 165.205 229.989 170.302C229.372 175.398 227 180.12 223.279 183.656C219.178 187.564 213.727 189.741 208.062 189.733V189.733Z" fill="#ECECEC"/>
<path d="M208.063 146.058C212.333 146.058 216.507 147.324 220.057 149.697C223.607 152.069 226.374 155.44 228.008 159.385C229.642 163.33 230.069 167.67 229.236 171.858C228.403 176.045 226.347 179.892 223.328 182.911C220.309 185.93 216.462 187.986 212.275 188.819C208.087 189.652 203.747 189.225 199.802 187.591C195.857 185.957 192.486 183.19 190.114 179.64C187.742 176.09 186.475 171.916 186.475 167.646C186.475 161.921 188.75 156.43 192.798 152.381C196.847 148.333 202.338 146.058 208.063 146.058V146.058ZM208.063 145.061C203.596 145.06 199.228 146.384 195.513 148.866C191.798 151.348 188.903 154.876 187.193 159.003C185.483 163.131 185.035 167.673 185.907 172.055C186.778 176.437 188.929 180.462 192.089 183.621C195.248 186.78 199.273 188.931 203.655 189.803C208.037 190.674 212.578 190.227 216.706 188.517C220.834 186.807 224.361 183.911 226.843 180.196C229.325 176.481 230.649 172.114 230.649 167.646C230.642 161.658 228.261 155.917 224.026 151.683C219.792 147.449 214.051 145.067 208.063 145.061V145.061Z" fill="#13192F"/>
<path d="M196.705 164.071L195.408 183.279C195.408 183.279 204.788 189.266 218.872 184.165C218.872 184.165 218.523 164.957 217.757 161.626C216.991 158.296 197.588 151.01 196.705 164.071Z" fill="#F1B380"/>
<path d="M214.545 161.958C214.545 161.958 217.234 162.544 215.827 165.341C214.42 168.137 212.15 166.785 212.15 166.785L214.545 161.958Z" fill="#F78C68"/>
<path d="M206.945 186.22C202.205 185.971 201.719 180.517 201.719 180.517C202.592 178.951 202.831 175.967 202.861 173.48C202.861 173.231 202.861 173.009 202.861 172.782C202.861 170.851 202.739 169.369 202.739 169.369C202.735 168.982 202.753 168.595 202.794 168.209C203.373 162.701 208.604 164.183 210.839 167.446C211.565 168.436 211.918 169.651 211.837 170.876C211.655 172.775 211.762 174.69 212.156 176.556V176.556C212.412 177.859 212.82 179.128 213.373 180.335C213.645 182.032 211.694 186.484 206.945 186.22Z" fill="#F78C68"/>
<path d="M212.148 176.557C207.042 177.804 204.196 175.309 202.861 173.481C202.861 173.231 202.861 173.009 202.861 172.782C202.861 170.852 202.739 169.37 202.739 169.37C202.735 168.982 202.753 168.595 202.794 168.21C204.592 163.887 208.162 164.905 210.839 167.447C211.564 168.437 211.918 169.651 211.837 170.877C211.652 172.775 211.757 174.69 212.148 176.557Z" fill="#D34A28"/>
<path d="M199.489 163.962C199.489 163.962 199.435 175.591 208.535 173.965C217.635 172.339 213.898 158.065 213.898 158.065C213.898 158.065 197.554 153.57 199.489 163.962Z" fill="#F78C68"/>
<path d="M199.324 162.186C199.324 162.186 196.635 162.774 198.042 165.568C199.449 168.362 201.719 167.012 201.719 167.012L199.324 162.186Z" fill="#F78C68"/>
<path d="M240.301 149.179L241.119 150.84C241.125 150.854 241.135 150.865 241.147 150.874C241.16 150.883 241.174 150.888 241.189 150.89L243.022 151.157C243.039 151.16 243.055 151.167 243.068 151.178C243.081 151.189 243.09 151.204 243.095 151.22C243.101 151.237 243.101 151.254 243.097 151.271C243.093 151.287 243.084 151.302 243.072 151.314L241.747 152.609C241.736 152.619 241.728 152.631 241.723 152.645C241.719 152.659 241.717 152.674 241.72 152.689L242.032 154.515C242.036 154.532 242.034 154.549 242.028 154.566C242.022 154.582 242.011 154.596 241.997 154.606C241.983 154.617 241.967 154.623 241.949 154.624C241.932 154.625 241.915 154.621 241.9 154.612L240.261 153.751C240.247 153.744 240.232 153.74 240.217 153.74C240.202 153.74 240.187 153.744 240.173 153.751L238.534 154.612C238.519 154.62 238.502 154.624 238.485 154.623C238.467 154.622 238.451 154.616 238.437 154.606C238.423 154.596 238.412 154.582 238.405 154.566C238.399 154.549 238.397 154.532 238.4 154.515L238.714 152.689C238.717 152.674 238.715 152.659 238.711 152.645C238.706 152.631 238.698 152.619 238.687 152.609L237.36 151.314C237.347 151.302 237.339 151.287 237.335 151.27C237.331 151.253 237.331 151.236 237.337 151.219C237.342 151.203 237.352 151.189 237.365 151.178C237.379 151.167 237.395 151.159 237.412 151.157L239.245 150.89C239.26 150.889 239.274 150.883 239.286 150.874C239.298 150.866 239.307 150.854 239.313 150.84L240.133 149.179C240.142 149.164 240.154 149.151 240.168 149.142C240.183 149.134 240.2 149.129 240.217 149.129C240.234 149.129 240.251 149.134 240.266 149.142C240.28 149.151 240.292 149.164 240.301 149.179Z" fill="#ECECEC"/>
<path d="M248.076 149.178L248.896 150.84C248.903 150.853 248.913 150.865 248.925 150.874C248.937 150.883 248.951 150.888 248.966 150.89L250.797 151.157C250.814 151.159 250.83 151.166 250.844 151.177C250.857 151.188 250.867 151.203 250.872 151.219C250.878 151.235 250.879 151.253 250.875 151.27C250.871 151.286 250.862 151.302 250.85 151.314L249.523 152.608C249.511 152.618 249.503 152.631 249.499 152.645C249.494 152.659 249.494 152.674 249.498 152.688L249.809 154.514C249.812 154.531 249.811 154.549 249.804 154.565C249.798 154.581 249.787 154.595 249.773 154.605C249.759 154.615 249.742 154.621 249.725 154.622C249.707 154.624 249.69 154.62 249.675 154.612L248.036 153.751C248.023 153.744 248.008 153.74 247.993 153.74C247.979 153.74 247.964 153.744 247.951 153.751L246.31 154.612C246.294 154.62 246.277 154.624 246.26 154.623C246.243 154.622 246.226 154.616 246.212 154.606C246.198 154.596 246.187 154.581 246.181 154.565C246.175 154.549 246.174 154.531 246.177 154.514L246.489 152.688C246.492 152.674 246.491 152.659 246.486 152.645C246.481 152.631 246.473 152.618 246.462 152.608L245.137 151.314C245.125 151.302 245.116 151.287 245.112 151.27C245.108 151.254 245.109 151.236 245.114 151.22C245.119 151.204 245.128 151.189 245.141 151.178C245.154 151.167 245.17 151.159 245.187 151.157L247.021 150.89C247.036 150.888 247.05 150.883 247.062 150.874C247.074 150.865 247.084 150.853 247.09 150.84L247.911 149.178C247.919 149.163 247.931 149.15 247.945 149.142C247.96 149.133 247.976 149.128 247.993 149.128C248.01 149.128 248.027 149.133 248.042 149.142C248.056 149.15 248.068 149.163 248.076 149.178V149.178Z" fill="#ECECEC"/>
<path d="M256.15 149.178L256.971 150.84C256.977 150.854 256.986 150.866 256.999 150.875C257.011 150.883 257.025 150.889 257.041 150.89L258.872 151.157C258.889 151.159 258.905 151.166 258.918 151.177C258.931 151.188 258.941 151.203 258.947 151.219C258.952 151.235 258.953 151.253 258.949 151.27C258.945 151.286 258.936 151.302 258.924 151.314L257.597 152.608C257.586 152.618 257.578 152.631 257.573 152.645C257.568 152.659 257.567 152.674 257.569 152.688L257.884 154.514C257.887 154.531 257.885 154.549 257.878 154.565C257.872 154.581 257.861 154.595 257.847 154.605C257.833 154.615 257.816 154.621 257.799 154.622C257.782 154.624 257.764 154.62 257.749 154.612L256.11 153.751C256.097 153.744 256.083 153.74 256.068 153.74C256.053 153.74 256.038 153.744 256.025 153.751L254.384 154.612C254.369 154.62 254.351 154.624 254.334 154.623C254.317 154.622 254.3 154.616 254.286 154.606C254.272 154.596 254.261 154.581 254.255 154.565C254.249 154.549 254.248 154.531 254.252 154.514L254.563 152.688C254.566 152.674 254.565 152.659 254.56 152.645C254.555 152.631 254.547 152.618 254.536 152.608L253.211 151.314C253.199 151.302 253.19 151.287 253.186 151.27C253.182 151.254 253.183 151.236 253.188 151.22C253.193 151.204 253.203 151.189 253.216 151.178C253.229 151.167 253.244 151.159 253.261 151.157L255.095 150.89C255.11 150.888 255.124 150.883 255.136 150.874C255.148 150.865 255.158 150.853 255.165 150.84L255.985 149.178C255.993 149.163 256.005 149.15 256.019 149.142C256.034 149.133 256.051 149.128 256.068 149.128C256.085 149.128 256.101 149.133 256.116 149.142C256.13 149.15 256.142 149.163 256.15 149.178V149.178Z" fill="#ECECEC"/>
<path d="M264.536 149.178L265.357 150.84C265.363 150.853 265.373 150.865 265.385 150.874C265.398 150.883 265.412 150.888 265.427 150.89L267.258 151.157C267.275 151.159 267.291 151.166 267.304 151.177C267.318 151.188 267.328 151.203 267.333 151.219C267.339 151.235 267.339 151.253 267.335 151.27C267.331 151.286 267.323 151.302 267.31 151.314L265.983 152.608C265.973 152.619 265.966 152.632 265.961 152.645C265.957 152.659 265.956 152.674 265.958 152.688L266.27 154.514C266.273 154.531 266.271 154.549 266.265 154.565C266.258 154.581 266.247 154.595 266.233 154.605C266.219 154.615 266.203 154.621 266.185 154.622C266.168 154.624 266.151 154.62 266.135 154.612L264.496 153.751C264.484 153.744 264.469 153.74 264.454 153.74C264.439 153.74 264.425 153.744 264.412 153.751L262.773 154.612C262.757 154.62 262.74 154.624 262.723 154.622C262.706 154.621 262.689 154.615 262.675 154.605C262.661 154.595 262.65 154.581 262.643 154.565C262.637 154.549 262.635 154.531 262.638 154.514L262.95 152.688C262.952 152.674 262.951 152.659 262.947 152.645C262.943 152.632 262.935 152.619 262.925 152.608L261.598 151.314C261.586 151.302 261.577 151.286 261.573 151.27C261.569 151.253 261.57 151.235 261.575 151.219C261.581 151.203 261.59 151.188 261.604 151.177C261.617 151.166 261.633 151.159 261.65 151.157L263.481 150.89C263.496 150.888 263.51 150.883 263.523 150.874C263.535 150.865 263.545 150.853 263.551 150.84L264.372 149.178C264.379 149.163 264.391 149.15 264.406 149.142C264.42 149.133 264.437 149.128 264.454 149.128C264.471 149.128 264.488 149.133 264.502 149.142C264.517 149.15 264.529 149.163 264.536 149.178V149.178Z" fill="#ECECEC"/>
<path d="M272.673 149.178L273.494 150.84C273.5 150.853 273.51 150.865 273.522 150.874C273.534 150.883 273.549 150.888 273.564 150.89L275.395 151.157C275.412 151.159 275.428 151.166 275.441 151.177C275.454 151.188 275.464 151.203 275.47 151.219C275.475 151.235 275.476 151.253 275.472 151.27C275.468 151.286 275.459 151.302 275.447 151.314L274.12 152.608C274.11 152.619 274.102 152.632 274.098 152.645C274.094 152.659 274.093 152.674 274.095 152.688L274.407 154.514C274.41 154.531 274.408 154.549 274.401 154.565C274.395 154.581 274.384 154.595 274.37 154.605C274.356 154.615 274.339 154.621 274.322 154.622C274.305 154.624 274.287 154.62 274.272 154.612L272.633 153.751C272.62 153.744 272.606 153.74 272.591 153.74C272.576 153.74 272.561 153.744 272.548 153.751L270.909 154.612C270.894 154.62 270.877 154.624 270.86 154.622C270.842 154.621 270.826 154.615 270.812 154.605C270.798 154.595 270.787 154.581 270.78 154.565C270.774 154.549 270.772 154.531 270.775 154.514L271.087 152.688C271.089 152.674 271.088 152.659 271.084 152.645C271.079 152.632 271.072 152.619 271.062 152.608L269.735 151.314C269.722 151.302 269.714 151.286 269.71 151.27C269.706 151.253 269.706 151.235 269.712 151.219C269.717 151.203 269.727 151.188 269.74 151.177C269.754 151.166 269.77 151.159 269.787 151.157L271.618 150.89C271.633 150.888 271.647 150.883 271.659 150.874C271.672 150.865 271.681 150.853 271.688 150.84L272.508 149.178C272.516 149.163 272.528 149.15 272.542 149.142C272.557 149.133 272.574 149.128 272.591 149.128C272.608 149.128 272.625 149.133 272.639 149.142C272.654 149.15 272.665 149.163 272.673 149.178V149.178Z" fill="#ECECEC"/>
<path d="M259.482 161.971H239.813C238.793 161.971 237.967 162.797 237.967 163.815C237.967 164.834 238.793 165.66 239.813 165.66H259.482C260.502 165.66 261.328 164.834 261.328 163.815C261.328 162.797 260.502 161.971 259.482 161.971Z" fill="#ECECEC"/>
<path d="M276.902 171.647H239.813C238.793 171.647 237.967 172.473 237.967 173.492C237.967 174.511 238.793 175.337 239.813 175.337H276.902C277.921 175.337 278.748 174.511 278.748 173.492C278.748 172.473 277.921 171.647 276.902 171.647Z" fill="#ECECEC"/>
<path d="M298.088 181.349H239.813C238.793 181.349 237.967 182.175 237.967 183.193C237.967 184.212 238.793 185.038 239.813 185.038H298.088C299.107 185.038 299.934 184.212 299.934 183.193C299.934 182.175 299.107 181.349 298.088 181.349Z" fill="#ECECEC"/>
<path d="M328.799 174.838H315.984V187.652H328.799V174.838Z" fill="#ECECEC"/>
<path d="M328.299 175.337V187.156H316.482V175.337H328.299ZM329.297 174.339H315.484V188.154H329.297V174.339Z" fill="#13192F"/>
<path d="M222.938 183.294C220.785 185.342 218.232 186.924 215.439 187.939C212.646 188.954 209.674 189.382 206.708 189.195C203.742 189.007 200.847 188.209 198.204 186.85C195.561 185.491 193.228 183.601 191.35 181.298C194.909 179.442 198.728 178.971 202.326 178.804C202.326 178.804 207.01 184.763 212.76 178.804C212.768 178.821 215.846 178.627 222.938 183.294Z" fill="#02B5A5"/>
<path d="M203.916 158.399C203.916 158.399 207.356 162.625 214.545 162.457C214.545 162.457 216.005 162.757 216.234 163.894C216.464 165.032 218.579 165.528 218.357 162.358C218.135 159.187 216.893 151.796 208.189 151.212C207.587 151.164 206.981 151.192 206.386 151.294C203.701 151.834 201.271 153.248 199.475 155.315C197.679 157.382 196.619 159.986 196.46 162.719C196.378 164.249 196.625 165.506 197.635 165.608C197.635 165.608 197.815 164.426 199.324 163.894C200.833 163.363 202.045 165.264 203.916 158.399Z" fill="#F1B380"/>
<path d="M212.96 188.673C209.262 189.531 205.403 189.403 201.77 188.303L202.328 178.824C202.328 178.824 207.013 184.784 212.763 178.824L212.96 188.673Z" fill="#14192F"/>
<path d="M208.062 323.937C202.929 323.936 197.956 322.148 193.999 318.878C190.041 315.609 187.347 311.063 186.378 306.022C185.409 300.981 186.226 295.76 188.689 291.256C191.152 286.752 195.107 283.247 199.874 281.343C204.642 279.44 209.923 279.256 214.811 280.824C219.699 282.392 223.888 285.614 226.658 289.936C229.428 294.258 230.606 299.41 229.989 304.506C229.372 309.602 227 314.324 223.279 317.86C219.178 321.769 213.727 323.945 208.062 323.937V323.937Z" fill="#ECECEC"/>
<path d="M208.063 280.262C212.333 280.262 216.507 281.529 220.057 283.901C223.607 286.273 226.374 289.644 228.008 293.589C229.642 297.534 230.069 301.874 229.236 306.062C228.403 310.249 226.347 314.096 223.328 317.115C220.309 320.134 216.462 322.19 212.275 323.023C208.087 323.856 203.747 323.429 199.802 321.795C195.857 320.161 192.486 317.394 190.114 313.844C187.742 310.294 186.475 306.12 186.475 301.85C186.475 296.125 188.75 290.634 192.798 286.585C196.847 282.537 202.338 280.262 208.063 280.262V280.262ZM208.063 279.265C203.596 279.264 199.228 280.589 195.513 283.07C191.798 285.552 188.903 289.08 187.193 293.207C185.483 297.335 185.035 301.877 185.907 306.259C186.778 310.641 188.929 314.666 192.089 317.825C195.248 320.984 199.273 323.135 203.655 324.007C208.037 324.878 212.578 324.431 216.706 322.721C220.834 321.011 224.361 318.115 226.843 314.4C229.325 310.686 230.649 306.318 230.649 301.85C230.642 295.862 228.261 290.121 224.026 285.887C219.792 281.653 214.051 279.271 208.063 279.265V279.265Z" fill="#13192F"/>
<path d="M196.705 295.534L195.408 307.72C195.408 307.72 204.788 311.516 218.872 308.281C218.872 308.281 218.523 296.095 217.757 293.982C216.991 291.869 197.588 287.247 196.705 295.534Z" fill="#14192F"/>
<path d="M214.545 296.16C214.545 296.16 217.234 296.749 215.827 299.543C214.42 302.337 212.15 300.99 212.15 300.99L214.545 296.16Z" fill="#F78C68"/>
<path d="M206.945 320.424C202.205 320.16 201.719 314.722 201.719 314.722C202.592 313.153 202.831 310.172 202.861 307.684C202.861 307.435 202.861 307.213 202.861 306.986C202.861 305.053 202.739 303.571 202.739 303.571C202.735 303.184 202.753 302.798 202.794 302.413C203.373 296.906 208.604 298.387 210.839 301.65C211.564 302.64 211.917 303.853 211.837 305.078C211.655 306.977 211.762 308.893 212.156 310.76V310.76C212.412 312.063 212.82 313.332 213.373 314.539C213.645 316.223 211.694 320.689 206.945 320.424Z" fill="#F78C68"/>
<path d="M212.148 310.751C207.042 311.998 204.196 309.504 202.861 307.675C202.861 307.426 202.861 307.204 202.861 306.977C202.861 305.043 202.739 303.562 202.739 303.562C202.735 303.175 202.753 302.789 202.794 302.404C204.592 298.081 208.162 299.099 210.839 301.641C211.564 302.63 211.917 303.844 211.837 305.068C211.652 306.967 211.757 308.883 212.148 310.751V310.751Z" fill="#D34A28"/>
<path d="M199.489 298.163C199.489 298.163 199.435 309.792 208.535 308.166C217.635 306.539 213.898 292.268 213.898 292.268C213.898 292.268 197.554 287.773 199.489 298.163Z" fill="#F78C68"/>
<path d="M199.324 296.39C199.324 296.39 196.635 296.976 198.042 299.772C199.449 302.569 201.719 301.217 201.719 301.217L199.324 296.39Z" fill="#F78C68"/>
<path d="M240.301 283.383L241.119 285.044C241.126 285.058 241.136 285.069 241.148 285.077C241.16 285.086 241.174 285.092 241.189 285.094L243.022 285.361C243.039 285.364 243.055 285.371 243.068 285.382C243.081 285.394 243.09 285.408 243.095 285.424C243.101 285.441 243.101 285.458 243.097 285.475C243.093 285.491 243.084 285.506 243.072 285.518L241.747 286.811C241.737 286.821 241.728 286.834 241.724 286.848C241.719 286.863 241.718 286.878 241.72 286.893L242.032 288.719C242.034 288.736 242.032 288.753 242.026 288.769C242.02 288.784 242.009 288.798 241.995 288.808C241.982 288.818 241.966 288.824 241.949 288.825C241.932 288.827 241.915 288.824 241.9 288.816L240.261 287.953C240.247 287.947 240.232 287.944 240.217 287.944C240.202 287.944 240.187 287.947 240.173 287.953L238.534 288.816C238.519 288.824 238.502 288.828 238.485 288.827C238.467 288.826 238.451 288.82 238.437 288.81C238.423 288.8 238.412 288.786 238.405 288.77C238.399 288.754 238.397 288.736 238.4 288.719L238.714 286.893C238.716 286.878 238.715 286.863 238.71 286.848C238.706 286.834 238.697 286.821 238.687 286.811L237.36 285.518C237.347 285.506 237.339 285.491 237.335 285.474C237.331 285.457 237.331 285.44 237.337 285.423C237.342 285.407 237.352 285.393 237.365 285.382C237.379 285.371 237.395 285.364 237.412 285.361L239.245 285.094C239.26 285.092 239.274 285.087 239.285 285.078C239.297 285.069 239.307 285.058 239.313 285.044L240.133 283.383C240.142 283.368 240.154 283.355 240.168 283.346C240.183 283.338 240.2 283.333 240.217 283.333C240.234 283.333 240.251 283.338 240.266 283.346C240.28 283.355 240.292 283.368 240.301 283.383Z" fill="#ECECEC"/>
<path d="M248.076 283.383L248.896 285.044C248.903 285.057 248.913 285.069 248.925 285.078C248.937 285.086 248.951 285.092 248.966 285.094L250.797 285.361C250.814 285.363 250.83 285.37 250.844 285.381C250.857 285.392 250.867 285.407 250.872 285.423C250.878 285.439 250.879 285.457 250.875 285.474C250.871 285.491 250.862 285.506 250.85 285.518L249.523 286.81C249.511 286.82 249.503 286.833 249.499 286.848C249.495 286.862 249.494 286.878 249.498 286.892L249.809 288.718C249.812 288.736 249.811 288.753 249.804 288.769C249.798 288.785 249.787 288.799 249.773 288.809C249.759 288.819 249.742 288.825 249.725 288.827C249.707 288.828 249.69 288.824 249.675 288.816L248.036 287.953C248.023 287.946 248.008 287.943 247.993 287.943C247.979 287.943 247.964 287.946 247.951 287.953L246.31 288.816C246.294 288.823 246.277 288.826 246.261 288.825C246.244 288.824 246.227 288.817 246.214 288.807C246.2 288.797 246.19 288.784 246.183 288.768C246.177 288.752 246.175 288.735 246.177 288.718L246.489 286.892C246.492 286.878 246.49 286.862 246.485 286.848C246.481 286.834 246.473 286.821 246.462 286.81L245.137 285.518C245.125 285.506 245.116 285.491 245.112 285.474C245.108 285.458 245.109 285.44 245.114 285.424C245.119 285.408 245.128 285.393 245.141 285.382C245.154 285.371 245.17 285.363 245.187 285.361L247.021 285.094C247.035 285.092 247.049 285.086 247.062 285.078C247.074 285.069 247.084 285.057 247.09 285.044L247.911 283.383C247.919 283.367 247.931 283.355 247.945 283.346C247.96 283.337 247.976 283.332 247.993 283.332C248.01 283.332 248.027 283.337 248.042 283.346C248.056 283.355 248.068 283.367 248.076 283.383V283.383Z" fill="#ECECEC"/>
<path d="M256.15 283.383L256.971 285.044C256.977 285.058 256.987 285.069 256.999 285.078C257.011 285.087 257.026 285.092 257.041 285.094L258.872 285.361C258.889 285.363 258.905 285.37 258.918 285.381C258.931 285.392 258.941 285.407 258.947 285.423C258.952 285.439 258.953 285.457 258.949 285.474C258.945 285.491 258.936 285.506 258.924 285.518L257.597 286.81C257.586 286.821 257.578 286.834 257.573 286.848C257.568 286.862 257.567 286.878 257.569 286.892L257.884 288.718C257.887 288.736 257.885 288.753 257.878 288.769C257.872 288.785 257.861 288.799 257.847 288.809C257.833 288.819 257.816 288.825 257.799 288.827C257.782 288.828 257.764 288.824 257.749 288.816L256.11 287.953C256.097 287.946 256.082 287.943 256.068 287.943C256.053 287.943 256.039 287.946 256.025 287.953L254.384 288.816C254.369 288.823 254.352 288.826 254.335 288.825C254.318 288.824 254.302 288.817 254.288 288.807C254.274 288.797 254.264 288.784 254.257 288.768C254.251 288.752 254.249 288.735 254.252 288.718L254.563 286.892C254.566 286.878 254.564 286.862 254.56 286.848C254.555 286.834 254.547 286.821 254.536 286.81L253.211 285.518C253.199 285.506 253.19 285.491 253.186 285.474C253.182 285.458 253.183 285.44 253.188 285.424C253.193 285.408 253.203 285.393 253.216 285.382C253.229 285.371 253.244 285.363 253.261 285.361L255.095 285.094C255.11 285.092 255.124 285.086 255.136 285.078C255.148 285.069 255.158 285.057 255.165 285.044L255.985 283.383C255.993 283.367 256.005 283.355 256.019 283.346C256.034 283.337 256.051 283.332 256.068 283.332C256.085 283.332 256.101 283.337 256.116 283.346C256.13 283.355 256.142 283.367 256.15 283.383V283.383Z" fill="#ECECEC"/>
<path d="M264.536 283.383L265.357 285.044C265.364 285.057 265.374 285.069 265.386 285.078C265.398 285.086 265.412 285.092 265.427 285.094L267.258 285.361C267.275 285.363 267.291 285.37 267.304 285.381C267.318 285.392 267.328 285.407 267.333 285.423C267.339 285.439 267.339 285.457 267.335 285.474C267.331 285.491 267.323 285.506 267.31 285.518L265.983 286.81C265.973 286.821 265.966 286.834 265.961 286.848C265.957 286.863 265.956 286.878 265.958 286.892L266.27 288.718C266.273 288.736 266.271 288.753 266.265 288.769C266.258 288.785 266.247 288.799 266.233 288.809C266.219 288.819 266.203 288.825 266.185 288.827C266.168 288.828 266.151 288.824 266.135 288.816L264.496 287.953C264.483 287.946 264.469 287.943 264.454 287.943C264.439 287.943 264.425 287.946 264.412 287.953L262.773 288.816C262.757 288.824 262.74 288.828 262.723 288.827C262.706 288.825 262.689 288.819 262.675 288.809C262.661 288.799 262.65 288.785 262.643 288.769C262.637 288.753 262.635 288.736 262.638 288.718L262.95 286.892C262.952 286.878 262.951 286.863 262.947 286.848C262.942 286.834 262.935 286.821 262.925 286.81L261.598 285.518C261.586 285.506 261.577 285.491 261.573 285.474C261.569 285.457 261.57 285.439 261.575 285.423C261.581 285.407 261.59 285.392 261.604 285.381C261.617 285.37 261.633 285.363 261.65 285.361L263.481 285.094C263.496 285.092 263.51 285.086 263.522 285.078C263.534 285.069 263.544 285.057 263.551 285.044L264.372 283.383C264.379 283.367 264.391 283.355 264.406 283.346C264.42 283.337 264.437 283.332 264.454 283.332C264.471 283.332 264.488 283.337 264.502 283.346C264.517 283.355 264.529 283.367 264.536 283.383V283.383Z" fill="#ECECEC"/>
<path d="M272.673 283.383L273.494 285.044C273.501 285.057 273.51 285.069 273.523 285.078C273.535 285.086 273.549 285.092 273.564 285.094L275.395 285.361C275.412 285.363 275.428 285.37 275.441 285.381C275.454 285.392 275.464 285.407 275.47 285.423C275.475 285.439 275.476 285.457 275.472 285.474C275.468 285.491 275.459 285.506 275.447 285.518L274.12 286.81C274.11 286.821 274.102 286.834 274.098 286.848C274.094 286.863 274.093 286.878 274.095 286.892L274.407 288.718C274.41 288.736 274.408 288.753 274.401 288.769C274.395 288.785 274.384 288.799 274.37 288.809C274.356 288.819 274.339 288.825 274.322 288.827C274.305 288.828 274.287 288.824 274.272 288.816L272.633 287.953C272.62 287.946 272.605 287.943 272.591 287.943C272.576 287.943 272.562 287.946 272.548 287.953L270.909 288.816C270.894 288.824 270.877 288.828 270.86 288.827C270.842 288.825 270.826 288.819 270.812 288.809C270.798 288.799 270.787 288.785 270.78 288.769C270.774 288.753 270.772 288.736 270.775 288.718L271.087 286.892C271.089 286.878 271.088 286.863 271.083 286.848C271.079 286.834 271.072 286.821 271.062 286.81L269.735 285.518C269.722 285.506 269.714 285.491 269.71 285.474C269.706 285.457 269.706 285.439 269.712 285.423C269.717 285.407 269.727 285.392 269.74 285.381C269.754 285.37 269.77 285.363 269.787 285.361L271.618 285.094C271.633 285.092 271.647 285.086 271.659 285.078C271.671 285.069 271.681 285.057 271.688 285.044L272.508 283.383C272.516 283.367 272.528 283.355 272.542 283.346C272.557 283.337 272.574 283.332 272.591 283.332C272.608 283.332 272.625 283.337 272.639 283.346C272.654 283.355 272.665 283.367 272.673 283.383V283.383Z" fill="#ECECEC"/>
<path d="M259.482 296.175H239.813C238.793 296.175 237.967 297.001 237.967 298.02C237.967 299.038 238.793 299.864 239.813 299.864H259.482C260.502 299.864 261.328 299.038 261.328 298.02C261.328 297.001 260.502 296.175 259.482 296.175Z" fill="#ECECEC"/>
<path d="M276.902 305.852H239.813C238.793 305.852 237.967 306.677 237.967 307.696C237.967 308.715 238.793 309.541 239.813 309.541H276.902C277.921 309.541 278.748 308.715 278.748 307.696C278.748 306.677 277.921 305.852 276.902 305.852Z" fill="#ECECEC"/>
<path d="M298.088 315.553H239.813C238.793 315.553 237.967 316.379 237.967 317.397C237.967 318.416 238.793 319.242 239.813 319.242H298.088C299.107 319.242 299.934 318.416 299.934 317.397C299.934 316.379 299.107 315.553 298.088 315.553Z" fill="#ECECEC"/>
<path d="M328.799 309.042H315.984V321.856H328.799V309.042Z" fill="#ECECEC"/>
<path d="M328.299 309.541V321.357H316.482V309.541H328.299ZM329.297 308.543H315.484V322.355H329.297V308.543Z" fill="#13192F"/>
<path d="M222.938 317.498C220.785 319.546 218.232 321.128 215.439 322.143C212.646 323.159 209.674 323.586 206.708 323.399C203.742 323.211 200.847 322.413 198.204 321.054C195.561 319.696 193.228 317.805 191.35 315.502C194.909 313.646 198.728 313.175 202.326 313.008C202.326 313.008 207.01 318.967 212.76 313.008C212.768 313.025 215.846 312.831 222.938 317.498Z" fill="#FC461E"/>
<path d="M203.916 292.603C203.916 292.603 207.356 296.828 214.545 296.661C214.545 296.661 216.005 296.961 216.234 298.096C216.464 299.231 218.579 299.732 218.357 296.561C218.135 293.391 216.893 286 208.189 285.413C207.587 285.367 206.981 285.395 206.386 285.496C203.701 286.036 201.271 287.451 199.476 289.518C197.68 291.585 196.619 294.189 196.46 296.923C196.378 298.452 196.625 299.71 197.635 299.812C197.635 299.812 197.815 298.629 199.324 298.096C200.833 297.562 202.045 299.468 203.916 292.603Z" fill="#14192F"/>
<path d="M212.96 322.877C209.262 323.735 205.403 323.607 201.77 322.508L202.328 313.028C202.328 313.028 207.013 318.988 212.763 313.028L212.96 322.877Z" fill="#ECECEC"/>
<path d="M124.455 190.716L112.496 175.873L112.691 175.719L124.42 190.277L131.138 178.76L131.352 178.887L124.455 190.716Z" fill="#D7DDDC"/>
<path d="M339.475 390.114C339.475 390.114 332.468 383.718 337.412 371.004C342.357 358.289 346.642 351.127 348.074 354.525C349.506 357.922 350.778 365.433 349.711 368.656C348.643 371.879 347.331 377.422 347.533 378.315C347.735 379.208 346.715 390.454 339.475 390.114Z" fill="#3F4F20"/>
<path d="M331.666 399.227C331.666 399.227 337.623 392.295 331.666 379.59C325.709 366.885 321.371 370.572 321.379 373.915C321.386 377.257 323.861 400.651 331.666 399.227Z" fill="#606D2A"/>
<path d="M343.344 411.723C343.344 411.723 343.311 398.003 350.703 390.11C358.094 382.217 357.64 388.246 357.64 388.246C357.64 388.246 358.311 395.88 355.447 401.67C352.584 407.459 346.367 415.038 343.344 411.723Z" fill="#606D2A"/>
<path d="M250.588 22.0343C253.615 22.0343 256.068 19.5806 256.068 16.5538C256.068 13.527 253.615 11.0732 250.588 11.0732C247.561 11.0732 245.107 13.527 245.107 16.5538C245.107 19.5806 247.561 22.0343 250.588 22.0343Z" fill="#ECECEC"/>
<path d="M178.952 56.2893C181.145 56.2893 182.923 54.5113 182.923 52.318C182.923 50.1247 181.145 48.3467 178.952 48.3467C176.758 48.3467 174.98 50.1247 174.98 52.318C174.98 54.5113 176.758 56.2893 178.952 56.2893Z" fill="#ECECEC"/>
<path d="M161.142 70.8424C162.099 70.8424 162.876 70.0662 162.876 69.1087C162.876 68.1512 162.099 67.375 161.142 67.375C160.184 67.375 159.408 68.1512 159.408 69.1087C159.408 70.0662 160.184 70.8424 161.142 70.8424Z" fill="#ECECEC"/>
<path d="M357.627 22.9248C356.246 22.9248 354.895 23.3345 353.747 24.1019C352.598 24.8694 351.703 25.9603 351.174 27.2366C350.646 28.5129 350.507 29.9173 350.777 31.2722C351.046 32.6271 351.712 33.8717 352.688 34.8485C353.665 35.8253 354.91 36.4905 356.265 36.7601C357.62 37.0296 359.024 36.8912 360.3 36.3626C361.577 35.8339 362.667 34.9387 363.435 33.79C364.202 32.6414 364.612 31.291 364.612 29.9095C364.612 28.0571 363.876 26.2805 362.566 24.9706C361.256 23.6607 359.48 22.9248 357.627 22.9248V22.9248ZM357.627 35.198C356.566 35.1985 355.529 34.8843 354.647 34.2953C353.765 33.7063 353.077 32.8688 352.671 31.8889C352.264 30.9089 352.158 29.8304 352.364 28.7899C352.571 27.7494 353.082 26.7935 353.832 26.0432C354.581 25.2929 355.537 24.7818 356.578 24.5747C357.618 24.3675 358.697 24.4736 359.677 24.8794C360.657 25.2853 361.495 25.9727 362.084 26.8548C362.673 27.7368 362.988 28.7738 362.988 29.8347C362.988 31.2567 362.423 32.6205 361.418 33.6262C360.413 34.632 359.049 35.1973 357.627 35.198V35.198Z" fill="#14192F"/>
<path opacity="0.26" d="M362.582 31.8872C363.715 29.1506 362.416 26.0132 359.679 24.8797C356.942 23.7462 353.805 25.0457 352.672 27.7823C351.538 30.5189 352.838 33.6562 355.574 34.7897C358.311 35.9233 361.448 34.6237 362.582 31.8872Z" fill="#14192F"/>
<path d="M362.1 33.2696L361.814 33.6316C361.546 33.971 361.603 34.4636 361.943 34.7319L368.003 39.5232C368.342 39.7915 368.835 39.7339 369.103 39.3946L369.389 39.0325C369.658 38.6932 369.6 38.2006 369.261 37.9323L363.2 33.141C362.861 32.8727 362.368 32.9303 362.1 33.2696Z" fill="#14192F"/>
<path d="M341.616 17.7217C342.338 17.7217 342.923 17.1365 342.923 16.4146C342.923 15.6926 342.338 15.1074 341.616 15.1074C340.894 15.1074 340.309 15.6926 340.309 16.4146C340.309 17.1365 340.894 17.7217 341.616 17.7217Z" fill="#14192F"/>
<path d="M341.616 24.2324C342.338 24.2324 342.923 23.6472 342.923 22.9253C342.923 22.2034 342.338 21.6182 341.616 21.6182C340.894 21.6182 340.309 22.2034 340.309 22.9253C340.309 23.6472 340.894 24.2324 341.616 24.2324Z" fill="#14192F"/>
<path d="M341.616 30.7432C342.338 30.7432 342.923 30.158 342.923 29.436C342.923 28.7141 342.338 28.1289 341.616 28.1289C340.894 28.1289 340.309 28.7141 340.309 29.436C340.309 30.158 340.894 30.7432 341.616 30.7432Z" fill="#14192F"/>
<path d="M328.152 28.1289C329.95 28.1289 331.407 26.6714 331.407 24.8735C331.407 23.0756 329.95 21.6182 328.152 21.6182C326.354 21.6182 324.896 23.0756 324.896 24.8735C324.896 26.6714 326.354 28.1289 328.152 28.1289Z" fill="#ECECEC"/>
<path d="M368.015 4.52511C369.264 4.52511 370.277 3.51213 370.277 2.26255C370.277 1.01298 369.264 0 368.015 0C366.765 0 365.752 1.01298 365.752 2.26255C365.752 3.51213 366.765 4.52511 368.015 4.52511Z" fill="#ECECEC"/>
<path d="M405.81 64.6139C408.109 64.6139 409.973 62.7499 409.973 60.4505C409.973 58.1511 408.109 56.2871 405.81 56.2871C403.511 56.2871 401.646 58.1511 401.646 60.4505C401.646 62.7499 403.511 64.6139 405.81 64.6139Z" fill="#ECECEC"/>
<path d="M415.795 116.992C417.003 116.992 417.983 116.012 417.983 114.804C417.983 113.596 417.003 112.616 415.795 112.616C414.587 112.616 413.607 113.596 413.607 114.804C413.607 116.012 414.587 116.992 415.795 116.992Z" fill="#ECECEC"/>
<path d="M123.837 269.015L116.857 321.358L126.526 292.603L123.837 269.015Z" fill="#001B48"/>
<path d="M94.6785 411.834L94.6161 412.084C91.8085 412.411 88.9838 412.571 86.1571 412.563C81.4465 412.556 76.7431 412.191 72.0879 411.47L72.1029 411.221C74.5675 411.627 84.6155 413.067 94.6785 411.834Z" fill="#ECECEC"/>
<path d="M149.269 412.331V412.58C146.178 412.986 143.063 413.183 139.945 413.171C135.25 413.164 130.563 412.801 125.923 412.086L125.9 411.837C128.442 412.241 138.952 413.74 149.269 412.331Z" fill="#ECECEC"/>
</g>
<defs>
<clipPath id="clip0_1556_1764">
<rect width="417.984" height="439.544" fill="white"/>
</clipPath>
</defs>
</svg>
