<svg width="100%" viewBox="0 0 146 146" fill="none" xmlns="http://www.w3.org/2000/svg">
<g clip-path="url(#clip0_1556_3475)">
<path d="M57.7607 50.1843C57.7607 50.1843 57.7607 105.26 57.7607 115.989C57.7607 126.718 49.2967 140.149 36.4617 142.414C23.6267 144.679 16.7522 145.434 13.8911 145.116C11.0301 144.798 2.72504 144.679 1.73162 131.248C0.738198 117.817 -1.68575 86.6628 11.0301 66.4765C23.7459 46.2901 42.462 29.9185 51.0451 34.0511C59.6283 38.1838 57.6017 46.1709 57.7607 50.1843Z" fill="#F8536C"/>
<path opacity="0.5" d="M1.69187 131.367C2.6853 144.798 10.9903 144.957 13.8514 145.235C16.7124 145.513 23.5869 144.798 36.4219 142.533C39.7201 141.937 42.7401 140.626 45.4025 138.798C36.5411 140.149 31.2561 140.546 28.6335 140.268C24.9777 139.91 14.4077 139.712 13.1361 122.585C12.1427 109.074 9.99689 81.497 17.0701 57.8535C14.9243 60.6748 12.8579 63.6154 10.9506 66.6751C-1.76524 86.7423 0.698451 117.936 1.69187 131.367Z" fill="#C94760"/>
<path d="M37.6941 86.067C40.2618 86.067 42.3434 83.9855 42.3434 81.4178C42.3434 78.8501 40.2618 76.7686 37.6941 76.7686C35.1265 76.7686 33.0449 78.8501 33.0449 81.4178C33.0449 83.9855 35.1265 86.067 37.6941 86.067Z" fill="#FFCA3A"/>
<path d="M49.4163 111.379C51.5231 111.379 53.231 109.672 53.231 107.565C53.231 105.458 51.5231 103.75 49.4163 103.75C47.3095 103.75 45.6016 105.458 45.6016 107.565C45.6016 109.672 47.3095 111.379 49.4163 111.379Z" fill="#FFCA3A"/>
<path d="M24.7798 106.015C27.0841 106.015 28.9522 104.147 28.9522 101.842C28.9522 99.538 27.0841 97.6699 24.7798 97.6699C22.4755 97.6699 20.6074 99.538 20.6074 101.842C20.6074 104.147 22.4755 106.015 24.7798 106.015Z" fill="#FFCA3A"/>
<path d="M14.8846 80.504C15.3217 80.504 15.7588 80.3054 16.0767 79.9875C17.3482 78.5569 19.0172 78.6364 19.8517 78.8351C18.2225 81.8948 17.8251 84.3188 17.7853 84.438C17.6264 85.3122 18.2225 86.1069 19.0967 86.2659C19.1761 86.2659 19.2953 86.3056 19.3748 86.3056C20.1298 86.3056 20.8053 85.7493 20.9246 84.9943C21.004 84.4777 23.269 72.358 38.1306 69.5764C39.0049 69.4174 39.5612 68.583 39.4022 67.7088C39.2433 66.8345 38.4088 66.2782 37.5346 66.4372C36.3028 66.6756 35.1504 66.9538 34.0775 67.3114C33.5212 63.7748 36.4617 61.6687 36.6206 61.5495C37.3359 61.0727 37.5346 60.0793 37.0578 59.364C36.5809 58.6487 35.5875 58.4501 34.8325 58.9269C32.9648 60.1985 29.9846 63.7351 31.0575 68.4638C26.4083 70.5301 23.428 73.5501 21.5604 76.133C21.5206 76.133 21.5206 76.0932 21.4809 76.0932C21.2822 76.0138 16.9111 74.3846 13.6924 77.9609C13.0964 78.6364 13.1759 79.6298 13.8117 80.1862C14.1295 80.3451 14.5269 80.504 14.8846 80.504Z" fill="#C94760"/>
<path d="M40.3159 125.367C40.1967 125.247 37.2164 122.148 30.7393 123.658C24.4211 111.697 14.7253 107.247 14.2087 107.048C13.414 106.69 12.4603 107.048 12.1026 107.843C11.745 108.637 12.1026 109.591 12.8974 109.949C12.9371 109.949 14.4074 110.624 16.5134 112.134C14.9637 112.532 13.1358 113.287 11.6258 114.717C10.99 115.313 10.9503 116.307 11.5463 116.982C11.8642 117.3 12.2616 117.499 12.6987 117.499C13.0961 117.499 13.4934 117.34 13.7716 117.062C16.0763 114.876 19.6924 114.956 19.7719 114.956C19.8116 114.956 19.8513 114.956 19.8911 114.956C23.984 118.691 28.8319 124.731 31.2558 133.87C31.4545 134.586 32.0903 135.063 32.8056 135.063C32.9248 135.063 33.0837 135.063 33.203 135.023C34.0374 134.784 34.554 133.91 34.3156 133.076C33.7195 130.771 32.9645 128.665 32.1301 126.718C36.1435 126.003 37.8919 127.552 37.9714 127.671C38.2893 127.989 38.6867 128.148 39.1238 128.148C39.5211 128.148 39.9185 127.989 40.1967 127.711C40.8722 126.996 40.9119 126.002 40.3159 125.367Z" fill="#C94760"/>
<path d="M10.3553 100.213C10.4745 100.253 10.554 100.253 10.6732 100.253C11.4282 100.253 12.064 99.7366 12.2229 98.9816C13.0971 94.5311 16.9516 93.8953 17.1106 93.8556C17.9848 93.7363 18.5808 92.9416 18.4616 92.0674C18.3424 91.1932 17.5477 90.5971 16.6735 90.7163C16.435 90.7561 10.4348 91.6303 9.0837 98.3458C8.92476 99.1803 9.48107 100.015 10.3553 100.213Z" fill="#C94760"/>
<path d="M17.547 131.805C17.388 131.884 13.4541 133.593 10.1559 130.334C9.52012 129.698 8.5267 129.698 7.89091 130.334C7.25511 130.97 7.25511 131.963 7.89091 132.599C10.2354 134.904 12.7388 135.54 14.8051 135.54C17.0701 135.54 18.7391 134.785 18.8583 134.705C19.653 134.348 19.9709 133.394 19.6133 132.599C19.2557 131.765 18.3417 131.447 17.547 131.805Z" fill="#C94760"/>
<path d="M88.5957 50.1841C88.5957 50.1841 88.5957 105.259 88.5957 115.988C88.5957 126.717 97.0199 140.148 109.895 142.453C122.769 144.758 129.604 145.473 132.465 145.155C135.326 144.837 143.631 144.718 144.625 131.287C145.618 117.856 148.042 86.7023 135.326 66.5159C122.61 46.3296 103.894 29.9182 95.3112 34.0509C86.728 38.1835 88.7149 46.1706 88.5957 50.1841Z" fill="#F8536C"/>
<path opacity="0.5" d="M144.625 131.287C143.631 144.718 135.326 144.877 132.465 145.155C129.604 145.433 122.73 144.718 109.895 142.453C106.596 141.857 103.576 140.545 100.914 138.718C109.775 140.069 115.06 140.466 117.683 140.188C121.339 139.83 131.909 139.631 133.18 122.505C134.174 108.994 136.32 81.4169 129.246 57.7734C131.392 60.5948 133.459 63.5353 135.366 66.595C148.042 86.6622 145.618 117.816 144.625 131.287Z" fill="#C94760"/>
<path d="M108.663 86.067C111.231 86.067 113.312 83.9855 113.312 81.4178C113.312 78.8501 111.231 76.7686 108.663 76.7686C106.095 76.7686 104.014 78.8501 104.014 81.4178C104.014 83.9855 106.095 86.067 108.663 86.067Z" fill="#FFCA3A"/>
<path d="M96.9007 111.379C99.0075 111.379 100.715 109.671 100.715 107.564C100.715 105.457 99.0075 103.749 96.9007 103.749C94.7939 103.749 93.0859 105.457 93.0859 107.564C93.0859 109.671 94.7939 111.379 96.9007 111.379Z" fill="#FFCA3A"/>
<path d="M121.538 106.015C123.842 106.015 125.71 104.147 125.71 101.842C125.71 99.538 123.842 97.6699 121.538 97.6699C119.233 97.6699 117.365 99.538 117.365 101.842C117.365 104.147 119.233 106.015 121.538 106.015Z" fill="#FFCA3A"/>
<path d="M131.433 80.5031C130.996 80.5031 130.559 80.3044 130.241 79.9865C128.97 78.556 127.301 78.6354 126.466 78.8341C128.096 81.8939 128.493 84.3178 128.533 84.437C128.692 85.3112 128.095 86.106 127.221 86.2649C127.142 86.2649 127.023 86.3047 126.943 86.3047C126.188 86.3047 125.513 85.7483 125.393 84.9933C125.314 84.4768 123.049 72.357 108.187 69.5754C107.313 69.4165 106.757 68.582 106.916 67.7078C107.075 66.8336 107.909 66.2773 108.783 66.4362C110.015 66.6746 111.168 66.9528 112.24 67.3104C112.797 63.7738 109.856 61.6678 109.697 61.5486C108.982 61.0717 108.783 60.0783 109.26 59.363C109.737 58.6478 110.73 58.4491 111.485 58.9259C113.353 60.1975 116.333 63.7341 115.26 68.4628C119.91 70.5291 122.89 73.5491 124.758 76.132C124.797 76.132 124.797 76.0923 124.837 76.0923C125.036 76.0128 129.407 74.3836 132.626 77.9599C133.222 78.6354 133.142 79.6289 132.506 80.1852C132.188 80.3441 131.831 80.5031 131.433 80.5031Z" fill="#C94760"/>
<path d="M106.041 125.366C106.16 125.247 109.14 122.147 115.617 123.657C121.935 111.696 131.631 107.246 132.148 107.047C132.942 106.689 133.896 107.047 134.254 107.842C134.611 108.636 134.254 109.59 133.459 109.948C133.419 109.948 131.949 110.623 129.843 112.133C131.393 112.531 133.221 113.286 134.731 114.716C135.366 115.312 135.406 116.306 134.81 116.981C134.492 117.299 134.095 117.498 133.658 117.498C133.26 117.498 132.863 117.339 132.585 117.061C130.28 114.875 126.664 114.955 126.585 114.955C126.545 114.955 126.505 114.955 126.465 114.955C122.372 118.69 117.525 124.73 115.101 133.869C114.902 134.585 114.266 135.062 113.551 135.062C113.432 135.062 113.273 135.062 113.154 135.022C112.319 134.783 111.802 133.909 112.041 133.075C112.637 130.77 113.392 128.664 114.226 126.717C110.213 126.002 108.465 127.551 108.385 127.67C108.067 127.988 107.67 128.147 107.233 128.147C106.835 128.147 106.438 127.988 106.16 127.71C105.445 126.995 105.405 126.002 106.041 125.366Z" fill="#C94760"/>
<path d="M136.002 100.212C135.883 100.252 135.804 100.252 135.684 100.252C134.929 100.252 134.294 99.7356 134.135 98.9806C133.261 94.5301 129.406 93.8943 129.247 93.8546C128.373 93.7354 127.777 92.9406 127.896 92.0664C128.015 91.1922 128.81 90.5961 129.684 90.7154C129.923 90.7551 135.923 91.6293 137.274 98.3449C137.433 99.1793 136.837 100.014 136.002 100.212Z" fill="#C94760"/>
<path d="M128.81 131.804C128.969 131.883 132.903 133.592 136.201 130.333C136.837 129.697 137.83 129.697 138.466 130.333C139.102 130.969 139.102 131.963 138.466 132.598C136.121 134.903 133.618 135.539 131.552 135.539C129.287 135.539 127.618 134.784 127.499 134.704C126.704 134.347 126.386 133.393 126.744 132.598C127.061 131.764 128.015 131.446 128.81 131.804Z" fill="#C94760"/>
<path d="M55.2171 83.9612L73.4167 69.5764L90.9804 83.7625L100.716 71.7222L83.4304 57.7348C81.9998 56.5824 81.1654 54.7943 81.1654 52.9664V3.57336C81.1654 -0.638751 65.668 -0.996383 65.668 3.37468V52.9266C65.668 54.7943 64.7937 56.5824 63.3235 57.7348L45.7598 71.603L55.2171 83.9612Z" fill="#F78C68"/>
<path d="M55.2171 86.3454C54.5019 86.3454 53.8263 86.0275 53.3495 85.4315C52.515 84.3983 52.7137 82.8883 53.7469 82.0936L71.9464 67.7088C72.8206 67.0333 74.0524 67.0333 74.9266 67.7088L92.4904 81.8949C93.5235 82.7293 93.6825 84.2393 92.848 85.2328C92.0135 86.2262 90.5035 86.4249 89.5101 85.5904L73.4166 72.5964L56.6874 85.7891C56.2503 86.1467 55.7337 86.3454 55.2171 86.3454Z" fill="#E8AF7C"/>
<path d="M45.7601 74.0667C45.0448 74.0667 44.3693 73.7488 43.8925 73.1528C43.058 72.1196 43.2567 70.6096 44.2898 69.8149L61.8535 55.9467C62.7675 55.2314 63.2841 54.1585 63.2841 53.0062V3.41449C63.2841 2.10317 64.357 1.03027 65.6683 1.03027C66.9796 1.03027 68.0525 2.10317 68.0525 3.41449V52.9664C68.0525 55.5891 66.8604 58.0528 64.7941 59.6422L47.2304 73.5104C46.7933 73.868 46.2767 74.0667 45.7601 74.0667Z" fill="#E8AF7C"/>
<path d="M100.717 74.067C100.2 74.067 99.6438 73.908 99.2067 73.5504L81.9211 59.563C79.8946 57.9338 78.7422 55.5098 78.7422 52.9269V3.57367C78.7422 2.26235 79.8151 1.18945 81.1264 1.18945C82.4377 1.18945 83.5106 2.26235 83.5106 3.57367V52.9269C83.5106 54.0793 84.0272 55.1522 84.9014 55.8674L102.187 69.8548C103.22 70.6893 103.379 72.1993 102.545 73.1927C102.107 73.7888 101.432 74.067 100.717 74.067Z" fill="#E8AF7C"/>
<path d="M106.835 57.8535C119.07 57.8535 128.988 47.9351 128.988 35.7002C128.988 23.4653 119.07 13.5469 106.835 13.5469C94.6 13.5469 84.6816 23.4653 84.6816 35.7002C84.6816 47.9351 94.6 57.8535 106.835 57.8535Z" fill="#0DCEBB"/>
<path d="M109.831 48.1548H103.91C103.298 48.1548 102.787 47.6444 102.787 47.0319V24.3681C102.787 23.7556 103.298 23.2451 103.91 23.2451H109.831C110.444 23.2451 110.954 23.7556 110.954 24.3681V47.0319C110.954 47.6444 110.444 48.1548 109.831 48.1548Z" fill="white"/>
<path d="M94.3809 38.6602V32.705C94.3809 32.0925 94.8913 31.582 95.5038 31.582H118.168C118.78 31.582 119.291 32.0925 119.291 32.705V38.6262C119.291 39.2387 118.78 39.7492 118.168 39.7492H95.5379C94.8913 39.7832 94.3809 39.2727 94.3809 38.6602Z" fill="white"/>
</g>
<defs>
<clipPath id="clip0_1556_3475">
<rect width="144.682" height="145" fill="white" transform="translate(0.818359 0.275391)"/>
</clipPath>
</defs>
</svg>
