<svg width="100%" viewBox="0 0 124 145" fill="none" xmlns="http://www.w3.org/2000/svg">
<g clip-path="url(#clip0_1556_3440)">
<path d="M74.5293 82.4133H47.7008C38.181 82.4133 30.4707 74.703 30.4707 65.1832V40.5576H91.7987V65.1832C91.7987 74.703 84.0884 82.4133 74.5293 82.4133Z" fill="#10192E"/>
<path d="M61.6665 137.643L54.7823 123.954H68.6686L61.6665 137.643ZM98.2902 99.0133H89.7145C87.0788 99.0133 84.6792 97.8332 83.0664 95.8663C82.4763 95.1582 82.0436 94.3715 81.6895 93.506L78.8965 84.9697L78.5031 83.7502L74.1366 70.3752L49.0783 70.0605L45.4199 82.4127L44.6724 84.9697L42.2728 93.0733C41.9188 94.1354 41.368 95.0795 40.6993 95.9056C39.0864 97.8332 36.6868 98.974 34.0905 98.974H25.7115C11.8252 98.974 0.535156 110.225 0.535156 124.15V142.561C0.535156 143.898 1.59728 144.96 2.93478 144.96H121.067C122.404 144.96 123.467 143.898 123.467 142.561V124.15C123.467 110.264 112.176 99.0133 98.2902 99.0133Z" fill="#AB570F"/>
<path d="M123.467 124.189V142.6C123.467 143.937 122.404 144.999 121.067 144.999H2.93478C1.59728 144.999 0.535156 143.937 0.535156 142.6V124.189C0.535156 110.303 11.8252 99.013 25.7115 99.013H34.1298C36.7261 99.013 39.1258 97.8328 40.7386 95.9446L61.6665 137.682L83.0664 95.9053C84.6792 97.8722 87.0788 99.0523 89.7145 99.0523H98.2902C112.176 99.013 123.467 110.264 123.467 124.189Z" fill="#0DCEBB"/>
<path d="M68.6695 123.954L61.6674 137.644L54.7832 123.954H68.6695Z" fill="white"/>
<path d="M78.896 84.9694C74.2934 88.4705 68.5501 90.5947 62.3347 90.5947H61.1938C54.9784 90.5947 49.2351 88.5098 44.6719 85.0087L45.4193 82.4518L49.0777 70.0996L74.1361 70.4143L78.5026 83.7892L78.896 84.9694Z" fill="#893F09"/>
<path d="M123.467 124.19V142.6C123.467 143.937 122.404 144.999 121.067 144.999H112.452C112.452 139.492 112.491 134.024 112.491 129.618C112.491 116.243 109.069 104.521 97.5821 104.639C86.2528 104.757 83.1451 96.1416 83.0664 95.8662C84.6793 97.8331 87.0789 99.0133 89.7145 99.0133H98.2902C112.177 99.0133 123.467 110.264 123.467 124.19Z" fill="#02998E"/>
<path d="M89.5569 138.115H74.0971C73.8217 138.115 73.625 137.919 73.625 137.643V129.225C73.625 128.95 73.8217 128.753 74.0971 128.753H89.5176C89.7929 128.753 89.9896 128.95 89.9896 129.225V137.643C90.0289 137.919 89.7929 138.115 89.5569 138.115Z" fill="#FFCA3A"/>
<path d="M81.0986 132.372H79.7611C79.6824 132.372 79.6037 132.293 79.6037 132.215V130.877C79.6037 130.798 79.525 130.72 79.4464 130.72H77.4795C77.4008 130.72 77.3221 130.798 77.3221 130.877V132.215C77.3221 132.293 77.2434 132.372 77.1648 132.372H75.8273C75.7486 132.372 75.6699 132.451 75.6699 132.529V134.496C75.6699 134.575 75.7486 134.654 75.8273 134.654H77.1648C77.2434 134.654 77.3221 134.732 77.3221 134.811V136.148C77.3221 136.227 77.4008 136.306 77.4795 136.306H79.4464C79.525 136.306 79.6037 136.227 79.6037 136.148V134.811C79.6037 134.732 79.6824 134.654 79.7611 134.654H81.0986C81.1772 134.654 81.2559 134.575 81.2559 134.496V132.529C81.2559 132.411 81.1772 132.372 81.0986 132.372Z" fill="white"/>
<path d="M29.7246 144.999H23.8633L23.9026 144.921V128.871C23.9026 128.635 24.2567 128.595 24.296 128.831C25.2401 132.765 27.6397 142.206 29.7246 144.999Z" fill="#02998E"/>
<path d="M86.0566 144.999H99.5889L99.5496 144.921V128.871C99.5496 128.635 99.1956 128.595 99.1562 128.831C98.1728 132.765 91.7213 142.836 86.0566 144.999Z" fill="#02998E"/>
<path d="M42.6265 91.8142L60.5253 127.376C61.0367 128.399 61.3514 129.5 61.3908 130.601L61.6268 134.535L62.2169 130.247C62.3349 129.343 62.6102 128.438 63.0429 127.612L81.2171 91.6568C81.2958 91.4995 81.4925 91.5388 81.5712 91.6962L83.0267 95.866L61.5874 138.862L40.7383 95.9447L42.3511 91.8535C42.3905 91.6961 42.5872 91.6961 42.6265 91.8142Z" fill="#0DCEBB"/>
<path d="M62.3354 83.5933H61.1946C46.1674 83.5933 33.9727 71.3985 33.9727 56.3714V28.4414C33.9727 15.9712 44.0825 5.86133 56.5527 5.86133H67.0166C79.4868 5.86133 89.5966 15.9712 89.5966 28.4414V56.332C89.5573 71.3985 77.4019 83.5933 62.3354 83.5933Z" fill="#AB570F"/>
<path d="M95.1425 35.8373C95.1031 40.5972 94.5917 44.0196 94.513 44.4523C94.513 44.4917 94.513 44.4917 94.513 44.4917L91.6807 44.6097L89.5958 44.6884L88.2583 44.767L88.219 44.3737L87.6682 37.0568L87.3142 32.5722C87.3142 32.5722 75.2767 32.7296 63.082 26.2782C59.3842 24.3113 55.6864 21.7543 52.3033 18.3712C52.3033 18.3712 50.6118 21.8723 46.678 25.6487C44.121 28.127 40.6593 30.684 36.1747 32.4149L35.9387 38.0009L35.624 45.3964H35.506L34.0111 45.3178L28.8972 45.0424C28.8972 45.0424 28.8579 44.9244 28.8185 44.649C28.3858 41.738 25.8288 22.8951 33.3817 11.4871C33.8931 10.7396 34.4045 10.0315 34.9946 9.3628C38.4957 5.31098 43.649 2.63599 51.2412 2.71467C51.2412 2.71467 68.6286 -4.83823 83.3804 5.38966C83.6557 5.58635 83.9311 5.78304 84.2065 5.97973C85.3866 6.8845 86.4487 7.90729 87.3929 9.00876C87.9829 9.6775 88.5337 10.3856 89.0451 11.0937C94.159 18.5679 95.1818 28.6778 95.1425 35.8373Z" fill="#10192E"/>
<path d="M95.1415 35.8369C95.1021 40.5968 94.5907 44.0192 94.5121 44.4519C94.7088 44.8846 94.8268 45.3567 94.8268 45.8681V55.5059C94.8268 56.4107 94.4727 57.2368 93.922 57.8268C93.2139 54.3651 92.4665 50.0379 91.6404 44.6092C91.5224 43.9012 91.4437 43.1537 91.3257 42.367C90.893 39.1806 90.2636 36.2696 89.5555 33.5553C85.189 17.348 76.2592 9.55906 68.1163 5.86129C59.1865 1.80947 51.2402 2.63557 51.2402 2.63557C51.2402 2.63557 68.6277 -4.91733 83.3794 5.31055C85.661 6.88408 87.5099 8.85098 89.0047 11.0146C94.158 18.5675 95.1808 28.6773 95.1415 35.8369Z" fill="#10192E"/>
<path d="M32.0438 59.0066C30.1162 59.0066 28.582 57.4331 28.582 55.5449V45.9071C28.582 43.9795 30.1556 42.4453 32.0438 42.4453C33.9713 42.4453 35.5055 44.0188 35.5055 45.9071V55.5449C35.5055 57.4331 33.9713 59.0066 32.0438 59.0066Z" fill="#AB570F"/>
<path d="M94.8281 45.9073V55.5452C94.8281 56.4499 94.474 57.276 93.9233 57.8661C93.2939 58.5742 92.3498 59.0069 91.327 59.0069C90.6582 59.0069 90.0288 58.8102 89.4781 58.4562C88.4946 57.8268 87.8652 56.7646 87.8652 55.5058V45.868C87.8652 45.3566 87.9832 44.8452 88.1799 44.4125C88.4946 43.7831 88.9667 43.2323 89.5568 42.8783C90.0682 42.5636 90.6976 42.4062 91.327 42.4062C92.2711 42.4062 93.1759 42.7996 93.8053 43.429C94.12 43.7437 94.356 44.0584 94.5134 44.4518C94.7101 44.8845 94.8281 45.3959 94.8281 45.9073Z" fill="#AB570F"/>
<path d="M87.6296 37.1348C62.6106 40.2425 52.6975 24.822 52.6975 24.822C48.685 33.2403 40.7387 36.6627 35.9395 38.0002L36.1755 32.4536C47.7015 27.9297 52.3041 18.4492 52.3041 18.4492C66.8985 32.9256 87.3149 32.6502 87.3149 32.6502L87.6296 37.1348Z" fill="#893F09"/>
<path d="M63.0817 26.3173C59.3839 24.3504 55.6861 21.7934 52.3031 18.4104C52.3031 18.4104 50.6115 21.9114 46.6777 25.6879L46.7564 25.4912C46.7564 25.4912 53.4832 16.3648 52.2244 9.59863C52.3817 10.3854 55.3714 21.8328 63.0817 26.3173Z" fill="#10192E"/>
<path d="M49.6668 18.6464C43.3727 17.3875 37.7474 14.8699 33.3809 11.4475C33.8923 10.7001 34.4036 9.99199 34.9937 9.32324C38.4948 13.6898 43.6481 16.9942 49.6668 18.6464Z" fill="#BFA599"/>
<path d="M79.6817 11.7227L81.4912 13.5715C76.81 16.4432 71.1454 18.4101 64.8906 19.1969C70.7126 18.0561 75.8659 15.3811 79.6817 11.7227Z" fill="#BFA599"/>
<path d="M87.3924 8.96918C86.2909 10.0706 85.1108 11.0934 83.8126 12.0376L81.8457 9.44124C82.7505 8.33977 83.5372 7.19897 84.206 5.97949C85.3861 6.88427 86.4483 7.90706 87.3924 8.96918Z" fill="#BFA599"/>
</g>
<defs>
<clipPath id="clip0_1556_3440">
<rect width="122.931" height="145" fill="white" transform="translate(0.535156)"/>
</clipPath>
</defs>
</svg>
