<svg width="100%" viewBox="0 0 126 145" fill="none" xmlns="http://www.w3.org/2000/svg">
<g clip-path="url(#clip0_1556_3524)">
<path d="M99.6527 98.4807H90.9926C88.3485 98.4807 85.8961 97.2928 84.2484 95.3002C83.6736 94.6105 83.2138 93.8058 82.8689 92.9245L80.0716 84.3026L79.6884 83.0764L75.2817 69.5497L49.9143 69.2432L46.2357 81.7352L45.4693 84.3409L43.0552 92.5413C42.7103 93.6142 42.1738 94.5722 41.4841 95.3769C41.1775 95.7218 40.871 96.0666 40.5261 96.3349C38.9933 97.676 36.9624 98.4807 34.8166 98.4807H26.2714C12.1699 98.4807 0.789062 109.862 0.789062 123.925V142.548C0.789062 143.889 1.862 144.962 3.20317 144.962H122.683C124.024 144.962 125.097 143.889 125.097 142.548V123.925C125.135 109.862 113.716 98.4807 99.6527 98.4807Z" fill="#9AC2D8"/>
<path d="M49.3012 145H3.20317C1.862 145 0.789062 143.927 0.789062 142.586V123.963C0.789062 109.862 12.1699 98.4808 26.2714 98.4808H34.7782C36.9241 98.4808 38.955 97.6761 40.4878 96.335L49.3012 145Z" fill="#DFDAD4"/>
<path d="M125.211 123.925V142.548C125.211 143.89 124.138 144.963 122.797 144.963H76.6992L85.3977 96.9485L85.5126 96.2588C86.5856 97.1785 87.8501 97.8299 89.2296 98.1748H89.2679C89.9194 98.328 90.5708 98.4047 91.2222 98.4047H99.6524C99.8824 98.4047 100.074 98.4047 100.304 98.4047C114.137 98.7879 125.211 110.054 125.211 123.925Z" fill="#DFDAD4"/>
<path d="M80.071 84.2645C75.4344 87.8282 69.6099 89.9358 63.3255 89.9358H62.1759C55.8916 89.9358 50.1054 87.8282 45.4688 84.3029L46.2351 81.6971L49.9138 69.2051L75.2811 69.5116L79.6878 83.0383L80.071 84.2645Z" fill="#D34A28"/>
<path d="M125.134 123.925V142.548C125.134 143.89 124.061 144.963 122.72 144.963H114.022C114.022 139.406 114.06 133.85 114.06 129.405C114.06 115.878 110.611 103.999 99.0006 104.114C90.9535 104.191 87.0833 99.7075 85.4355 96.9485L85.5505 96.2588C86.6234 97.1785 87.888 97.8299 89.2675 98.1748H89.3058C89.8806 98.328 90.4554 98.4047 91.0302 98.4047H99.652C99.8819 98.4047 100.074 98.4047 100.303 98.4047C114.098 98.8262 125.134 110.092 125.134 123.925Z" fill="#B7B1AB"/>
<path d="M30.2957 145H24.3945L24.4329 144.924V128.676C24.4329 128.446 24.7777 128.37 24.8544 128.638C25.774 132.623 28.1881 142.165 30.2957 145Z" fill="#B7B1AB"/>
<path d="M95.0156 145H100.955L100.917 144.924V128.676C100.917 128.446 100.572 128.37 100.495 128.638C99.5373 132.623 97.1232 142.165 95.0156 145Z" fill="#B7B1AB"/>
<path d="M70.8758 144.924H56.3145L58.8052 101.202L63.5185 100.627L67.3121 100.167L70.8758 144.924Z" fill="#6B6669"/>
<path d="M70.8749 144.924H63.5176V100.627L67.3112 100.167L70.8749 144.924Z" fill="#514E50"/>
<path d="M71.6416 99.8987C71.6416 99.8987 69.0359 103.846 63.0581 103.769C62.8282 103.769 62.5983 103.769 62.3684 103.731C57.3102 103.347 54.4746 99.8221 54.4746 99.8221L61.487 90.5488H65.0124L71.6416 99.8987Z" fill="#999999"/>
<path d="M71.6404 99.8987C71.6404 99.8987 69.0347 103.846 63.0569 103.769C62.827 103.769 62.5971 103.769 62.3672 103.731C62.4055 103.731 62.4438 103.692 62.5205 103.692C66.3907 102.811 63.5551 92.7713 62.8653 90.5488H65.0112L71.6404 99.8987Z" fill="#6B6669"/>
<path d="M45.5843 83.5746L62.3681 89.5907C62.8662 89.7823 63.0961 90.3571 62.8279 90.817L56.0454 102.696C55.8921 102.964 55.5473 103.041 55.3173 102.849L42.4421 93.6909C42.1355 93.461 42.0206 93.1161 42.1355 92.7329L44.9328 83.8812C44.9711 83.6513 45.2777 83.498 45.5843 83.5746Z" fill="#B9DEEF"/>
<path d="M80.3784 83.5746L63.5946 89.5907C63.0965 89.7823 62.8665 90.3571 63.1348 90.817L69.9173 102.696C70.0706 102.964 70.4154 103.041 70.6454 102.849L83.5206 93.6909C83.8272 93.461 83.9421 93.1161 83.8272 92.7329L81.0299 83.8812C80.9532 83.6513 80.6467 83.498 80.3784 83.5746Z" fill="#B9DEEF"/>
<path d="M25.1212 109.478C23.9717 109.478 23.0137 108.52 23.0137 107.371V93.3076C23.0137 87.2148 26.8839 81.7735 32.5935 79.7426L35.2375 78.8229C53.4008 72.3853 73.3652 72.4619 91.4902 79.0145C97.1614 81.0838 100.993 86.4868 100.993 92.5412V99.8219C100.993 100.971 100.035 101.929 98.8858 101.929C97.7362 101.929 96.7782 100.971 96.7782 99.8219V92.5412C96.7782 88.2878 94.0959 84.4175 90.0723 82.9614C72.867 76.7537 53.899 76.6771 36.6553 82.7698L34.0113 83.6895C29.9495 85.1073 27.2288 88.9775 27.2288 93.2693V107.332C27.2288 108.52 26.3091 109.478 25.1212 109.478Z" fill="#6B6669"/>
<path d="M102.871 138.524C98.5409 138.524 94.6324 135.803 93.1762 131.588V131.55L86.8152 111.356C85.3974 107.217 87.1601 102.696 90.992 100.588L97.7745 96.8711C98.8092 96.2963 100.074 96.6795 100.648 97.7141C101.223 98.7487 100.84 100.013 99.8055 100.588L93.023 104.305C90.992 105.416 90.0724 107.83 90.8004 110.015V110.053L97.1614 130.247C98.1577 133.121 101.07 134.769 104.059 134.232L107.086 133.658C108.236 133.428 109.347 134.194 109.539 135.344C109.768 136.493 109.002 137.604 107.852 137.796L104.825 138.371C104.174 138.486 103.522 138.524 102.871 138.524Z" fill="#6B6669"/>
<path d="M97.2765 138.793C96.9699 138.793 96.6634 138.793 96.3568 138.755L93.2913 138.486C92.1417 138.371 91.2604 137.375 91.3753 136.226C91.4903 135.076 92.4866 134.233 93.6362 134.31L96.7017 134.578C99.7289 134.846 102.45 132.892 103.178 129.941L107.546 109.249V109.21C108.083 106.95 106.933 104.65 104.787 103.731L97.6597 100.704C96.5868 100.244 96.0886 99.0176 96.5484 97.9446C97.0083 96.8717 98.2345 96.3735 99.3074 96.8334L106.435 99.8606C110.458 101.585 112.643 105.915 111.646 110.168L107.278 130.899V130.937C106.128 135.574 102.028 138.793 97.2765 138.793Z" fill="#6B6669"/>
<path d="M99.0015 103.692C101.351 103.692 103.255 101.788 103.255 99.439C103.255 97.0899 101.351 95.1855 99.0015 95.1855C96.6524 95.1855 94.748 97.0899 94.748 99.439C94.748 101.788 96.6524 103.692 99.0015 103.692Z" fill="#6B6669"/>
<path d="M25.1211 117.181C28.4014 117.181 31.0606 114.522 31.0606 111.241C31.0606 107.961 28.4014 105.302 25.1211 105.302C21.8408 105.302 19.1816 107.961 19.1816 111.241C19.1816 114.522 21.8408 117.181 25.1211 117.181Z" fill="#5F605A"/>
<path d="M25.1207 114.307C26.8561 114.307 28.2629 112.9 28.2629 111.165C28.2629 109.429 26.8561 108.022 25.1207 108.022C23.3853 108.022 21.9785 109.429 21.9785 111.165C21.9785 112.9 23.3853 114.307 25.1207 114.307Z" fill="#828282"/>
<path d="M26.653 109.786C27.2456 109.786 27.726 109.305 27.726 108.713C27.726 108.12 27.2456 107.64 26.653 107.64C26.0605 107.64 25.5801 108.12 25.5801 108.713C25.5801 109.305 26.0605 109.786 26.653 109.786Z" fill="#F7F7F7"/>
<path d="M89.8416 31.7284V58.3603C89.8416 73.3048 77.7327 85.452 62.7499 85.452C47.8054 85.452 35.6582 73.3431 35.6582 58.3603V31.7284C35.6582 28.9311 36.1947 26.2871 37.1143 23.8346C40.2948 15.596 48.2652 9.77148 57.6151 9.77148H67.8464C77.0813 9.77148 85.0134 15.4811 88.2322 23.5281C89.2668 26.0572 89.8416 28.8161 89.8416 31.7284Z" fill="#F78C68"/>
<path d="M89.8416 31.7288V37.5534C89.2668 37.8599 88.6537 38.4347 87.8873 38.5497C79.0356 39.7759 75.8551 29.583 75.8551 29.583C64.6276 38.7413 37.1527 39.7376 37.1527 39.7376L35.6582 34.871V31.6905C35.6582 28.8932 36.1947 26.2492 37.1143 23.7968C41.4061 20.9995 47.1923 17.1675 48.7634 16.1329C51.3308 14.4085 60.4508 11.3047 60.4508 11.3047L67.8464 13.8721C67.8464 13.8721 81.9478 17.6657 83.3273 18.5087C83.9021 18.8536 85.9331 21.0378 88.1939 23.4519C89.2668 26.0576 89.8416 28.8166 89.8416 31.7288Z" fill="#D34A28"/>
<path d="M95.8966 20.118C95.82 21.2676 95.5901 23.2985 95.3602 25.7126C94.4405 34.2961 92.7545 48.1294 92.7545 48.1294L88.731 49.2789L87.658 35.7906C85.1673 36.1737 83.2513 35.0625 81.8335 33.4531C78.8446 30.081 77.81 24.3714 77.81 24.3714C73.6715 27.2837 67.3105 29.5062 60.8345 31.1922C49.4537 34.1428 37.8813 35.369 37.8813 35.369L37.1533 48.206L32.2867 50.0453C31.7502 39.6225 28.9529 31.0007 28.6464 23.8733C28.4931 19.9647 29.0679 16.516 31.1755 13.4121C31.2904 13.2205 31.4437 13.0289 31.597 12.8373C32.7082 11.3046 34.1644 9.84843 35.8504 8.50726C44.6255 1.37988 59.9532 -1.30247 70.0695 0.651811C82.37 3.06592 82.37 8.35398 82.37 8.35398C85.8187 7.58759 88.7309 8.50726 90.9918 10.2316C91.1834 10.3849 91.3367 10.4999 91.4899 10.6531C92.1414 11.1896 92.7162 11.841 93.2526 12.4925C93.3676 12.6457 93.5209 12.8373 93.6358 12.9906C95.2069 15.2514 96.0499 17.9338 95.8966 20.118Z" fill="#9E7059"/>
<path d="M81.9491 33.1849L81.7958 33.4532C78.8069 30.0811 77.7723 24.3715 77.7723 24.3715C73.6338 27.2838 67.2728 29.5063 60.7969 31.1924C61.1801 31.0008 61.6399 30.8475 62.1764 30.6559C73.4422 27.2071 80.0331 15.06 80.2247 14.6768C77.6957 20.5779 81.9491 33.1849 81.9491 33.1849Z" fill="#995B3F"/>
<path d="M60.7963 31.192C49.4538 34.1426 37.8814 35.3688 37.8814 35.3688L37.1534 48.2058L32.2868 50.0451C31.7503 39.6223 28.953 31.0004 28.6465 23.873C30.3325 30.3107 37.3833 36.4034 60.7963 31.192Z" fill="#995B3F"/>
<path d="M95.3213 25.7129C94.4016 34.2964 92.7156 48.1296 92.7156 48.1296L88.6921 49.2792L87.6191 35.7909C87.6191 35.7909 93.0988 33.2235 95.3213 25.7129Z" fill="#995B3F"/>
<path d="M33.7803 61.5025C31.9027 61.5025 30.4082 59.9697 30.4082 58.1304V48.7422C30.4082 46.8646 31.941 45.3701 33.7803 45.3701C35.6579 45.3701 37.1524 46.9029 37.1524 48.7422V58.1304C37.1907 59.9697 35.6579 61.5025 33.7803 61.5025Z" fill="#F78C68"/>
<path d="M94.9388 48.7424V58.1307C94.9388 59.012 94.5939 59.8167 94.0574 60.3915C93.4443 61.0812 92.5246 61.5028 91.5283 61.5028C90.8769 61.5028 90.2638 61.3112 89.7273 60.9663C88.7694 60.3532 88.1562 59.3186 88.1562 58.0923V48.7041C88.1562 48.206 88.2712 47.7078 88.4628 47.2863C88.7694 46.6732 89.2292 46.1367 89.804 45.7919C90.3021 45.4853 90.9152 45.332 91.5283 45.332C92.448 45.332 93.3293 45.7152 93.9425 46.3283C94.249 46.6349 94.4789 46.9414 94.6322 47.3246C94.8238 47.7461 94.9388 48.2443 94.9388 48.7424Z" fill="#F78C68"/>
<path d="M41.4074 14.7914L36.1193 17.3588C34.4716 15.9793 32.9771 14.4466 31.5977 12.7988C32.7089 11.2661 34.165 9.80992 35.8511 8.46875C37.4605 10.8062 39.3381 12.9138 41.4074 14.7914Z" fill="#BFA599"/>
<path d="M73.097 23.9879C69.1118 25.444 64.7817 26.2487 60.2601 26.2487C53.0561 26.2487 46.3502 24.2178 40.6406 20.6924L44.4342 17.3203C50.6419 21.8803 58.3058 24.5626 66.5827 24.5626C68.8053 24.5626 70.9895 24.3711 73.097 23.9879Z" fill="#BFA599"/>
<path d="M93.2526 12.4929C90.0721 16.1332 86.1252 19.1987 81.6035 21.4213C85.627 18.4707 88.9608 14.792 91.4899 10.6152C92.1796 11.19 92.7544 11.8031 93.2526 12.4929Z" fill="#BFA599"/>
</g>
<defs>
<clipPath id="clip0_1556_3524">
<rect width="124.423" height="145" fill="white" transform="translate(0.789062)"/>
</clipPath>
</defs>
</svg>
