<svg width="100%" viewBox="0 0 33 33" fill="none" xmlns="http://www.w3.org/2000/svg">
<path opacity="0.4" d="M16.4847 29.8123C15.4594 29.8123 14.4354 29.423 13.6527 28.6456L12.6794 27.6723C12.302 27.2963 11.7967 27.0883 11.2607 27.087H9.89136C7.67802 27.087 5.87669 25.2856 5.87669 23.0723V21.7016C5.87536 21.167 5.66736 20.6616 5.29002 20.2816L4.33269 19.3256C2.76469 17.767 2.75802 15.219 4.31802 13.6496L5.29136 12.675C5.66736 12.2976 5.87536 11.7923 5.87669 11.2563V9.88831C5.87669 7.67364 7.67802 5.87231 9.89136 5.87231H11.262C11.7967 5.87231 12.3007 5.66431 12.6807 5.28431L13.6394 4.32831C15.198 2.76031 17.7447 2.75231 19.3154 4.31364L20.2887 5.28698C20.6674 5.66431 21.1714 5.87231 21.706 5.87231H23.0767C25.29 5.87231 27.0914 7.67364 27.0914 9.88831V11.2576C27.0927 11.7923 27.3007 12.2976 27.678 12.6776L28.6354 13.635C29.394 14.3896 29.814 15.395 29.818 16.4683C29.8207 17.535 29.41 18.539 28.662 19.2976C28.6487 19.311 28.6367 19.3256 28.6234 19.3376L27.6767 20.2843C27.3007 20.6616 27.0927 21.167 27.0914 21.703V23.0723C27.0914 25.2856 25.29 27.087 23.0767 27.087H21.706C21.1714 27.0883 20.666 27.2963 20.2874 27.6736L19.3287 28.631C18.5474 29.4176 17.5154 29.8123 16.4847 29.8123Z" fill="#675DFF"/>
<path fill-rule="evenodd" clip-rule="evenodd" d="M13.8767 13.8826C13.6567 14.1026 13.3713 14.2212 13.0553 14.2212C12.7593 14.2212 12.4687 14.0999 12.2353 13.8812C12.014 13.6612 11.8887 13.3599 11.8887 13.0546C11.8887 12.7639 12.0113 12.4652 12.2273 12.2346C12.346 12.1146 12.4873 12.0239 12.6287 11.9759C13.0313 11.7919 13.566 11.8999 13.8833 12.2332C13.9967 12.3466 14.0833 12.4706 14.1407 12.5999C14.2033 12.7386 14.2353 12.8959 14.2353 13.0546C14.2353 13.3719 14.1087 13.6666 13.8767 13.8826ZM20.7403 12.2278C20.2856 11.7744 19.5456 11.7744 19.0909 12.2278L12.2376 19.0811C11.7829 19.5357 11.7829 20.2758 12.2376 20.7317C12.4589 20.9517 12.7509 21.0731 13.0629 21.0731C13.3749 21.0731 13.6669 20.9517 13.8869 20.7317L20.7403 13.8784C21.1949 13.4224 21.1949 12.6838 20.7403 12.2278ZM20.3607 18.8332C19.9287 18.6519 19.4167 18.7506 19.0753 19.0919C19.0047 19.1746 18.9047 19.3026 18.8367 19.4532C18.7647 19.6159 18.7553 19.7906 18.7553 19.9079C18.7553 20.0252 18.7647 20.1986 18.8367 20.3612C18.9033 20.5106 18.9833 20.6319 19.0887 20.7372C19.33 20.9612 19.61 21.0746 19.922 21.0746C20.218 21.0746 20.5087 20.9546 20.7473 20.7319C20.9593 20.5199 21.0753 20.2266 21.0753 19.9079C21.0753 19.5879 20.9593 19.2959 20.746 19.0826C20.6287 18.9666 20.4873 18.8759 20.3607 18.8332Z" fill="#675DFF"/>
</svg>
