<svg width="100%" viewBox="0 0 33 33" fill="none" xmlns="http://www.w3.org/2000/svg">
<path d="M29.0536 3.9195C28.387 3.23817 27.4003 2.98617 26.4803 3.25284L5.02695 9.4515C4.05628 9.72084 3.36828 10.4902 3.18295 11.4662C2.99362 12.4608 3.65495 13.7248 4.51895 14.2528L11.227 18.3488C11.915 18.7702 12.803 18.6648 13.3723 18.0942L21.0536 10.4128C21.4403 10.0115 22.0803 10.0115 22.467 10.4128C22.8536 10.7982 22.8536 11.4262 22.467 11.8262L14.7723 19.5075C14.2016 20.0782 14.095 20.9635 14.515 21.6528L18.6136 28.3862C19.0936 29.1848 19.9203 29.6395 20.827 29.6395C20.9336 29.6395 21.0536 29.6395 21.1603 29.6248C22.2003 29.4928 23.027 28.7848 23.3336 27.7848L29.6936 6.49284C29.9736 5.58617 29.7203 4.5995 29.0536 3.9195Z" fill="#FF9C00"/>
<path opacity="0.4" fill-rule="evenodd" clip-rule="evenodd" d="M4.49771 22.8923C4.24171 22.8923 3.98571 22.7949 3.79105 22.5989C3.40038 22.2083 3.40038 21.5763 3.79105 21.1856L5.61105 19.3643C6.00171 18.9749 6.63505 18.9749 7.02571 19.3643C7.41505 19.7549 7.41505 20.3883 7.02571 20.7789L5.20438 22.5989C5.00971 22.7949 4.75371 22.8923 4.49771 22.8923ZM9.51265 24.4821C9.25665 24.4821 9.00065 24.3848 8.80598 24.1888C8.41531 23.7981 8.41531 23.1661 8.80598 22.7755L10.626 20.9541C11.0166 20.5648 11.65 20.5648 12.0406 20.9541C12.43 21.3448 12.43 21.9781 12.0406 22.3688L10.2193 24.1888C10.0246 24.3848 9.76865 24.4821 9.51265 24.4821ZM9.85091 29.2395C10.0456 29.4355 10.3016 29.5328 10.5576 29.5328C10.8136 29.5328 11.0696 29.4355 11.2642 29.2395L13.0856 27.4195C13.4749 27.0288 13.4749 26.3955 13.0856 26.0048C12.6949 25.6155 12.0616 25.6155 11.6709 26.0048L9.85091 27.8261C9.46025 28.2168 9.46025 28.8488 9.85091 29.2395Z" fill="#FF9C00"/>
</svg>
