<svg width="100%" viewBox="0 0 595 322" fill="none" xmlns="http://www.w3.org/2000/svg">
<g clip-path="url(#clip0_1556_4257)">
<path d="M250.07 243.086L248.83 246.351L226.071 306.313L210.443 278.409L217.06 247.543L221.012 229.112L250.07 243.086Z" fill="#F78C68"/>
<path d="M349.511 151.238H452.49C452.49 151.238 435.785 155.595 436.511 316.386L436.627 320.031L341.317 319.95C341.317 319.95 308.817 174.516 349.511 151.238Z" fill="#13192F"/>
<g opacity="0.33">
<path d="M442.592 243.086H402.797V244.125H442.592V243.086Z" fill="#ECECEC"/>
</g>
<g opacity="0.33">
<path d="M440.45 299.528H371.395V300.567H440.45V299.528Z" fill="#ECECEC"/>
</g>
<g opacity="0.33">
<path d="M436.578 270.523H367.523V271.562H436.578V270.523Z" fill="#ECECEC"/>
</g>
<path d="M311.735 201.872L344.067 147.43C344.067 147.43 328.036 154.941 321.366 129.393C320.802 127.246 320.268 124.921 319.765 122.421C319.626 121.753 319.496 121.07 319.366 120.373C319.02 118.516 318.699 116.567 318.404 114.525L291.289 130.547C291.289 130.547 291.799 136.005 290.486 143.761C290.241 145.204 289.928 146.752 289.524 148.344C288.414 152.926 281.903 149.748 279.119 154.83C270.165 171.131 311.735 201.872 311.735 201.872Z" fill="#F78C68"/>
<path d="M290.469 143.761C310.703 150.075 317.776 133.029 320.493 125.825C320.184 124.706 319.94 123.569 319.762 122.421C319.623 121.753 319.493 121.07 319.363 120.373C319.017 118.516 318.696 116.567 318.401 114.525L291.286 130.547C291.286 130.547 291.781 136.005 290.469 143.761Z" fill="#D34A28"/>
<path d="M250.073 243.086L248.832 246.351L217.062 247.543L221.015 229.112L250.073 243.086Z" fill="#D34A28"/>
<g opacity="0.33">
<path d="M438.7 214.086H398.904V215.125H438.7V214.086Z" fill="#ECECEC"/>
</g>
<path d="M371.616 307.308C372.217 314.954 372.654 320.027 372.654 320.027H320.506C320.506 320.027 320.342 319.575 320.025 318.637H292.737L292.886 320.032H236.588L252.797 291.916C252.797 291.916 251.97 288.882 250.836 285.54C249.701 282.198 257.918 279.131 257.918 279.131L248.532 242.841L250.066 243.086L240.238 210.758V172.011C251.634 155.6 275.599 152.97 275.599 152.97L283.293 151.763C283.293 151.763 283.293 152.508 283.23 153.831C283.23 176.007 304.22 207.945 329.358 144.694C332.813 144.805 336.243 145.313 339.581 146.209C361.167 151.643 388.787 169.848 388.787 169.848C388.787 169.848 368.331 225.299 368.331 247.717C368.331 256.487 369 269.466 369.774 282.011C370.394 291.315 371.072 300.37 371.616 307.308Z" fill="#4FC1AE"/>
<path d="M436.626 320.032C436.626 320.032 422.148 167.15 451.052 152.109C477.951 138.121 469.464 319.95 469.464 319.95L436.626 320.032Z" fill="#160907"/>
<path d="M262.766 76.7261C262.766 76.7261 256.827 89.0119 265.516 95.0417C274.205 101.072 275.133 74.2209 262.766 76.7261Z" fill="#13192F"/>
<path d="M317.458 100.052C317.57 100.23 317.725 100.377 317.908 100.481C318.091 100.584 318.297 100.641 318.507 100.645C318.717 100.649 318.925 100.601 319.112 100.505C319.3 100.409 319.46 100.268 319.579 100.095C321.334 97.5368 325.094 93.7477 328.398 101.788C332.889 112.708 320.348 113.28 319.699 115.011C318.382 118.521 317.074 124.186 309.967 131.841C306.283 135.803 296.95 140.977 285.039 139.707C276.346 138.779 266.382 111.217 264.844 74.4127C264.844 74.4127 268.825 79.2212 273.225 79.7453C277.625 80.2695 284.39 76.2688 288.805 74.0184C292.392 72.1912 298.811 67.2865 304.302 69.8013C307.442 70.4553 314.525 95.5269 317.458 100.052Z" fill="#F78C68"/>
<path d="M252.797 238.354L250.066 243.086L203.755 235.724C202.872 235.583 202.04 235.218 201.337 234.665C200.635 234.112 200.086 233.388 199.742 232.562C199.399 231.737 199.272 230.837 199.374 229.948C199.477 229.06 199.804 228.213 200.327 227.487V227.487L240.237 172.035L252.797 238.354Z" fill="#4FC1AE"/>
<path d="M319.578 100.095C319.578 100.095 322.497 95.5702 325.507 97.4888C328.517 99.4074 325.507 84.3663 325.507 84.3663C325.507 84.3663 334.254 72.2537 325.964 67.474C317.674 62.6944 316.088 67.474 316.088 67.474C316.088 67.474 311.409 44.7106 288.198 60.9441C288.198 60.9441 279.432 54.2506 269.556 61.1028C259.679 67.9549 263.179 75.9226 263.179 75.9226C263.179 75.9226 255.212 86.4388 263.497 89.4633C271.782 92.4879 275.888 93.791 282.442 89.6221L288.992 85.4819C288.992 85.4819 295.526 87.8862 300.946 83.7268C300.946 83.7268 303.653 98.5466 311.779 94.5652C311.784 94.5652 314.914 104.485 319.578 100.095Z" fill="#12192F"/>
<path d="M367.697 0.587891H285.505C283.596 0.588521 281.706 0.965354 279.942 1.69681C278.179 2.42826 276.577 3.49998 275.228 4.8508C273.879 6.20163 272.809 7.80502 272.08 9.56939C271.351 11.3338 270.977 13.2245 270.979 15.1336C270.979 18.9876 272.51 22.6837 275.235 25.4088C277.96 28.134 281.656 29.6649 285.51 29.6649H286.366L292.872 39.1521L299.281 29.6649H367.687C371.541 29.6649 375.237 28.134 377.962 25.4088C380.688 22.6837 382.219 18.9876 382.219 15.1336C382.22 13.2249 381.846 11.3346 381.117 9.5705C380.389 7.80644 379.319 6.20327 377.971 4.85251C376.622 3.50175 375.021 2.42989 373.258 1.69816C371.495 0.966422 369.606 0.589153 367.697 0.587891Z" fill="#FF9C00"/>
<path d="M285.668 12.0654H302.195" stroke="#14192F" stroke-width="1.44255" stroke-linecap="round" stroke-linejoin="round"/>
<path d="M371.073 299.74L316.573 300.048C315.131 294.883 314.862 299.523 312.664 288.19L369.799 282.021C370.395 291.315 370.515 292.801 371.073 299.74Z" fill="#02B5A5"/>
<path d="M285.668 18.2686H366.581" stroke="#14192F" stroke-width="1.44255" stroke-linecap="round" stroke-linejoin="round"/>
<path d="M521.887 40.1713V116.295C521.887 117.71 521.608 119.111 521.067 120.419C520.525 121.726 519.732 122.914 518.731 123.915C517.73 124.915 516.542 125.709 515.235 126.25C513.928 126.792 512.526 127.071 511.111 127.071H416.605C415.189 127.071 413.788 126.793 412.48 126.252C411.172 125.711 409.983 124.917 408.982 123.916C407.981 122.916 407.187 121.727 406.645 120.42C406.103 119.112 405.824 117.71 405.824 116.295V40.1713C405.824 38.7558 406.103 37.3542 406.645 36.0465C407.187 34.7388 407.981 33.5507 408.982 32.55C409.983 31.5493 411.172 30.7557 412.48 30.2144C413.788 29.6731 415.189 29.3949 416.605 29.3955H511.111C513.969 29.3955 516.71 30.5308 518.731 32.5517C520.752 34.5725 521.887 37.3134 521.887 40.1713V40.1713Z" fill="#ECECEC"/>
<path d="M521.887 40.1713V46.9032H405.824V40.1713C405.824 38.7558 406.103 37.3542 406.645 36.0465C407.187 34.7388 407.981 33.5507 408.982 32.55C409.983 31.5493 411.172 30.7557 412.48 30.2144C413.788 29.6731 415.189 29.3949 416.605 29.3955H511.111C513.969 29.3955 516.71 30.5308 518.731 32.5517C520.752 34.5725 521.887 37.3134 521.887 40.1713V40.1713Z" fill="#0F192E"/>
<path d="M417.49 41.3349C418.695 41.3349 419.673 40.3575 419.673 39.1518C419.673 37.9461 418.695 36.9688 417.49 36.9688C416.284 36.9688 415.307 37.9461 415.307 39.1518C415.307 40.3575 416.284 41.3349 417.49 41.3349Z" fill="#FC461E"/>
<path d="M257.918 279.131C257.918 279.131 262.159 293.893 281.797 298.442C301.435 302.991 260.64 297.153 252.797 291.917C244.954 286.68 240.684 279.439 257.918 279.131Z" fill="#02B5A5"/>
<path d="M427.511 41.3349C428.717 41.3349 429.694 40.3575 429.694 39.1518C429.694 37.9461 428.717 36.9688 427.511 36.9688C426.306 36.9688 425.328 37.9461 425.328 39.1518C425.328 40.3575 426.306 41.3349 427.511 41.3349Z" fill="#606D2A"/>
<path d="M316.573 298.441C316.573 298.441 313.082 303.625 309.236 306.241C307.682 307.304 306.072 307.948 304.605 307.683C299.498 306.722 286.943 299.764 286.943 299.764L277.326 304.572C274.744 305.867 271.896 306.54 269.008 306.539H262.131C261.516 306.533 260.918 306.332 260.424 305.965C259.929 305.598 259.564 305.085 259.38 304.497C259.195 303.91 259.202 303.279 259.398 302.696C259.595 302.112 259.971 301.606 260.472 301.25L272.422 292.945C272.422 292.945 266.339 292.551 267.32 290.397C268.017 288.858 274.888 286.324 278.783 284.997C280.493 284.413 282.304 284.182 284.106 284.319L299.066 285.463C299.74 285.515 300.418 285.411 301.047 285.16L305.773 283.266L309.514 281.761L316.573 298.441Z" fill="#F78C68"/>
<path d="M438.695 41.3349C439.9 41.3349 440.878 40.3575 440.878 39.1518C440.878 37.9461 439.9 36.9688 438.695 36.9688C437.489 36.9688 436.512 37.9461 436.512 39.1518C436.512 40.3575 437.489 41.3349 438.695 41.3349Z" fill="#FF9C00"/>
<path d="M349.512 267.681L376.55 201.872L371.991 269.576L349.512 267.681Z" fill="#02B5A5"/>
<path d="M417.705 256.319C395.317 259.117 377.434 256.17 366.951 253.477C367.278 249.933 368.788 234.676 371.827 217.923C375.304 198.78 380.78 177.685 388.782 169.838C388.782 169.838 414.161 219.366 424.004 245.851C424.419 246.951 424.579 248.13 424.472 249.301C424.366 250.472 423.996 251.603 423.39 252.611C422.784 253.618 421.957 254.475 420.973 255.117C419.988 255.759 418.871 256.17 417.705 256.319V256.319Z" fill="#4FC1AE"/>
<path d="M57.5527 319.95L521.901 320.114" stroke="#ECECEC" stroke-width="2.40425" stroke-miterlimit="10"/>
<path d="M310.52 313.237C310.522 314.646 310.08 316.02 309.256 317.162C308.433 318.305 307.27 319.16 305.933 319.604C305.248 319.834 304.53 319.951 303.808 319.95H234.916V306.529H303.798C305.518 306.528 307.173 307.189 308.419 308.374C309.666 309.559 310.41 311.178 310.496 312.896C310.515 313.011 310.52 313.141 310.52 313.237Z" fill="#939598"/>
<path d="M189.041 205.493H203.803C203.803 205.493 210.655 204.969 213.026 213.932C215.396 222.895 240.502 313.237 240.502 313.237L237.804 316.065L214.771 304.596L189.041 205.493Z" fill="#6D6E71"/>
<path d="M91.3467 209.398C90.3335 209.434 89.3418 209.7 88.4467 210.177C87.5516 210.653 86.7766 211.327 86.1803 212.147C85.584 212.967 85.1822 213.912 85.0051 214.91C84.828 215.908 84.8803 216.934 85.1582 217.909C92.1497 242.432 112.817 313.598 117.616 314.483C123.415 315.536 237.828 316.065 237.828 316.065C237.828 316.065 233.347 314.089 229.394 296.162C225.442 278.236 208.309 218.654 208.309 218.654C208.309 218.654 206.462 204.44 189.075 205.493C174.947 206.349 113.995 208.58 91.3467 209.398Z" fill="#939598"/>
<path d="M310.518 313.237C310.52 314.645 310.078 316.019 309.254 317.162C308.431 318.305 307.268 319.159 305.931 319.603H234.924C183.203 319.603 124.91 319.632 122.765 319.666C118.875 319.723 117.615 314.117 117.615 314.117L234.943 313.362L310.523 312.881C310.513 313.011 310.518 313.141 310.518 313.237Z" fill="#6D6E71"/>
<path d="M156.66 269.576C160.574 269.576 163.748 266.403 163.748 262.488C163.748 258.574 160.574 255.4 156.66 255.4C152.746 255.4 149.572 258.574 149.572 262.488C149.572 266.403 152.746 269.576 156.66 269.576Z" fill="#D7DDDC"/>
<path d="M148.204 257.646C149.441 257.646 150.444 256.642 150.444 255.405C150.444 254.167 149.441 253.164 148.204 253.164C146.966 253.164 145.963 254.167 145.963 255.405C145.963 256.642 146.966 257.646 148.204 257.646Z" fill="#D7DDDC"/>
<path d="M53.211 282.924C53.9714 277.441 53.1902 271.855 50.9549 266.79C48.7196 261.726 45.1185 257.384 40.555 254.251C24.5378 242.884 3.35634 251.409 0 213.956C0 213.956 3.61601 223.256 10.3335 223.77C17.051 224.285 45.7193 222.996 50.1095 241.595C54.4996 260.194 53.5043 264.844 53.5043 264.844C53.5043 264.844 51.1433 220.928 94.2852 195.871C94.2852 195.871 91.6982 202.848 94.2852 211.888C96.6895 220.332 95.0546 241.518 72.9451 251.275C69.8231 252.651 67.0131 254.647 64.6855 257.141C62.358 259.636 60.5612 262.577 59.4043 265.787C57.7021 270.528 56.4038 276.875 56.3172 285.252C56.0384 310.564 53.211 282.924 53.211 282.924Z" fill="#606D29"/>
<path d="M248.537 242.841L240.502 241.562L240.242 210.759L248.537 242.841Z" fill="#02B5A5"/>
<path d="M86.2157 310.645C85.5105 312.311 84.5732 313.868 83.4316 315.271C82.5986 316.296 81.5471 317.121 80.3541 317.687C79.161 318.252 77.8566 318.544 76.5362 318.541L41.7418 318.632C39.5514 318.645 37.4335 317.848 35.7937 316.396C31.9132 312.939 26.3882 305.476 32.3796 293.993C34.2243 290.58 36.521 287.431 39.2077 284.631C40.0458 283.724 41.0622 282.999 42.1933 282.503C43.3243 282.006 44.5457 281.749 45.781 281.746H69.7562C71.9603 281.746 74.0869 282.559 75.7284 284.03C80.859 288.617 90.8607 299.408 86.2157 310.645Z" fill="#BA462B"/>
<path opacity="0.48" d="M86.2157 310.645C85.5105 312.311 84.5732 313.868 83.4316 315.271C82.5986 316.295 81.5471 317.121 80.3541 317.686C79.161 318.252 77.8566 318.544 76.5362 318.541L41.7418 318.632C39.5514 318.644 37.4335 317.848 35.7937 316.396C31.9132 312.939 26.3882 305.476 32.3796 293.993C38.8375 299.196 62.2405 316.132 86.2157 310.645Z" fill="#59332B"/>
<g opacity="0.33">
<path d="M436.469 185.081H396.674V186.12H436.469V185.081Z" fill="#ECECEC"/>
</g>
<path d="M434.81 65.4207V107.784C434.81 109.957 433.947 112.042 432.41 113.579C430.873 115.116 428.788 115.98 426.614 115.98C424.44 115.98 422.356 115.116 420.819 113.579C419.281 112.042 418.418 109.957 418.418 107.784V65.4207C418.418 63.2469 419.281 61.1622 420.819 59.6252C422.356 58.0881 424.44 57.2246 426.614 57.2246C428.788 57.2246 430.873 58.0881 432.41 59.6252C433.947 61.1622 434.81 63.2469 434.81 65.4207V65.4207Z" fill="#FC461E"/>
<path d="M434.81 88.7568V107.784C434.81 109.958 433.947 112.043 432.41 113.58C430.873 115.117 428.788 115.98 426.614 115.98C424.44 115.98 422.356 115.117 420.819 113.58C419.281 112.043 418.418 109.958 418.418 107.784V88.7568H434.81Z" fill="#D82E12"/>
<path d="M459.159 65.4211V107.784C459.159 109.959 458.295 112.044 456.757 113.581C455.22 115.119 453.135 115.983 450.96 115.983C448.786 115.983 446.7 115.119 445.163 113.581C443.625 112.044 442.762 109.959 442.762 107.784V65.4211C442.762 63.2467 443.625 61.1614 445.163 59.6239C446.7 58.0864 448.786 57.2227 450.96 57.2227C453.135 57.2227 455.22 58.0864 456.757 59.6239C458.295 61.1614 459.159 63.2467 459.159 65.4211V65.4211Z" fill="#FC461E"/>
<path d="M459.159 79.9287V107.818C459.159 109.992 458.295 112.078 456.757 113.615C455.22 115.153 453.135 116.017 450.96 116.017C448.786 116.017 446.7 115.153 445.163 113.615C443.625 112.078 442.762 109.992 442.762 107.818V79.9287H459.159Z" fill="#D82E12"/>
<path d="M484.164 65.4207V107.784C484.164 109.957 483.3 112.042 481.763 113.579C480.226 115.116 478.141 115.98 475.968 115.98C473.794 115.98 471.709 115.116 470.172 113.579C468.635 112.042 467.771 109.957 467.771 107.784V65.4207C467.771 63.2469 468.635 61.1622 470.172 59.6252C471.709 58.0881 473.794 57.2246 475.968 57.2246C478.141 57.2246 480.226 58.0881 481.763 59.6252C483.3 61.1622 484.164 63.2469 484.164 65.4207V65.4207Z" fill="#FC461E"/>
<path d="M484.164 72.4561V107.784C484.164 109.958 483.3 112.043 481.763 113.58C480.226 115.117 478.141 115.98 475.968 115.98C473.794 115.98 471.709 115.117 470.172 113.58C468.635 112.043 467.771 109.958 467.771 107.784V72.4561H484.164Z" fill="#D82E12"/>
<path d="M509.173 65.2674V107.63C509.173 109.804 508.31 111.889 506.773 113.426C505.236 114.963 503.151 115.826 500.977 115.826C498.804 115.826 496.719 114.963 495.182 113.426C493.645 111.889 492.781 109.804 492.781 107.63V65.2674C492.781 63.0937 493.645 61.009 495.182 59.4719C496.719 57.9348 498.804 57.0713 500.977 57.0713C503.151 57.0713 505.236 57.9348 506.773 59.4719C508.31 61.009 509.173 63.0937 509.173 65.2674V65.2674Z" fill="#FC461E"/>
<path d="M509.173 94.3535V107.923C509.173 110.097 508.31 112.182 506.773 113.719C505.236 115.256 503.151 116.119 500.977 116.119C498.804 116.119 496.719 115.256 495.182 113.719C493.645 112.182 492.781 110.097 492.781 107.923V94.3535H509.173Z" fill="#D82E12"/>
<path d="M96.7332 102.163C116.529 102.163 132.576 86.1155 132.576 66.3202C132.576 46.5248 116.529 30.4775 96.7332 30.4775C76.9379 30.4775 60.8906 46.5248 60.8906 66.3202C60.8906 86.1155 76.9379 102.163 96.7332 102.163Z" fill="#13192F"/>
<path d="M96.7327 95.6862C112.951 95.6862 126.098 82.5388 126.098 66.3206C126.098 50.1025 112.951 36.9551 96.7327 36.9551C80.5146 36.9551 67.3672 50.1025 67.3672 66.3206C67.3672 82.5388 80.5146 95.6862 96.7327 95.6862Z" fill="#ECECEC"/>
<path d="M83.8418 54.8184L96.8584 65.6952" stroke="#14192F" stroke-width="1.44255" stroke-linecap="round" stroke-linejoin="round"/>
<path d="M88.7559 70.3839L96.8582 66.0273" stroke="#14192F" stroke-width="1.44255" stroke-linecap="round" stroke-linejoin="round"/>
<path d="M96.1643 68.2056C97.5506 68.2056 98.6744 67.0818 98.6744 65.6956C98.6744 64.3093 97.5506 63.1855 96.1643 63.1855C94.7781 63.1855 93.6543 64.3093 93.6543 65.6956C93.6543 67.0818 94.7781 68.2056 96.1643 68.2056Z" fill="#13192F"/>
<path d="M96.7324 40.167V42.0423" stroke="#14192F" stroke-width="0.480851" stroke-linecap="round" stroke-linejoin="round"/>
<path d="M82.3926 43.8887L83.9121 45.4995" stroke="#14192F" stroke-width="0.480851" stroke-linecap="round" stroke-linejoin="round"/>
<path d="M109.211 43.8887L107.691 45.4995" stroke="#14192F" stroke-width="0.480851" stroke-linecap="round" stroke-linejoin="round"/>
<path d="M73.9941 53.3662L75.8695 54.8184" stroke="#14192F" stroke-width="0.480851" stroke-linecap="round" stroke-linejoin="round"/>
<path d="M118.506 54.0928L116.809 55.5113" stroke="#14192F" stroke-width="0.480851" stroke-linecap="round" stroke-linejoin="round"/>
<path d="M70.8633 66.3203H73.633" stroke="#14192F" stroke-width="0.480851" stroke-linecap="round" stroke-linejoin="round"/>
<path d="M119.131 66.8633H121.814" stroke="#14192F" stroke-width="0.480851" stroke-linecap="round" stroke-linejoin="round"/>
<path d="M73.6328 78.9279L75.8688 77.6777" stroke="#14192F" stroke-width="0.480851" stroke-linecap="round" stroke-linejoin="round"/>
<path d="M83.9141 88.8047L85.4143 86.3428" stroke="#14192F" stroke-width="0.480851" stroke-linecap="round" stroke-linejoin="round"/>
<path d="M96.7324 92.5655V89.9785" stroke="#14192F" stroke-width="0.480851" stroke-linecap="round" stroke-linejoin="round"/>
<path d="M110.418 88.8048L109.211 87.0449" stroke="#14192F" stroke-width="0.480851" stroke-linecap="round" stroke-linejoin="round"/>
<path d="M117.52 77.8652L120.01 79.4472" stroke="#14192F" stroke-width="0.480851" stroke-linecap="round" stroke-linejoin="round"/>
<path d="M153.493 81.5195C153.493 81.5195 147.8 108.832 154.113 112.255C160.427 115.679 177.074 110.202 177.074 110.202L153.493 81.5195Z" fill="#D7DDDC"/>
<path d="M155.993 79.8711L186.57 79.4768C187.247 79.4675 187.905 79.7072 188.417 80.1504C188.929 80.5936 189.261 81.2094 189.349 81.8811C190.08 87.3964 193.812 100.711 196.23 105.25C197 106.693 197.716 108.001 198.356 109.14C198.663 109.691 198.821 110.313 198.815 110.944C198.808 111.575 198.636 112.193 198.317 112.737C197.998 113.281 197.542 113.733 196.995 114.047C196.447 114.36 195.827 114.526 195.196 114.526H169.711C167.559 114.534 165.489 113.703 163.941 112.208C159.729 108.111 152.237 98.48 153.237 82.4629C153.284 81.7625 153.594 81.1056 154.105 80.6247C154.616 80.1437 155.291 79.8744 155.993 79.8711V79.8711Z" fill="#ECECEC"/>
<path d="M164.105 89.3096H171.698" stroke="#14192F" stroke-width="1.44255" stroke-linecap="round" stroke-linejoin="round"/>
<path d="M165.537 95.5127H183.478" stroke="#14192F" stroke-width="1.44255" stroke-linecap="round" stroke-linejoin="round"/>
<path d="M168.105 102.163H186.041" stroke="#14192F" stroke-width="1.44255" stroke-linecap="round" stroke-linejoin="round"/>
<path d="M559.08 163.856C562.678 163.856 565.595 160.939 565.595 157.341C565.595 153.742 562.678 150.825 559.08 150.825C555.482 150.825 552.564 153.742 552.564 157.341C552.564 160.939 555.482 163.856 559.08 163.856Z" fill="#3F4F21"/>
<path d="M120.098 132.663C120.098 132.663 114.4 159.98 120.713 163.399C127.027 166.818 143.674 161.346 143.674 161.346L120.098 132.663Z" fill="#D7DDDC"/>
<path d="M122.593 131.019L153.17 130.624C153.847 130.615 154.505 130.855 155.017 131.298C155.529 131.741 155.861 132.357 155.949 133.029C156.68 138.544 160.416 151.854 162.83 156.398C163.6 157.84 164.316 159.148 164.956 160.288C165.263 160.839 165.421 161.461 165.415 162.091C165.408 162.722 165.236 163.34 164.917 163.885C164.598 164.429 164.142 164.88 163.595 165.194C163.047 165.508 162.427 165.673 161.797 165.673H136.34C134.188 165.682 132.117 164.848 130.57 163.351C126.358 159.254 118.866 149.623 119.866 133.61C119.912 132.915 120.218 132.262 120.723 131.782C121.228 131.302 121.896 131.029 122.593 131.019V131.019Z" fill="#ECECEC"/>
<path d="M130.705 140.453H138.298" stroke="#14192F" stroke-width="1.44255" stroke-linecap="round" stroke-linejoin="round"/>
<path d="M132.139 146.656H150.079" stroke="#14192F" stroke-width="1.44255" stroke-linecap="round" stroke-linejoin="round"/>
<path d="M134.705 153.307H152.641" stroke="#14192F" stroke-width="1.44255" stroke-linecap="round" stroke-linejoin="round"/>
<path d="M583.392 191.606L541.394 195.756L532.849 196.602C532.849 196.602 528.642 171.333 546.688 160.783C547.823 160.116 549.004 159.531 550.222 159.033C552.928 157.899 555.834 157.323 558.767 157.339C561.701 157.356 564.6 157.965 567.293 159.129C575.179 162.572 585.214 171.016 583.392 191.606Z" fill="#606D29"/>
<path d="M180.463 132.216C180.463 132.216 174.765 159.533 181.079 162.952C187.392 166.371 204.039 160.899 204.039 160.899L180.463 132.216Z" fill="#D7DDDC"/>
<path d="M182.983 130.571L213.56 130.177C214.238 130.167 214.896 130.406 215.408 130.849C215.921 131.293 216.252 131.909 216.34 132.581C217.07 138.097 220.807 151.407 223.22 155.951C223.99 157.393 224.706 158.701 225.346 159.841C225.654 160.391 225.812 161.013 225.806 161.644C225.799 162.274 225.627 162.892 225.308 163.436C224.989 163.98 224.532 164.431 223.985 164.744C223.437 165.058 222.817 165.222 222.187 165.221H196.702C194.549 165.232 192.478 164.401 190.931 162.904C186.719 158.807 179.227 149.175 180.228 133.163C180.273 132.462 180.582 131.805 181.094 131.324C181.605 130.843 182.281 130.574 182.983 130.571V130.571Z" fill="#ECECEC"/>
<path d="M191.07 140.006H198.663" stroke="#14192F" stroke-width="1.44255" stroke-linecap="round" stroke-linejoin="round"/>
<path d="M192.504 146.209H210.444" stroke="#14192F" stroke-width="1.44255" stroke-linecap="round" stroke-linejoin="round"/>
<path d="M195.072 152.859H213.008" stroke="#14192F" stroke-width="1.44255" stroke-linecap="round" stroke-linejoin="round"/>
<path d="M541.158 194.111C541.255 194.683 541.332 195.231 541.394 195.755L532.849 196.602C532.849 196.602 528.642 171.333 546.688 160.783C543.029 166.212 538.389 176.896 541.158 194.111Z" fill="#3F4F21"/>
<path d="M558.02 157.346L558.443 196.607H575.359C575.359 196.607 579.076 180.715 567.31 159.135C567.295 159.13 562.496 157.052 558.02 157.346Z" fill="#3F4F21"/>
<path d="M594.995 196.294C594.625 205.911 592.351 227.997 579.574 239.888C574.429 244.697 567.582 247.812 558.47 247.812C524.685 247.812 522.026 204.699 521.887 194.005C521.884 193.694 521.942 193.386 522.059 193.098C522.176 192.81 522.348 192.548 522.567 192.327C522.786 192.106 523.046 191.931 523.333 191.811C523.62 191.691 523.927 191.63 524.238 191.63H590.495C591.1 191.629 591.699 191.751 592.256 191.987C592.813 192.224 593.316 192.57 593.736 193.005C594.156 193.441 594.485 193.956 594.701 194.522C594.917 195.087 595.017 195.689 594.995 196.294V196.294Z" fill="#BA462B"/>
<path d="M559.079 153.427C561.055 153.427 562.657 151.825 562.657 149.849C562.657 147.873 561.055 146.271 559.079 146.271C557.104 146.271 555.502 147.873 555.502 149.849C555.502 151.825 557.104 153.427 559.079 153.427Z" fill="#606D29"/>
<path d="M538.682 162.875L542.014 167.371" stroke="#3F4E20" stroke-width="2.40425" stroke-linecap="round" stroke-linejoin="round"/>
<path d="M550.328 161.842L551.516 165.871" stroke="#3F4E20" stroke-width="2.40425" stroke-linecap="round" stroke-linejoin="round"/>
<path d="M528.648 180.811L532.793 184.167" stroke="#3F4E20" stroke-width="2.40425" stroke-linecap="round" stroke-linejoin="round"/>
<path d="M533.6 171.992L535.773 176.955" stroke="#3F4E20" stroke-width="2.40425" stroke-linecap="round" stroke-linejoin="round"/>
<path d="M548.098 170.3L551.238 173.925" stroke="#3F4E20" stroke-width="2.40425" stroke-linecap="round" stroke-linejoin="round"/>
<path d="M548.098 182.018L552.56 186.73" stroke="#3F4E20" stroke-width="2.40425" stroke-linecap="round" stroke-linejoin="round"/>
<path d="M577.939 170.78L581.079 168.126" stroke="#3F4E20" stroke-width="2.40425" stroke-linecap="round" stroke-linejoin="round"/>
<path d="M573.833 165.64L572.621 160.105" stroke="#3F4E20" stroke-width="2.40425" stroke-linecap="round" stroke-linejoin="round"/>
<path d="M577.939 183.48L581.079 179.763" stroke="#3F4E20" stroke-width="2.40425" stroke-linecap="round" stroke-linejoin="round"/>
<path opacity="0.48" d="M579.575 239.869C574.429 244.677 567.582 247.793 558.47 247.793C524.685 247.793 522.026 204.68 521.887 193.986C521.884 193.675 521.942 193.367 522.059 193.079C522.176 192.79 522.348 192.528 522.567 192.308C522.786 192.087 523.046 191.911 523.333 191.792C523.62 191.672 523.927 191.61 524.238 191.61C524.238 191.61 544.968 228.299 579.575 239.869Z" fill="#59332B"/>
<path d="M298.254 67.335H305.847" stroke="#14192F" stroke-width="1.44255" stroke-linecap="round" stroke-linejoin="round"/>
<path d="M299.688 73.5381H317.628" stroke="#14192F" stroke-width="1.44255" stroke-linecap="round" stroke-linejoin="round"/>
<path d="M579.574 191.61L579.512 284.804" stroke="#14192F" stroke-width="1.44255" stroke-linecap="round" stroke-linejoin="round"/>
<path d="M579.508 196.603C579.508 196.603 569.516 200.493 572.814 204.012C576.113 207.532 579.508 196.603 579.508 196.603Z" fill="#606D2A"/>
<path d="M579.508 196.603C579.508 196.603 589.505 200.493 586.206 204.012C582.907 207.532 579.508 196.603 579.508 196.603Z" fill="#606D2A"/>
<path d="M579.508 205.324C579.508 205.324 569.516 209.219 572.814 212.739C576.113 216.259 579.508 205.324 579.508 205.324Z" fill="#606D2A"/>
<path d="M579.508 205.324C579.508 205.324 589.505 209.219 586.206 212.739C582.907 216.259 579.508 205.324 579.508 205.324Z" fill="#606D2A"/>
<path d="M579.508 215.528C579.508 215.528 569.516 219.418 572.814 222.938C576.113 226.458 579.508 215.528 579.508 215.528Z" fill="#606D2A"/>
<path d="M579.508 215.528C579.508 215.528 589.505 219.418 586.206 222.938C582.907 226.458 579.508 215.528 579.508 215.528Z" fill="#606D2A"/>
<path d="M579.508 224.227C579.508 224.227 569.516 228.121 572.814 231.641C576.113 235.161 579.508 224.227 579.508 224.227Z" fill="#606D2A"/>
<path d="M579.508 224.227C579.508 224.227 589.505 228.121 586.206 231.641C582.907 235.161 579.508 224.227 579.508 224.227Z" fill="#606D2A"/>
<path d="M579.541 233.349C579.541 233.349 569.549 237.243 572.848 240.763C576.146 244.283 579.541 233.349 579.541 233.349Z" fill="#606D2A"/>
<path d="M579.541 233.349C579.541 233.349 589.538 237.243 586.234 240.763C582.931 244.283 579.541 233.349 579.541 233.349Z" fill="#606D2A"/>
<path d="M579.541 242.076C579.541 242.076 569.549 245.966 572.848 249.486C576.146 253.006 579.541 242.076 579.541 242.076Z" fill="#606D2A"/>
<path d="M579.541 242.076C579.541 242.076 589.538 245.966 586.234 249.486C582.931 253.006 579.541 242.076 579.541 242.076Z" fill="#606D2A"/>
<path d="M579.541 250.804C579.541 250.804 569.549 254.694 572.848 258.214C576.146 261.733 579.541 250.804 579.541 250.804Z" fill="#606D2A"/>
<path d="M579.541 250.804C579.541 250.804 589.538 254.694 586.234 258.214C582.931 261.733 579.541 250.804 579.541 250.804Z" fill="#606D2A"/>
<path d="M579.541 259.531C579.541 259.531 569.549 263.421 572.848 266.941C576.146 270.461 579.541 259.531 579.541 259.531Z" fill="#606D2A"/>
<path d="M579.541 259.531C579.541 259.531 589.538 263.421 586.234 266.941C582.931 270.461 579.541 259.531 579.541 259.531Z" fill="#606D2A"/>
<path d="M579.508 268.254C579.508 268.254 569.516 272.149 572.814 275.669C576.113 279.188 579.508 268.254 579.508 268.254Z" fill="#606D2A"/>
<path d="M579.508 268.254C579.508 268.254 589.505 272.149 586.206 275.669C582.907 279.188 579.508 268.254 579.508 268.254Z" fill="#606D2A"/>
<path d="M579.508 276.981C579.508 276.981 569.516 280.871 572.814 284.391C576.113 287.911 579.508 276.981 579.508 276.981Z" fill="#606D2A"/>
<path d="M579.508 276.981C579.508 276.981 589.505 280.871 586.206 284.391C582.907 287.911 579.508 276.981 579.508 276.981Z" fill="#606D2A"/>
<path d="M579.507 283.646C579.507 283.646 574.482 288.997 577.91 292.945C581.339 296.893 580.536 286.401 579.507 283.646Z" fill="#606D2A"/>
<path d="M270.57 103.524L312.986 95.8594" stroke="#13192F" stroke-width="1.44255" stroke-linecap="round" stroke-linejoin="round"/>
<path d="M268.43 114.525C273.632 114.525 277.849 110.308 277.849 105.105C277.849 99.903 273.632 95.6855 268.43 95.6855C263.227 95.6855 259.01 99.903 259.01 105.105C259.01 110.308 263.227 114.525 268.43 114.525Z" fill="#ECECEC" stroke="#13192F" stroke-width="1.44255" stroke-linecap="round" stroke-linejoin="round"/>
<path d="M293.736 109.833C298.939 109.833 303.156 105.615 303.156 100.413C303.156 95.2106 298.939 90.9932 293.736 90.9932C288.534 90.9932 284.316 95.2106 284.316 100.413C284.316 105.615 288.534 109.833 293.736 109.833Z" fill="#ECECEC" stroke="#13192F" stroke-width="1.44255" stroke-linecap="round" stroke-linejoin="round"/>
<path d="M280.307 100.711V113.963C280.307 114.629 280.571 115.268 281.042 115.74C281.512 116.211 282.151 116.477 282.817 116.478H286.663" stroke="#13192F" stroke-width="1.44255" stroke-linecap="round" stroke-linejoin="round"/>
<path d="M283.48 126.344C283.48 126.344 289.087 124.815 292.91 124.984" stroke="#13192F" stroke-width="1.44255" stroke-linecap="round" stroke-linejoin="round"/>
<path d="M416.354 263.994C411.223 273.13 391.071 288.392 316.573 298.442L309.514 281.761L368.355 257.93L374.996 255.242L417.7 256.319C417.7 256.319 418.955 259.368 416.354 263.994Z" fill="#F78C68"/>
<path d="M416.354 263.994C399.13 263.902 374.457 259.156 368.355 257.93L374.996 255.242L417.7 256.319C417.7 256.319 418.955 259.368 416.354 263.994Z" fill="#D34A28"/>
<path d="M339.586 146.214C289.371 245.211 275.6 152.97 275.6 152.97L283.293 151.763C283.293 151.763 283.293 152.508 283.231 153.831C283.231 176.007 304.22 207.945 329.359 144.694C332.815 144.806 336.247 145.316 339.586 146.214V146.214Z" fill="#049E8B"/>
<path d="M252.803 213.653V219.558L286.669 219.702V213.437L252.803 213.653Z" fill="#049E8B"/>
</g>
<defs>
<clipPath id="clip0_1556_4257">
<rect width="595" height="320.713" fill="white" transform="translate(0 0.602539)"/>
</clipPath>
</defs>
</svg>
