<svg width="100%" viewBox="0 0 48 75" fill="none" xmlns="http://www.w3.org/2000/svg">
<circle cx="3.42652" cy="2.87866" r="2.55933" fill="#FF9C00"/>
<circle cx="17.1628" cy="2.87866" r="2.55933" fill="#FF9C00"/>
<circle cx="30.9011" cy="2.87866" r="2.55933" fill="#FF9C00"/>
<circle cx="44.6375" cy="2.87866" r="2.55933" fill="#FF9C00"/>
<circle cx="3.42652" cy="16.615" r="2.55933" fill="#FF9C00"/>
<circle cx="17.1628" cy="16.615" r="2.55933" fill="#FF9C00"/>
<circle cx="30.9011" cy="16.615" r="2.55933" fill="#FF9C00"/>
<circle cx="44.6375" cy="16.615" r="2.55933" fill="#FF9C00"/>
<circle cx="3.42652" cy="30.3523" r="2.55933" fill="#FF9C00"/>
<circle cx="17.1628" cy="30.3523" r="2.55933" fill="#FF9C00"/>
<circle cx="30.9011" cy="30.3523" r="2.55933" fill="#FF9C00"/>
<circle cx="44.6375" cy="30.3523" r="2.55933" fill="#FF9C00"/>
<circle cx="3.42652" cy="44.0896" r="2.55933" fill="#FF9C00"/>
<circle cx="17.1628" cy="44.0896" r="2.55933" fill="#FF9C00"/>
<circle cx="30.9011" cy="44.0896" r="2.55933" fill="#FF9C00"/>
<circle cx="44.6375" cy="44.0896" r="2.55933" fill="#FF9C00"/>
<circle cx="3.42652" cy="57.8259" r="2.55933" fill="#FF9C00"/>
<circle cx="17.1628" cy="57.8259" r="2.55933" fill="#FF9C00"/>
<circle cx="30.9011" cy="57.8259" r="2.55933" fill="#FF9C00"/>
<circle cx="44.6375" cy="57.8259" r="2.55933" fill="#FF9C00"/>
<circle cx="3.42652" cy="71.5632" r="2.55933" fill="#FF9C00"/>
<circle cx="17.1628" cy="71.5632" r="2.55933" fill="#FF9C00"/>
<circle cx="30.9011" cy="71.5632" r="2.55933" fill="#FF9C00"/>
<circle cx="44.6375" cy="71.5632" r="2.55933" fill="#FF9C00"/>
</svg>
