<svg width="100%" viewBox="0 0 174 174" fill="none" xmlns="http://www.w3.org/2000/svg">
<circle cx="2" cy="2" r="2" fill="white"/>
<circle cx="36" cy="2" r="2" fill="white"/>
<circle cx="70" cy="2" r="2" fill="white"/>
<circle cx="104" cy="2" r="2" fill="white"/>
<circle cx="138" cy="2" r="2" fill="white"/>
<circle cx="172" cy="2" r="2" fill="white"/>
<circle cx="2" cy="36" r="2" fill="white"/>
<circle cx="36" cy="36" r="2" fill="white"/>
<circle cx="70" cy="36" r="2" fill="white"/>
<circle cx="104" cy="36" r="2" fill="white"/>
<circle cx="138" cy="36" r="2" fill="white"/>
<circle cx="172" cy="36" r="2" fill="white"/>
<circle cx="2" cy="70" r="2" fill="white"/>
<circle cx="36" cy="70" r="2" fill="white"/>
<circle cx="70" cy="70" r="2" fill="white"/>
<circle cx="104" cy="70" r="2" fill="white"/>
<circle cx="138" cy="70" r="2" fill="white"/>
<circle cx="172" cy="70" r="2" fill="white"/>
<circle cx="2" cy="104" r="2" fill="white"/>
<circle cx="36" cy="104" r="2" fill="white"/>
<circle cx="70" cy="104" r="2" fill="white"/>
<circle cx="104" cy="104" r="2" fill="white"/>
<circle cx="138" cy="104" r="2" fill="white"/>
<circle cx="172" cy="104" r="2" fill="white"/>
<circle cx="2" cy="138" r="2" fill="white"/>
<circle cx="36" cy="138" r="2" fill="white"/>
<circle cx="70" cy="138" r="2" fill="white"/>
<circle cx="104" cy="138" r="2" fill="white"/>
<circle cx="138" cy="138" r="2" fill="white"/>
<circle cx="172" cy="138" r="2" fill="white"/>
<circle cx="2" cy="172" r="2" fill="white"/>
<circle cx="36" cy="172" r="2" fill="white"/>
<circle cx="70" cy="172" r="2" fill="white"/>
<circle cx="104" cy="172" r="2" fill="white"/>
<circle cx="138" cy="172" r="2" fill="white"/>
<circle cx="172" cy="172" r="2" fill="white"/>
</svg>
