<svg width="100%" viewBox="0 0 658 516" fill="none" xmlns="http://www.w3.org/2000/svg">
<g filter="url(#filter0_d_1556_6374)">
<rect x="113.816" y="119.68" width="408.233" height="232.487" rx="57.742" fill="#C4C4C4"/>
</g>
<g clip-path="url(#clip0_1556_6374)">
<rect x="35" y="205.993" width="252.513" height="181.844" rx="21.5455" fill="#02B5A5"/>
<rect x="328.711" y="101.595" width="138.961" height="355.526" transform="rotate(35.6363 328.711 101.595)" fill="#E1D7D2"/>
<rect x="191.277" y="101.595" width="138.961" height="355.526" transform="rotate(35.6363 191.277 101.595)" fill="#FF9C00"/>
<path d="M67.1484 387.837L175.995 278.992V387.837H67.1499H67.1484Z" fill="#4C4E8E"/>
</g>
<rect x="60.1692" y="62.301" width="496.645" height="303.583" rx="14.22" fill="white" stroke="#EDEEEF" stroke-width="0.86182"/>
<path opacity="0.8" d="M328.547 303.266H525.994" stroke="#E7E6EC" stroke-width="0.86182" stroke-linecap="round" stroke-dasharray="6.89 6.89"/>
<path opacity="0.8" d="M328.547 225.371H525.994" stroke="#E7E6EC" stroke-width="0.86182" stroke-linecap="round" stroke-dasharray="6.89 6.89"/>
<path opacity="0.8" d="M328.547 147.478H525.994" stroke="#E7E6EC" stroke-width="0.86182" stroke-linecap="round" stroke-dasharray="6.89 6.89"/>
<path d="M326.555 244.542L345.319 225.778H378.803L436.159 245.627L490.803 146.475L526.843 146.475" stroke="#02B5A5" stroke-width="3.44728" stroke-linecap="round" stroke-linejoin="round"/>
<path fill-rule="evenodd" clip-rule="evenodd" d="M495.332 296.932V154.922H522.048V296.932H495.332Z" fill="#4C4E8E"/>
<path fill-rule="evenodd" clip-rule="evenodd" d="M422.078 296.932V253.475H448.795V296.932H422.078Z" fill="#FF9C00"/>
<path fill-rule="evenodd" clip-rule="evenodd" d="M348.822 296.932V235.537L375.539 235.537V296.932H348.822Z" fill="#E1D7D2"/>
<g filter="url(#filter1_d_1556_6374)">
<circle cx="508.691" cy="146.475" r="11.2065" fill="#FF9C00"/>
<circle cx="508.69" cy="146.475" r="6.43204" fill="white"/>
</g>
<rect x="334.398" y="119.68" width="79.8477" height="3.57656" fill="#02B5A5"/>
<path d="M349.672 97.2792V111.654H347.293V100.878L343.136 111.654H341.067L336.889 100.878V111.654H334.531V97.2792H337.386L342.143 108.759L346.817 97.2792H349.672Z" fill="#262626"/>
<path d="M363.098 105.408C363.098 105.794 363.071 106.132 363.016 106.421H354.246C354.287 107.594 354.611 108.462 355.218 109.028C355.825 109.593 356.576 109.876 357.472 109.876C358.258 109.876 358.92 109.676 359.458 109.276C360.01 108.876 360.347 108.345 360.472 107.683H362.995C362.843 108.483 362.526 109.193 362.043 109.814C361.561 110.434 360.933 110.924 360.161 111.282C359.389 111.627 358.527 111.799 357.576 111.799C356.473 111.799 355.494 111.565 354.639 111.096C353.798 110.627 353.136 109.951 352.653 109.069C352.17 108.186 351.929 107.145 351.929 105.946C351.929 104.76 352.17 103.726 352.653 102.843C353.136 101.961 353.798 101.285 354.639 100.816C355.494 100.347 356.473 100.113 357.576 100.113C358.693 100.113 359.665 100.347 360.492 100.816C361.333 101.271 361.975 101.905 362.416 102.719C362.871 103.519 363.098 104.415 363.098 105.408ZM360.72 105.346C360.747 104.601 360.616 103.981 360.327 103.484C360.051 102.974 359.665 102.602 359.168 102.367C358.686 102.119 358.155 101.995 357.576 101.995C356.652 101.995 355.88 102.278 355.259 102.843C354.639 103.409 354.301 104.243 354.246 105.346H360.72Z" fill="#262626"/>
<path d="M369.946 100.113C370.98 100.113 371.863 100.368 372.594 100.878C373.324 101.388 373.835 102.064 374.124 102.905V96.3485H376.503V111.654H374.124V109.007C373.835 109.848 373.324 110.524 372.594 111.034C371.863 111.544 370.98 111.799 369.946 111.799C368.953 111.799 368.064 111.565 367.278 111.096C366.506 110.627 365.899 109.951 365.458 109.069C365.016 108.186 364.796 107.145 364.796 105.946C364.796 104.76 365.016 103.726 365.458 102.843C365.899 101.961 366.506 101.285 367.278 100.816C368.064 100.347 368.953 100.113 369.946 100.113ZM370.67 102.181C369.622 102.181 368.781 102.519 368.147 103.195C367.526 103.857 367.216 104.774 367.216 105.946C367.216 107.118 367.526 108.042 368.147 108.717C368.781 109.379 369.622 109.71 370.67 109.71C371.332 109.71 371.925 109.558 372.449 109.255C372.973 108.938 373.386 108.497 373.69 107.931C373.993 107.366 374.145 106.704 374.145 105.946C374.145 105.201 373.993 104.546 373.69 103.981C373.386 103.402 372.973 102.96 372.449 102.657C371.925 102.34 371.332 102.181 370.67 102.181Z" fill="#262626"/>
<path d="M379.002 96.9483C379.002 96.5484 379.139 96.2175 379.415 95.9555C379.691 95.6935 380.056 95.5625 380.511 95.5625C380.966 95.5625 381.332 95.6935 381.608 95.9555C381.897 96.2175 382.042 96.5484 382.042 96.9483C382.042 97.3482 381.897 97.6722 381.608 97.9204C381.332 98.1686 380.966 98.2927 380.511 98.2927C380.056 98.2927 379.691 98.1686 379.415 97.9204C379.139 97.6722 379.002 97.3482 379.002 96.9483ZM381.69 100.258V111.654H379.332V100.258H381.69Z" fill="#262626"/>
<path d="M389.611 100.113C391.087 100.113 392.307 100.506 393.272 101.292C394.238 102.064 394.837 103.119 395.072 104.456H392.569C392.431 103.739 392.093 103.181 391.556 102.781C391.032 102.367 390.37 102.161 389.57 102.161C388.66 102.161 387.901 102.485 387.295 103.133C386.688 103.767 386.385 104.705 386.385 105.946C386.385 107.187 386.688 108.131 387.295 108.779C387.901 109.427 388.66 109.752 389.57 109.752C390.37 109.752 391.032 109.545 391.556 109.131C392.093 108.717 392.431 108.152 392.569 107.435H395.072C394.837 108.772 394.238 109.834 393.272 110.62C392.307 111.406 391.087 111.799 389.611 111.799C388.508 111.799 387.529 111.565 386.674 111.096C385.833 110.627 385.171 109.951 384.689 109.069C384.206 108.186 383.965 107.145 383.965 105.946C383.965 104.76 384.206 103.726 384.689 102.843C385.171 101.961 385.833 101.285 386.674 100.816C387.529 100.347 388.508 100.113 389.611 100.113Z" fill="#262626"/>
<path d="M401.921 100.113C402.955 100.113 403.838 100.368 404.568 100.878C405.299 101.388 405.816 102.064 406.12 102.905V100.258H408.478V111.654H406.12V109.007C405.816 109.848 405.299 110.524 404.568 111.034C403.838 111.544 402.955 111.799 401.921 111.799C400.928 111.799 400.039 111.565 399.253 111.096C398.481 110.627 397.874 109.951 397.433 109.069C396.991 108.186 396.771 107.145 396.771 105.946C396.771 104.76 396.991 103.726 397.433 102.843C397.874 101.961 398.481 101.285 399.253 100.816C400.039 100.347 400.928 100.113 401.921 100.113ZM402.645 102.181C401.597 102.181 400.756 102.519 400.121 103.195C399.501 103.857 399.191 104.774 399.191 105.946C399.191 107.118 399.501 108.042 400.121 108.717C400.756 109.379 401.597 109.71 402.645 109.71C403.307 109.71 403.9 109.558 404.424 109.255C404.948 108.938 405.361 108.497 405.665 107.931C405.968 107.366 406.12 106.704 406.12 105.946C406.12 105.201 405.968 104.546 405.665 103.981C405.361 103.402 404.948 102.96 404.424 102.657C403.9 102.34 403.307 102.181 402.645 102.181Z" fill="#262626"/>
<path d="M413.665 96.3485V111.654H411.307V96.3485H413.665Z" fill="#262626"/>
<path d="M430.964 107.766C430.964 108.483 430.791 109.152 430.447 109.772C430.102 110.379 429.578 110.868 428.875 111.241C428.171 111.613 427.31 111.799 426.289 111.799C425.296 111.799 424.407 111.627 423.621 111.282C422.835 110.924 422.208 110.427 421.739 109.793C421.27 109.159 421.001 108.428 420.932 107.6H423.455C423.524 108.235 423.793 108.779 424.262 109.234C424.745 109.689 425.386 109.917 426.186 109.917C426.903 109.917 427.454 109.724 427.84 109.338C428.24 108.952 428.44 108.455 428.44 107.849C428.44 107.325 428.295 106.897 428.006 106.566C427.716 106.221 427.358 105.953 426.93 105.76C426.503 105.567 425.917 105.346 425.172 105.098C424.262 104.808 423.517 104.519 422.938 104.229C422.373 103.939 421.89 103.519 421.49 102.967C421.091 102.416 420.891 101.692 420.891 100.795C420.891 100.009 421.084 99.32 421.47 98.7271C421.856 98.1342 422.407 97.6791 423.125 97.362C423.842 97.031 424.669 96.8656 425.607 96.8656C427.096 96.8656 428.275 97.2241 429.143 97.9411C430.026 98.6582 430.529 99.5958 430.653 100.754H428.109C428.013 100.203 427.751 99.7337 427.323 99.3476C426.91 98.9477 426.337 98.7478 425.607 98.7478C424.945 98.7478 424.414 98.9202 424.014 99.2649C423.614 99.5958 423.414 100.078 423.414 100.713C423.414 101.209 423.552 101.623 423.828 101.954C424.104 102.271 424.448 102.526 424.862 102.719C425.289 102.898 425.869 103.112 426.599 103.36C427.523 103.65 428.275 103.946 428.854 104.25C429.447 104.539 429.943 104.967 430.343 105.532C430.757 106.097 430.964 106.842 430.964 107.766Z" fill="#262626"/>
<path d="M439.054 109.607V111.654H437.606C436.392 111.654 435.468 111.365 434.834 110.786C434.214 110.193 433.903 109.214 433.903 107.849V102.264H432.269V100.258H433.903V97.424H436.282V100.258H439.033V102.264H436.282V107.89C436.282 108.538 436.399 108.986 436.634 109.234C436.882 109.483 437.309 109.607 437.916 109.607H439.054Z" fill="#262626"/>
<path d="M445.833 100.113C446.868 100.113 447.75 100.368 448.481 100.878C449.212 101.388 449.729 102.064 450.032 102.905V100.258H452.39V111.654H450.032V109.007C449.729 109.848 449.212 110.524 448.481 111.034C447.75 111.544 446.868 111.799 445.833 111.799C444.841 111.799 443.951 111.565 443.165 111.096C442.393 110.627 441.786 109.951 441.345 109.069C440.904 108.186 440.683 107.145 440.683 105.946C440.683 104.76 440.904 103.726 441.345 102.843C441.786 101.961 442.393 101.285 443.165 100.816C443.951 100.347 444.841 100.113 445.833 100.113ZM446.557 102.181C445.509 102.181 444.668 102.519 444.034 103.195C443.413 103.857 443.103 104.774 443.103 105.946C443.103 107.118 443.413 108.042 444.034 108.717C444.668 109.379 445.509 109.71 446.557 109.71C447.219 109.71 447.812 109.558 448.336 109.255C448.86 108.938 449.274 108.497 449.577 107.931C449.881 107.366 450.032 106.704 450.032 105.946C450.032 105.201 449.881 104.546 449.577 103.981C449.274 103.402 448.86 102.96 448.336 102.657C447.812 102.34 447.219 102.181 446.557 102.181Z" fill="#262626"/>
<path d="M460.535 97.8998C459.612 97.8584 458.964 98.0101 458.591 98.3548C458.219 98.6857 458.033 99.258 458.033 100.072V100.258H460.535V102.285H458.033V111.654H455.654V102.285H454.103V100.258H455.654V99.8854C455.654 98.4927 456.061 97.4516 456.874 96.7622C457.688 96.0589 458.908 95.7487 460.535 95.8314V97.8998Z" fill="#262626"/>
<path d="M467.747 97.8998C466.823 97.8584 466.175 98.0101 465.802 98.3548C465.43 98.6857 465.244 99.258 465.244 100.072V100.258H467.747V102.285H465.244V111.654H462.865V102.285H461.314V100.258H462.865V99.8854C462.865 98.4927 463.272 97.4516 464.085 96.7622C464.899 96.0589 466.119 95.7487 467.747 95.8314V97.8998Z" fill="#262626"/>
<path d="M469.311 96.9483C469.311 96.5484 469.449 96.2175 469.725 95.9555C470 95.6935 470.366 95.5625 470.821 95.5625C471.276 95.5625 471.641 95.6935 471.917 95.9555C472.207 96.2175 472.351 96.5484 472.351 96.9483C472.351 97.3482 472.207 97.6722 471.917 97.9204C471.641 98.1686 471.276 98.2927 470.821 98.2927C470.366 98.2927 470 98.1686 469.725 97.9204C469.449 97.6722 469.311 97.3482 469.311 96.9483ZM472 100.258V111.654H469.642V100.258H472Z" fill="#262626"/>
<path d="M481.224 100.072C482.547 100.072 483.609 100.499 484.409 101.354C485.209 102.209 485.609 103.429 485.609 105.015V111.654H483.251V105.263C483.251 104.243 482.989 103.457 482.465 102.905C481.941 102.34 481.224 102.057 480.314 102.057C479.376 102.057 478.624 102.361 478.059 102.967C477.494 103.56 477.211 104.436 477.211 105.594V111.654H474.853V100.258H477.211V102.76C477.514 101.905 478.025 101.244 478.742 100.775C479.459 100.306 480.286 100.072 481.224 100.072Z" fill="#262626"/>
<path d="M492.937 100.113C493.971 100.113 494.854 100.368 495.585 100.878C496.316 101.388 496.833 102.064 497.136 102.905V100.258H499.494V111.779C499.494 112.84 499.273 113.778 498.832 114.591C498.405 115.419 497.784 116.067 496.971 116.536C496.157 117.005 495.192 117.239 494.075 117.239C492.475 117.239 491.179 116.86 490.186 116.101C489.207 115.343 488.594 114.316 488.346 113.02H490.683C490.876 113.695 491.248 114.219 491.8 114.591C492.351 114.978 493.054 115.171 493.909 115.171C494.847 115.171 495.619 114.881 496.226 114.302C496.833 113.723 497.136 112.882 497.136 111.779V109.007C496.833 109.848 496.316 110.524 495.585 111.034C494.854 111.544 493.971 111.799 492.937 111.799C491.944 111.799 491.055 111.565 490.269 111.096C489.497 110.627 488.89 109.951 488.449 109.069C488.008 108.186 487.787 107.145 487.787 105.946C487.787 104.76 488.008 103.726 488.449 102.843C488.89 101.961 489.497 101.285 490.269 100.816C491.055 100.347 491.944 100.113 492.937 100.113ZM493.661 102.181C492.613 102.181 491.772 102.519 491.138 103.195C490.517 103.857 490.207 104.774 490.207 105.946C490.207 107.118 490.517 108.042 491.138 108.717C491.772 109.379 492.613 109.71 493.661 109.71C494.323 109.71 494.916 109.558 495.44 109.255C495.964 108.938 496.378 108.497 496.681 107.931C496.984 107.366 497.136 106.704 497.136 105.946C497.136 105.201 496.984 104.546 496.681 103.981C496.378 103.402 495.964 102.96 495.44 102.657C494.916 102.34 494.323 102.181 493.661 102.181Z" fill="#262626"/>
<path d="M503.254 111.779C502.868 111.779 502.537 111.648 502.262 111.386C501.986 111.11 501.848 110.765 501.848 110.351C501.848 109.951 501.986 109.621 502.262 109.359C502.537 109.083 502.868 108.945 503.254 108.945C503.641 108.945 503.965 109.076 504.227 109.338C504.489 109.6 504.62 109.938 504.62 110.351C504.62 110.765 504.482 111.11 504.206 111.386C503.944 111.648 503.627 111.779 503.254 111.779Z" fill="#262626"/>
<g clip-path="url(#clip1_1556_6374)">
<path d="M48.3296 289.073H116.914C117.441 289.073 117.947 289.283 118.32 289.656C118.693 290.028 118.902 290.534 118.902 291.061V301.156C118.902 302.172 118.499 303.146 117.78 303.864C117.062 304.582 116.088 304.985 115.073 304.985H50.1672C49.1516 304.985 48.1776 304.582 47.4595 303.864C46.7413 303.146 46.3379 302.172 46.3379 301.156V291.058C46.3384 290.797 46.3902 290.538 46.4906 290.297C46.5909 290.056 46.7378 289.837 46.9227 289.653C47.1077 289.469 47.3271 289.323 47.5685 289.223C47.8099 289.124 48.0685 289.073 48.3296 289.073V289.073Z" fill="#BA462B"/>
<path d="M105.243 297.044C106.341 297.044 107.428 297.274 108.432 297.72C109.436 298.166 110.335 298.817 111.072 299.632C111.809 300.447 112.367 301.407 112.71 302.451C113.052 303.494 113.173 304.598 113.063 305.691L108.08 355.297L107.722 358.98C107.522 360.917 106.613 362.713 105.168 364.019C103.723 365.325 101.846 366.051 99.898 366.055H65.588C63.6334 366.05 61.7501 365.32 60.3037 364.006C58.8573 362.691 57.951 360.886 57.7609 358.94L54.1322 320.991L52.6635 305.652C52.5641 304.563 52.6924 303.465 53.0403 302.428C53.3882 301.392 53.948 300.439 54.6842 299.63C55.4204 298.821 56.3168 298.175 57.3164 297.731C58.316 297.288 59.397 297.058 60.4905 297.055L105.243 297.044Z" fill="#BA462B"/>
<path opacity="0.48" d="M108.08 355.297L107.006 366.043H66.0471C63.9651 366.044 61.9577 365.268 60.417 363.868C58.8762 362.467 57.9128 360.543 57.715 358.471L54.1328 320.979C63.3426 333.689 80.949 351.783 108.08 355.297Z" fill="#59332B"/>
<path d="M144.284 53.7137C144.284 53.7137 123.36 58.9365 129.092 81.7657C134.823 104.595 165.508 98.7595 166.755 85.1401C168.001 71.5207 161.177 42.4693 144.284 53.7137Z" fill="#12192F"/>
<path d="M227.645 21.0011C227.645 21.0011 228.247 30.2896 224.117 37.0456C223.607 37.8614 223.275 38.7762 223.144 39.7296C223.013 40.683 223.086 41.6533 223.358 42.5765C224.017 44.7258 225.034 48.0035 226.492 52.492C229.437 61.5656 224.293 87.0062 212.342 80.7911C200.392 74.5761 209.735 19.9945 227.645 21.0011Z" fill="#12192F"/>
<path d="M185.544 174.268L149.092 124.154C149.092 124.154 161.053 120.468 166.129 89.4675C166.558 86.8573 166.935 84.0441 167.257 81.0279C167.347 80.2184 167.425 79.3945 167.504 78.5598C167.707 76.3221 167.878 73.977 168.016 71.5244L201.904 87.5081C201.904 87.5081 201.904 94.0348 204.318 103.076C204.773 104.774 205.31 106.554 205.952 108.399C207.983 114.353 210.789 120.014 214.298 125.236C226.692 143.555 185.544 174.268 185.544 174.268Z" fill="#F78C68"/>
<path d="M204.32 103.076C181.035 112.787 170.78 93.3757 166.768 85.1403C167.201 82.5289 166.936 84.0441 167.258 81.0279C167.348 80.2184 167.427 79.3945 167.506 78.5598C167.708 76.3221 167.879 73.977 168.018 71.5244L201.905 87.5081C201.905 87.5081 201.905 94.0348 204.32 103.076Z" fill="#D34A28"/>
<path d="M161.515 107.465C161.515 107.465 163.255 148.796 181.815 158.651C182.835 159.193 184.006 159.381 185.145 159.187C186.284 158.993 187.326 158.426 188.109 157.576C193.636 151.54 206.159 134.922 205.951 108.414L212.31 115.303C212.31 115.303 215.892 182.386 204.318 221.693C192.744 261 220.61 366.083 220.61 366.083H164.878L163.087 218.956C163.087 218.956 151.947 129.123 155.314 112.057L161.515 107.465Z" fill="#FC461E"/>
<path d="M140.557 366.054C140.557 366.054 168.77 255.462 196.288 281.483C223.806 307.504 237.634 366.054 237.634 366.054H140.557Z" fill="#D82E12"/>
<path d="M410 366.054C402.958 325.332 383.979 321.785 383.979 321.785L373.444 327.324L377.961 315.664C366.298 306.633 350.12 302.41 350.12 302.41L343.347 310.609V302.41C323.408 298.573 297.448 306.622 297.448 306.622V314.897L294.131 310.598C269.919 320.779 260.129 349.666 256.439 366.033H370.765C370.342 364.451 370.289 362.793 370.609 361.187C370.929 359.582 371.615 358.071 372.612 356.773C373.609 355.474 374.891 354.422 376.36 353.698C377.829 352.974 379.444 352.598 381.081 352.598C382.718 352.598 384.334 352.974 385.802 353.698C387.271 354.422 388.553 355.474 389.551 356.773C390.548 358.071 391.233 359.582 391.553 361.187C391.874 362.793 391.82 364.451 391.398 366.033L410 366.054ZM303.251 336.043C302.642 336.043 302.046 335.863 301.539 335.525C301.032 335.187 300.636 334.706 300.403 334.143C300.169 333.58 300.107 332.961 300.226 332.363C300.344 331.765 300.637 331.216 301.068 330.785C301.499 330.354 302.048 330.06 302.645 329.941C303.243 329.822 303.863 329.882 304.426 330.115C304.989 330.348 305.47 330.743 305.809 331.25C306.148 331.757 306.328 332.352 306.328 332.962C306.328 333.777 306.005 334.559 305.43 335.136C304.854 335.714 304.074 336.04 303.258 336.043H303.251Z" fill="#3F4F20"/>
<path d="M129.644 123.476L125.346 135.957C125.346 135.957 113.166 165.269 101.915 168.314C91.125 171.237 102.753 184.954 75.1629 191.552C74.6291 191.681 74.0882 191.806 73.5151 191.932L73.3145 191.538C73.9022 190.944 74.3866 190.256 74.7473 189.503C75.9688 187.135 77.2262 182.815 77.8996 174.956C79.2931 158.728 77.7778 154.179 88.313 150.017C89.8188 149.425 91.1754 148.508 92.2863 147.331C93.3971 146.155 94.2347 144.748 94.7394 143.21C96.6666 137.303 101.313 128.011 111.819 125.522C119.782 123.637 124.575 122.187 127.366 121.223C127.681 121.116 128.019 121.099 128.344 121.174C128.668 121.248 128.965 121.412 129.201 121.646C129.438 121.879 129.605 122.175 129.683 122.498C129.761 122.821 129.748 123.16 129.644 123.476V123.476Z" fill="#3F4F21"/>
<path d="M157.394 169.321C157.394 169.321 188.738 214.933 212.48 216.567C236.223 218.2 144.67 240.442 145.34 216.567C146.009 192.691 157.394 169.321 157.394 169.321Z" fill="#D82E12"/>
<path d="M234.636 293.72C215.224 324.405 211.746 348.588 216.682 366.058H294.132C291.506 302.675 234.636 293.72 234.636 293.72ZM255.007 318.795C254.235 318.795 253.48 318.566 252.838 318.137C252.196 317.708 251.696 317.098 251.4 316.385C251.105 315.671 251.027 314.886 251.178 314.129C251.329 313.371 251.7 312.676 252.246 312.129C252.793 311.583 253.488 311.211 254.246 311.061C255.003 310.91 255.788 310.987 256.502 311.283C257.215 311.579 257.825 312.079 258.254 312.721C258.683 313.363 258.912 314.118 258.912 314.89C258.912 315.926 258.501 316.919 257.768 317.651C257.036 318.384 256.043 318.795 255.007 318.795ZM262.695 316.499C262.394 316.499 262.101 316.41 261.851 316.243C261.601 316.076 261.407 315.839 261.292 315.561C261.177 315.284 261.147 314.978 261.205 314.684C261.264 314.389 261.408 314.118 261.621 313.906C261.833 313.694 262.104 313.549 262.398 313.49C262.693 313.432 262.998 313.462 263.276 313.577C263.554 313.692 263.791 313.886 263.958 314.136C264.125 314.386 264.214 314.68 264.214 314.98C264.214 315.38 264.056 315.764 263.774 316.049C263.492 316.333 263.109 316.495 262.709 316.499H262.695Z" fill="#606D29"/>
<path d="M212.31 115.288C212.31 115.288 238.99 124.53 243.812 130.459C243.812 130.459 233.133 170.077 231.493 202.324C229.852 234.571 232.449 261.43 235.01 271.897C237.572 282.364 257.524 366.055 257.524 366.055H212.31L187.65 291.775V261.212L204.318 221.664C204.318 221.664 214.871 167.935 212.31 115.288Z" fill="#ECECEC"/>
<path d="M160.527 59.2809C160.438 59.5146 160.293 59.7228 160.105 59.887C159.917 60.0512 159.691 60.1663 159.447 60.2219C159.203 60.2776 158.95 60.2722 158.709 60.2061C158.468 60.14 158.247 60.0154 158.066 59.8433C155.401 57.2892 150.103 53.7894 148.2 63.9556C145.621 77.7649 160.38 75.3863 161.54 77.2455C163.926 81.0175 166.824 87.3006 176.944 94.4757C182.195 98.194 194.321 101.973 207.89 97.5958C217.788 94.4041 222.717 59.8863 215.567 16.6387C215.567 16.6387 212.092 23.1869 207.095 24.8777C202.098 26.5685 193.246 23.5379 187.558 21.9869C182.937 20.7295 174.275 16.5849 168.486 20.8298C165.019 22.3773 162.841 53.295 160.527 59.2809Z" fill="#F78C68"/>
<path d="M187.652 261.211V291.774C187.652 291.774 171.983 318.898 171.081 366.054H98.9355C98.9355 366.054 103.818 320.919 114.59 288.629C116.304 283.348 118.372 278.189 120.78 273.186L133.167 227.449L133.26 220.285L134.241 144.676C134.241 144.676 133.496 137.096 124.928 129.53C124.928 129.53 146.159 114.904 155.33 112.035L161.516 107.446C161.516 107.446 153.166 119.411 154.71 135.814C156.043 150.142 162.519 215.048 164.131 231.185C164.364 233.514 164.489 234.828 164.489 234.828L187.652 261.211Z" fill="#ECECEC"/>
<path d="M235.01 269.963C226.875 272.968 208.144 276.321 187.651 279.362C158.008 283.765 124.705 287.515 114.574 288.629C116.289 283.349 118.357 278.19 120.764 273.187L133.166 227.45L133.259 220.285C137.493 221.718 149.586 225.863 164.112 231.207C199.64 244.286 249.722 264.529 235.01 269.963Z" fill="#D7DDDC"/>
<path d="M211.346 114.253C211.346 114.253 212.038 128.696 210.551 153.385L203.107 237.97L226.216 185.216L218.493 178.865L230.146 169.379L221.978 118.91L211.346 114.253Z" fill="#D7DDDC"/>
<path d="M161.515 107.465C161.515 107.465 155.547 125.569 157.034 150.258L164.481 234.843L141.366 182.089L149.092 175.738L137.439 166.252L150.944 113.805L161.515 107.465Z" fill="#D7DDDC"/>
<path d="M158.868 217.512L149.092 236.763L193.289 259.62C193.289 259.62 254.361 283.567 266.587 262.748C276.717 245.5 271.226 193.085 262.923 161.73C260.388 152.144 255.549 143.322 248.827 136.032L243.006 129.702L225.36 218.583L158.868 217.512Z" fill="#ECECEC"/>
<path d="M71.061 153.789C71.061 153.789 51.5454 134.015 57.7461 122.982C63.9468 111.949 78.2254 107.804 78.2254 97.2406C78.2254 86.6768 97.476 77.8969 102.427 91.6381C107.377 105.379 102.674 121.338 97.3255 125.189C91.9774 129.04 70.1583 140.76 71.061 153.789Z" fill="#3F4F21"/>
<path d="M75.8347 198.433C75.8347 198.433 67.0512 197.251 64.3036 186.254C61.5561 175.257 64.8553 171.965 55.5094 168.114C46.1635 164.263 40.6684 157.12 40.9407 145.854C41.2129 134.588 40.6685 132.661 37.0934 133.761C33.5184 134.861 22.8006 159.252 27.4753 174.265C32.15 189.277 36.5454 177.9 36.2695 198.433C35.9937 218.967 75.8347 198.433 75.8347 198.433Z" fill="#3F4F21"/>
<path d="M95.3991 249.114L93.2713 248.692C92.051 248.459 90.7916 248.543 89.6129 248.935C88.4341 249.327 87.3752 250.014 86.5368 250.93C81.3605 256.494 73.358 257.679 69.98 257.149C67.1751 256.712 62.9267 252.958 58.8466 251.281C55.9535 250.103 52.7759 249.809 49.7156 250.436C3.75633 259.714 6.33191 222.757 5.93787 214.073C5.75246 211.271 5.11245 208.517 4.04291 205.92C3.9949 205.794 3.9911 205.654 4.03212 205.525C4.07314 205.396 4.15658 205.284 4.26892 205.209C4.38126 205.133 4.51592 205.097 4.65109 205.107C4.78626 205.117 4.91402 205.173 5.01367 205.265C8.81794 208.786 14.3667 211.491 21.7818 209.205C37.6294 204.344 56.665 211.641 59.975 221.657C63.2849 231.673 86.3863 231.959 90.0187 232.446C93.651 232.934 95.3991 249.114 95.3991 249.114Z" fill="#3F4F21"/>
<path d="M209.885 12.2966C209.885 12.2966 222.326 3.3841 226.76 16.6453C231.195 29.9065 218.324 39.3205 218.324 39.3205C218.324 39.3205 216.143 27.8575 207.825 21.3809C199.507 14.9044 209.885 12.2966 209.885 12.2966Z" fill="#12192F"/>
<path d="M191.91 257.149L231.923 251.808C234.155 251.506 236.202 250.407 237.685 248.712C239.168 247.017 239.987 244.843 239.99 242.591V226.41L191.91 257.149Z" fill="#D7DDDC"/>
<path d="M85.2539 221.664C85.2539 221.664 94.281 212.272 93.518 202.575C92.755 192.878 93.518 182.221 106.464 178.033C119.41 173.846 108.08 221.664 108.08 221.664C108.08 221.664 98.8626 209.076 96.2583 214.073C94.1055 218.225 94.7252 221.926 85.2539 221.664Z" fill="#3F4F21"/>
<path d="M92.2188 216.226C92.2188 216.226 97.4487 205.806 105.706 188.923" stroke="#606D29" stroke-width="1.07465" stroke-linecap="round" stroke-linejoin="round"/>
<path d="M140.893 39.8369C140.389 42.2567 140.433 44.7583 141.02 47.1592C141.607 49.56 142.722 51.7995 144.285 53.7142C148.114 58.3388 154.835 63.0494 165.875 61.3586C186.075 58.26 203.925 35.112 210.774 22.6711C217.623 10.2302 214.958 3.29871 209.241 1.26762C203.524 -0.763472 191.401 -0.648842 184.628 7.71553C184.617 7.72628 148.745 0.837762 140.893 39.8369Z" fill="#12192F"/>
<path d="M255.282 212.68L273.741 217.19C273.741 217.19 274.421 223.34 254.622 217.759L252.362 223.913C252.362 223.913 250.929 234.732 243.962 236.759C242.532 237.174 241.079 237.501 239.61 237.741C236.868 238.216 234.077 238.349 231.303 238.135L226.162 221.657L228.612 218.196L243.224 197.584C243.978 196.421 245.005 195.459 246.216 194.782C247.426 194.105 248.783 193.734 250.17 193.701C254.981 193.562 273.812 189.915 273.812 189.915C273.812 189.915 273.955 194.328 262.861 196.621L252.702 199.179L274.933 198.874C274.933 198.874 277.043 202.478 270.094 203.961C263.144 205.444 252.985 205.791 252.985 205.791C252.985 205.791 270.771 209.04 275.85 208.095C275.865 208.105 279.397 215.051 255.282 212.68Z" fill="#F78C68"/>
<path d="M239.61 237.741C236.868 238.216 234.077 238.349 231.303 238.135L226.162 221.657L228.612 218.196L239.61 237.741Z" fill="#D34A28"/>
<path d="M124.923 129.527C124.923 129.527 113.904 133.539 108.402 153.062C102.9 172.585 78.1472 270.934 120.779 273.187C141.967 274.308 170.213 267.126 193.289 259.618C216.62 252.02 234.634 244.092 234.634 244.092C234.634 244.092 228.971 220.45 226.163 219.34C223.354 218.229 135.079 232.465 135.079 232.465L134.24 144.68C134.24 144.68 133.191 134.041 124.923 129.527Z" fill="#ECECEC"/>
<path d="M183.431 67.1754C190.529 67.1754 196.284 61.421 196.284 54.3226C196.284 47.2241 190.529 41.4697 183.431 41.4697C176.333 41.4697 170.578 47.2241 170.578 54.3226C170.578 61.421 176.333 67.1754 183.431 67.1754Z" fill="#ECECEC" stroke="#13192F" stroke-width="1.07465" stroke-linecap="round" stroke-linejoin="round"/>
<path d="M216.146 64.8756C223.244 64.8756 228.999 59.1212 228.999 52.0228C228.999 44.9243 223.244 39.1699 216.146 39.1699C209.047 39.1699 203.293 44.9243 203.293 52.0228C203.293 59.1212 209.047 64.8756 216.146 64.8756Z" fill="#ECECEC" stroke="#13192F" stroke-width="1.07465" stroke-linecap="round" stroke-linejoin="round"/>
<path d="M200.445 54.7314L205.944 69.3001C206.09 69.6883 206.153 70.1028 206.13 70.5169C206.106 70.931 205.996 71.3356 205.807 71.7047C205.618 72.0738 205.353 72.3992 205.031 72.66C204.708 72.9208 204.335 73.1112 203.934 73.219L200.445 74.1576" stroke="#13192F" stroke-width="1.07465" stroke-linecap="round" stroke-linejoin="round"/>
<path d="M192.025 79.9746C192.025 79.9746 199.451 84.6744 205.806 79.9746" stroke="#13192F" stroke-width="1.43287" stroke-linecap="round" stroke-linejoin="round"/>
<path d="M157.035 220.643L153.252 229.065L142.989 230.215L138.461 230.72C138.461 230.72 117.28 234.635 120.063 230.72C122.255 227.639 132.848 225.268 137.258 224.397C137.285 224.394 137.31 224.379 137.327 224.357C137.344 224.335 137.351 224.307 137.347 224.279C137.343 224.252 137.329 224.227 137.307 224.21C137.284 224.193 137.257 224.186 137.229 224.19C132.289 224.548 119.522 225.15 117.015 222.621C116.964 222.569 116.929 222.505 116.912 222.435C116.895 222.365 116.897 222.291 116.919 222.222C116.94 222.153 116.979 222.091 117.033 222.043C117.086 221.995 117.152 221.962 117.223 221.947C120.446 221.281 134.897 218.039 140.027 217.527C138.626 217.638 120.443 218.981 115.908 214.496C115.821 214.409 115.761 214.299 115.735 214.178C115.709 214.058 115.718 213.933 115.762 213.817C115.805 213.702 115.881 213.602 115.98 213.529C116.079 213.455 116.197 213.412 116.32 213.404L139.339 211.931C139.38 211.931 139.419 211.915 139.448 211.886C139.477 211.857 139.493 211.818 139.493 211.777C139.493 211.737 139.477 211.697 139.448 211.669C139.419 211.64 139.38 211.623 139.339 211.623C134.37 210.81 117.896 207.755 118.562 203.109C118.586 202.949 118.672 202.805 118.8 202.707C118.928 202.61 119.09 202.566 119.25 202.586C122.975 203.001 145.561 205.645 149.097 209.123C152.034 212.014 155.108 217.194 156.401 219.493C156.802 220.199 157.035 220.643 157.035 220.643Z" fill="#F78C68"/>
<path d="M196.285 54.043H203.439" stroke="#13192F" stroke-width="1.07465" stroke-linecap="round" stroke-linejoin="round"/>
<path d="M157.034 220.643L153.251 229.065L142.988 230.215L156.4 219.493C156.801 220.199 157.034 220.643 157.034 220.643Z" fill="#D34A28"/>
<path d="M97.1081 291.118L95.4173 290.524C101.507 273.183 95.9224 242.945 81.8337 216.993C79.1542 212.046 75.9553 204.165 73.4263 191.95C73.3941 191.806 73.3654 191.663 73.3368 191.52C71.7466 183.51 70.6389 175.411 70.0197 167.268C69.2214 157.466 68.9368 147.63 69.1671 137.798L70.9582 137.862C70.7299 147.632 71.0132 157.407 71.8072 167.147C72.3845 174.647 73.371 182.11 74.7625 189.503C74.8962 190.198 75.0311 190.881 75.1673 191.552C77.6533 203.57 80.7877 211.311 83.4063 216.14C90.5025 229.211 95.5606 243.365 98.0359 257.031C100.493 270.607 100.171 282.396 97.1081 291.118Z" fill="#3F4F21"/>
<path d="M124.55 303.592C134.604 308.332 145.964 309.538 156.789 307.013C157.059 306.949 157.341 306.959 157.605 307.043C157.869 307.128 158.105 307.283 158.288 307.492C158.47 307.7 158.592 307.955 158.639 308.228C158.687 308.501 158.659 308.782 158.559 309.041L155.159 317.814C155.044 318.11 154.839 318.362 154.573 318.536C154.307 318.709 153.994 318.795 153.676 318.781C148.461 318.544 126.194 317.183 122.565 311.025C122.428 310.792 122.356 310.526 122.357 310.255V304.961C122.355 304.701 122.42 304.446 122.544 304.219C122.669 303.991 122.85 303.8 123.07 303.662C123.29 303.525 123.542 303.447 123.801 303.434C124.06 303.422 124.318 303.476 124.55 303.592V303.592Z" fill="#D7DDDC"/>
<path d="M235.997 303.306C231.63 305.527 218.763 310.879 202.393 306.827C202.197 306.78 201.993 306.787 201.801 306.848C201.61 306.909 201.439 307.021 201.307 307.173C201.174 307.324 201.086 307.509 201.052 307.707C201.017 307.905 201.037 308.109 201.11 308.296L204.904 318.079C204.986 318.295 205.134 318.481 205.326 318.609C205.519 318.738 205.747 318.803 205.979 318.795C210.6 318.598 234.113 317.287 237.502 310.853C237.576 310.702 237.614 310.535 237.613 310.366V304.277C237.612 304.087 237.562 303.901 237.468 303.737C237.374 303.572 237.24 303.435 237.078 303.337C236.915 303.24 236.731 303.186 236.542 303.18C236.352 303.175 236.165 303.218 235.997 303.306V303.306Z" fill="#D7DDDC"/>
<path d="M248.609 94.1386C248.638 94.0205 248.705 93.9154 248.801 93.8401C248.896 93.7648 249.014 93.7236 249.136 93.723C249.258 93.7238 249.376 93.7666 249.471 93.8442C249.566 93.9218 249.631 94.0295 249.655 94.1493L252.553 107.805L255.498 102.643C255.544 102.56 255.611 102.491 255.693 102.443C255.775 102.395 255.868 102.37 255.963 102.37H277.259C277.357 102.371 277.453 102.397 277.537 102.448C277.621 102.498 277.69 102.571 277.736 102.657L280.508 107.894L284.703 94.1027C284.739 93.9876 284.813 93.8879 284.912 93.8197C285.011 93.7514 285.131 93.7186 285.251 93.7264C285.371 93.7343 285.486 93.7824 285.575 93.863C285.665 93.9436 285.725 94.052 285.746 94.1708L288.095 108.757H294.121C299.494 100.655 302.001 91.674 296.836 84.4739C287.583 71.5458 274.91 81.2857 270.353 85.5485C265.793 81.2965 253.123 71.5565 243.866 84.4739C239.056 91.194 240.918 99.4617 245.543 107.12L248.609 94.1386Z" fill="#D82E12"/>
<path d="M287.637 110.91C287.509 110.91 287.385 110.864 287.288 110.781C287.19 110.697 287.126 110.582 287.107 110.455L285.054 97.71L281.157 110.527C281.126 110.629 281.065 110.719 280.983 110.787C280.901 110.854 280.801 110.896 280.695 110.906C280.589 110.916 280.482 110.895 280.388 110.845C280.295 110.795 280.218 110.718 280.168 110.624L276.944 104.534H256.261L252.771 110.652C252.718 110.747 252.636 110.823 252.538 110.87C252.44 110.917 252.33 110.934 252.222 110.917C252.115 110.9 252.015 110.851 251.936 110.777C251.856 110.702 251.802 110.605 251.779 110.498L249.096 97.7923L246.338 109.474C252.886 119.558 263.944 128.352 270.338 130.773V130.652V130.773C276.428 128.47 286.748 120.385 293.372 110.91H287.637Z" fill="#D82E12"/>
<path d="M288.593 298.227C288.593 298.227 297.211 298.9 295.671 304.76C294.131 310.621 286.594 307.666 285.687 306.577C284.781 305.488 288.048 303.027 290.771 303.26C290.771 303.26 288.227 301.855 288.593 298.227Z" fill="#3F4F20"/>
<path d="M380.649 316.531C380.649 316.531 377.783 309.073 388.888 308.292C388.902 308.292 389.479 318.834 380.649 316.531Z" fill="#3F4F20"/>
<path d="M184.336 168.849C175.664 168.849 167.858 161.287 161.733 146.951C157.076 136.025 154.98 124.899 154.959 124.788L155.317 124.724C155.317 124.835 157.416 135.925 162.07 146.815C166.347 156.845 173.747 168.72 184.637 168.487C195.527 168.254 202.391 157.271 206.202 148.094C208.822 141.604 210.743 134.855 211.933 127.958L212.292 128.012C211.098 134.936 209.17 141.712 206.539 148.226C201.011 161.53 193.442 168.645 184.648 168.845L184.336 168.849Z" fill="#D7DDDC"/>
<path d="M184.338 169.207C175.515 169.207 167.584 161.559 161.412 147.09C156.715 136.097 154.638 124.963 154.605 124.852L154.541 124.494L155.616 124.297L155.68 124.655C155.702 124.763 157.769 135.81 162.411 146.671C166.606 156.49 173.802 168.128 184.345 168.128H184.653C195.374 167.903 202.123 157.024 205.895 147.957C210.022 138.027 211.587 128.001 211.605 127.897L211.659 127.539L212.733 127.7L212.68 128.058C211.482 135.01 209.546 141.814 206.905 148.355C201.317 161.802 193.651 169.006 184.696 169.196L184.338 169.207Z" fill="#D7DDDC"/>
<path d="M69.1558 147.925C69.1558 147.925 65.7098 129.949 80.5292 113.74C95.3487 97.5307 96.649 97.5307 96.2622 91.6523" stroke="#606D29" stroke-width="1.07465" stroke-linecap="round" stroke-linejoin="round"/>
<path d="M77.7461 187.967C77.7461 187.967 104.039 139.167 124.028 126.744" stroke="#606D29" stroke-width="1.07465" stroke-linecap="round" stroke-linejoin="round"/>
<path d="M36.3339 141.51C36.3339 141.51 34.8831 194.135 67.4809 198.434" stroke="#606D29" stroke-width="1.07465" stroke-linecap="round" stroke-linejoin="round"/>
<path d="M9.50195 211.738C9.50195 211.738 49.7226 244.512 85.2542 244.512" stroke="#606D29" stroke-width="1.07465" stroke-linecap="round" stroke-linejoin="round"/>
<path d="M356.774 314.894L344.086 354.659" stroke="#606D29" stroke-width="1.07465" stroke-linecap="round" stroke-linejoin="round"/>
<path d="M356.771 331.4L353.07 342.502" stroke="#606D29" stroke-width="1.07465" stroke-linecap="round" stroke-linejoin="round"/>
<path d="M310.781 318.795L320.561 354.66" stroke="#606D29" stroke-width="1.07465" stroke-linecap="round" stroke-linejoin="round"/>
<path d="M308.828 334.778L318.607 364.786" stroke="#606D29" stroke-width="1.07465" stroke-linecap="round" stroke-linejoin="round"/>
<path d="M288.414 347.742L300.178 364.786" stroke="#606D29" stroke-width="1.07465" stroke-linecap="round" stroke-linejoin="round"/>
<path d="M261.174 353.46L274.08 336.047" stroke="#3F4F20" stroke-width="1.07465" stroke-linecap="round" stroke-linejoin="round"/>
<path d="M261.174 360.588L281.693 333.722" stroke="#3F4F20" stroke-width="1.07465" stroke-linecap="round" stroke-linejoin="round"/>
</g>
<defs>
<filter id="filter0_d_1556_6374" x="0.917923" y="24.0176" width="666.779" height="491.033" filterUnits="userSpaceOnUse" color-interpolation-filters="sRGB">
<feFlood flood-opacity="0" result="BackgroundImageFix"/>
<feColorMatrix in="SourceAlpha" type="matrix" values="0 0 0 0 0 0 0 0 0 0 0 0 0 0 0 0 0 0 127 0" result="hardAlpha"/>
<feOffset dx="16.3746" dy="33.611"/>
<feGaussianBlur stdDeviation="64.6365"/>
<feComposite in2="hardAlpha" operator="out"/>
<feColorMatrix type="matrix" values="0 0 0 0 0.0745098 0 0 0 0 0.0980392 0 0 0 0 0.180392 0 0 0 0.25 0"/>
<feBlend mode="normal" in2="BackgroundImageFix" result="effect1_dropShadow_1556_6374"/>
<feBlend mode="normal" in="SourceGraphic" in2="effect1_dropShadow_1556_6374" result="shape"/>
</filter>
<filter id="filter1_d_1556_6374" x="481.11" y="124.065" width="56.8849" height="56.8859" filterUnits="userSpaceOnUse" color-interpolation-filters="sRGB">
<feFlood flood-opacity="0" result="BackgroundImageFix"/>
<feColorMatrix in="SourceAlpha" type="matrix" values="0 0 0 0 0 0 0 0 0 0 0 0 0 0 0 0 0 0 127 0" result="hardAlpha"/>
<feOffset dx="0.86182" dy="6.03274"/>
<feGaussianBlur stdDeviation="8.6182"/>
<feComposite in2="hardAlpha" operator="out"/>
<feColorMatrix type="matrix" values="0 0 0 0 0.0745098 0 0 0 0 0.0980392 0 0 0 0 0.180392 0 0 0 0.25 0"/>
<feBlend mode="normal" in2="BackgroundImageFix" result="effect1_dropShadow_1556_6374"/>
<feBlend mode="normal" in="SourceGraphic" in2="effect1_dropShadow_1556_6374" result="shape"/>
</filter>
<clipPath id="clip0_1556_6374">
<rect x="35" y="205.993" width="252.513" height="181.844" rx="21.5455" fill="white"/>
</clipPath>
<clipPath id="clip1_1556_6374">
<rect width="406" height="365.872" fill="white" transform="translate(4 0.185547)"/>
</clipPath>
</defs>
</svg>
