<svg width="100%" viewBox="0 0 354 600" fill="none" xmlns="http://www.w3.org/2000/svg">
<g clip-path="url(#clip0_1589_133)">
<rect width="354" height="600" rx="8" fill="white"/>
<path d="M477 -11.1426H-355V645.429H477V-11.1426Z" fill="url(#paint0_linear_1589_133)"/>
<path d="M334.066 597.156L337.42 592.623" stroke="#3F4F20" stroke-width="0.392734" stroke-linecap="round" stroke-linejoin="round"/>
<path d="M334.066 599.011L339.399 592.018" stroke="#3F4F20" stroke-width="0.392734" stroke-linecap="round" stroke-linejoin="round"/>
<path opacity="0.6" d="M4.54102 372.531C4.54102 372.531 41.8891 321.558 78.771 357.103C78.771 357.103 88.5742 355.233 90.4423 362.714C92.3105 370.194 92.7766 445.463 92.7766 445.463H5.22968L4.54102 372.531Z" fill="white"/>
<path d="M114.775 433.101V489.807H-72.7773V416.513H-72.0184V332.872L-35.5265 320.06L23.3898 342.285V366.731L34.0374 368.286V398.329H38.2656V383.02L52.3941 367.095L64.2258 382.183L65.301 408.794H77.9924V436.873L99.0651 421.576L114.775 433.101Z" fill="url(#paint1_linear_1589_133)"/>
<path d="M123.565 327.334L137.944 337.32L135.55 477.604L121.316 485.053" fill="#8699AD"/>
<path opacity="0.6" fill-rule="evenodd" clip-rule="evenodd" d="M150.612 373.184C150.612 373.184 145.916 324.216 188.56 328.525C188.56 328.525 191.298 323.041 197.948 324.608C197.948 324.608 202.251 305.411 219.465 307.762C219.465 307.762 218.294 303.844 224.55 304.628C224.55 304.628 239.024 279.556 267.191 296.009V373.185L150.612 373.184Z" fill="white"/>
<path d="M264.167 295.709L262.158 413.169L296.233 410.059L297.769 280.305L264.167 295.709Z" fill="#D5CFE2"/>
<path d="M297.771 280.305L321.338 292.127V411.279L296.234 410.059L297.771 280.305Z" fill="#8699AD"/>
<path d="M148.354 354.97L189.977 356.679L188.511 445.464L160.339 449.266L148.354 354.97Z" fill="#8699AD"/>
<path d="M99.2832 337.658V485.053H121.315L123.564 327.334L99.2832 337.658Z" fill="#D5CFE2"/>
<path opacity="0.6" d="M321.336 305.469V351.419H446.769V265.306C446.769 265.306 402.91 268.707 397.811 290.153C397.811 290.153 382.516 289.132 385.575 306.831C385.575 306.831 353.965 287.09 330.853 314.66C330.853 314.66 332.553 301.725 321.336 305.469Z" fill="white"/>
<path d="M99.2829 358.589L87.4629 366.616V468.675L99.2829 465.998V358.589Z" fill="#8699AD"/>
<path d="M-49.7012 380.768H-24.7704L-0.905482 368.123L19.1365 380.768V404.776L31.0362 412.031C31.0362 412.031 38.2264 404.952 46.0338 414.173V435.942L76.0933 437.222V456.119H89.8564V446.128H103.523V433.481L118.6 434.493V491.199H-49.7012V380.768Z" fill="url(#paint2_linear_1589_133)"/>
<path d="M308.234 332.43V413.169L367.012 406.245V316.716L308.234 332.43Z" fill="#D5CFE2"/>
<path d="M204.967 418.483L230.737 411.337L227.995 328.917L204.967 318.037V418.483Z" fill="#8699AD"/>
<path d="M182.215 329.674L180.629 425.742L204.967 418.483V318.037L182.215 329.674Z" fill="#DBD3E6"/>
<path d="M217.852 345.1L216.828 429.56L249.306 418.881V330.048L217.852 345.1Z" fill="#D5CFE2"/>
<path d="M74.3848 464.261V495.637L456 538.953V394.984" fill="#160907"/>
<path d="M249.307 423.988L264.681 417.426V341.213L249.307 330.048V423.988Z" fill="#8699AD"/>
<path d="M282.145 377.53L300.718 402.119L251.812 424.501L282.145 377.53Z" fill="#170A08"/>
<path d="M-41.7363 488.784C-41.7363 488.784 -26.6533 570.077 51.7803 600.369H455.882V534.358L77.6809 490.327L-41.7363 488.784Z" fill="url(#paint3_linear_1589_133)"/>
<path d="M157.472 420.701L282.144 377.53L251.812 424.501L146.754 449.266L157.472 420.701Z" fill="#025B95"/>
<path d="M62.2207 463.163C62.2207 463.163 364.722 405.976 455.999 310.187V394.986C455.999 394.986 87.5169 466.266 63.105 468.057L62.2207 463.163Z" fill="#002E55"/>
<path d="M-45.7793 484.921C-45.7793 484.921 -8.57175 595.218 59.678 600.369H273.682C273.682 600.369 20.203 599.79 -23.8352 485.167L-45.7793 484.921Z" fill="url(#paint4_linear_1589_133)"/>
<path d="M439.18 532.403C415.308 535.452 106.693 502.526 76.7202 499.314C76.0214 499.239 75.3636 498.947 74.8386 498.479C74.3136 498.012 73.9477 497.391 73.7921 496.705L73.771 496.613C73.5169 495.479 73.3236 494.412 73.1854 493.408C72.834 490.901 72.8071 488.79 72.9664 487.03C73.3482 482.807 76.5386 479.375 80.7059 478.622C110.899 473.173 268.906 444.637 299.189 438.84C332.705 432.428 351.093 442.052 382.873 458.628C398.415 466.733 418.221 483.784 431.47 499.473C433.454 501.819 435.291 504.141 436.945 506.393C437.206 506.747 437.462 507.099 437.712 507.448C437.954 507.786 438.191 508.122 438.422 508.457C447.14 520.991 449.593 531.075 439.18 532.403Z" fill="#ECECEC"/>
<path opacity="0.45" d="M439.181 532.402C415.328 535.452 107.169 502.579 76.7925 499.327C76.0724 499.251 75.3939 498.951 74.8524 498.47C74.3109 497.988 73.9335 497.349 73.7731 496.642V496.619C73.519 495.484 73.3257 494.417 73.1875 493.413C84.4781 494.086 398.241 512.661 431.479 499.472C433.463 501.818 435.301 504.14 436.954 506.392C437.215 506.746 437.471 507.098 437.721 507.448C437.964 507.786 438.2 508.122 438.431 508.457C447.141 520.99 449.594 531.074 439.181 532.402Z" fill="#8699AD"/>
<path d="M175.927 472.328V486.707C175.927 487.519 175.607 488.298 175.037 488.876C174.467 489.453 173.693 489.782 172.882 489.791L169.677 489.828L114.43 490.459C113.626 490.468 112.85 490.162 112.268 489.607C111.687 489.051 111.344 488.29 111.315 487.486L111.147 482.847L111.07 480.736C111.043 479.973 111.298 479.228 111.787 478.643C112.276 478.058 112.964 477.675 113.719 477.569L172.417 469.274C172.853 469.213 173.298 469.246 173.721 469.371C174.143 469.496 174.534 469.711 174.867 470.001C175.199 470.29 175.466 470.648 175.649 471.049C175.832 471.451 175.927 471.887 175.927 472.328V472.328Z" fill="#002E55"/>
<path d="M294.817 460.379V480.368C294.817 482.303 294.062 484.161 292.713 485.546C291.364 486.931 289.528 487.733 287.597 487.781L284.234 487.864L187.717 490.259C186.695 490.285 185.68 490.098 184.734 489.711C183.788 489.324 182.932 488.746 182.221 488.011C181.509 487.277 180.957 486.404 180.599 485.445C180.24 484.487 180.084 483.465 180.14 482.443L180.478 476.221L180.58 474.352C180.673 472.64 181.355 471.014 182.51 469.75C183.665 468.485 185.222 467.66 186.915 467.415L286.353 453.04C287.404 452.888 288.475 452.964 289.494 453.263C290.513 453.562 291.456 454.077 292.259 454.773C293.062 455.469 293.706 456.33 294.147 457.297C294.589 458.264 294.817 459.316 294.817 460.379Z" fill="#002E55"/>
<path opacity="0.48" d="M284.234 469.783V487.864L187.717 490.259C186.695 490.284 185.68 490.098 184.734 489.711C183.788 489.324 182.932 488.745 182.221 488.011C181.509 487.277 180.957 486.403 180.599 485.445C180.24 484.487 180.084 483.465 180.14 482.443L180.478 476.221L275.772 462.444C276.823 462.292 277.894 462.369 278.913 462.668C279.931 462.967 280.874 463.482 281.677 464.178C282.479 464.874 283.123 465.735 283.564 466.702C284.005 467.669 284.234 468.72 284.234 469.783V469.783Z" fill="#170A08"/>
<path d="M377.228 486.202L370.579 486.338L307.204 487.628C305.886 487.654 304.61 487.164 303.648 486.263C302.686 485.361 302.112 484.119 302.05 482.801L300.98 460.038L300.728 454.669C300.668 453.374 301.106 452.105 301.951 451.123C302.797 450.141 303.986 449.522 305.274 449.391C311.975 448.711 324.26 447.662 332.329 448.155C343.897 448.858 370.17 463.509 379.614 474.186C389.057 484.862 377.228 486.202 377.228 486.202Z" fill="#002E55"/>
<path d="M191.338 525.26C191.338 525.26 188.677 530.127 188.672 531.345C188.667 532.562 192.453 534.823 193.271 533.796C194.09 532.769 192.138 530.439 192.138 530.439L193.271 525.26H191.338Z" fill="#A97C50"/>
<path d="M198.066 481.948C197.831 481.058 196.833 480.978 196.104 481.541C195.167 482.264 194.859 483.58 195.359 484.708C196.356 486.964 199.053 485.455 198.465 483.385C198.311 482.85 198.179 482.367 198.066 481.948Z" fill="#F78C68"/>
<path d="M194.058 524.418C194.058 524.418 193.83 529.964 194.366 531.057C194.901 532.15 199.295 532.494 199.574 531.209C199.853 529.925 197.071 528.705 197.071 528.705L195.79 523.559L194.058 524.418Z" fill="#A97C50"/>
<path d="M197.796 500.174C197.796 500.174 198.064 518.923 197.203 521.652C196.343 524.382 195.625 526.116 191.864 526.048C188.103 525.98 190.196 517.094 190.196 517.094L191.939 504.874L193.283 498.45L197.796 500.174Z" fill="#170A08"/>
<path d="M197.836 498.45C197.836 498.45 200.106 510.608 199.727 515.558C199.347 520.507 198.303 522.052 194.85 522.786C191.397 523.521 197.836 498.45 197.836 498.45Z" fill="#170A08"/>
<path d="M200.574 493.863C200.574 493.863 201.803 494.535 201.628 495.638C201.623 495.638 200.463 495.836 200.574 493.863Z" fill="#BE1E2D"/>
<path d="M192.437 505.686C192.437 505.686 191.428 509.439 193.097 509.019C194.766 508.599 194.357 505.94 194.357 505.94L192.437 505.686Z" fill="#D17758"/>
<path d="M200.247 494.461C200.247 494.461 201.832 492.167 201.932 492.665C202.031 493.164 201.782 493.197 201.782 493.197C201.782 493.197 203.261 491.511 203.783 492.266C204.306 493.02 203.635 494.594 201.126 495.295C198.617 495.996 200.247 494.461 200.247 494.461Z" fill="#F78C68"/>
<path d="M197.204 485.235V486.463L194.85 486.101L195.359 484.711L197.204 485.235Z" fill="#F78C68"/>
<path d="M191.938 504.874L191.04 493.863C191.04 493.863 190.337 490.28 193.683 487.418C193.683 487.418 194.597 486.714 194.849 486.101L197.203 486.463C197.203 486.463 198.746 489.022 198.836 492.946C198.894 495.539 198.876 497.872 198.856 499.162C198.854 499.298 198.825 499.432 198.77 499.557C198.716 499.681 198.638 499.794 198.54 499.888C198.442 499.982 198.326 500.055 198.199 500.104C198.072 500.153 197.937 500.176 197.801 500.172L195.331 500.086L195.352 505.012C195.353 505.14 195.327 505.266 195.277 505.383C195.226 505.5 195.152 505.605 195.06 505.692C194.967 505.78 194.857 505.847 194.737 505.889C194.617 505.932 194.49 505.95 194.363 505.941L192.92 505.84C192.668 505.824 192.43 505.717 192.25 505.54C192.07 505.362 191.959 505.126 191.938 504.874V504.874Z" fill="#F15A29"/>
<path d="M198.321 493.863C198.321 493.863 200.035 494.164 200.574 493.863C200.574 493.863 200.875 495.545 201.628 495.638C201.628 495.638 200.106 497.204 197.857 496.576C195.608 495.949 198.321 493.863 198.321 493.863Z" fill="#F15A2A"/>
<path opacity="0.48" d="M370.578 486.338L307.202 487.628C305.885 487.654 304.609 487.164 303.647 486.263C302.684 485.361 302.111 484.119 302.049 482.801L300.979 460.039C310.51 459.259 327.578 458.02 333.376 458.616C340.669 459.372 367.405 474.736 370.578 486.338Z" fill="#170A08"/>
<path d="M187.422 520.646C187.422 520.646 185.243 526.159 187.738 525.13C190.233 524.102 190.063 522.168 190.063 522.168L189.521 521.883C189.521 521.883 190.012 523.642 187.647 524.567C187.578 524.595 187.502 524.601 187.431 524.583C187.359 524.566 187.294 524.526 187.246 524.469C187.03 524.203 186.895 523.456 187.814 521.36L187.422 520.646Z" fill="#ECECEC"/>
<path d="M192.393 512.011C192.393 512.011 192.491 510.276 193.783 510.477C195.075 510.679 194.532 512.479 194.532 512.479L194.173 512.347C194.173 512.347 194.586 511.433 194.173 511.077C193.759 510.72 192.884 510.651 192.788 511.881L192.393 512.011Z" fill="#ECECEC"/>
<path d="M190.185 512.827C190.402 512.512 190.687 512.25 191.019 512.061C191.351 511.872 191.722 511.761 192.103 511.735C193.415 511.648 195.692 511.687 195.896 512.976C196.184 514.796 196.224 520.844 195.896 521.679C195.603 522.425 194.665 523.953 193.07 523.599C192.461 523.468 191.837 523.429 191.218 523.482L189.922 523.585C189.28 523.637 188.634 523.515 188.054 523.233C187.149 522.788 186.098 521.971 186.737 520.723C187.579 519.082 188.786 514.856 190.185 512.827Z" fill="#ECECEC"/>
<path d="M198.066 481.949C198.066 481.949 197.205 480.307 195.812 481.949C194.42 483.591 196.749 484.646 193.684 487.418C190.619 490.189 191.041 493.863 191.041 493.863C191.041 493.863 185.143 492.236 189.042 487.541C192.941 482.846 192.621 483.782 192.888 481.739C193.155 479.696 198.165 478.552 198.066 481.949Z" fill="#C86742"/>
<path opacity="0.48" d="M169.677 478.128V489.827L114.429 490.458C113.626 490.468 112.85 490.162 112.268 489.606C111.686 489.051 111.344 488.29 111.315 487.485L111.146 482.846L166.165 475.071C166.602 475.01 167.047 475.042 167.47 475.168C167.893 475.293 168.284 475.508 168.617 475.798C168.95 476.087 169.217 476.445 169.4 476.847C169.583 477.249 169.678 477.686 169.677 478.128Z" fill="#170A08"/>
<path d="M356.406 430.824C356.406 430.824 352.908 452.694 359.115 460.339C365.321 467.984 359.313 485.119 373.722 493.842C373.722 493.842 381.417 488.52 380.669 476.982C380.341 471.92 378.263 467.14 374.957 463.296C372.095 459.969 368.248 454.668 368.072 450.064C367.79 442.695 359.225 425.153 356.406 430.824Z" fill="#606D29"/>
<path d="M347.759 475.469C347.445 475.437 347.129 475.475 346.832 475.581C346.535 475.688 346.265 475.859 346.044 476.084C345.822 476.308 345.653 476.58 345.55 476.878C345.447 477.176 345.411 477.494 345.447 477.808C346.326 485.549 350.619 514.593 365.501 513.751C381.338 512.854 358.792 476.715 347.759 475.469Z" fill="#3F4F21"/>
<path d="M351.39 519.411C351.708 525.118 353.996 537.943 368.073 538.705C368.073 538.705 375.984 536.261 369.368 528.529C364.661 523.027 357.539 519.372 353.825 517.72C353.552 517.6 353.254 517.552 352.958 517.58C352.662 517.609 352.378 517.713 352.134 517.882C351.889 518.052 351.693 518.282 351.562 518.55C351.432 518.817 351.373 519.114 351.39 519.411Z" fill="#606D29"/>
<path d="M294.685 600.43C294.685 600.43 293.5 587.966 302.892 583.094L305.541 584.52V581.94C305.541 581.94 308.118 579.44 310.184 579.946L311.941 581.94L312.572 579.049C312.572 579.049 324.839 578.741 329.251 582.685C333.663 586.628 326.836 600.049 326.836 600.049L294.685 600.43Z" fill="#606D29"/>
<path d="M411.028 600.43C406.871 576.359 395.668 574.262 395.668 574.262L389.45 577.537L392.115 570.644C385.231 565.306 375.682 562.816 375.682 562.816L371.683 567.662V562.816C359.914 560.548 344.591 565.306 344.591 565.306V570.197L342.632 567.662C328.343 573.68 322.562 590.757 320.379 600.43H387.871C387.621 599.495 387.589 598.515 387.778 597.565C387.967 596.615 388.371 595.722 388.96 594.954C389.549 594.186 390.306 593.564 391.173 593.135C392.04 592.707 392.994 592.485 393.961 592.485C394.928 592.485 395.882 592.707 396.749 593.135C397.617 593.564 398.374 594.186 398.963 594.954C399.551 595.722 399.956 596.615 400.145 597.565C400.333 598.515 400.302 599.495 400.052 600.43H411.028ZM348.016 582.691C347.657 582.691 347.305 582.584 347.006 582.384C346.707 582.185 346.474 581.9 346.336 581.568C346.198 581.235 346.162 580.869 346.232 580.516C346.302 580.163 346.475 579.839 346.729 579.584C346.983 579.329 347.307 579.156 347.659 579.085C348.012 579.015 348.378 579.05 348.71 579.188C349.042 579.326 349.326 579.559 349.526 579.858C349.726 580.157 349.833 580.509 349.833 580.869C349.834 581.108 349.787 581.345 349.697 581.566C349.606 581.788 349.473 581.989 349.304 582.158C349.136 582.328 348.936 582.463 348.715 582.555C348.495 582.647 348.259 582.695 348.02 582.695L348.016 582.691Z" fill="#3F4F20"/>
<path d="M339.361 560.34C339.361 560.34 344.45 560.739 343.541 564.203C342.632 567.668 338.183 565.92 337.646 565.277C337.11 564.633 339.041 563.178 340.648 563.314C340.648 563.314 339.146 562.486 339.361 560.34Z" fill="#3F4F20"/>
<path d="M352.459 572.499L358.232 593.698" stroke="#606D29" stroke-width="0.392734" stroke-linecap="round" stroke-linejoin="round"/>
<path d="M351.307 581.945L357.078 599.685" stroke="#606D29" stroke-width="0.392734" stroke-linecap="round" stroke-linejoin="round"/>
<path d="M303.831 582.277C303.831 582.277 299.7 581.338 300.639 577.054C300.639 577.054 305.084 576.44 303.831 582.277Z" fill="#606D29"/>
<path d="M310.91 577.844C310.91 577.844 308.371 573.739 311.649 571.779C311.649 571.779 313.566 572.321 313.383 575.282C313.383 575.282 315.396 573.825 316.33 576.206C316.33 576.206 314.753 578.187 310.91 577.844Z" fill="#606D2A"/>
<path d="M73.5613 600.465C70.3229 581.714 61.5961 580.08 61.5961 580.08L56.7519 582.63L58.8285 577.262C53.4654 573.103 46.027 571.163 46.027 571.163L42.9115 574.938V571.163C33.7431 569.396 21.806 573.103 21.806 573.103V576.913L20.2834 574.938C9.1497 579.63 4.6475 592.929 2.94922 600.465H55.5197C55.3247 599.736 55.2996 598.972 55.4465 598.232C55.5934 597.493 55.9084 596.796 56.3669 596.198C56.8255 595.599 57.4154 595.115 58.091 594.781C58.7667 594.447 59.5099 594.274 60.2632 594.274C61.0165 594.274 61.7598 594.447 62.4354 594.781C63.1111 595.115 63.701 595.599 64.1595 596.198C64.6181 596.796 64.933 597.493 65.0799 598.232C65.2268 598.972 65.2018 599.736 65.0067 600.465H73.5613ZM24.4776 586.646C24.1975 586.646 23.9237 586.563 23.6907 586.408C23.4577 586.252 23.276 586.031 23.1686 585.772C23.0612 585.513 23.0329 585.228 23.0874 584.952C23.1418 584.677 23.2764 584.425 23.4743 584.226C23.6721 584.028 23.9244 583.892 24.199 583.837C24.4736 583.782 24.7584 583.81 25.0172 583.917C25.276 584.025 25.4973 584.206 25.6531 584.439C25.8089 584.672 25.8921 584.946 25.8924 585.227C25.8925 585.413 25.8561 585.597 25.785 585.77C25.714 585.942 25.6099 586.098 25.4785 586.23C25.3471 586.362 25.1911 586.466 25.0193 586.538C24.8476 586.609 24.6635 586.646 24.4776 586.646V586.646Z" fill="#3F4F20"/>
<path d="M17.7338 569.231C17.7338 569.231 21.6984 569.542 20.9898 572.241C20.2812 574.94 16.8156 573.578 16.3974 573.076C15.9793 572.574 17.4843 571.442 18.7399 571.551C18.7364 571.549 17.5663 570.903 17.7338 569.231Z" fill="#3F4F20"/>
<path d="M60.0639 577.661C60.0639 577.661 58.7405 574.226 63.8587 573.866C63.8587 573.866 64.1234 578.721 60.0639 577.661Z" fill="#3F4F20"/>
<path d="M49.0839 576.906L43.25 595.217" stroke="#606D29" stroke-width="0.392734" stroke-linecap="round" stroke-linejoin="round"/>
<path d="M49.0854 584.507L47.3848 589.618" stroke="#606D29" stroke-width="0.392734" stroke-linecap="round" stroke-linejoin="round"/>
<path d="M27.9375 578.703L32.4338 595.217" stroke="#606D29" stroke-width="0.392734" stroke-linecap="round" stroke-linejoin="round"/>
<path d="M27.0391 586.062L31.5366 599.881" stroke="#606D29" stroke-width="0.392734" stroke-linecap="round" stroke-linejoin="round"/>
<path d="M272.414 534.514C272.414 534.514 276.37 543.77 276.444 547.347C276.518 550.925 275.12 555.311 272.723 557.661C270.327 560.01 277.291 562 278.329 556.994C278.329 556.994 279.233 555.195 280.056 553.901C280.294 553.527 280.452 553.107 280.518 552.669C280.585 552.23 280.559 551.782 280.443 551.354C280.158 550.298 279.835 548.849 279.81 547.643C279.768 545.466 280.074 535.193 280.074 535.193L272.414 534.514Z" fill="#170A08"/>
<path d="M284.031 536.156C284.031 536.156 286.374 540.379 286.552 542.415C286.73 544.451 286.148 556.739 288.543 555.494C290.938 554.248 292.291 552.024 291.745 548.058C291.417 545.671 290.941 543.307 290.318 540.98L290.084 534.271L284.031 536.156Z" fill="#170A08"/>
<path d="M289.171 451.708C289.171 451.708 288.288 455.636 291.724 458.204C295.161 460.771 297.283 464.06 294.184 464.597C291.085 465.134 282.12 464.272 283 459.822C283.879 455.372 283.515 449.775 283.515 449.775L289.171 451.708Z" fill="#F1B380"/>
<path d="M277.568 450.921C277.568 450.921 277.587 453.588 277.009 455.378C276.476 457.02 271.345 459.325 272.635 462.351C273.926 465.377 280.868 466.38 281.274 459.221C281.681 452.063 277.568 450.921 277.568 450.921Z" fill="#F1B380"/>
<path d="M280.195 459.752C280.195 459.752 281.426 462.918 283.504 462.253C285.582 461.588 283.885 455.372 283.885 455.372L280.195 459.752Z" fill="#D34A28"/>
<path d="M272.428 483.243C272.428 483.243 265.824 496.59 265.971 505.338C266.119 514.085 267.924 536.011 273.657 536.92C279.39 537.829 291.725 536.817 291.748 534.512C291.77 532.207 288.061 520.907 289.218 513.25C290.375 505.593 290.111 488.984 287.995 484.939C285.878 480.894 272.428 483.243 272.428 483.243Z" fill="#025B95"/>
<path d="M289.62 476.061C289.641 479.626 289.645 483.71 289.571 484.938C289.552 485.252 289.273 485.502 288.801 485.696C285.792 486.94 274.897 485.931 273.066 484.92C270.948 483.747 272.426 477.743 272.426 477.743C270.022 476.224 272.426 470.153 272.426 470.153C274.237 467.104 275.916 464.222 276.777 462.742L277.38 461.703C277.615 460.686 280.191 459.751 280.191 459.751L280.755 460.748L280.966 461.121C282.605 463.115 283.932 461.989 283.932 461.989L285.381 462.357L294.008 464.553L294.183 464.597L289.567 470.153C289.567 470.153 289.604 472.904 289.62 476.061Z" fill="#FBB040"/>
<path d="M294.012 464.554C293.881 464.592 293.741 464.627 293.593 464.656C289.872 465.403 286.891 463.579 285.385 462.358L294.012 464.554Z" fill="#F49C3B"/>
<path d="M285.658 469.312L288.924 471.304L290.271 469.312L289.657 475.086L286.198 472.198L285.658 469.312Z" fill="#F49C3B"/>
<path d="M278.658 450.921C278.658 450.921 276.386 460.333 281.204 459.801C286.021 459.268 285.593 453.954 285.593 453.954L284.742 450.921H278.658Z" fill="#F78C68"/>
<path d="M284.14 456.465C284.14 456.465 284.346 460.832 283.518 464.572C283.518 464.572 285.86 464.862 286.791 463.502C287.722 462.141 288.227 458.032 287.328 456.845C286.428 455.658 284.287 455.344 284.14 456.465Z" fill="#F78C68"/>
<path d="M289.625 482.618C289.613 482.797 289.464 482.969 289.297 483.115C289.168 483.217 289.021 483.292 288.863 483.336C288.705 483.381 288.54 483.394 288.378 483.374C285.326 483.064 280.706 476.531 280.195 474.689C280.026 474.074 283.577 476.406 284.161 476.15L287.841 474.54C288.036 474.455 288.248 474.419 288.46 474.437C288.671 474.455 288.875 474.525 289.052 474.642C289.23 474.758 289.376 474.917 289.476 475.104C289.577 475.291 289.63 475.5 289.63 475.713C289.64 478.697 289.686 481.609 289.625 482.618Z" fill="#F49C3B"/>
<path d="M263.623 491.764C263.613 491.445 263.587 491.127 263.544 490.811C263.433 489.977 263.524 489.129 263.811 488.339C264.098 487.549 264.572 486.841 265.192 486.274C266.238 485.291 267.346 485.194 268.248 485.382C268.78 485.501 269.284 485.725 269.728 486.042C270.172 486.358 270.549 486.761 270.835 487.226C271.876 488.868 273.51 492.462 271.357 496.477C268.47 501.86 263.858 500.459 263.623 491.764Z" fill="#F7941E"/>
<path d="M286.63 469.703L289.315 473.012L289.57 470.154L294.186 464.598C294.186 464.598 295.826 468.553 295.169 471.663C294.512 474.774 291.265 482.376 287.798 481.716C284.332 481.056 280.668 475.265 280.668 475.265L286.63 469.703Z" fill="#FBB040"/>
<path d="M277.38 461.703C277.38 461.703 273.108 461.727 269.78 468.051C266.453 474.375 264.744 477.997 264.861 481.757C264.978 485.517 265.19 486.274 265.19 486.274C265.19 486.274 268.403 485.603 270.146 486.274L271.117 478.966C271.117 478.966 271.443 476.225 272.979 473.988C274.514 471.751 277.38 461.703 277.38 461.703Z" fill="#FBB040"/>
<path d="M283.514 464.572C283.514 464.572 275.733 466.648 276.094 470.798C276.455 474.948 279.374 476.193 279.374 476.193L288.428 469.716C288.428 469.716 288.807 465.786 287.799 464.645C286.792 463.504 283.514 464.572 283.514 464.572Z" fill="#F7941D"/>
<path d="M259.288 501.929L233.096 528.349L233.209 528.846L259.747 502.271L259.288 501.929Z" fill="#140A08"/>
<path d="M277.658 450.33C277.658 450.33 279.922 444.133 282.143 444.429C284.363 444.726 285.614 444.958 286.594 444.805C287.573 444.651 289.198 446.799 289.31 448.706C289.421 450.613 289.565 452.42 289.565 452.42L277.658 450.33Z" fill="#FB461E"/>
<path d="M259.091 501.768L260.009 502.608C260.058 502.653 260.115 502.687 260.178 502.709C260.241 502.73 260.307 502.737 260.373 502.731C260.439 502.725 260.502 502.705 260.56 502.672C260.617 502.639 260.667 502.595 260.706 502.541L267.023 494.033L265.525 492.477L259.021 500.96C258.929 501.079 258.886 501.228 258.899 501.378C258.912 501.527 258.98 501.667 259.091 501.768V501.768Z" fill="#140A08"/>
<path d="M227.75 541.219C227.75 541.219 230.077 543.269 229.891 545.65C229.705 548.031 229.476 549.738 229.476 549.738C229.866 550.496 229.981 551.367 229.803 552.201C229.803 552.201 228.151 551.892 227.812 553.672L232.075 553.398C232.075 553.398 231.373 549.505 231.749 548.296C232.125 547.087 232.628 545.308 231.541 540.64L227.75 541.219Z" fill="#CCCBC6"/>
<path d="M248.148 540.53C248.148 540.53 247.145 542.456 248.367 543.958C249.139 544.885 250.088 545.648 251.158 546.204L249.294 552.292L246.322 552.482C246.322 552.482 246.106 550.871 248.143 551.022C248.143 551.022 249.9 549.387 248.621 547.494C247.342 545.601 244.682 546.224 243.128 543.052C241.574 539.881 242.682 536.072 242.682 536.072L248.148 540.53Z" fill="#E6E7E8"/>
<path d="M251.625 534.766C251.625 534.766 252.796 539.223 254.202 540.933C254.965 541.864 255.765 543.1 256.336 544.035C256.382 544.106 256.401 544.191 256.39 544.274C256.378 544.358 256.337 544.435 256.274 544.491C256.211 544.547 256.129 544.578 256.045 544.579C255.961 544.58 255.879 544.55 255.814 544.496C254.697 543.615 253.015 542.009 251.343 539.367C248.46 534.815 251.625 534.766 251.625 534.766Z" fill="#E6E7E8"/>
<path d="M228.949 521.233C228.949 521.233 230.744 518.467 231.962 517.262C233.18 516.056 233.916 516.12 234.268 516.323C234.619 516.526 233.667 522.792 233.601 523.529C233.536 524.267 230.924 525.054 230.924 525.054L228.949 521.233Z" fill="#A97C50"/>
<path d="M224.052 522.166C224.052 522.166 221.921 519.651 220.559 518.611C219.197 517.571 218.475 517.729 218.153 517.975C217.831 518.222 219.571 524.309 219.731 525.037C219.89 525.766 222.581 526.21 222.581 526.21L224.052 522.166Z" fill="#A97C50"/>
<path d="M225.854 536.419C226.751 536.361 227.057 537.994 228.206 538.815C228.148 537.917 228.295 536.244 228.686 535.316C230.6 540.037 236.356 541.734 240.632 541.191C240.036 541.432 239.454 541.709 238.891 542.021C236.065 543.611 235.035 544.242 232.052 544.263C229.88 544.28 224.59 539.705 224.26 535.862C224.391 535.528 225.539 536.685 225.854 536.419Z" fill="#C49A6C"/>
<path d="M255.465 551.897L252.099 552.112C252.099 552.112 252.03 550.143 253.947 550.189C253.947 550.189 253.571 546.942 251.385 545.334C249.198 543.726 246.004 539.587 246.004 539.587C246.004 539.587 243.193 540.137 240.628 541.19C236.355 541.733 231.128 541.559 229.215 536.838C228.823 537.766 228.881 538.664 228.938 539.562C227.592 539.649 227.478 537.852 226.579 537.91C226.27 538.175 225.606 538.788 225.478 539.12C224.635 537.909 224.307 536.524 224.106 535.094C223.963 534.069 223.81 533.166 223.656 532.355C223.485 531.464 223.312 530.683 223.142 529.969C222.702 528.108 222.3 526.703 222.088 524.991C221.729 522.024 223.793 520.82 226.081 520.504C228.087 520.227 231.033 521.315 232.139 524.516C232.538 525.673 232.807 526.491 232.985 527.063C233.124 527.474 233.242 527.893 233.336 528.317L233.39 528.332L233.456 528.35L233.642 528.4C234.008 528.499 234.686 528.672 235.561 528.869C237.12 529.223 238.696 529.494 240.283 529.681C240.944 529.756 241.614 529.812 242.274 529.84C246.509 530.02 250.079 530.355 252.064 535.868C252.064 535.868 252.673 540.115 252.532 543.114C252.669 543.995 253.144 544.787 253.857 545.321C254.207 545.587 254.443 545.976 254.515 546.41L255.465 551.897Z" fill="#F5F5F5"/>
<path d="M231.883 540.07C231.883 540.07 235.573 542.917 235.387 545.298C235.201 547.679 234.974 549.385 234.974 549.385C235.362 550.144 235.477 551.014 235.299 551.848C235.299 551.848 233.647 551.541 233.308 553.32L237.572 553.047C237.572 553.047 236.869 549.153 237.245 547.945C237.621 546.737 238.124 544.955 237.037 540.288L231.883 540.07Z" fill="#F5F5F5"/>
<path d="M226.086 520.504C226.086 520.504 226.918 522.059 228.045 522.664C227.779 522.937 227.572 523.264 227.438 523.622C227.304 523.98 227.246 524.362 227.268 524.743C227.268 524.743 230.055 525.916 230.251 528.387C230.251 528.387 231.7 528.052 231.592 526.459C231.484 524.866 231.963 523.916 231.963 523.916C231.963 523.916 230.359 520.087 226.086 520.504Z" fill="#C49A6C"/>
<path d="M225.538 520.528C225.538 520.528 224.975 521.694 224.268 522.379C223.56 523.064 223.246 523.272 223.246 523.272C223.246 523.272 224.209 523.059 224.535 524.093C224.86 525.126 223.49 526.304 223.47 526.755C223.45 527.207 224.152 528.178 224.152 528.178C224.152 528.178 223.853 528.198 224.003 528.789C224.153 529.38 225.734 530.857 225.734 530.857C225.734 530.857 224.783 530.651 223.368 531.114C223.368 531.114 223.251 530.62 223.078 529.903C222.773 528.613 222.309 526.586 222.108 525.415C221.797 523.591 221.763 521.295 225.538 520.528Z" fill="#C49A6C"/>
<path d="M242.287 529.844C243.851 529.91 245.324 529.998 246.66 530.36C247.651 531.204 247.874 532.605 246.61 533.393C245.346 534.181 243.204 531.897 240.754 529.733C241.266 529.784 241.779 529.823 242.287 529.844Z" fill="#C49A6C"/>
<path d="M238.015 535.881C235.254 535.567 237.402 530.853 235.57 528.872C237.129 529.226 238.705 529.497 240.292 529.684C241.608 531.715 240.56 536.171 238.015 535.881Z" fill="#C49A6C"/>
<path d="M225.357 526.778C225.514 526.768 225.662 526.701 225.773 526.591C226.007 526.356 226.383 525.96 226.416 525.782C226.463 525.527 226.156 525.251 225.362 525.28C224.568 525.31 224.326 525.58 224.265 525.858C224.223 526.049 224.639 526.422 224.902 526.634C225.029 526.737 225.19 526.789 225.353 526.778H225.357Z" fill="#140A08"/>
<path d="M228.856 525.186C229.337 525.186 229.727 524.795 229.727 524.313C229.727 523.831 229.337 523.44 228.856 523.44C228.375 523.44 227.984 523.831 227.984 524.313C227.984 524.795 228.375 525.186 228.856 525.186Z" fill="#140A08"/>
<path d="M223.34 525.539C223.821 525.539 224.212 525.149 224.212 524.667C224.212 524.185 223.821 523.794 223.34 523.794C222.859 523.794 222.469 524.185 222.469 524.667C222.469 525.149 222.859 525.539 223.34 525.539Z" fill="#140A08"/>
<path d="M283.513 450.24C283.513 450.24 272.55 448.63 272.424 450.921C272.297 453.212 278.12 453.433 278.12 453.433C278.12 453.433 277.628 450.819 281.859 451.13C283.59 451.259 285.301 451.578 286.962 452.082C287.546 452.26 288.072 452.589 288.487 453.037C288.902 453.484 289.191 454.034 289.325 454.63C289.457 455.216 289.654 455.83 289.938 456.227C290.661 457.232 294.116 456.841 293.283 455.372C292.451 453.904 291.44 451.868 283.513 450.24Z" fill="#D82E12"/>
<path d="M266.843 489.749C266.677 489.734 266.51 489.752 266.351 489.802C266.192 489.852 266.044 489.934 265.917 490.041C265.789 490.149 265.685 490.281 265.609 490.43C265.533 490.578 265.487 490.741 265.474 490.907C265.357 492.44 265.537 495.155 268.695 493.533C272.086 491.791 268.901 489.944 266.843 489.749Z" fill="#D34A28"/>
<path d="M233.649 528.403C233.574 528.509 230.079 533.466 223.655 532.355C223.484 531.463 223.31 530.682 223.141 529.969C224.32 530.924 227.208 531.899 232.988 527.062L233.34 528.316L233.394 528.332L233.459 528.349L233.649 528.403Z" fill="#140A08"/>
<path d="M280.758 460.748C279.938 461.921 278.325 462.484 276.775 462.742L277.379 461.703C277.613 460.686 280.19 459.751 280.19 459.751L280.758 460.748Z" fill="#F49C3B"/>
<path d="M6.81985 539.668C6.44974 541.453 5.79735 543.389 5.22111 544.578C4.94001 545.164 4.6765 545.563 4.4727 545.68C4.00421 545.946 2.5472 545.369 1.8351 545.061C1.71756 545.01 1.61744 544.926 1.54709 544.819C1.47675 544.712 1.43923 544.586 1.43921 544.458V543.884C1.43916 543.849 1.4293 543.814 1.4107 543.784C1.3921 543.754 1.36549 543.729 1.33384 543.713C1.30218 543.697 1.26671 543.69 1.23135 543.693C1.196 543.696 1.16214 543.709 1.13353 543.73L0.710707 544.044C0.624378 544.108 0.52079 544.144 0.413554 544.148C0.306318 544.151 0.200464 544.123 0.109881 544.065C-1.30965 543.156 -7.14355 539.343 -7.14003 538.039C-7.14583 537.854 -7.10893 537.671 -7.03226 537.503C-6.62936 536.695 -5.1173 537.13 -3.05009 537.825C-0.630333 538.646 0.421417 536.839 0.421417 536.839C0.421417 536.839 7.45465 536.632 6.81985 539.668Z" fill="#ECECEC"/>
<path d="M19.4589 491.868C19.4589 491.868 17.8051 507.272 12.606 515.145L7.45261 539.323C7.37957 539.671 7.17443 539.976 6.8805 540.175C6.58656 540.375 6.22686 540.452 5.87732 540.39C3.71767 540 1.73446 538.941 0.206243 537.364C-0.114138 537.034 -0.361894 536.64 -0.521057 536.208C-0.680219 535.776 -0.747274 535.316 -0.717872 534.856C-0.454346 530.751 0.523642 518.16 2.89655 512.027C5.75317 504.638 15.0351 490.989 15.0351 490.989L19.4589 491.868Z" fill="#160907"/>
<path d="M20.5002 553.037C20.5002 554.926 16.0273 557.314 12.311 557.873C9.47192 558.3 8.60521 557.404 8.41313 556.26C8.36054 555.899 8.35307 555.532 8.39088 555.168C8.52323 553.624 11.1807 554.207 11.2803 552.833C11.3798 551.46 12.0533 549.802 11.6551 549.515C11.2569 549.228 10.9067 547.134 10.9067 547.134L14.4344 542.943L17.5815 545.68C17.5815 545.68 18.7937 547.946 19.6557 550.064C20.1324 551.237 20.5026 552.364 20.5002 553.037Z" fill="#ECECEC"/>
<path d="M-0.753906 493.514C-0.753906 493.514 1.10952 508.057 2.72932 516.121C4.34913 524.185 10.9057 547.134 10.9057 547.134C10.9057 547.134 14.9569 543.883 17.5817 545.68C17.5817 545.68 16.8789 523.762 13.6534 518.639L13.3934 504.54L15.135 493.397L-0.753906 493.514Z" fill="#14192F"/>
<path d="M2.24089 472.943V472.988L1.83682 477.37L1.82158 477.536L1.76536 477.618L0.283771 479.763L-9.21607 493.505L-9.77475 495.639C-9.72907 497.536 -11.7658 501.06 -11.6124 501.746C-11.459 502.432 -10.2491 502.684 -10.2491 502.684C-10.2491 502.684 -9.99259 503.592 -11.9345 503.326C-13.8764 503.06 -13.9256 500.276 -14.6365 498.517C-15.3474 496.758 -12.5423 492.235 -12.5423 492.235L-6.52808 478.93L-5.1683 475.921L2.14132 472.989L2.24089 472.943Z" fill="#F78C68"/>
<path d="M2.23772 472.988L1.83365 477.37L1.76219 477.618L0.280599 479.762L-6.50666 478.985L-6.53125 478.931L-5.17147 475.922L2.13818 472.985L2.23772 472.988Z" fill="#D34A28"/>
<path d="M1.62541 446.76C1.62541 446.76 1.23305 448.414 1.62541 449.158C2.01777 449.903 0.259766 451.387 0.259766 451.387L0.971852 452.404C0.971852 452.404 1.44036 456.861 3.47478 455.859C4.24857 455.491 4.90248 454.911 5.36078 454.187C5.81908 453.462 6.06302 452.622 6.06435 451.764C6.06435 451.764 8.27565 449.72 6.50241 448.499C4.72918 447.278 1.62541 446.76 1.62541 446.76Z" fill="#F78C68"/>
<path d="M9.88759 451.826V454.603L4.90401 456.714C4.62526 456.245 4.14388 456.074 3.73278 456.01C3.48064 455.975 3.2248 455.975 2.97266 456.01L6.31065 449.863L9.88759 451.826Z" fill="#F78C68"/>
<path d="M9.88723 454.288V454.605L4.90365 456.716C4.6249 456.247 4.14352 456.076 3.73242 456.012C4.96338 455.584 8.59302 454.363 9.88723 454.288Z" fill="#D34A28"/>
<path d="M22.5066 473.7C22.2267 477.644 21.8191 481.716 21.4291 485.186C21.182 487.394 20.9419 489.359 20.7475 490.891C20.6158 491.919 20.1722 492.882 19.4766 493.649C18.781 494.417 17.8669 494.952 16.8578 495.182C13.3945 495.976 7.95649 496.884 3.59484 496.078C2.21982 495.825 0.952532 495.4 -0.112113 494.748C-0.321051 494.62 -0.491198 494.438 -0.60428 494.22C-0.717363 494.002 -0.769105 493.758 -0.753944 493.513L0.262702 477.093C0.262702 477.093 3.02211 470.594 3.62529 467.745C3.72602 467.276 3.767 466.909 3.72835 466.682C3.49996 465.342 2.35919 462.411 0.427835 462.026C0.0170911 461.946 -0.407759 461.979 -0.800781 462.123C-0.644435 461.867 -0.470691 461.622 -0.280763 461.389C0.233406 460.747 1.11769 459.828 2.33694 459.244C2.77839 459.027 3.24613 458.87 3.72835 458.775C5.85764 458.364 11.298 456.225 15.792 456.8C17.0429 456.96 18.22 457.331 19.2307 458.009C19.5668 458.233 19.8806 458.49 20.1677 458.775C20.1677 458.775 23.2094 463.813 22.5066 473.7Z" fill="#025B95"/>
<path d="M-0.800661 462.126L-7.05969 473.218C-7.27967 473.605 -7.38232 474.047 -7.35507 474.491C-7.32782 474.935 -7.17187 475.362 -6.90628 475.719C-5.99507 476.924 -3.9981 478.245 0.262822 477.095C7.24802 475.211 5.33189 457.104 -0.800661 462.126Z" fill="#025B95"/>
<path opacity="0.32" d="M21.43 485.186C21.1829 487.394 20.9427 489.359 20.7483 490.891C20.6167 491.919 20.1731 492.882 19.4775 493.649C18.7819 494.417 17.8678 494.952 16.8587 495.182C13.3954 495.976 7.95735 496.884 3.5957 496.078C5.66878 489.634 4.71306 472.297 4.71306 472.297L21.43 485.186Z" fill="#002E55"/>
<path opacity="0.32" d="M7.76354 468.73C7.76354 468.73 6.37447 485.048 4.92214 473.718C4.61411 471.317 4.15732 469.353 3.62676 467.747C2.64644 464.775 1.41782 463.031 0.429302 462.028C0.20725 461.801 -0.02946 461.588 -0.279297 461.391C0.234872 460.75 1.11916 459.83 2.33841 459.246L4.54267 461.249L7.76354 468.73Z" fill="#002E55"/>
<path d="M24.9842 479.679C24.9608 481.123 24.914 482.646 24.8343 484.188C24.456 491.489 21.7505 491.48 21.7505 491.48C17.3432 494.278 13.7651 495.016 10.9892 494.627C6.56201 494.005 4.17622 490.522 3.72764 487.955C3.14788 484.637 4.60137 474.173 5.21861 470.039C5.29753 469.515 5.4815 469.012 5.75944 468.56C6.03739 468.108 6.40359 467.717 6.83608 467.411C6.96364 467.32 7.09664 467.237 7.23431 467.162C12.0153 464.553 18.7018 464.889 20.7831 465.208C21.665 465.344 22.4544 466.053 23.0974 466.884C24.2305 468.37 24.867 470.176 24.9163 472.045C24.9749 473.803 25.0334 476.555 24.9842 479.679Z" fill="#ECECEC"/>
<path d="M3.72852 458.783C3.72852 458.783 3.96276 454.379 13.2471 453.875C14.4183 453.811 15.4982 454.603 15.7242 455.751C15.8102 456.188 15.7696 456.639 15.6071 457.053L3.72852 458.783Z" fill="#025B95"/>
<path opacity="0.32" d="M19.4576 458.783V464.748C19.4576 464.748 13.6764 470.366 15.9193 465.677C18.1622 460.988 15.6851 456.796 15.6851 456.796L15.7858 456.808C17.0367 456.968 18.2138 457.339 19.2245 458.017L19.4576 458.783Z" fill="#002E55"/>
<path d="M18.4144 465.23C18.6689 464.382 18.7875 463.498 18.7657 462.612C18.7657 462.399 18.754 462.187 18.7388 461.978C18.7318 461.883 18.7247 461.789 18.7153 461.695C18.5521 460.145 18.1548 458.629 17.5371 457.198C17.5886 457.198 18.9519 457.403 20.1618 458.783C20.8048 459.516 21.5486 461.58 22.1271 463.442C22.2033 463.685 22.2759 463.926 22.345 464.159C22.7947 465.666 23.1004 466.884 23.1004 466.884L18.4144 465.23Z" fill="#ECECEC"/>
<path d="M0.9375 460.153C0.9375 460.153 5.93628 463.437 5.66221 468.731L8.90768 467.042C8.90768 467.042 8.71443 460.583 3.72969 458.784C3.72969 458.783 1.68943 459.133 0.9375 460.153Z" fill="#ECECEC"/>
<path d="M10.9892 494.626C6.56201 494.004 4.17622 490.521 3.72764 487.954C3.14788 484.636 4.60137 474.172 5.21861 470.039C5.29753 469.514 5.4815 469.011 5.75944 468.559C6.03739 468.107 6.40359 467.717 6.83608 467.41C14.2792 468.662 11.5268 490.765 10.9892 494.626Z" fill="#D6D7D8"/>
<path d="M23.099 466.884L18.4141 465.23C18.6686 464.382 18.7872 463.498 18.7654 462.612C19.7247 463.05 21.1196 463.668 22.3447 464.159C22.7991 465.665 23.099 466.884 23.099 466.884Z" fill="#D6D7D8"/>
<path d="M24.985 479.679C24.6727 479.78 24.326 479.878 23.945 479.972C23.3816 480.11 22.7468 480.243 22.0382 480.374C20.614 480.638 18.8876 480.9 16.8181 481.215C16.3143 481.294 15.8053 481.333 15.2955 481.332C14.6307 481.337 13.9696 481.235 13.3372 481.03C9.00362 479.571 9.70637 473.262 9.3304 471.86C9.04345 470.785 6.50539 469.122 5.66211 468.729C5.98537 467.852 7.09806 467.235 7.23626 467.16C7.67781 466.92 8.13213 466.705 8.59721 466.514C9.15449 466.285 9.72376 466.086 10.3025 465.918C12.9963 465.132 15.8342 464.957 17.9741 464.996C18.8818 465.014 19.6618 465.07 20.2498 465.136C20.4524 465.159 20.6316 465.183 20.785 465.206C21.6669 465.342 22.4564 466.051 23.0994 466.882C24.2324 468.368 24.8689 470.174 24.9183 472.043C24.9757 473.802 25.0342 476.554 24.985 479.679Z" fill="#9B8579"/>
<path d="M-0.562771 445.38L1.49391 446.129L1.55482 446.522C1.57793 446.669 1.63498 446.808 1.72144 446.928C1.80789 447.048 1.92133 447.146 2.05259 447.214L4.53441 448.496H5.58852C5.82914 448.496 6.06586 448.557 6.2763 448.674C6.48674 448.791 6.66393 448.96 6.79114 449.164C6.91835 449.369 6.99139 449.602 7.00331 449.843C7.01524 450.084 6.96565 450.323 6.85928 450.539L6.82648 450.603C6.65686 450.929 6.62159 451.309 6.7282 451.661C6.83481 452.013 7.07483 452.309 7.39689 452.486L9.87053 453.833C9.87053 453.833 14.498 449.971 14.4219 448.073C14.3692 446.738 11.8815 442.662 10.4093 440.36C10.2868 440.169 10.1216 440.008 9.92663 439.892C9.73168 439.776 9.51236 439.706 9.28603 439.69C9.0597 439.673 8.83257 439.709 8.62258 439.795C8.4126 439.881 8.22556 440.015 8.0762 440.186L7.94032 440.342C7.7231 440.591 7.4404 440.773 7.12452 440.869C6.80865 440.964 6.47236 440.968 6.1542 440.881C5.1001 440.596 3.44868 440.257 2.24231 440.504C2.03879 440.549 1.85957 440.669 1.74054 440.84C1.62151 441.011 1.57148 441.221 1.60048 441.427L1.74571 442.505C1.77107 442.695 1.73879 442.887 1.65312 443.058C1.56746 443.229 1.43237 443.37 1.2655 443.462C0.310949 443.991 -1.43768 445.061 -0.562771 445.38Z" fill="#14192F"/>
<path d="M15.267 483.611L14.4682 483.802C14.3603 483.828 14.2482 483.83 14.1393 483.808C14.0305 483.787 13.9276 483.742 13.8375 483.677C13.7475 483.613 13.6725 483.529 13.6176 483.432C13.5627 483.336 13.5293 483.229 13.5195 483.118C13.4739 482.59 13.4106 481.863 13.3357 481.036C13.0815 478.221 12.7055 474.233 12.4971 472.943C12.2101 471.184 9.38745 467.516 8.5957 466.516C9.15298 466.286 9.72226 466.088 10.301 465.92C11.0038 466.701 12.428 468.314 13.1354 469.393C13.3367 469.705 13.5175 470.03 13.6765 470.366C14.2562 471.593 14.607 472.916 14.7118 474.27L15.2975 481.334L15.4626 483.341C15.4684 483.402 15.4517 483.463 15.4157 483.513C15.3797 483.562 15.3268 483.597 15.267 483.611V483.611Z" fill="#754C29"/>
<path d="M24.022 482.013C24.024 482.073 24.0047 482.131 23.9676 482.178C23.9305 482.225 23.878 482.257 23.8194 482.269L23.0113 482.425C22.9025 482.446 22.7904 482.443 22.6828 482.417C22.5751 482.39 22.4744 482.341 22.3875 482.272C22.3006 482.204 22.2295 482.117 22.1791 482.018C22.1287 481.919 22.1001 481.811 22.0954 481.7C22.079 481.34 22.0602 480.888 22.0368 480.375C22.0263 480.133 22.0146 479.877 22.0017 479.612C21.8717 476.784 21.6714 472.784 21.5191 471.495C21.3153 469.773 18.8019 466.153 17.9727 464.998C18.8804 465.016 19.6604 465.072 20.2483 465.138C20.9405 466.002 21.8201 467.147 22.3132 467.976C22.5003 468.297 22.6666 468.63 22.811 468.973C23.3356 470.224 23.6281 471.561 23.6742 472.917L23.9436 479.972V480L24.022 482.013Z" fill="#754C29"/>
<path d="M5.2211 544.577C4.94001 545.163 4.6765 545.562 4.4727 545.679C4.00421 545.946 2.5472 545.368 1.8351 545.06C1.71755 545.009 1.61744 544.925 1.54709 544.818C1.47675 544.711 1.43923 544.585 1.43921 544.457V543.884C1.43915 543.848 1.4293 543.813 1.4107 543.783C1.39209 543.753 1.36549 543.728 1.33384 543.712C1.30218 543.696 1.26671 543.689 1.23135 543.692C1.196 543.695 1.16214 543.708 1.13353 543.729L0.710706 544.043C0.624377 544.107 0.520789 544.143 0.413553 544.147C0.306317 544.151 0.200463 544.122 0.10988 544.064C-1.30965 543.155 -7.14355 539.342 -7.14003 538.038C-7.14583 537.853 -7.10893 537.67 -7.03226 537.502C-5.9032 538.273 3.74887 544.822 5.2211 544.577Z" fill="#160907"/>
<path d="M20.4992 553.037C20.4992 554.925 16.0263 557.313 12.31 557.873C9.4709 558.3 8.60419 557.404 8.41211 556.26L11.8614 554.658L12.7831 552.848C13.1953 552.035 13.8732 551.388 14.7039 551.015C16.1328 550.376 18.3804 549.559 19.6535 550.065C20.1314 551.237 20.5015 552.364 20.4992 553.037Z" fill="#160907"/>
<path d="M172.095 376.855C172.095 376.855 174.906 378.263 174.906 380.954C174.906 383.644 179.234 399.317 179.234 399.317C179.234 399.317 177.68 403.657 172.089 404.034C166.498 404.41 172.095 376.855 172.095 376.855Z" fill="#4FC1AE"/>
<path d="M172.096 379.805L175.743 403.047L168.869 406.748L172.096 379.805Z" fill="#02B5A5"/>
<path d="M175.678 350.339C175.678 350.339 174.838 354.733 177.021 360.512C179.205 366.291 179.169 371.264 170.924 376.856C162.678 382.448 150.471 367.355 157.474 356.303C164.476 345.251 171.417 342.852 171.417 342.852L175.678 350.339Z" fill="#14192F"/>
<path d="M144.416 347.049C144.416 347.049 125.894 362.048 140.719 371.89C152.674 379.827 157.467 356.303 157.467 356.303L151.461 341.189L144.416 347.049Z" fill="#14192F"/>
<path d="M189.09 569.21C187.311 575.716 176.422 574.019 176.422 574.019C176.241 571.589 175.913 569.173 175.44 566.783C174.818 563.606 174.164 561.505 174.164 561.505C174.164 561.505 177.804 555.757 180.541 555.171C181.423 554.98 182.213 555.328 182.755 556.578C182.918 556.966 183.045 557.368 183.134 557.78C183.459 559.213 183.899 560.618 184.451 561.98C186.419 566.838 189.09 569.21 189.09 569.21Z" fill="#F78C68"/>
<path d="M184.451 561.988C183.419 565.667 178.02 566.568 175.44 566.787C174.818 563.611 174.164 561.509 174.164 561.509C174.164 561.509 177.804 555.762 180.541 555.176C181.345 555.532 182.092 556.006 182.755 556.583C182.918 556.971 183.045 557.373 183.134 557.784C183.459 559.219 183.899 560.625 184.451 561.988V561.988Z" fill="#D34A28"/>
<path d="M122.433 561.797C121.659 568.107 123.146 569.433 123.146 569.433C120.693 572.813 110.965 567.567 110.965 567.567C111.795 565.701 112.499 563.081 113.026 560.726C113.703 557.709 114.091 555.129 114.091 555.129C114.091 555.129 118.475 552.218 121.228 552.489C122.335 552.598 123.18 553.222 123.367 554.757C123.457 555.492 123.396 556.439 123.142 557.637C122.809 559.22 122.587 560.598 122.433 561.797Z" fill="#F78C68"/>
<path d="M123.145 557.637C122.809 559.22 122.581 560.598 122.433 561.797C119.42 562.409 115.182 561.365 113.029 560.726C113.706 557.709 114.094 555.129 114.094 555.129C114.094 555.129 118.478 552.218 121.231 552.489C121.983 553.207 122.697 553.964 123.37 554.757C123.46 555.492 123.399 556.439 123.145 557.637Z" fill="#D34A28"/>
<path d="M184.608 560.27C182.249 562.391 177.302 563.368 174.201 563.789C173.462 563.889 172.712 563.711 172.097 563.289C171.482 562.866 171.045 562.231 170.872 561.504L153.314 487.913L150.394 475.677L147.425 482.813L145.245 488.053L140.091 500.432L125.352 556.901C125.14 557.716 124.682 558.445 124.042 558.992C123.402 559.539 122.61 559.875 121.773 559.957C116.233 560.494 112.567 558.719 110.495 557.176C109.845 556.688 109.353 556.017 109.084 555.249C108.815 554.481 108.781 553.649 108.984 552.861L123.562 496.057L126.227 444.864L126.344 442.51L126.433 440.81L137.571 441.354L169.994 442.937L174.416 495.261L185.512 557.541C185.605 558.035 185.57 558.545 185.412 559.023C185.254 559.5 184.977 559.929 184.608 560.27Z" fill="#4FC1AE"/>
<path d="M170.031 347.069C170.031 347.069 173.415 345.828 173.039 348.413C172.663 350.998 171.144 354.85 168.659 353.698C166.173 352.547 170.031 347.069 170.031 347.069Z" fill="#F78C68"/>
<path d="M169.611 348.963C169.611 348.963 171.963 346.347 172.657 348.391L169.611 348.963Z" fill="#D34A28"/>
<path d="M187.672 473.819C187.672 473.819 186.097 473.605 187.745 467.577L184.662 462.699L185.73 467.219C185.73 467.219 187.17 469.586 186.381 471.452C186.381 471.452 185.593 472.528 184.591 469.802C183.588 467.076 180.865 464.493 180.865 464.493L179.928 459.542L179.218 458.226L178.212 456.363L168.465 438.301C168.465 438.301 167.006 433.178 165.827 427.189C164.526 420.576 163.567 412.907 165.291 409.915C168.571 404.211 174.045 403.377 174.045 403.377C174.045 403.377 173.763 406.869 173.708 411.08C173.659 414.754 173.784 418.977 174.41 421.91C175.519 427.052 180.427 445.199 182.188 451.676C182.6 453.189 183.306 454.606 184.266 455.845L184.302 455.891C186.645 458.924 190.978 464.625 191.026 465.565C191.112 466.861 187.672 473.819 187.672 473.819Z" fill="#F78C68"/>
<path d="M158.25 380.852C150.972 383.485 147.566 365.093 147.566 365.093C149.273 364.021 150.463 362.974 151.286 361.999C153.972 358.815 152.741 356.396 152.741 356.396C152.741 356.396 164.068 353.591 163.314 357.44C163.034 358.872 163.431 361.529 163.741 364.571C164.376 370.753 164.669 378.53 158.25 380.852Z" fill="#F78C68"/>
<path d="M174.053 403.385C174.053 403.385 173.77 406.876 173.715 411.088C172.96 412.639 171.356 416.262 168.05 424.686C167.192 426.872 166.46 427.573 165.835 427.197C164.534 420.584 163.575 412.914 165.299 409.922C168.584 404.215 174.053 403.385 174.053 403.385Z" fill="#D34A28"/>
<path d="M163.74 364.571C157.022 370.256 152.875 364.871 151.285 361.999C153.971 358.815 152.74 356.396 152.74 356.396C152.74 356.396 164.067 353.591 163.312 357.44C163.033 358.872 163.427 361.529 163.74 364.571Z" fill="#D34A28"/>
<path d="M170.923 346.852C170.923 349.046 169.858 354.225 167.282 358.374C165.374 361.447 162.637 363.956 158.89 364.273C153.242 364.751 150.91 357.451 149.964 352.153C149.648 350.401 149.439 348.63 149.339 346.852C149.005 339.489 154.548 334.584 162.24 332.099C169.931 329.615 170.923 343.035 170.923 346.852Z" fill="#F78C68"/>
<path d="M170.001 442.936C161.967 449.702 132.974 448.519 132.974 448.519L126.23 444.863L122.674 442.936C122.674 442.936 124.056 442.767 126.351 442.509C129.071 442.204 133.073 441.774 137.578 441.353L170.001 442.936Z" fill="#02B5A5"/>
<path d="M174.053 403.385C174.053 403.392 174.053 403.398 174.053 403.404C172.78 408.026 168.07 418.382 168.07 422.183C168.07 423.03 168.064 423.879 168.056 424.686C168.046 425.637 168.031 426.532 168.015 427.3C167.986 428.812 167.956 429.834 167.956 429.834L169.697 440.956L170.008 442.94C135.773 449.205 126.447 440.812 126.447 440.812L129.536 431.333L131.563 425.117L133.881 420.905C133.881 420.905 135.343 419.624 134.186 418.831C133.028 418.038 133.15 417.424 134.303 415.899C135.455 414.374 135.942 409.189 135.034 405.895C134.182 402.826 133.745 398.134 133.695 397.506C133.695 397.46 133.689 397.435 133.689 397.435L139.591 383.257C139.591 383.257 140.329 371.21 130.493 374.165L144.848 366.541L147.567 365.098C147.567 365.098 153.252 376.656 157.471 377.391C161.69 378.125 164.03 368.18 164.03 368.18L166.436 370.771L172.091 376.861V387.587C172.091 387.587 175.32 398.768 174.053 403.385Z" fill="#4FC1AE"/>
<path d="M135.532 443.623V447.317C135.532 451.013 132.936 455.058 125.013 460.077C117.091 465.096 110.064 463.578 106.083 463.428C105.98 463.428 105.879 463.42 105.781 463.403C102.572 463.008 102.456 458.333 102.475 457.187C102.475 457.028 102.484 456.937 102.484 456.937C97.1687 457.282 97.0141 453.395 97.1534 450.227C97.2928 447.059 94.4174 439.647 94.4174 439.647C91.152 439.177 92.7777 433.726 92.7777 433.726L98.1009 429.826C94.3788 419.073 96.4741 411.026 101.966 403.042C107.458 395.058 116.282 395.566 116.282 395.566C116.282 395.566 118.445 397.826 120.569 400.265C122.157 402.091 123.723 404.018 124.339 405.172C125.778 407.87 126.65 417.253 126.65 417.253L127.888 424.63C129.099 431.843 131.87 437.287 131.997 437.526V437.534L135.345 443.31L135.532 443.623Z" fill="#FB461E"/>
<path d="M111.183 396.934C111.183 396.934 107.974 392.624 108.794 391.106C109.177 390.418 109.623 389.769 110.127 389.165C110.351 388.89 110.655 388.693 110.997 388.601C111.338 388.508 111.7 388.525 112.031 388.65C113.143 389.073 114.725 389.96 115.132 391.66C115.785 394.354 119.374 400.118 111.183 396.934Z" fill="#FB461E"/>
<path d="M116.768 447.218C114.864 448.995 107.571 455.321 102.479 457.188C102.479 457.029 102.488 456.938 102.488 456.938C97.1725 457.283 97.0179 453.396 97.1573 450.228C97.2967 447.06 94.4213 439.648 94.4213 439.648C91.156 439.178 92.7816 433.727 92.7816 433.727L98.1048 429.827C98.1048 429.827 106.186 423.867 111.73 426.191C117.273 428.514 118.785 445.336 116.768 447.218Z" fill="#D82E12"/>
<path d="M135.533 443.622V447.316C135.533 451.012 132.936 455.057 125.014 460.076C117.092 465.095 110.064 463.577 106.083 463.427C105.98 463.427 105.88 463.419 105.781 463.402C109.007 461.878 121.289 455.412 125.241 443.833L135.351 443.309L135.533 443.622Z" fill="#D82E12"/>
<path d="M131.997 437.525C131.796 437.173 125.357 426.031 123.565 422.485C121.743 418.88 119.829 408.496 119.829 408.496C119.683 404.49 119.986 401.878 120.57 400.269C122.158 402.095 123.724 404.022 124.34 405.176C125.779 407.874 126.651 417.257 126.651 417.257L127.889 424.634C129.099 431.843 131.874 437.281 131.997 437.525Z" fill="#D82E12"/>
<path d="M135.533 456.038L133.532 470.223C130.471 471.027 132.648 459.345 132.648 459.345L131.884 456.798L131.343 460.424C131.343 460.424 128.196 466.054 126.95 466.392C125.704 466.729 126.13 464.69 126.13 464.69L125.533 464.782C124.935 464.874 125.246 463.185 125.246 463.185C125.246 463.185 124.728 463.584 124.289 462.77C123.85 461.956 125.652 456.057 124.844 453.884C124.036 451.711 125.246 443.833 125.246 443.833L109.64 423.469C106.073 418.584 107.475 413.623 107.475 413.623L114.015 400.227L116.288 395.57L128.029 402.998L125.314 406.449L119.026 414.437C119.026 414.437 122.496 424.028 126.446 432.095C130.397 440.162 135.533 456.038 135.533 456.038Z" fill="#F78C68"/>
<path d="M166.44 370.766C165.699 373.71 163.781 379.618 159.963 381.557C155.427 383.86 146.854 369.945 144.846 366.536L147.564 365.092C147.564 365.092 153.249 376.651 157.468 377.385C161.687 378.119 164.027 368.174 164.027 368.174L166.44 370.766Z" fill="#049E8B"/>
<path d="M143.637 383.253H151.284V386.761H142.029L143.637 383.253Z" fill="#049E8B"/>
<path d="M132.002 437.534L135.531 435.68L137.246 439.137L135.531 443.622L132.002 437.534Z" fill="#FC461E"/>
<path d="M129.179 401.676L126.358 405.127C120.619 405.67 116.629 401.629 114.619 398.91L116.981 394.254L129.179 401.676Z" fill="#D34A28"/>
<path d="M142.029 386.761C142.029 386.761 142.381 391.246 142.029 395.191C141.678 399.137 135.531 435.679 135.531 435.679L137.246 439.137L144.416 395.57V388.975L142.029 386.761Z" fill="#D82E12"/>
<path d="M114.012 391.99C114.012 391.99 116.831 406.236 131.57 402.386L140.002 382.998C140.002 382.998 141.642 371.477 130.904 373.904C130.904 373.904 125.289 375.822 114.012 391.99Z" fill="#4FC1AE"/>
<path d="M120.246 383.724C120.246 383.724 127.391 369.595 134.487 369.09C136.055 368.964 137.63 369.22 139.078 369.836C142.475 371.289 144.672 374.644 144.78 378.339L145.121 390.096C145.123 390.181 145.101 390.265 145.057 390.338C145.012 390.411 144.948 390.469 144.871 390.505C144.794 390.541 144.708 390.554 144.624 390.542C144.539 390.53 144.461 390.494 144.397 390.437L141.962 388.289C141.838 388.179 141.738 388.046 141.667 387.897C141.597 387.747 141.557 387.585 141.552 387.42L141.201 376.973C141.179 376.137 140.964 375.317 140.57 374.58C140.177 373.842 139.617 373.207 138.935 372.724C138.45 372.374 137.898 372.129 137.313 372.005C136.728 371.88 136.124 371.879 135.539 372.002C131.844 372.753 124.157 379.329 124.157 379.329L120.246 383.724Z" fill="#FC461E"/>
<path d="M164.85 336.828C164.85 336.828 166.1 342.478 168.48 345.442C169.32 346.468 170.5 347.157 171.804 347.383C173.416 347.68 176.44 348.737 173.07 356.297C173.07 356.297 179.065 351.562 177.81 345.41C176.556 339.259 173.287 339.322 172.019 334.397C170.75 329.472 167.827 331.174 167.827 331.174L164.85 336.828Z" fill="#14192F"/>
<path d="M167.825 331.181L164.85 336.829C164.85 336.829 152.495 338.706 149.338 346.857L146.176 355.003C146.176 355.003 139.158 348.818 142.47 344.012C145.782 339.205 146.865 338.305 148.999 334.818C151.133 331.331 158.413 322.276 167.825 331.181Z" fill="#14192F"/>
<path d="M212.096 576.542C203.538 584.669 178.833 587.163 176.8 586.417C174.646 585.627 175.994 581.4 175.994 581.4L174.166 574.222C173.463 571.444 176.265 572.228 176.265 572.228C180.845 572.845 184.069 572.071 186.138 571.152C186.527 570.978 186.87 570.716 187.139 570.386C187.409 570.056 187.599 569.668 187.693 569.252C187.787 568.836 187.783 568.404 187.681 567.99C187.579 567.576 187.383 567.191 187.107 566.867C187.107 566.867 187.866 565.776 189.098 565.281C190.33 564.786 193.17 569.738 193.17 569.738C199.906 570.531 205.643 569.558 209.968 569.738C211.959 569.821 212.863 570.949 213.247 572.14C213.491 572.908 213.512 573.729 213.308 574.508C213.104 575.287 212.684 575.992 212.096 576.542V576.542Z" fill="#ECECEC"/>
<path d="M132.758 587.9C132.263 589.711 130.658 590.807 127.243 590.363C120.074 589.44 107.121 573.423 107.121 573.423L108.568 570.065L110.371 565.88C110.44 565.72 110.545 565.578 110.679 565.466C110.812 565.353 110.969 565.274 111.139 565.233C111.308 565.192 111.485 565.192 111.654 565.231C111.824 565.271 111.982 565.349 112.116 565.461C113.693 566.766 115.443 568.144 115.443 568.144L115.698 567.376C116.085 566.22 116.913 565.264 118.001 564.717C125.636 560.863 123.412 568.505 123.412 568.505C123.412 568.505 128.998 575.395 131.301 580.419C132.507 583.054 133.304 585.91 132.758 587.9Z" fill="#ECECEC"/>
<path d="M136.211 417.615C136.211 417.615 133.176 428.089 129.529 431.33L131.557 425.113L133.875 420.902C133.875 420.902 135.336 419.621 134.179 418.828C133.022 418.035 133.144 417.42 134.296 415.896C135.449 414.371 135.936 409.186 135.027 405.892C134.176 402.823 133.739 398.131 133.688 397.502L137.589 388.538C137.589 388.538 137.642 393.716 137.589 400.267C137.535 406.818 138.244 416.405 136.211 417.615Z" fill="#02B5A5"/>
<path d="M174.047 403.4C172.774 408.023 168.065 418.378 168.065 422.179C168.065 423.026 168.059 423.875 168.051 424.682C166.702 425.432 162.224 427.156 162.224 427.156C162.224 427.156 165.548 425.38 163.947 422.555C162.366 419.763 150.685 424.666 150.4 424.783L150.799 424.584C169.985 414.918 173.875 403.911 174.047 403.4Z" fill="#02B5A5"/>
<path d="M153.315 487.912L150.395 475.676L147.426 482.812L150.4 457.191L153.315 487.912Z" fill="#02B5A5"/>
<path d="M167.427 357.961C167.405 358.108 167.356 358.25 167.281 358.379C166.617 359.467 165.826 360.471 164.923 361.369C163.298 362.959 161.304 364.074 158.889 364.278C153.241 364.756 150.909 357.456 149.963 352.158C149.963 352.158 150.285 352.027 150.851 351.844C153.105 351.114 159.219 349.555 164.124 352.158L167.425 353.354C167.425 353.354 167.445 356.822 167.427 357.961Z" fill="#ECECEC"/>
<path d="M166.816 353.129L170.924 346.856L167.429 353.351L166.816 353.129Z" fill="#ECECEC"/>
<path d="M164.923 361.369C163.298 362.959 161.304 364.073 158.889 364.278C153.241 364.756 150.909 357.456 149.963 352.158C149.963 352.158 150.285 352.027 150.851 351.844C151.924 354.476 155.199 358.388 164.923 361.369Z" fill="#D6D7D8"/>
<path d="M184.311 455.895L179.221 458.225L178.215 456.363L182.911 453.623C183.283 454.414 183.74 455.161 184.275 455.852L184.311 455.895Z" fill="#ECECEC"/>
<path d="M184.354 456.236C184.869 455.971 184.946 455.092 184.526 454.274C184.106 453.455 183.348 453.006 182.833 453.271C182.318 453.536 182.241 454.415 182.661 455.233C183.081 456.052 183.839 456.501 184.354 456.236Z" fill="#594A42"/>
<path d="M169.691 440.953C169.663 440.871 169.637 440.783 169.611 440.69C167.863 434.303 156.508 433.66 156.508 433.66C156.508 433.66 162.43 432.924 163.232 430.916C164.034 428.908 157.844 429.661 157.844 429.661L168.006 427.297C167.976 428.809 167.946 429.83 167.946 429.83L169.691 440.953Z" fill="#02B5A5"/>
<path d="M132.758 587.899C132.263 589.71 130.658 590.806 127.243 590.362C120.074 589.439 107.121 573.422 107.121 573.422L108.568 570.064C111.918 574.315 124.643 589.62 132.758 587.899Z" fill="#D6D7D8"/>
<path d="M212.095 576.541C203.537 584.668 178.832 587.163 176.799 586.417C174.645 585.626 175.993 581.399 175.993 581.399C175.993 581.399 196.909 583.556 213.245 572.141C213.488 572.908 213.509 573.729 213.306 574.508C213.102 575.287 212.682 575.992 212.095 576.541V576.541Z" fill="#D6D7D8"/>
<path d="M161.027 344.945V345.305C161.027 345.353 161.037 345.4 161.057 345.443C161.077 345.486 161.106 345.524 161.142 345.554C161.179 345.585 161.221 345.607 161.267 345.619C161.312 345.631 161.36 345.633 161.407 345.624C162.442 345.439 166.408 344.996 168.965 345.356C168.965 345.356 165.773 344.333 161.33 344.622C161.248 344.627 161.171 344.663 161.114 344.724C161.058 344.784 161.027 344.863 161.027 344.945Z" fill="#15192F"/>
<path d="M156.787 344.612L156.751 344.978C156.746 345.026 156.731 345.073 156.706 345.115C156.682 345.156 156.648 345.192 156.608 345.219C156.568 345.246 156.523 345.265 156.475 345.272C156.428 345.28 156.379 345.278 156.332 345.264C155.301 344.972 151.317 344.126 148.686 344.236C148.686 344.236 152.028 343.516 156.513 344.253C156.595 344.268 156.669 344.312 156.72 344.379C156.771 344.446 156.795 344.529 156.787 344.612V344.612Z" fill="#15192F"/>
<path d="M163.92 350.103C164.508 350.103 164.985 349.483 164.985 348.718C164.985 347.953 164.508 347.333 163.92 347.333C163.332 347.333 162.855 347.953 162.855 348.718C162.855 349.483 163.332 350.103 163.92 350.103Z" fill="#15192F"/>
<path d="M153.765 349.92C154.375 349.92 154.869 349.277 154.869 348.484C154.869 347.692 154.375 347.049 153.765 347.049C153.156 347.049 152.662 347.692 152.662 348.484C152.662 349.277 153.156 349.92 153.765 349.92Z" fill="#15192F"/>
<path d="M104.491 490.606L104.069 490.594L79.1741 489.817C78.358 489.792 77.5836 489.45 77.0151 488.863C76.4467 488.276 76.1288 487.49 76.1289 486.673V486.22C76.129 485.473 76.3944 484.751 76.8776 484.182C77.3609 483.613 78.0304 483.235 78.7665 483.115L103.765 479.048C104.199 478.977 104.642 478.998 105.067 479.11C105.492 479.222 105.889 479.421 106.232 479.696C106.574 479.971 106.856 480.315 107.058 480.705C107.26 481.096 107.378 481.524 107.404 481.963L107.724 487.273C107.75 487.71 107.685 488.147 107.533 488.557C107.382 488.966 107.146 489.34 106.842 489.654C106.538 489.967 106.172 490.214 105.767 490.378C105.362 490.542 104.928 490.62 104.491 490.606V490.606Z" fill="#002E55"/>
<path opacity="0.48" d="M104.069 490.594L79.1741 489.818C78.358 489.793 77.5836 489.45 77.0151 488.863C76.4467 488.276 76.1288 487.491 76.1289 486.673V486.408L100.117 482.504C100.55 482.433 100.994 482.454 101.419 482.566C101.844 482.678 102.241 482.878 102.584 483.153C102.927 483.428 103.208 483.771 103.41 484.162C103.612 484.553 103.731 484.981 103.757 485.42L104.069 490.594Z" fill="#170A08"/>
<path opacity="0.32" fill-rule="evenodd" clip-rule="evenodd" d="M102.248 378.41V389.904L112.148 386.805V374.112L102.248 378.41Z" fill="#8699AD"/>
<path opacity="0.32" fill-rule="evenodd" clip-rule="evenodd" d="M267.957 298.575V314.967L278.815 311.2V294.319L267.957 298.575Z" fill="#8699AD"/>
<path opacity="0.32" fill-rule="evenodd" clip-rule="evenodd" d="M281.303 321.265V337.657L292.161 333.89V317.009L281.303 321.265Z" fill="#8699AD"/>
<path opacity="0.32" fill-rule="evenodd" clip-rule="evenodd" d="M270.836 357.319V373.711L281.694 369.944V353.063L270.836 357.319Z" fill="#8699AD"/>
<path opacity="0.32" fill-rule="evenodd" clip-rule="evenodd" d="M314.207 339.051V355.443L325.067 353.139V336.14L314.207 339.051Z" fill="#8699AD"/>
<path opacity="0.32" fill-rule="evenodd" clip-rule="evenodd" d="M349.996 330.917V347.309L360.856 345.006V328.006L349.996 330.917Z" fill="#8699AD"/>
<path opacity="0.32" fill-rule="evenodd" clip-rule="evenodd" d="M220.836 348.411V359.905L230.736 356.806V344.114L220.836 348.411Z" fill="#8699AD"/>
<path opacity="0.32" fill-rule="evenodd" clip-rule="evenodd" d="M235.623 361.146V372.64L245.523 369.542V356.849L235.623 361.146Z" fill="#8699AD"/>
<path opacity="0.32" fill-rule="evenodd" clip-rule="evenodd" d="M185.027 335.859V341.606L189.977 340.056V333.71L185.027 335.859Z" fill="#8699AD"/>
<path opacity="0.32" fill-rule="evenodd" clip-rule="evenodd" d="M194.951 350.21V355.957L199.901 354.409V348.062L194.951 350.21Z" fill="#8699AD"/>
<path opacity="0.32" fill-rule="evenodd" clip-rule="evenodd" d="M186.09 366.46V372.207L191.041 370.658V364.312L186.09 366.46Z" fill="#8699AD"/>
<path opacity="0.32" fill-rule="evenodd" clip-rule="evenodd" d="M102.248 341.502V352.996L112.148 349.897V337.204L102.248 341.502Z" fill="#8699AD"/>
<path opacity="0.32" fill-rule="evenodd" clip-rule="evenodd" d="M111.527 359.699V368.786L119.353 366.337V356.303L111.527 359.699Z" fill="#8699AD"/>
<path opacity="0.32" fill-rule="evenodd" clip-rule="evenodd" d="M314.207 366.971V383.363L325.067 381.061V364.06L314.207 366.971Z" fill="#8699AD"/>
<path opacity="0.32" fill-rule="evenodd" clip-rule="evenodd" d="M223.033 381.408V392.902L232.935 389.804V377.111L223.033 381.408Z" fill="#8699AD"/>
<path opacity="0.32" fill-rule="evenodd" clip-rule="evenodd" d="M196.074 380.209V385.956L201.024 384.407V378.061L196.074 380.209Z" fill="#8699AD"/>
<path opacity="0.32" fill-rule="evenodd" clip-rule="evenodd" d="M185.027 393.771V399.518L189.977 397.969V391.622L185.027 393.771Z" fill="#8699AD"/>
</g>
<defs>
<linearGradient id="paint0_linear_1589_133" x1="-92.7234" y1="885.826" x2="500.103" y2="96.9329" gradientUnits="userSpaceOnUse">
<stop offset="0.46" stop-color="#E0FFE0" stop-opacity="0"/>
<stop offset="1" stop-color="#20CDF4"/>
</linearGradient>
<linearGradient id="paint1_linear_1589_133" x1="-72.7773" y1="404.933" x2="114.775" y2="404.933" gradientUnits="userSpaceOnUse">
<stop stop-color="#F8F4F1" stop-opacity="0"/>
<stop offset="0.59" stop-color="#8699AD"/>
</linearGradient>
<linearGradient id="paint2_linear_1589_133" x1="-49.6977" y1="429.661" x2="118.603" y2="429.661" gradientUnits="userSpaceOnUse">
<stop offset="0.28" stop-color="#D5CFE2" stop-opacity="0"/>
<stop offset="0.76" stop-color="#D5CFE2"/>
</linearGradient>
<linearGradient id="paint3_linear_1589_133" x1="-41.7352" y1="544.577" x2="131.146" y2="544.577" gradientUnits="userSpaceOnUse">
<stop stop-color="#687B92" stop-opacity="0"/>
<stop offset="1" stop-color="#8699AD"/>
</linearGradient>
<linearGradient id="paint4_linear_1589_133" x1="-17.1592" y1="542.646" x2="36.6458" y2="542.646" gradientUnits="userSpaceOnUse">
<stop stop-color="#687B92" stop-opacity="0"/>
<stop offset="1" stop-color="#687B92"/>
</linearGradient>
<clipPath id="clip0_1589_133">
<rect width="354" height="600" rx="8" fill="white"/>
</clipPath>
</defs>
</svg>
