<svg width="100%" viewBox="0 0 1378 752" fill="none" xmlns="http://www.w3.org/2000/svg">
<g clip-path="url(#clip0_1513_21304)">
<rect width="1378" height="752" rx="30" fill="white"/>
<g clip-path="url(#clip1_1513_21304)">
<path d="M1482.2 0H-115.066V755.991H1482.2V0Z" fill="url(#paint0_linear_1513_21304)"/>
<path d="M1240.5 747.76L1247.69 738.052" stroke="#3F4F20" stroke-width="0.753562" stroke-linecap="round" stroke-linejoin="round"/>
<path d="M1240.5 751.733L1251.93 736.755" stroke="#3F4F20" stroke-width="0.753562" stroke-linecap="round" stroke-linejoin="round"/>
<path opacity="0.6" d="M533.781 266.698C533.781 266.698 613.88 157.535 692.979 233.657C692.979 233.657 714.003 229.653 718.01 245.674C722.016 261.695 723.016 422.892 723.016 422.892H535.258L533.781 266.698Z" fill="white"/>
<path d="M770.191 396.416V517.858H367.957V360.891H369.585V181.764L447.847 154.324L574.202 201.922V254.277L597.037 257.607V321.947H606.105V289.162L636.406 255.055L661.781 287.368L664.087 344.36H691.306V404.494L736.499 371.734L770.191 396.416Z" fill="url(#paint1_linear_1513_21304)"/>
<path d="M789.042 169.903L819.88 191.289L814.746 491.725L784.219 507.678" fill="#8699AD"/>
<path opacity="0.6" fill-rule="evenodd" clip-rule="evenodd" d="M847.049 268.098C847.049 268.098 836.979 163.227 928.433 172.455C928.433 172.455 934.306 160.71 948.569 164.066C948.569 164.066 957.797 122.954 994.714 127.988C994.714 127.988 992.202 119.598 1005.62 121.276C1005.62 121.276 1036.66 67.5822 1097.07 102.819V268.1L847.049 268.098Z" fill="white"/>
<path d="M1090.59 102.176L1086.28 353.73L1159.36 347.068L1162.65 69.1846L1090.59 102.176Z" fill="#D5CFE2"/>
<path d="M1162.65 69.1846L1213.2 94.5043V349.681L1159.36 347.068L1162.65 69.1846Z" fill="#8699AD"/>
<path d="M842.209 229.088L931.476 232.748L928.334 422.892L867.913 431.035L842.209 229.088Z" fill="#8699AD"/>
<path d="M736.969 192.013V507.678H784.22L789.042 169.903L736.969 192.013Z" fill="#D5CFE2"/>
<path opacity="0.6" d="M1213.2 123.077V221.484H1482.2V37.0625C1482.2 37.0625 1388.14 44.3469 1377.21 90.2766C1377.21 90.2766 1344.41 88.0887 1350.97 125.993C1350.97 125.993 1283.17 83.7155 1233.61 142.76C1233.61 142.76 1237.25 115.059 1213.2 123.077Z" fill="white"/>
<path d="M736.969 236.84L711.619 254.031V472.602L736.969 466.87V236.84Z" fill="#8699AD"/>
<path d="M417.451 284.339H470.919L522.101 257.259L565.084 284.339V335.755L590.605 351.293C590.605 351.293 606.025 336.132 622.769 355.88V402.5L687.237 405.243V445.712H716.754V424.316H746.065V397.23L778.397 399.398V520.84H417.451V284.339Z" fill="url(#paint2_linear_1513_21304)"/>
<path d="M1185.09 180.817V353.73L1311.15 338.899V147.163L1185.09 180.817Z" fill="#D5CFE2"/>
<path d="M963.623 365.108L1018.89 349.803L1013.01 173.291L963.623 149.991V365.108Z" fill="#8699AD"/>
<path d="M1379.19 196.999L1311.15 147.163V338.899L1379.19 347.068V196.999Z" fill="#8699AD"/>
<path d="M914.827 174.914L911.426 380.654L963.622 365.108V149.991L914.827 174.914Z" fill="#DBD3E6"/>
<path d="M991.256 207.951L989.061 388.833L1058.71 365.963V175.716L991.256 207.951Z" fill="#D5CFE2"/>
<path d="M683.568 463.149V530.344L1502 623.11V314.785" fill="#160907"/>
<path d="M1058.71 376.899L1091.69 362.845V199.626L1058.71 175.716V376.899Z" fill="#8699AD"/>
<path d="M1129.14 277.403L1168.98 330.062L1064.09 377.996L1129.14 277.403Z" fill="#170A08"/>
<path d="M434.531 515.668C434.531 515.668 466.879 689.766 635.092 754.64H1501.75V613.269L690.639 518.971L434.531 515.668Z" fill="url(#paint3_linear_1513_21304)"/>
<path d="M861.764 369.858L1129.14 277.403L1064.09 377.996L838.777 431.035L861.764 369.858Z" fill="#025B95"/>
<path d="M657.482 460.796C657.482 460.796 1306.24 338.324 1502 133.18V314.788C1502 314.788 711.734 467.442 659.379 471.278L657.482 460.796Z" fill="#002E55"/>
<path d="M425.861 507.394C425.861 507.394 505.659 743.608 652.03 754.64H1111C1111 754.64 567.37 753.399 472.924 507.921L425.861 507.394Z" fill="url(#paint4_linear_1513_21304)"/>
<path d="M1465.93 609.081C1414.73 615.612 752.862 545.096 688.581 538.219C687.082 538.058 685.671 537.433 684.545 536.431C683.42 535.429 682.635 534.1 682.301 532.63L682.256 532.434C681.711 530.005 681.296 527.719 681 525.569C680.246 520.201 680.189 515.68 680.53 511.91C681.349 502.867 688.191 495.517 697.129 493.904C761.882 482.234 1100.75 421.12 1165.7 408.707C1237.58 394.974 1277.02 415.584 1345.17 451.085C1378.5 468.442 1420.98 504.959 1449.39 538.558C1453.65 543.582 1457.59 548.555 1461.14 553.378C1461.7 554.137 1462.25 554.89 1462.78 555.639C1463.3 556.362 1463.81 557.082 1464.31 557.799C1483 584.641 1488.26 606.238 1465.93 609.081Z" fill="#ECECEC"/>
<path opacity="0.45" d="M1465.93 609.082C1414.77 615.613 753.881 545.212 688.734 538.247C687.189 538.085 685.734 537.443 684.573 536.412C683.411 535.381 682.602 534.012 682.258 532.497V532.447C681.713 530.018 681.298 527.732 681.002 525.582C705.216 527.024 1378.13 566.804 1449.41 538.558C1453.67 543.582 1457.61 548.556 1461.16 553.378C1461.71 554.137 1462.26 554.891 1462.8 555.639C1463.32 556.363 1463.83 557.083 1464.32 557.799C1483 584.641 1488.26 606.238 1465.93 609.082Z" fill="#8699AD"/>
<path d="M901.344 480.426V511.22C901.344 512.959 900.658 514.628 899.435 515.864C898.213 517.101 896.552 517.806 894.813 517.826L887.94 517.904L769.453 519.255C767.729 519.274 766.065 518.62 764.818 517.43C763.57 516.24 762.836 514.61 762.774 512.887L762.412 502.953L762.249 498.432C762.189 496.799 762.737 495.202 763.786 493.95C764.834 492.697 766.31 491.878 767.928 491.65L893.815 473.886C894.752 473.754 895.705 473.825 896.611 474.093C897.518 474.362 898.356 474.821 899.069 475.441C899.783 476.061 900.355 476.827 900.747 477.687C901.14 478.547 901.343 479.481 901.344 480.426Z" fill="#002E55"/>
<path d="M1156.32 454.835V497.645C1156.32 501.789 1154.7 505.768 1151.81 508.734C1148.91 511.701 1144.97 513.418 1140.83 513.52L1133.62 513.699L926.624 518.828C924.434 518.882 922.256 518.482 920.227 517.654C918.199 516.825 916.364 515.586 914.837 514.014C913.311 512.441 912.127 510.57 911.359 508.518C910.591 506.466 910.256 504.277 910.375 502.089L911.101 488.763L911.32 484.759C911.519 481.095 912.981 477.612 915.458 474.904C917.935 472.195 921.274 470.429 924.906 469.904L1138.16 439.119C1140.42 438.793 1142.72 438.955 1144.9 439.596C1147.09 440.236 1149.11 441.339 1150.83 442.83C1152.55 444.32 1153.93 446.164 1154.88 448.235C1155.83 450.307 1156.32 452.558 1156.32 454.835Z" fill="#002E55"/>
<path opacity="0.48" d="M1133.62 474.975V513.698L926.624 518.828C924.434 518.882 922.256 518.482 920.227 517.654C918.199 516.825 916.364 515.586 914.837 514.013C913.311 512.441 912.127 510.57 911.359 508.518C910.591 506.465 910.256 504.276 910.375 502.088L911.101 488.763L1115.47 459.259C1117.73 458.933 1120.02 459.097 1122.21 459.737C1124.39 460.378 1126.41 461.481 1128.14 462.972C1129.86 464.462 1131.24 466.306 1132.18 468.377C1133.13 470.448 1133.62 472.698 1133.62 474.975Z" fill="#170A08"/>
<path d="M1333.06 510.139L1318.8 510.431L1182.88 513.194C1180.06 513.249 1177.32 512.2 1175.26 510.269C1173.19 508.338 1171.96 505.678 1171.83 502.855L1169.54 454.107L1169 442.607C1168.87 439.834 1169.81 437.116 1171.62 435.014C1173.43 432.911 1175.98 431.584 1178.74 431.304C1193.12 429.847 1219.46 427.602 1236.77 428.657C1261.58 430.164 1317.93 461.539 1338.18 484.405C1358.43 507.271 1333.06 510.139 1333.06 510.139Z" fill="#002E55"/>
<path d="M934.395 593.784C934.395 593.784 928.688 604.208 928.678 606.816C928.668 609.423 936.786 614.266 938.542 612.066C940.298 609.865 936.11 604.877 936.11 604.877L938.542 593.784H934.395Z" fill="#A97C50"/>
<path d="M948.823 501.028C948.32 499.122 946.18 498.951 944.615 500.157C942.606 501.704 941.945 504.522 943.018 506.939C945.155 511.769 950.94 508.539 949.679 504.105C949.35 502.96 949.066 501.925 948.823 501.028Z" fill="#F78C68"/>
<path d="M940.224 591.981C940.224 591.981 939.737 603.857 940.884 606.198C942.032 608.539 951.457 609.275 952.055 606.525C952.653 603.774 946.687 601.162 946.687 601.162L943.939 590.14L940.224 591.981Z" fill="#A97C50"/>
<path d="M948.244 540.061C948.244 540.061 948.819 580.213 946.973 586.058C945.127 591.903 943.587 595.618 935.522 595.473C927.456 595.327 931.945 576.297 931.945 576.297L935.682 550.126L938.566 536.368L948.244 540.061Z" fill="#170A08"/>
<path d="M948.33 536.368C948.33 536.368 953.198 562.406 952.384 573.006C951.571 583.606 949.33 586.915 941.925 588.487C934.52 590.059 948.33 536.368 948.33 536.368Z" fill="#170A08"/>
<path d="M954.204 526.544C954.204 526.544 956.839 527.983 956.464 530.344C956.454 530.344 953.965 530.769 954.204 526.544Z" fill="#BE1E2D"/>
<path d="M936.751 551.863C936.751 551.863 934.588 559.901 938.168 559.002C941.747 558.103 940.87 552.408 940.87 552.408L936.751 551.863Z" fill="#D17758"/>
<path d="M953.5 527.825C953.5 527.825 956.898 522.912 957.112 523.979C957.325 525.047 956.79 525.117 956.79 525.117C956.79 525.117 959.963 521.508 961.083 523.123C962.203 524.738 960.764 528.109 955.384 529.611C950.003 531.113 953.5 527.825 953.5 527.825Z" fill="#F78C68"/>
<path d="M946.975 508.067V510.697L941.926 509.921L943.018 506.944L946.975 508.067Z" fill="#F78C68"/>
<path d="M935.683 550.126L933.757 526.544C933.757 526.544 932.25 518.871 939.426 512.742C939.426 512.742 941.385 511.235 941.925 509.921L946.974 510.697C946.974 510.697 950.283 516.178 950.476 524.58C950.602 530.134 950.561 535.13 950.519 537.893C950.514 538.184 950.452 538.472 950.336 538.739C950.22 539.005 950.051 539.247 949.841 539.448C949.631 539.649 949.382 539.806 949.111 539.911C948.839 540.015 948.549 540.065 948.258 540.056L942.96 539.872L943.006 550.422C943.007 550.695 942.951 550.966 942.843 551.216C942.735 551.467 942.577 551.693 942.377 551.879C942.178 552.066 941.943 552.209 941.686 552.301C941.429 552.393 941.155 552.43 940.883 552.412L937.788 552.196C937.248 552.16 936.738 551.932 936.352 551.552C935.965 551.172 935.728 550.666 935.683 550.126Z" fill="#F15A29"/>
<path d="M949.37 526.544C949.37 526.544 953.048 527.187 954.203 526.544C954.203 526.544 954.849 530.146 956.464 530.344C956.464 530.344 953.199 533.698 948.376 532.354C943.553 531.01 949.37 526.544 949.37 526.544Z" fill="#F15A2A"/>
<path opacity="0.48" d="M1318.8 510.43L1182.88 513.193C1180.06 513.249 1177.32 512.199 1175.26 510.269C1173.19 508.338 1171.96 505.678 1171.83 502.854L1169.54 454.106C1189.98 452.436 1226.58 449.784 1239.02 451.06C1254.66 452.68 1312 485.583 1318.8 510.43Z" fill="#170A08"/>
<path d="M925.997 583.905C925.997 583.905 921.325 595.711 926.675 593.508C932.025 591.305 931.661 587.163 931.661 587.163L930.498 586.553C930.498 586.553 931.55 590.321 926.479 592.302C926.332 592.362 926.169 592.374 926.015 592.336C925.861 592.298 925.723 592.213 925.62 592.091C925.155 591.521 924.866 589.921 926.838 585.433L925.997 583.905Z" fill="#ECECEC"/>
<path d="M936.656 565.413C936.656 565.413 936.867 561.696 939.638 562.128C942.408 562.56 941.245 566.415 941.245 566.415L940.474 566.132C940.474 566.132 941.361 564.175 940.474 563.411C939.588 562.648 937.711 562.499 937.505 565.134L936.656 565.413Z" fill="#ECECEC"/>
<path d="M931.922 567.159C932.387 566.484 932.999 565.923 933.712 565.518C934.424 565.113 935.219 564.875 936.037 564.82C938.85 564.634 943.733 564.717 944.17 567.478C944.788 571.376 944.873 584.327 944.17 586.116C943.542 587.713 941.53 590.986 938.109 590.228C936.805 589.948 935.466 589.864 934.138 589.976L931.359 590.198C929.981 590.309 928.597 590.049 927.353 589.444C925.411 588.492 923.158 586.741 924.527 584.069C926.333 580.554 928.923 571.504 931.922 567.159Z" fill="#ECECEC"/>
<path d="M948.823 501.028C948.823 501.028 946.977 497.512 943.99 501.028C941.004 504.545 946 506.806 939.426 512.741C932.853 518.677 933.757 526.544 933.757 526.544C933.757 526.544 921.107 523.06 929.469 513.005C937.831 502.95 937.145 504.955 937.718 500.579C938.291 496.203 949.037 493.754 948.823 501.028Z" fill="#C86742"/>
<path opacity="0.48" d="M887.937 492.845V517.901L769.449 519.253C767.725 519.272 766.062 518.617 764.814 517.428C763.566 516.238 762.833 514.608 762.77 512.885L762.408 502.951L880.403 486.299C881.34 486.167 882.295 486.237 883.202 486.506C884.109 486.774 884.948 487.234 885.663 487.855C886.377 488.475 886.949 489.242 887.342 490.103C887.734 490.964 887.937 491.899 887.937 492.845Z" fill="#170A08"/>
<path d="M1324.55 513.791C1324.55 513.791 1335.34 647.724 1334.77 694.679" stroke="#3F4F21" stroke-width="1.25594" stroke-miterlimit="10"/>
<path d="M1333.77 654.108C1333.77 654.108 1365.29 629.564 1366.24 591.06" stroke="#3F4F21" stroke-width="1.25594" stroke-miterlimit="10"/>
<path d="M1327.8 556.792C1327.8 556.792 1352.26 520.091 1354.55 467.148" stroke="#3F4F21" stroke-width="1.25594" stroke-miterlimit="10"/>
<path d="M1307.91 560.603C1307.91 560.603 1310.89 594.902 1329.67 604.229" stroke="#3F4F21" stroke-width="1.25594" stroke-miterlimit="10"/>
<path d="M1307.91 612.177C1307.91 612.177 1320.86 636.615 1333.06 639.606" stroke="#3F4F21" stroke-width="1.25594" stroke-miterlimit="10"/>
<path d="M1365.6 598.949C1365.6 598.949 1339.31 555.275 1357.12 511.971C1374.93 468.666 1386.88 460.588 1390.91 474.067C1394.93 487.545 1404.62 570.992 1365.6 598.949Z" fill="#606D29"/>
<path d="M1346.37 335.036C1346.37 335.036 1343.07 346.48 1343.65 377.989C1344.24 409.498 1331.95 401.161 1334.79 418.933C1337.63 436.704 1344.13 473.109 1354.54 470.861C1364.96 468.613 1374.99 442.313 1372.95 416.541C1370.9 390.77 1364.99 386.962 1366.23 374.548C1367.47 362.134 1358.26 323.554 1346.37 335.036Z" fill="#3F4F21"/>
<path d="M1288.41 391.539C1288.41 391.539 1280.91 438.377 1294.22 454.75C1307.53 471.122 1294.64 507.818 1325.55 526.499C1325.55 526.499 1342.05 515.103 1340.44 490.393C1339.74 479.552 1335.29 469.314 1328.19 461.082C1322.06 453.956 1313.81 442.605 1313.43 432.743C1312.82 416.964 1294.45 379.394 1288.41 391.539Z" fill="#606D29"/>
<path d="M1269.86 487.153C1269.19 487.083 1268.51 487.165 1267.87 487.393C1267.23 487.621 1266.66 487.989 1266.18 488.469C1265.71 488.95 1265.34 489.531 1265.12 490.17C1264.9 490.809 1264.83 491.49 1264.9 492.162C1266.79 508.74 1275.99 570.942 1307.91 569.138C1341.88 567.216 1293.52 489.821 1269.86 487.153Z" fill="#3F4F21"/>
<path d="M1277.65 581.26C1278.33 593.48 1283.24 620.948 1313.43 622.581C1313.43 622.581 1330.4 617.346 1316.21 600.787C1306.11 589.004 1290.84 581.175 1282.87 577.638C1282.29 577.381 1281.65 577.277 1281.01 577.338C1280.38 577.399 1279.77 577.622 1279.25 577.985C1278.72 578.349 1278.3 578.841 1278.02 579.414C1277.74 579.988 1277.61 580.623 1277.65 581.26Z" fill="#606D29"/>
<path d="M1156.04 754.77C1156.04 754.77 1153.49 728.077 1173.64 717.642L1179.32 720.697V715.171C1179.32 715.171 1184.85 709.818 1189.28 710.9L1193.04 715.171L1194.4 708.979C1194.4 708.979 1220.71 708.321 1230.17 716.766C1239.63 725.21 1224.99 753.954 1224.99 753.954L1156.04 754.77Z" fill="#606D29"/>
<path d="M1405.55 754.771C1396.64 703.22 1372.61 698.728 1372.61 698.728L1359.27 705.741L1364.99 690.979C1350.23 679.548 1329.75 674.215 1329.75 674.215L1321.17 684.594V674.215C1295.93 669.357 1263.07 679.548 1263.07 679.548V690.022L1258.87 684.594C1228.22 697.482 1215.82 734.053 1211.14 754.771H1355.89C1355.35 752.768 1355.28 750.668 1355.69 748.634C1356.09 746.6 1356.96 744.687 1358.22 743.042C1359.49 741.397 1361.11 740.065 1362.97 739.148C1364.83 738.231 1366.88 737.754 1368.95 737.754C1371.02 737.754 1373.07 738.231 1374.93 739.148C1376.79 740.065 1378.41 741.397 1379.68 743.042C1380.94 744.687 1381.81 746.6 1382.21 748.634C1382.62 750.668 1382.55 752.768 1382.01 754.771H1405.55ZM1270.41 716.779C1269.64 716.779 1268.89 716.551 1268.25 716.123C1267.61 715.695 1267.11 715.087 1266.81 714.374C1266.51 713.662 1266.44 712.878 1266.59 712.122C1266.74 711.366 1267.11 710.671 1267.65 710.125C1268.2 709.58 1268.89 709.208 1269.65 709.057C1270.4 708.906 1271.19 708.983 1271.9 709.278C1272.61 709.572 1273.22 710.071 1273.65 710.712C1274.08 711.353 1274.31 712.107 1274.31 712.878C1274.31 713.39 1274.21 713.897 1274.02 714.371C1273.82 714.845 1273.54 715.276 1273.18 715.639C1272.81 716.002 1272.39 716.291 1271.91 716.488C1271.44 716.685 1270.93 716.787 1270.42 716.789L1270.41 716.779Z" fill="#3F4F20"/>
<path d="M1251.85 668.912C1251.85 668.912 1262.77 669.766 1260.82 677.186C1258.87 684.606 1249.33 680.864 1248.17 679.485C1247.02 678.106 1251.17 674.991 1254.61 675.282C1254.61 675.282 1251.39 673.509 1251.85 668.912Z" fill="#3F4F20"/>
<path d="M1368.39 692.087C1368.39 692.087 1364.75 682.645 1378.84 681.655C1378.84 681.655 1379.57 695.003 1368.39 692.087Z" fill="#3F4F20"/>
<path d="M1338.16 690.012L1322.1 740.352" stroke="#606D29" stroke-width="0.753562" stroke-linecap="round" stroke-linejoin="round"/>
<path d="M1338.16 710.908L1333.48 724.962" stroke="#606D29" stroke-width="0.753562" stroke-linecap="round" stroke-linejoin="round"/>
<path d="M1279.94 694.952L1292.32 740.352" stroke="#606D29" stroke-width="0.753562" stroke-linecap="round" stroke-linejoin="round"/>
<path d="M1277.47 715.184L1289.85 753.176" stroke="#606D29" stroke-width="0.753562" stroke-linecap="round" stroke-linejoin="round"/>
<path d="M1175.65 715.892C1175.65 715.892 1166.79 713.883 1168.81 704.707C1168.81 704.707 1178.34 703.393 1175.65 715.892Z" fill="#606D29"/>
<path d="M1190.83 706.399C1190.83 706.399 1185.39 697.607 1192.42 693.41C1192.42 693.41 1196.53 694.571 1196.14 700.911C1196.14 700.911 1200.45 697.791 1202.46 702.89C1202.46 702.89 1199.07 707.133 1190.83 706.399Z" fill="#606D2A"/>
<path d="M681.806 754.845C674.86 714.688 656.144 711.189 656.144 711.189L645.755 716.65L650.209 705.153C638.707 696.246 622.754 692.091 622.754 692.091L616.072 700.177V692.091C596.409 688.308 570.808 696.246 570.808 696.246V704.407L567.543 700.177C543.665 710.224 534.009 738.707 530.367 754.845H643.113C642.694 753.285 642.641 751.649 642.956 750.064C643.271 748.48 643.946 746.989 644.93 745.707C645.913 744.425 647.178 743.387 648.627 742.672C650.076 741.958 651.67 741.586 653.286 741.586C654.901 741.586 656.495 741.958 657.944 742.672C659.393 743.387 660.658 744.425 661.642 745.707C662.625 746.989 663.301 748.48 663.616 750.064C663.931 751.649 663.877 753.285 663.459 754.845H681.806ZM576.538 725.25C575.937 725.251 575.35 725.073 574.85 724.74C574.351 724.407 573.961 723.933 573.731 723.378C573.5 722.823 573.44 722.213 573.556 721.624C573.673 721.034 573.962 720.493 574.386 720.068C574.811 719.643 575.352 719.353 575.941 719.236C576.53 719.118 577.14 719.178 577.695 719.407C578.25 719.636 578.725 720.025 579.059 720.524C579.393 721.023 579.572 721.61 579.572 722.211C579.573 722.61 579.494 723.005 579.342 723.373C579.19 723.742 578.966 724.077 578.685 724.359C578.403 724.641 578.068 724.865 577.7 725.018C577.332 725.171 576.937 725.25 576.538 725.25Z" fill="#3F4F20"/>
<path d="M562.076 687.955C562.076 687.955 570.578 688.621 569.059 694.401C567.539 700.18 560.106 697.264 559.209 696.189C558.313 695.114 561.541 692.69 564.233 692.924C564.226 692.919 561.716 691.534 562.076 687.955Z" fill="#3F4F20"/>
<path d="M652.859 706.008C652.859 706.008 650.021 698.653 660.998 697.882C660.998 697.882 661.565 708.279 652.859 706.008Z" fill="#3F4F20"/>
<path d="M629.31 704.393L616.799 743.608" stroke="#606D29" stroke-width="0.753562" stroke-linecap="round" stroke-linejoin="round"/>
<path d="M629.309 720.669L625.662 731.616" stroke="#606D29" stroke-width="0.753562" stroke-linecap="round" stroke-linejoin="round"/>
<path d="M583.955 708.24L593.598 743.607" stroke="#606D29" stroke-width="0.753562" stroke-linecap="round" stroke-linejoin="round"/>
<path d="M582.029 724L591.675 753.595" stroke="#606D29" stroke-width="0.753562" stroke-linecap="round" stroke-linejoin="round"/>
<path d="M1108.27 613.604C1108.27 613.604 1116.76 633.427 1116.92 641.088C1117.07 648.75 1114.08 658.144 1108.94 663.175C1103.8 668.207 1118.73 672.469 1120.96 661.749C1120.96 661.749 1122.9 657.895 1124.66 655.125C1125.17 654.323 1125.51 653.424 1125.65 652.485C1125.8 651.545 1125.74 650.586 1125.49 649.669C1124.88 647.408 1124.19 644.304 1124.14 641.721C1124.05 637.059 1124.7 615.058 1124.7 615.058L1108.27 613.604Z" fill="#170A08"/>
<path d="M1133.19 617.12C1133.19 617.12 1138.21 626.162 1138.6 630.523C1138.98 634.884 1137.73 661.201 1142.87 658.533C1148 655.865 1150.9 651.103 1149.73 642.608C1149.03 637.496 1148.01 632.434 1146.67 627.451L1146.17 613.083L1133.19 617.12Z" fill="#170A08"/>
<path d="M1144.21 436.265C1144.21 436.265 1142.32 444.677 1149.69 450.175C1157.06 455.674 1161.61 462.717 1154.96 463.868C1148.32 465.018 1129.09 463.172 1130.98 453.642C1132.86 444.112 1132.08 432.125 1132.08 432.125L1144.21 436.265Z" fill="#F1B380"/>
<path d="M1119.33 434.579C1119.33 434.579 1119.37 440.291 1118.13 444.124C1116.99 447.641 1105.98 452.577 1108.75 459.057C1111.52 465.538 1126.41 467.686 1127.28 452.356C1128.15 437.026 1119.33 434.579 1119.33 434.579Z" fill="#F1B380"/>
<path d="M1124.96 453.492C1124.96 453.492 1127.6 460.274 1132.06 458.849C1136.51 457.425 1132.87 444.112 1132.87 444.112L1124.96 453.492Z" fill="#D34A28"/>
<path d="M1108.3 503.799C1108.3 503.799 1094.14 532.385 1094.46 551.118C1094.77 569.852 1098.64 616.809 1110.94 618.755C1123.23 620.702 1149.69 618.534 1149.74 613.599C1149.79 608.663 1141.83 584.461 1144.31 568.063C1146.79 551.666 1146.23 516.095 1141.69 507.432C1137.15 498.768 1108.3 503.799 1108.3 503.799Z" fill="#025B95"/>
<path d="M1145.17 488.421C1145.22 496.055 1145.23 504.801 1145.07 507.431C1145.03 508.104 1144.43 508.639 1143.42 509.056C1136.97 511.719 1113.6 509.559 1109.67 507.394C1105.13 504.882 1108.3 492.023 1108.3 492.023C1103.14 488.77 1108.3 475.769 1108.3 475.769C1112.18 469.238 1115.79 463.066 1117.63 459.896L1118.92 457.671C1119.43 455.493 1124.95 453.491 1124.95 453.491L1126.16 455.626L1126.61 456.425C1130.13 460.695 1132.98 458.284 1132.98 458.284L1136.08 459.073L1154.59 463.775L1154.96 463.87L1145.06 475.769C1145.06 475.769 1145.14 481.659 1145.17 488.421Z" fill="#FBB040"/>
<path d="M1154.59 463.774C1154.31 463.855 1154.01 463.93 1153.69 463.993C1145.71 465.593 1139.32 461.687 1136.09 459.072L1154.59 463.774Z" fill="#F49C3B"/>
<path d="M1136.68 473.966L1143.68 478.233L1146.57 473.966L1145.25 486.332L1137.83 480.148L1136.68 473.966Z" fill="#F49C3B"/>
<path d="M1121.67 434.579C1121.67 434.579 1116.79 454.737 1127.13 453.596C1137.46 452.456 1136.54 441.075 1136.54 441.075L1134.71 434.579H1121.67Z" fill="#F78C68"/>
<path d="M1133.42 446.453C1133.42 446.453 1133.86 455.805 1132.09 463.815C1132.09 463.815 1137.11 464.436 1139.11 461.522C1141.1 458.608 1142.19 449.809 1140.26 447.267C1138.33 444.725 1133.74 444.052 1133.42 446.453Z" fill="#F78C68"/>
<path d="M1145.18 502.461C1145.16 502.845 1144.84 503.214 1144.48 503.526C1144.2 503.744 1143.89 503.905 1143.55 504C1143.21 504.096 1142.86 504.123 1142.51 504.081C1135.96 503.418 1126.06 489.426 1124.96 485.48C1124.6 484.164 1132.21 489.158 1133.47 488.61L1141.36 485.161C1141.77 484.979 1142.23 484.903 1142.68 484.941C1143.14 484.979 1143.57 485.13 1143.96 485.379C1144.34 485.628 1144.65 485.969 1144.86 486.369C1145.08 486.77 1145.19 487.218 1145.19 487.673C1145.22 494.063 1145.31 500.3 1145.18 502.461Z" fill="#F49C3B"/>
<path d="M1089.42 522.051C1089.4 521.367 1089.34 520.686 1089.25 520.008C1089.01 518.224 1089.21 516.408 1089.82 514.716C1090.44 513.024 1091.46 511.506 1092.79 510.292C1095.03 508.187 1097.4 507.979 1099.34 508.383C1100.48 508.637 1101.56 509.117 1102.51 509.795C1103.47 510.474 1104.27 511.336 1104.89 512.332C1107.12 515.849 1110.62 523.545 1106.01 532.143C1099.82 543.673 1089.92 540.671 1089.42 522.051Z" fill="#F7941E"/>
<path d="M1138.76 474.804L1144.52 481.89L1145.07 475.769L1154.97 463.87C1154.97 463.87 1158.48 472.34 1157.07 479.002C1155.66 485.663 1148.7 501.945 1141.27 500.531C1133.83 499.117 1125.97 486.716 1125.97 486.716L1138.76 474.804Z" fill="#FBB040"/>
<path d="M1118.92 457.671C1118.92 457.671 1109.76 457.721 1102.62 471.265C1095.49 484.809 1091.82 492.566 1092.07 500.619C1092.33 508.672 1092.78 510.292 1092.78 510.292C1092.78 510.292 1099.67 508.855 1103.41 510.292L1105.49 494.641C1105.49 494.641 1106.19 488.77 1109.48 483.98C1112.78 479.19 1118.92 457.671 1118.92 457.671Z" fill="#FBB040"/>
<path d="M1132.08 463.815C1132.08 463.815 1115.39 468.261 1116.17 477.148C1116.94 486.035 1123.2 488.703 1123.2 488.703L1142.62 474.832C1142.62 474.832 1143.43 466.415 1141.27 463.971C1139.11 461.527 1132.08 463.815 1132.08 463.815Z" fill="#F7941D"/>
<path d="M1080.12 543.818L1023.95 600.401L1024.19 601.466L1081.1 544.552L1080.12 543.818Z" fill="#140A08"/>
<path d="M1119.52 433.314C1119.52 433.314 1124.37 420.041 1129.14 420.676C1133.9 421.312 1136.58 421.809 1138.68 421.48C1140.78 421.151 1144.27 425.75 1144.51 429.835C1144.75 433.919 1145.06 437.79 1145.06 437.79L1119.52 433.314Z" fill="#FB461E"/>
<path d="M1079.7 543.474L1081.67 545.273C1081.77 545.369 1081.9 545.443 1082.03 545.488C1082.16 545.534 1082.31 545.55 1082.45 545.537C1082.59 545.523 1082.73 545.48 1082.85 545.41C1082.97 545.339 1083.08 545.244 1083.16 545.13L1096.71 526.908L1093.5 523.575L1079.55 541.744C1079.35 541.998 1079.26 542.318 1079.29 542.638C1079.31 542.959 1079.46 543.257 1079.7 543.474Z" fill="#140A08"/>
<path d="M1012.48 627.964C1012.48 627.964 1017.48 632.354 1017.08 637.453C1016.68 642.552 1016.19 646.207 1016.19 646.207C1017.02 647.832 1017.27 649.696 1016.89 651.482C1016.89 651.482 1013.34 650.822 1012.62 654.632L1021.76 654.047C1021.76 654.047 1020.25 645.71 1021.06 643.12C1021.87 640.53 1022.95 636.72 1020.62 626.723L1012.48 627.964Z" fill="#CCCBC6"/>
<path d="M1056.23 626.489C1056.23 626.489 1054.08 630.614 1056.7 633.829C1058.36 635.814 1060.39 637.449 1062.69 638.639L1058.69 651.678L1052.32 652.085C1052.32 652.085 1051.86 648.634 1056.22 648.958C1056.22 648.958 1059.99 645.456 1057.25 641.402C1054.51 637.348 1048.8 638.682 1045.47 631.89C1042.13 625.097 1044.51 616.941 1044.51 616.941L1056.23 626.489Z" fill="#E6E7E8"/>
<path d="M1063.69 614.144C1063.69 614.144 1066.2 623.689 1069.21 627.351C1070.85 629.345 1072.57 631.993 1073.79 633.995C1073.89 634.146 1073.93 634.329 1073.91 634.508C1073.88 634.687 1073.79 634.852 1073.66 634.972C1073.52 635.091 1073.35 635.158 1073.17 635.16C1072.99 635.162 1072.81 635.099 1072.67 634.982C1070.28 633.096 1066.67 629.657 1063.08 623.998C1056.9 614.249 1063.69 614.144 1063.69 614.144Z" fill="#E6E7E8"/>
<path d="M1015.06 585.161C1015.06 585.161 1018.9 579.238 1021.52 576.656C1024.13 574.073 1025.71 574.212 1026.46 574.646C1027.22 575.081 1025.17 588.499 1025.03 590.079C1024.89 591.659 1019.29 593.345 1019.29 593.345L1015.06 585.161Z" fill="#A97C50"/>
<path d="M1004.56 587.158C1004.56 587.158 999.984 581.773 997.063 579.545C994.142 577.317 992.594 577.656 991.903 578.183C991.213 578.711 994.945 591.747 995.287 593.307C995.628 594.867 1001.4 595.819 1001.4 595.819L1004.56 587.158Z" fill="#A97C50"/>
<path d="M1008.42 617.682C1010.34 617.559 1011 621.056 1013.46 622.814C1013.34 620.89 1013.65 617.308 1014.49 615.321C1018.59 625.432 1030.94 629.066 1040.11 627.903C1038.83 628.419 1037.58 629.012 1036.38 629.679C1030.32 633.085 1028.11 634.437 1021.71 634.482C1017.05 634.517 1005.71 624.721 1005 616.489C1005.28 615.773 1007.74 618.253 1008.42 617.682Z" fill="#C49A6C"/>
<path d="M1071.92 650.83L1064.71 651.292C1064.71 651.292 1064.56 647.074 1068.67 647.172C1068.67 647.172 1067.86 640.22 1063.17 636.776C1058.48 633.332 1051.63 624.468 1051.63 624.468C1051.63 624.468 1045.61 625.646 1040.1 627.901C1030.94 629.064 1019.73 628.69 1015.63 618.58C1014.79 620.567 1014.91 622.491 1015.03 624.415C1012.15 624.601 1011.9 620.752 1009.97 620.876C1009.31 621.443 1007.89 622.757 1007.61 623.468C1005.8 620.873 1005.1 617.907 1004.67 614.845C1004.36 612.649 1004.04 610.715 1003.7 608.979C1003.34 607.07 1002.97 605.397 1002.6 603.87C1001.66 599.884 1000.8 596.875 1000.34 593.207C999.573 586.855 1004 584.275 1008.91 583.599C1013.21 583.007 1019.53 585.335 1021.9 592.19C1022.75 594.669 1023.33 596.42 1023.71 597.646C1024.01 598.527 1024.26 599.423 1024.47 600.331L1024.58 600.364L1024.72 600.401L1025.12 600.509C1025.91 600.72 1027.36 601.092 1029.24 601.514C1032.58 602.271 1035.96 602.852 1039.36 603.252C1040.78 603.413 1042.22 603.534 1043.63 603.594C1052.72 603.978 1060.37 604.697 1064.63 616.502C1064.63 616.502 1065.94 625.598 1065.63 632.021C1065.93 633.907 1066.95 635.604 1068.48 636.748C1069.23 637.316 1069.73 638.15 1069.89 639.079L1071.92 650.83Z" fill="#F5F5F5"/>
<path d="M1021.35 625.502C1021.35 625.502 1029.26 631.598 1028.86 636.697C1028.46 641.796 1027.98 645.451 1027.98 645.451C1028.81 647.077 1029.06 648.94 1028.67 650.726C1028.67 650.726 1025.13 650.068 1024.4 653.879L1033.55 653.293C1033.55 653.293 1032.04 644.954 1032.85 642.367C1033.65 639.779 1034.73 635.964 1032.4 625.969L1021.35 625.502Z" fill="#F5F5F5"/>
<path d="M1008.92 583.601C1008.92 583.601 1010.7 586.93 1013.12 588.226C1012.55 588.812 1012.1 589.51 1011.82 590.277C1011.53 591.044 1011.4 591.862 1011.45 592.679C1011.45 592.679 1017.43 595.191 1017.85 600.484C1017.85 600.484 1020.96 599.765 1020.72 596.354C1020.49 592.943 1021.52 590.908 1021.52 590.908C1021.52 590.908 1018.08 582.707 1008.92 583.601Z" fill="#C49A6C"/>
<path d="M1007.74 583.651C1007.74 583.651 1006.53 586.148 1005.02 587.615C1003.5 589.082 1002.83 589.527 1002.83 589.527C1002.83 589.527 1004.89 589.072 1005.59 591.285C1006.29 593.498 1003.35 596.02 1003.31 596.987C1003.26 597.954 1004.77 600.034 1004.77 600.034C1004.77 600.034 1004.13 600.076 1004.45 601.342C1004.77 602.608 1008.16 605.771 1008.16 605.771C1008.16 605.771 1006.12 605.331 1003.09 606.321C1003.09 606.321 1002.84 605.264 1002.46 603.729C1001.81 600.966 1000.82 596.625 1000.38 594.116C999.719 590.21 999.646 585.294 1007.74 583.651Z" fill="#C49A6C"/>
<path d="M1043.66 603.601C1047.01 603.745 1050.17 603.933 1053.04 604.707C1055.17 606.515 1055.64 609.514 1052.93 611.202C1050.22 612.89 1045.63 608 1040.37 603.365C1041.47 603.473 1042.57 603.556 1043.66 603.601Z" fill="#C49A6C"/>
<path d="M1034.5 616.532C1028.58 615.859 1033.18 605.764 1029.26 601.521C1032.6 602.279 1035.98 602.859 1039.38 603.26C1042.2 607.61 1039.96 617.153 1034.5 616.532Z" fill="#C49A6C"/>
<path d="M1007.35 597.037C1007.69 597.015 1008 596.872 1008.24 596.636C1008.75 596.133 1009.55 595.284 1009.62 594.905C1009.72 594.357 1009.07 593.767 1007.36 593.83C1005.66 593.893 1005.14 594.47 1005.01 595.066C1004.92 595.475 1005.81 596.274 1006.37 596.729C1006.65 596.95 1006.99 597.06 1007.34 597.037H1007.35Z" fill="#140A08"/>
<path d="M1014.86 593.626C1015.89 593.626 1016.72 592.79 1016.72 591.758C1016.72 590.725 1015.89 589.889 1014.86 589.889C1013.82 589.889 1012.99 590.725 1012.99 591.758C1012.99 592.79 1013.82 593.626 1014.86 593.626Z" fill="#140A08"/>
<path d="M1003.03 594.382C1004.06 594.382 1004.9 593.546 1004.9 592.513C1004.9 591.481 1004.06 590.645 1003.03 590.645C1001.99 590.645 1001.16 591.481 1001.16 592.513C1001.16 593.546 1001.99 594.382 1003.03 594.382Z" fill="#140A08"/>
<path d="M1132.08 433.12C1132.08 433.12 1108.57 429.673 1108.3 434.579C1108.03 439.485 1120.51 439.959 1120.51 439.959C1120.51 439.959 1119.46 434.36 1128.53 435.026C1132.24 435.302 1135.92 435.986 1139.48 437.066C1140.73 437.446 1141.86 438.151 1142.75 439.11C1143.64 440.068 1144.26 441.245 1144.54 442.522C1144.83 443.777 1145.25 445.091 1145.86 445.943C1147.41 448.095 1154.82 447.256 1153.03 444.112C1151.25 440.967 1149.08 436.606 1132.08 433.12Z" fill="#D82E12"/>
<path d="M1096.33 517.735C1095.97 517.702 1095.61 517.741 1095.27 517.848C1094.93 517.955 1094.61 518.129 1094.34 518.36C1094.07 518.591 1093.84 518.873 1093.68 519.192C1093.52 519.51 1093.42 519.858 1093.39 520.214C1093.14 523.497 1093.53 529.312 1100.3 525.838C1107.57 522.108 1100.74 518.152 1096.33 517.735Z" fill="#D34A28"/>
<path d="M1025.14 600.517C1024.98 600.743 1017.48 611.36 1003.7 608.979C1003.34 607.07 1002.97 605.397 1002.6 603.87C1005.13 605.915 1011.33 608.004 1023.72 597.646L1024.47 600.331L1024.59 600.363L1024.73 600.401L1025.14 600.517Z" fill="#140A08"/>
<path d="M1126.17 455.626C1124.41 458.138 1120.95 459.344 1117.63 459.896L1118.92 457.671C1119.42 455.493 1124.95 453.491 1124.95 453.491L1126.17 455.626Z" fill="#F49C3B"/>
<path d="M538.669 624.64C537.875 628.463 536.476 632.61 535.24 635.155C534.637 636.411 534.072 637.265 533.635 637.516C532.63 638.086 529.506 636.85 527.978 636.19C527.726 636.081 527.512 635.901 527.361 635.671C527.21 635.442 527.129 635.173 527.129 634.899V633.67C527.129 633.594 527.108 633.52 527.068 633.455C527.028 633.39 526.971 633.338 526.903 633.303C526.835 633.269 526.759 633.254 526.683 633.26C526.608 633.267 526.535 633.294 526.474 633.339L525.567 634.012C525.382 634.149 525.16 634.226 524.93 634.234C524.7 634.242 524.473 634.181 524.278 634.057C521.234 632.11 508.722 623.944 508.73 621.151C508.717 620.756 508.796 620.363 508.961 620.003C509.825 618.273 513.068 619.204 517.501 620.694C522.691 622.452 524.946 618.582 524.946 618.582C524.946 618.582 540.03 618.139 538.669 624.64Z" fill="#ECECEC"/>
<path d="M565.773 522.271C565.773 522.271 562.226 555.262 551.076 572.122L540.024 623.901C539.867 624.646 539.427 625.301 538.797 625.728C538.166 626.154 537.395 626.319 536.645 626.187C532.013 625.351 527.76 623.085 524.483 619.707C523.796 619 523.264 618.156 522.923 617.231C522.582 616.306 522.438 615.32 522.501 614.336C523.066 605.545 525.163 578.58 530.252 565.445C536.379 549.62 556.285 520.39 556.285 520.39L565.773 522.271Z" fill="#160907"/>
<path d="M568.005 653.273C568.005 657.318 558.413 662.432 550.442 663.63C544.354 664.544 542.495 662.625 542.083 660.176C541.97 659.401 541.954 658.616 542.035 657.838C542.319 654.529 548.018 655.778 548.232 652.836C548.445 649.895 549.89 646.346 549.036 645.73C548.182 645.115 547.431 640.631 547.431 640.631L554.996 631.656L561.746 637.516C561.746 637.516 564.346 642.369 566.194 646.906C567.217 649.418 568.011 651.832 568.005 653.273Z" fill="#ECECEC"/>
<path d="M522.424 525.796C522.424 525.796 526.42 556.943 529.894 574.212C533.368 591.481 547.43 640.631 547.43 640.631C547.43 640.631 556.118 633.668 561.747 637.516C561.747 637.516 560.24 590.577 553.322 579.605L552.765 549.41L556.5 525.547L522.424 525.796Z" fill="#14192F"/>
<path d="M528.848 481.742V481.838L527.981 491.222L527.949 491.579L527.828 491.754L524.651 496.346L504.277 525.778L503.079 530.347C503.177 534.411 498.808 541.957 499.138 543.426C499.467 544.896 502.061 545.436 502.061 545.436C502.061 545.436 502.611 547.38 498.447 546.81C494.282 546.24 494.177 540.279 492.652 536.511C491.127 532.743 497.143 523.057 497.143 523.057L510.042 494.563L512.958 488.12L528.634 481.84L528.848 481.742Z" fill="#F78C68"/>
<path d="M528.838 481.838L527.971 491.222L527.818 491.755L524.64 496.347L510.084 494.681L510.031 494.566L512.948 488.123L528.624 481.833L528.838 481.838Z" fill="#D34A28"/>
<path d="M527.528 425.667C527.528 425.667 526.687 429.209 527.528 430.804C528.37 432.399 524.6 435.576 524.6 435.576L526.127 437.754C526.127 437.754 527.132 447.299 531.495 445.154C533.154 444.366 534.557 443.125 535.54 441.573C536.522 440.021 537.046 438.222 537.048 436.385C537.048 436.385 541.791 432.007 537.988 429.392C534.185 426.777 527.528 425.667 527.528 425.667Z" fill="#F78C68"/>
<path d="M545.244 436.516V442.464L534.556 446.985C533.958 445.981 532.926 445.614 532.044 445.478C531.504 445.402 530.955 445.402 530.414 445.478L537.573 432.313L545.244 436.516Z" fill="#F78C68"/>
<path d="M545.245 441.791V442.469L534.557 446.991C533.959 445.986 532.927 445.619 532.045 445.483C534.685 444.567 542.469 441.952 545.245 441.791Z" fill="#D34A28"/>
<path d="M572.311 483.362C571.71 491.81 570.836 500.531 570 507.961C569.47 512.691 568.955 516.898 568.538 520.179C568.255 522.38 567.304 524.442 565.812 526.086C564.32 527.73 562.36 528.876 560.196 529.37C552.768 531.07 541.106 533.014 531.751 531.289C528.802 530.746 526.084 529.837 523.801 528.44C523.353 528.166 522.988 527.775 522.746 527.309C522.503 526.843 522.392 526.32 522.425 525.795L524.605 490.629C524.605 490.629 530.523 476.711 531.817 470.609C532.033 469.605 532.121 468.818 532.038 468.334C531.548 465.462 529.101 459.185 524.959 458.361C524.078 458.189 523.167 458.262 522.324 458.57C522.66 458.021 523.032 457.495 523.439 456.997C524.542 455.623 526.439 453.654 529.054 452.403C530 451.94 531.003 451.602 532.038 451.399C536.604 450.519 548.272 445.938 557.91 447.169C560.593 447.513 563.117 448.306 565.285 449.758C566.006 450.239 566.678 450.789 567.294 451.399C567.294 451.399 573.818 462.19 572.311 483.362Z" fill="#025B95"/>
<path d="M522.324 458.575L508.901 482.33C508.429 483.158 508.209 484.106 508.267 485.057C508.325 486.008 508.66 486.921 509.23 487.685C511.184 490.268 515.467 493.096 524.605 490.634C539.586 486.598 535.476 447.819 522.324 458.575Z" fill="#025B95"/>
<path opacity="0.32" d="M570 507.961C569.47 512.691 568.955 516.899 568.538 520.179C568.256 522.381 567.305 524.443 565.813 526.087C564.321 527.73 562.361 528.876 560.196 529.37C552.769 531.071 541.106 533.015 531.752 531.289C536.198 517.489 534.148 480.358 534.148 480.358L570 507.961Z" fill="#002E55"/>
<path opacity="0.32" d="M540.689 472.72C540.689 472.72 537.709 507.668 534.595 483.403C533.934 478.261 532.954 474.054 531.817 470.615C529.714 464.25 527.079 460.515 524.959 458.367C524.483 457.88 523.975 457.424 523.439 457.003C524.542 455.629 526.439 453.66 529.054 452.409L533.781 456.699L540.689 472.72Z" fill="#002E55"/>
<path d="M577.623 496.168C577.573 499.26 577.472 502.521 577.302 505.824C576.49 521.46 570.688 521.44 570.688 521.44C561.236 527.433 553.562 529.013 547.609 528.179C538.114 526.848 532.997 519.388 532.035 513.892C530.792 506.786 533.909 484.375 535.233 475.523C535.402 474.399 535.797 473.322 536.393 472.354C536.989 471.387 537.774 470.55 538.702 469.894C538.975 469.699 539.261 469.521 539.556 469.361C549.809 463.772 564.15 464.493 568.613 465.177C570.505 465.468 572.198 466.985 573.577 468.766C576.007 471.948 577.372 475.816 577.478 479.818C577.603 483.583 577.729 489.476 577.623 496.168Z" fill="#ECECEC"/>
<path d="M532.037 451.416C532.037 451.416 532.539 441.984 552.451 440.904C554.963 440.768 557.279 442.464 557.764 444.923C557.948 445.857 557.861 446.825 557.513 447.711L532.037 451.416Z" fill="#025B95"/>
<path opacity="0.32" d="M565.771 451.416V464.192C565.771 464.192 553.373 476.224 558.183 466.181C562.993 456.139 557.681 447.161 557.681 447.161L557.897 447.186C560.579 447.53 563.104 448.324 565.271 449.776L565.771 451.416Z" fill="#002E55"/>
<path d="M563.534 465.225C564.08 463.407 564.334 461.515 564.287 459.618C564.287 459.161 564.262 458.706 564.23 458.259C564.214 458.056 564.199 457.855 564.179 457.654C563.829 454.334 562.977 451.087 561.652 448.023C561.763 448.023 564.687 448.463 567.281 451.417C568.66 452.987 570.255 457.408 571.496 461.394C571.66 461.917 571.815 462.432 571.964 462.931C572.928 466.159 573.584 468.766 573.584 468.766L563.534 465.225Z" fill="#ECECEC"/>
<path d="M526.049 454.35C526.049 454.35 536.769 461.384 536.182 472.722L543.142 469.105C543.142 469.105 542.728 455.272 532.037 451.419C532.037 451.416 527.661 452.165 526.049 454.35Z" fill="#ECECEC"/>
<path d="M547.609 528.179C538.114 526.848 532.997 519.388 532.035 513.892C530.792 506.785 533.909 484.375 535.233 475.523C535.402 474.399 535.797 473.321 536.393 472.354C536.989 471.387 537.774 470.55 538.702 469.894C554.665 472.574 548.762 519.91 547.609 528.179Z" fill="#D6D7D8"/>
<path d="M573.579 468.766L563.531 465.225C564.077 463.407 564.331 461.515 564.285 459.618C566.342 460.555 569.334 461.879 571.961 462.931C572.936 466.157 573.579 468.766 573.579 468.766Z" fill="#D6D7D8"/>
<path d="M577.623 496.168C576.953 496.385 576.209 496.595 575.392 496.796C574.184 497.092 572.822 497.376 571.303 497.657C568.248 498.222 564.546 498.783 560.107 499.458C559.027 499.627 557.935 499.711 556.842 499.71C555.416 499.719 553.998 499.5 552.642 499.061C543.348 495.937 544.855 482.425 544.049 479.424C543.433 477.12 537.99 473.558 536.182 472.717C536.875 470.841 539.261 469.519 539.558 469.359C540.505 468.844 541.479 468.382 542.476 467.974C543.672 467.483 544.892 467.057 546.134 466.698C551.911 465.015 557.997 464.639 562.586 464.724C564.533 464.762 566.206 464.882 567.467 465.023C567.902 465.073 568.286 465.124 568.615 465.174C570.506 465.465 572.199 466.982 573.578 468.763C576.009 471.945 577.374 475.813 577.479 479.815C577.602 483.583 577.728 489.476 577.623 496.168Z" fill="#9B8579"/>
<path d="M522.835 422.713L527.246 424.318L527.376 425.159C527.426 425.473 527.548 425.77 527.733 426.027C527.919 426.285 528.162 426.495 528.444 426.641L533.766 429.387H536.027C536.543 429.386 537.051 429.517 537.502 429.768C537.953 430.018 538.333 430.379 538.606 430.817C538.879 431.255 539.036 431.755 539.061 432.271C539.087 432.786 538.981 433.3 538.752 433.763L538.682 433.898C538.318 434.597 538.243 435.411 538.471 436.165C538.7 436.919 539.215 437.553 539.905 437.932L545.21 440.816C545.21 440.816 555.135 432.544 554.972 428.48C554.859 425.622 549.523 416.893 546.366 411.962C546.103 411.552 545.749 411.209 545.331 410.96C544.913 410.711 544.442 410.562 543.957 410.526C543.472 410.49 542.984 410.568 542.534 410.752C542.084 410.937 541.683 411.224 541.362 411.59L541.071 411.924C540.605 412.457 539.999 412.847 539.321 413.051C538.644 413.255 537.923 413.264 537.24 413.077C534.98 412.467 531.438 411.741 528.851 412.271C528.414 412.366 528.03 412.623 527.774 412.989C527.519 413.356 527.412 413.805 527.474 414.248L527.786 416.556C527.84 416.962 527.771 417.374 527.587 417.74C527.403 418.106 527.114 418.407 526.756 418.606C524.708 419.739 520.958 422.03 522.835 422.713Z" fill="#14192F"/>
<path d="M556.784 504.588L555.071 504.997C554.84 505.053 554.599 505.058 554.366 505.012C554.132 504.966 553.912 504.87 553.718 504.731C553.525 504.592 553.364 504.413 553.247 504.206C553.129 504 553.057 503.77 553.036 503.533C552.939 502.402 552.803 500.845 552.642 499.074C552.097 493.046 551.291 484.505 550.844 481.742C550.228 477.974 544.175 470.12 542.477 467.977C543.672 467.486 544.893 467.06 546.134 466.701C547.641 468.374 550.695 471.828 552.213 474.139C552.644 474.808 553.032 475.504 553.373 476.224C554.616 478.852 555.369 481.685 555.594 484.583L556.849 499.712L557.204 504.01C557.216 504.141 557.18 504.272 557.103 504.378C557.026 504.484 556.912 504.559 556.784 504.588Z" fill="#754C29"/>
<path d="M575.562 501.166C575.566 501.294 575.525 501.42 575.445 501.52C575.365 501.62 575.253 501.689 575.127 501.714L573.394 502.048C573.161 502.093 572.92 502.087 572.689 502.031C572.459 501.975 572.243 501.869 572.056 501.722C571.87 501.574 571.717 501.389 571.609 501.177C571.501 500.965 571.44 500.733 571.43 500.496C571.395 499.724 571.354 498.757 571.304 497.657C571.281 497.14 571.256 496.592 571.229 496.024C570.95 489.968 570.52 481.4 570.194 478.64C569.757 474.952 564.366 467.201 562.588 464.727C564.535 464.764 566.207 464.885 567.468 465.025C568.953 466.877 570.839 469.328 571.897 471.104C572.298 471.792 572.655 472.505 572.964 473.239C574.09 475.919 574.717 478.782 574.816 481.687L575.393 496.796V496.856L575.562 501.166Z" fill="#754C29"/>
<path d="M535.238 635.156C534.635 636.411 534.07 637.265 533.633 637.517C532.628 638.087 529.504 636.851 527.976 636.19C527.724 636.082 527.51 635.901 527.359 635.672C527.208 635.442 527.127 635.174 527.127 634.899V633.671C527.127 633.595 527.106 633.52 527.066 633.456C527.026 633.391 526.969 633.338 526.901 633.304C526.833 633.27 526.757 633.255 526.682 633.261C526.606 633.267 526.533 633.294 526.472 633.339L525.565 634.013C525.38 634.149 525.158 634.227 524.928 634.235C524.698 634.243 524.471 634.181 524.276 634.058C521.232 632.111 508.72 623.945 508.728 621.152C508.715 620.757 508.795 620.364 508.959 620.004C511.38 621.654 532.081 635.681 535.238 635.156Z" fill="#160907"/>
<path d="M568.005 653.273C568.005 657.317 558.412 662.431 550.442 663.63C544.353 664.544 542.494 662.625 542.082 660.176L549.48 656.744L551.456 652.869C552.34 651.128 553.794 649.742 555.576 648.943C558.64 647.574 563.461 645.825 566.191 646.908C567.216 649.417 568.01 651.831 568.005 653.273Z" fill="#160907"/>
<path d="M893.124 275.96C893.124 275.96 899.153 278.974 899.153 284.736C899.153 290.499 908.434 324.065 908.434 324.065C908.434 324.065 905.103 333.359 893.112 334.165C881.12 334.971 893.124 275.96 893.124 275.96Z" fill="#4FC1AE"/>
<path d="M893.125 282.274L900.947 332.05L886.205 339.977L893.125 282.274Z" fill="#02B5A5"/>
<path d="M900.806 219.171C900.806 219.171 899.005 228.58 903.688 240.956C908.37 253.332 908.294 263.982 890.611 275.959C872.927 287.936 846.746 255.613 861.764 231.943C876.783 208.274 891.668 203.135 891.668 203.135L900.806 219.171Z" fill="#14192F"/>
<path d="M833.763 212.126C833.763 212.126 794.041 244.247 825.833 265.324C851.475 282.322 861.753 231.944 861.753 231.944L848.872 199.576L833.763 212.126Z" fill="#14192F"/>
<path d="M929.574 687.909C925.758 701.843 902.405 698.208 902.405 698.208C902.017 693.004 901.313 687.828 900.298 682.71C898.964 675.908 897.562 671.406 897.562 671.406C897.562 671.406 905.369 659.098 911.24 657.842C913.131 657.433 914.824 658.179 915.987 660.856C916.337 661.687 916.61 662.548 916.801 663.429C917.497 666.498 918.441 669.507 919.624 672.424C923.844 682.828 929.574 687.909 929.574 687.909Z" fill="#F78C68"/>
<path d="M919.624 672.442C917.411 680.321 905.832 682.25 900.298 682.72C898.964 675.918 897.562 671.417 897.562 671.417C897.562 671.417 905.369 659.108 911.24 657.853C912.964 658.614 914.564 659.631 915.987 660.867C916.337 661.697 916.61 662.558 916.801 663.439C917.496 666.511 918.441 669.522 919.624 672.442Z" fill="#D34A28"/>
<path d="M786.618 672.032C784.957 685.546 788.145 688.387 788.145 688.387C782.885 695.626 762.021 684.39 762.021 684.39C763.802 680.394 765.312 674.782 766.442 669.739C767.894 663.278 768.726 657.752 768.726 657.752C768.726 657.752 778.128 651.517 784.033 652.098C786.407 652.331 788.218 653.668 788.62 656.956C788.813 658.531 788.683 660.558 788.137 663.125C787.424 666.513 786.947 669.465 786.618 672.032Z" fill="#F78C68"/>
<path d="M788.146 663.125C787.425 666.513 786.936 669.465 786.619 672.032C780.156 673.343 771.068 671.108 766.451 669.739C767.903 663.278 768.734 657.752 768.734 657.752C768.734 657.752 778.136 651.517 784.042 652.098C785.653 653.637 787.184 655.259 788.629 656.956C788.822 658.531 788.691 660.558 788.146 663.125Z" fill="#D34A28"/>
<path d="M919.962 668.764C914.903 673.306 904.293 675.398 897.641 676.3C896.056 676.514 894.449 676.132 893.129 675.228C891.81 674.324 890.874 672.962 890.502 671.407L852.847 513.802L846.585 487.598L840.217 502.88L835.54 514.103L824.488 540.613L792.878 661.548C792.422 663.293 791.441 664.856 790.069 666.027C788.696 667.197 786.998 667.918 785.202 668.094C773.321 669.244 765.459 665.441 761.015 662.138C759.62 661.093 758.566 659.656 757.989 658.01C757.412 656.365 757.338 654.585 757.775 652.897L789.038 531.244L794.755 421.608L795.006 416.567L795.197 412.925L819.082 414.09L888.619 417.481L898.103 529.539L921.901 662.919C922.099 663.978 922.025 665.07 921.686 666.092C921.347 667.114 920.753 668.034 919.962 668.764Z" fill="#4FC1AE"/>
<path d="M888.698 212.168C888.698 212.168 895.955 209.51 895.149 215.046C894.343 220.583 891.085 228.832 885.755 226.365C880.424 223.898 888.698 212.168 888.698 212.168Z" fill="#F78C68"/>
<path d="M887.797 216.225C887.797 216.225 892.841 210.623 894.328 214.999L887.797 216.225Z" fill="#D34A28"/>
<path d="M926.533 483.618C926.533 483.618 923.154 483.159 926.688 470.25L920.077 459.803L922.368 469.484C922.368 469.484 925.455 474.553 923.765 478.549C923.765 478.549 922.074 480.853 919.924 475.015C917.774 469.178 911.934 463.644 911.934 463.644L909.924 453.041L908.402 450.223L906.244 446.234L885.34 407.551C885.34 407.551 882.211 396.579 879.684 383.754C876.893 369.592 874.836 353.167 878.533 346.759C885.567 334.544 897.307 332.758 897.307 332.758C897.307 332.758 896.702 340.236 896.584 349.256C896.481 357.123 896.747 366.168 898.091 372.448C900.47 383.46 910.994 422.324 914.772 436.197C915.654 439.437 917.169 442.471 919.228 445.124L919.306 445.222C924.33 451.718 933.624 463.928 933.727 465.94C933.91 468.715 926.533 483.618 926.533 483.618Z" fill="#F78C68"/>
<path d="M863.429 284.517C847.82 290.156 840.516 250.767 840.516 250.767C844.175 248.472 846.727 246.229 848.493 244.141C854.253 237.321 851.613 232.142 851.613 232.142C851.613 232.142 875.905 226.134 874.288 234.378C873.687 237.444 874.539 243.134 875.205 249.65C876.566 262.89 877.194 279.544 863.429 284.517Z" fill="#F78C68"/>
<path d="M897.323 332.775C897.323 332.775 896.717 340.253 896.599 349.273C894.979 352.594 891.54 360.353 884.449 378.394C882.608 383.076 881.038 384.578 879.699 383.771C876.909 369.61 874.851 353.184 878.549 346.777C885.595 334.554 897.323 332.775 897.323 332.775Z" fill="#D34A28"/>
<path d="M875.205 249.65C860.797 261.825 851.903 250.293 848.494 244.141C854.254 237.321 851.614 232.142 851.614 232.142C851.614 232.142 875.906 226.134 874.289 234.378C873.688 237.444 874.535 243.134 875.205 249.65Z" fill="#D34A28"/>
<path d="M890.609 211.703C890.609 216.403 888.326 227.493 882.8 236.38C878.708 242.961 872.838 248.334 864.802 249.012C852.69 250.037 847.689 234.403 845.659 223.057C844.981 219.303 844.533 215.512 844.318 211.703C843.602 195.934 855.491 185.429 871.986 180.109C888.482 174.789 890.609 203.53 890.609 211.703Z" fill="#F78C68"/>
<path d="M888.633 417.479C871.404 431.97 809.222 429.435 809.222 429.435L794.759 421.606L787.133 417.479C787.133 417.479 790.097 417.117 795.02 416.565C800.853 415.912 809.436 414.99 819.096 414.088L888.633 417.479Z" fill="#02B5A5"/>
<path d="M897.322 332.776C897.322 332.789 897.322 332.803 897.322 332.816C894.592 342.715 884.492 364.893 884.492 373.034C884.492 374.847 884.479 376.666 884.461 378.394C884.439 380.431 884.406 382.348 884.374 383.993C884.311 387.231 884.245 389.419 884.245 389.419L887.981 413.239L888.646 417.486C815.224 430.905 795.225 412.93 795.225 412.93L801.848 392.629L806.196 379.316L811.167 370.296C811.167 370.296 814.302 367.553 811.821 365.855C809.339 364.157 809.6 362.841 812.072 359.575C814.543 356.31 815.588 345.205 813.639 338.151C811.813 331.578 810.876 321.53 810.768 320.184C810.768 320.086 810.756 320.033 810.756 320.033L823.413 289.67C823.413 289.67 824.995 263.868 803.901 270.198L834.689 253.87L840.519 250.778C840.519 250.778 852.711 275.533 861.759 277.105C870.807 278.678 875.826 257.38 875.826 257.38L880.988 262.928L893.115 275.97V298.941C893.115 298.941 900.04 322.887 897.322 332.776Z" fill="#4FC1AE"/>
<path d="M814.71 418.948V426.86C814.71 434.775 809.141 443.438 792.151 454.187C775.16 464.935 760.089 461.685 751.551 461.363C751.33 461.363 751.114 461.345 750.903 461.31C744.021 460.464 743.772 450.451 743.815 447.997C743.815 447.656 743.832 447.462 743.832 447.462C732.433 448.201 732.102 439.876 732.401 433.092C732.7 426.307 726.533 410.432 726.533 410.432C719.53 409.428 723.016 397.752 723.016 397.752L734.433 389.4C726.45 366.372 730.944 349.138 742.722 332.039C754.5 314.941 773.425 316.029 773.425 316.029C773.425 316.029 778.064 320.869 782.618 326.091C786.024 330.002 789.383 334.129 790.704 336.601C793.791 342.378 795.66 362.473 795.66 362.473L798.315 378.273C800.912 393.721 806.855 405.378 807.129 405.891V405.908L814.308 418.277L814.71 418.948Z" fill="#FB461E"/>
<path d="M762.492 318.961C762.492 318.961 755.609 309.73 757.368 306.479C758.188 305.007 759.145 303.615 760.226 302.322C760.706 301.734 761.358 301.311 762.091 301.114C762.823 300.916 763.6 300.953 764.31 301.219C766.694 302.126 770.088 304.025 770.959 307.665C772.361 313.435 780.057 325.781 762.492 318.961Z" fill="#FB461E"/>
<path d="M774.469 426.649C770.385 430.455 754.744 444.001 743.824 448C743.824 447.659 743.842 447.465 743.842 447.465C732.443 448.204 732.111 439.879 732.41 433.095C732.709 426.31 726.543 410.435 726.543 410.435C719.54 409.43 723.026 397.755 723.026 397.755L734.443 389.403C734.443 389.403 751.774 376.64 763.663 381.616C775.552 386.592 778.795 422.618 774.469 426.649Z" fill="#D82E12"/>
<path d="M814.709 418.948V426.86C814.709 434.775 809.14 443.439 792.15 454.187C775.16 464.935 760.088 461.685 751.55 461.364C751.329 461.364 751.113 461.346 750.902 461.311C757.82 458.045 784.162 444.197 792.637 419.4L814.32 418.277L814.709 418.948Z" fill="#D82E12"/>
<path d="M807.131 405.891C806.699 405.138 792.889 381.275 789.046 373.681C785.14 365.96 781.035 343.722 781.035 343.722C780.721 335.142 781.372 329.548 782.623 326.102C786.029 330.013 789.387 334.14 790.709 336.611C793.796 342.389 795.664 362.484 795.664 362.484L798.32 378.283C800.914 393.721 806.867 405.369 807.131 405.891Z" fill="#D82E12"/>
<path d="M814.708 445.539L810.418 475.917C803.852 477.638 808.521 452.62 808.521 452.62L806.883 447.166L805.723 454.931C805.723 454.931 798.974 466.988 796.301 467.711C793.628 468.434 794.543 464.066 794.543 464.066L793.262 464.265C791.98 464.461 792.646 460.844 792.646 460.844C792.646 460.844 791.536 461.698 790.594 459.954C789.652 458.211 793.518 445.579 791.785 440.924C790.051 436.27 792.646 419.4 792.646 419.4L759.178 375.786C751.527 365.325 754.533 354.702 754.533 354.702L768.56 326.011L773.435 316.039L798.614 331.947L792.792 339.337L779.308 356.445C779.308 356.445 786.748 376.985 795.221 394.261C803.693 411.538 814.708 445.539 814.708 445.539Z" fill="#F78C68"/>
<path d="M880.997 262.918C879.409 269.223 875.295 281.875 867.106 286.027C857.378 290.961 838.993 261.16 834.686 253.858L840.516 250.766C840.516 250.766 852.708 275.52 861.756 277.093C870.804 278.665 875.823 257.367 875.823 257.367L880.997 262.918Z" fill="#049E8B"/>
<path d="M832.093 289.659H848.493V297.172H828.645L832.093 289.659Z" fill="#049E8B"/>
<path d="M807.141 405.909L814.709 401.938L818.386 409.342L814.709 418.948L807.141 405.909Z" fill="#FC461E"/>
<path d="M801.083 329.116L795.034 336.506C782.726 337.669 774.168 329.015 769.857 323.193L774.924 313.221L801.083 329.116Z" fill="#D34A28"/>
<path d="M828.645 297.172C828.645 297.172 829.398 306.777 828.645 315.227C827.891 323.677 814.709 401.937 814.709 401.937L818.386 409.342L833.764 316.039V301.914L828.645 297.172Z" fill="#D82E12"/>
<path d="M768.553 308.373C768.553 308.373 774.599 338.882 806.208 330.636L824.294 289.114C824.294 289.114 827.81 264.44 804.781 269.64C804.781 269.64 792.74 273.747 768.553 308.373Z" fill="#4FC1AE"/>
<path d="M781.924 290.669C781.924 290.669 797.246 260.411 812.466 259.328C815.829 259.059 819.207 259.607 822.312 260.926C829.597 264.038 834.309 271.225 834.54 279.137L835.271 304.316C835.277 304.498 835.229 304.678 835.134 304.834C835.039 304.99 834.9 305.114 834.735 305.192C834.57 305.27 834.386 305.297 834.205 305.272C834.025 305.246 833.855 305.168 833.719 305.047L828.496 300.445C828.231 300.211 828.016 299.926 827.864 299.605C827.713 299.285 827.629 298.938 827.617 298.584L826.864 276.211C826.818 274.421 826.356 272.666 825.512 271.086C824.669 269.507 823.468 268.146 822.006 267.113C820.966 266.363 819.781 265.838 818.527 265.571C817.272 265.305 815.976 265.303 814.721 265.565C806.796 267.173 790.311 281.257 790.311 281.257L781.924 290.669Z" fill="#FC461E"/>
<path d="M877.586 190.237C877.586 190.237 880.269 202.337 885.373 208.684C887.173 210.881 889.703 212.356 892.501 212.841C895.958 213.477 902.443 215.74 895.217 231.932C895.217 231.932 908.073 221.791 905.382 208.616C902.692 195.442 895.681 195.577 892.961 185.03C890.241 174.483 883.971 178.127 883.971 178.127L877.586 190.237Z" fill="#14192F"/>
<path d="M883.966 178.139L877.585 190.236C877.585 190.236 851.088 194.255 844.318 211.713L837.536 229.158C837.536 229.158 822.485 215.913 829.589 205.619C836.692 195.325 839.013 193.396 843.59 185.928C848.166 178.461 863.78 159.069 883.966 178.139Z" fill="#14192F"/>
<path d="M978.91 703.611C960.556 721.016 907.573 726.358 903.212 724.761C898.593 723.068 901.484 714.015 901.484 714.015L897.563 698.642C896.056 692.694 902.064 694.372 902.064 694.372C911.888 695.693 918.801 694.036 923.239 692.069C924.073 691.696 924.808 691.134 925.387 690.428C925.966 689.721 926.372 688.89 926.573 687.999C926.775 687.108 926.766 686.183 926.548 685.296C926.33 684.41 925.908 683.586 925.317 682.89C925.317 682.89 926.944 680.554 929.587 679.494C932.229 678.434 938.321 689.04 938.321 689.04C952.766 690.738 965.069 688.655 974.346 689.04C978.616 689.218 980.555 691.634 981.379 694.184C981.901 695.828 981.947 697.586 981.51 699.255C981.072 700.924 980.171 702.434 978.91 703.611Z" fill="#ECECEC"/>
<path d="M808.758 727.936C807.695 731.815 804.254 734.161 796.929 733.211C781.554 731.235 753.775 696.932 753.775 696.932L756.878 689.741L760.746 680.779C760.894 680.435 761.119 680.131 761.405 679.891C761.691 679.65 762.029 679.479 762.392 679.392C762.755 679.305 763.134 679.303 763.498 679.388C763.862 679.473 764.201 679.641 764.489 679.879C767.87 682.675 771.622 685.626 771.622 685.626L772.17 683.981C773 681.506 774.775 679.459 777.108 678.287C793.483 670.033 788.713 686.4 788.713 686.4C788.713 686.4 800.695 701.155 805.633 711.916C808.22 717.557 809.928 723.674 808.758 727.936Z" fill="#ECECEC"/>
<path d="M816.166 363.249C816.166 363.249 809.658 385.68 801.836 392.621L806.184 379.308L811.155 370.288C811.155 370.288 814.29 367.545 811.808 365.847C809.326 364.149 809.588 362.832 812.059 359.567C814.531 356.302 815.576 345.197 813.627 338.143C811.801 331.57 810.864 321.522 810.756 320.176L819.12 300.978C819.12 300.978 819.236 312.067 819.12 326.096C819.005 340.125 820.527 360.657 816.166 363.249Z" fill="#02B5A5"/>
<path d="M897.309 332.809C894.578 342.708 884.478 364.885 884.478 373.026C884.478 374.84 884.465 376.658 884.448 378.387C881.554 379.992 871.951 383.684 871.951 383.684C871.951 383.684 879.08 379.881 875.646 373.83C872.255 367.852 847.204 378.351 846.594 378.603L847.448 378.176C888.595 357.475 896.939 333.901 897.309 332.809Z" fill="#02B5A5"/>
<path d="M852.847 513.799L846.584 487.595L840.217 502.877L846.594 448.008L852.847 513.799Z" fill="#02B5A5"/>
<path d="M883.115 235.493C883.068 235.809 882.962 236.113 882.801 236.39C881.378 238.719 879.68 240.868 877.744 242.792C874.26 246.198 869.983 248.585 864.803 249.022C852.691 250.047 847.69 234.413 845.66 223.067C845.66 223.067 846.351 222.785 847.564 222.393C852.4 220.831 865.511 217.49 876.031 223.067L883.11 225.626C883.11 225.626 883.152 233.054 883.115 235.493Z" fill="#ECECEC"/>
<path d="M881.801 225.146L890.61 211.713L883.114 225.621L881.801 225.146Z" fill="#ECECEC"/>
<path d="M877.744 242.792C874.26 246.199 869.983 248.585 864.803 249.022C852.691 250.047 847.69 234.413 845.66 223.067C845.66 223.067 846.351 222.785 847.564 222.394C849.865 228.03 856.891 236.41 877.744 242.792Z" fill="#D6D7D8"/>
<path d="M919.324 445.233L908.408 450.224L906.25 446.235L916.323 440.367C917.118 442.061 918.099 443.661 919.246 445.14L919.324 445.233Z" fill="#ECECEC"/>
<path d="M919.415 445.961C920.519 445.394 920.684 443.512 919.783 441.759C918.882 440.006 917.256 439.045 916.152 439.612C915.047 440.18 914.883 442.061 915.784 443.814C916.685 445.568 918.311 446.529 919.415 445.961Z" fill="#594A42"/>
<path d="M887.967 413.231C887.907 413.055 887.851 412.867 887.796 412.668C884.046 398.989 859.693 397.612 859.693 397.612C859.693 397.612 872.393 396.037 874.114 391.737C875.835 387.437 862.559 389.049 862.559 389.049L884.352 383.985C884.29 387.223 884.224 389.411 884.224 389.411L887.967 413.231Z" fill="#02B5A5"/>
<path d="M808.758 727.936C807.695 731.814 804.254 734.16 796.929 733.211C781.554 731.234 753.775 696.932 753.775 696.932L756.878 689.74C764.064 698.843 791.353 731.621 808.758 727.936Z" fill="#D6D7D8"/>
<path d="M978.909 703.611C960.555 721.016 907.572 726.359 903.211 724.761C898.592 723.068 901.483 714.015 901.483 714.015C901.483 714.015 946.34 718.635 981.376 694.187C981.898 695.83 981.943 697.588 981.507 699.256C981.07 700.924 980.17 702.434 978.909 703.611Z" fill="#D6D7D8"/>
<path d="M869.387 207.619V208.39C869.386 208.491 869.408 208.591 869.451 208.684C869.493 208.776 869.556 208.857 869.633 208.922C869.711 208.987 869.802 209.035 869.9 209.061C869.998 209.087 870.101 209.091 870.201 209.073C872.421 208.676 880.926 207.727 886.41 208.498C886.41 208.498 879.565 206.307 870.035 206.925C869.859 206.937 869.694 207.015 869.574 207.144C869.453 207.272 869.386 207.442 869.387 207.619Z" fill="#15192F"/>
<path d="M860.295 206.906L860.217 207.689C860.207 207.792 860.174 207.892 860.121 207.981C860.069 208.07 859.997 208.147 859.911 208.205C859.826 208.264 859.729 208.302 859.626 208.319C859.524 208.336 859.42 208.33 859.32 208.302C857.107 207.677 848.564 205.863 842.92 206.099C842.92 206.099 850.089 204.557 859.707 206.137C859.884 206.167 860.043 206.263 860.152 206.406C860.261 206.548 860.312 206.727 860.295 206.906Z" fill="#15192F"/>
<path d="M875.594 218.666C876.855 218.666 877.877 217.338 877.877 215.7C877.877 214.062 876.855 212.733 875.594 212.733C874.333 212.733 873.311 214.062 873.311 215.7C873.311 217.338 874.333 218.666 875.594 218.666Z" fill="#15192F"/>
<path d="M853.813 218.274C855.12 218.274 856.18 216.898 856.18 215.2C856.18 213.502 855.12 212.125 853.813 212.125C852.507 212.125 851.447 213.502 851.447 215.2C851.447 216.898 852.507 218.274 853.813 218.274Z" fill="#15192F"/>
<path d="M748.14 519.571L747.233 519.544L693.843 517.881C692.093 517.827 690.432 517.095 689.213 515.837C687.994 514.58 687.312 512.898 687.313 511.147V510.177C687.313 508.578 687.882 507.031 688.918 505.812C689.955 504.594 691.391 503.785 692.969 503.528L746.583 494.817C747.512 494.666 748.464 494.711 749.375 494.95C750.286 495.189 751.137 495.617 751.872 496.206C752.608 496.794 753.211 497.53 753.645 498.367C754.078 499.203 754.331 500.121 754.387 501.061L755.073 512.433C755.129 513.367 754.99 514.304 754.664 515.181C754.338 516.059 753.833 516.86 753.181 517.531C752.529 518.203 751.744 518.731 750.876 519.083C750.008 519.434 749.076 519.6 748.14 519.571Z" fill="#002E55"/>
<path opacity="0.48" d="M747.233 519.544L693.843 517.881C692.093 517.827 690.432 517.094 689.213 515.837C687.994 514.58 687.312 512.898 687.313 511.147V510.579L738.758 502.217C739.688 502.066 740.64 502.112 741.551 502.351C742.462 502.591 743.313 503.019 744.049 503.607C744.784 504.196 745.388 504.932 745.822 505.769C746.255 506.605 746.508 507.523 746.565 508.464L747.233 519.544Z" fill="#170A08"/>
<path opacity="0.32" fill-rule="evenodd" clip-rule="evenodd" d="M743.326 279.287V303.904L764.559 297.267V270.084L743.326 279.287Z" fill="#8699AD"/>
<path opacity="0.32" fill-rule="evenodd" clip-rule="evenodd" d="M1098.72 108.312V143.418L1122 135.35V99.1992L1098.72 108.312Z" fill="#8699AD"/>
<path opacity="0.32" fill-rule="evenodd" clip-rule="evenodd" d="M1127.34 156.907V192.013L1150.62 183.944V147.791L1127.34 156.907Z" fill="#8699AD"/>
<path opacity="0.32" fill-rule="evenodd" clip-rule="evenodd" d="M1104.89 234.119V269.225L1128.18 261.157V225.006L1104.89 234.119Z" fill="#8699AD"/>
<path opacity="0.32" fill-rule="evenodd" clip-rule="evenodd" d="M1197.91 194.997V230.103L1221.2 225.17V188.763L1197.91 194.997Z" fill="#8699AD"/>
<path opacity="0.32" fill-rule="evenodd" clip-rule="evenodd" d="M1274.66 177.577V212.683L1297.95 207.75V171.343L1274.66 177.577Z" fill="#8699AD"/>
<path opacity="0.32" fill-rule="evenodd" clip-rule="evenodd" d="M997.658 215.042V239.658L1018.89 233.022V205.841L997.658 215.042Z" fill="#8699AD"/>
<path opacity="0.32" fill-rule="evenodd" clip-rule="evenodd" d="M1029.37 242.316V266.932L1050.6 260.296V233.112L1029.37 242.316Z" fill="#8699AD"/>
<path opacity="0.32" fill-rule="evenodd" clip-rule="evenodd" d="M920.861 188.159V200.468L931.476 197.149V183.558L920.861 188.159Z" fill="#8699AD"/>
<path opacity="0.32" fill-rule="evenodd" clip-rule="evenodd" d="M942.145 218.895V231.203L952.76 227.888V214.296L942.145 218.895Z" fill="#8699AD"/>
<path opacity="0.32" fill-rule="evenodd" clip-rule="evenodd" d="M923.139 253.696V266.005L933.756 262.686V249.095L923.139 253.696Z" fill="#8699AD"/>
<path opacity="0.32" fill-rule="evenodd" clip-rule="evenodd" d="M743.326 200.245V224.861L764.559 218.225V191.041L743.326 200.245Z" fill="#8699AD"/>
<path opacity="0.32" fill-rule="evenodd" clip-rule="evenodd" d="M763.225 239.219V258.678L780.009 253.433V231.944L763.225 239.219Z" fill="#8699AD"/>
<path opacity="0.32" fill-rule="evenodd" clip-rule="evenodd" d="M1197.91 254.789V289.895L1221.2 284.964V248.555L1197.91 254.789Z" fill="#8699AD"/>
<path opacity="0.32" fill-rule="evenodd" clip-rule="evenodd" d="M1002.37 285.708V310.324L1023.6 303.69V276.507L1002.37 285.708Z" fill="#8699AD"/>
<path opacity="0.32" fill-rule="evenodd" clip-rule="evenodd" d="M944.551 283.141V295.449L955.166 292.131V278.539L944.551 283.141Z" fill="#8699AD"/>
<path opacity="0.32" fill-rule="evenodd" clip-rule="evenodd" d="M920.861 312.186V324.494L931.476 321.176V307.584L920.861 312.186Z" fill="#8699AD"/>
</g>
</g>
<defs>
<linearGradient id="paint0_linear_1513_21304" x1="388.451" y1="1032.79" x2="920.878" y2="-148.54" gradientUnits="userSpaceOnUse">
<stop offset="0.46" stop-color="#E0FFE0" stop-opacity="0"/>
<stop offset="1" stop-color="#20CDF4"/>
</linearGradient>
<linearGradient id="paint1_linear_1513_21304" x1="367.957" y1="336.091" x2="770.191" y2="336.091" gradientUnits="userSpaceOnUse">
<stop stop-color="#F8F4F1" stop-opacity="0"/>
<stop offset="0.59" stop-color="#8699AD"/>
</linearGradient>
<linearGradient id="paint2_linear_1513_21304" x1="417.459" y1="389.049" x2="778.405" y2="389.049" gradientUnits="userSpaceOnUse">
<stop offset="0.28" stop-color="#D5CFE2" stop-opacity="0"/>
<stop offset="0.76" stop-color="#D5CFE2"/>
</linearGradient>
<linearGradient id="paint3_linear_1513_21304" x1="434.534" y1="635.155" x2="805.304" y2="635.155" gradientUnits="userSpaceOnUse">
<stop stop-color="#687B92" stop-opacity="0"/>
<stop offset="1" stop-color="#8699AD"/>
</linearGradient>
<linearGradient id="paint4_linear_1513_21304" x1="487.241" y1="631.018" x2="602.634" y2="631.018" gradientUnits="userSpaceOnUse">
<stop stop-color="#687B92" stop-opacity="0"/>
<stop offset="1" stop-color="#687B92"/>
</linearGradient>
<clipPath id="clip0_1513_21304">
<rect width="1378" height="752" rx="30" fill="white"/>
</clipPath>
<clipPath id="clip1_1513_21304">
<rect width="1617.07" height="755.991" fill="white" transform="translate(-115.066)"/>
</clipPath>
</defs>
</svg>
