<svg width="100%" viewBox="0 0 33 33" fill="none" xmlns="http://www.w3.org/2000/svg">
<path opacity="0.4" d="M22.7178 3.14844H10.2615C5.72224 3.14844 3.15039 5.72029 3.15039 10.2595V22.704C3.15039 27.2433 5.72224 29.8151 10.2615 29.8151H22.7178C27.2571 29.8151 29.8171 27.2433 29.8171 22.704V10.2595C29.8171 5.72029 27.2571 3.14844 22.7178 3.14844Z" fill="#A6CB0C"/>
<path d="M10.3093 12.9736C9.70481 12.9736 9.20703 13.4714 9.20703 14.0877V23.2492C9.20703 23.8536 9.70481 24.3514 10.3093 24.3514C10.9255 24.3514 11.4233 23.8536 11.4233 23.2492V14.0877C11.4233 13.4714 10.9255 12.9736 10.3093 12.9736Z" fill="#A6CB0C"/>
<path d="M16.53 8.60059C15.9255 8.60059 15.4277 9.09836 15.4277 9.71466V23.2495C15.4277 23.8539 15.9255 24.3517 16.53 24.3517C17.1463 24.3517 17.644 23.8539 17.644 23.2495V9.71466C17.644 9.09836 17.1463 8.60059 16.53 8.60059Z" fill="#A6CB0C"/>
<path d="M22.6707 17.8096C22.0544 17.8096 21.5566 18.3073 21.5566 18.9236V23.2496C21.5566 23.854 22.0544 24.3518 22.6589 24.3518C23.2752 24.3518 23.7729 23.854 23.7729 23.2496V18.9236C23.7729 18.3073 23.2752 17.8096 22.6707 17.8096Z" fill="#A6CB0C"/>
</svg>
