<svg width="100%" viewBox="0 0 947 753" fill="none" xmlns="http://www.w3.org/2000/svg">
<g filter="url(#filter0_f_1513_21135)">
<rect x="150.26" y="150.039" width="658.036" height="452.203" rx="38" fill="url(#paint0_linear_1513_21135)" fill-opacity="0.69"/>
</g>
<g clip-path="url(#clip0_1513_21135)">
<rect x="22" y="105.562" width="845" height="496.977" rx="20" fill="white"/>
<g clip-path="url(#clip1_1513_21135)">
<path d="M162.037 321.496C190.117 321.496 212.881 298.732 212.881 270.652C212.881 242.572 190.117 219.809 162.037 219.809C133.957 219.809 111.193 242.572 111.193 270.652C111.193 298.732 133.957 321.496 162.037 321.496Z" fill="#ECECEC"/>
<path d="M805.733 420.607C805.662 419.786 805.58 418.977 805.499 418.145C804.37 406.808 802.629 395.541 800.282 384.392C799.978 382.914 799.659 381.442 799.325 379.974C795.568 363.311 790.455 346.983 784.039 331.152C769.461 294.983 748.113 261.929 721.142 233.764C712.01 224.221 702.259 215.289 691.954 207.027C688.53 204.284 685.051 201.623 681.515 199.044C674.417 193.863 667.11 189.023 659.593 184.523C655.104 181.831 650.543 179.268 645.909 176.834C640 173.711 633.977 170.794 627.84 168.084C591.836 152.201 552.916 143.998 513.564 143.998C474.212 143.998 435.292 152.201 399.288 168.084C364.313 183.523 332.941 205.619 305.986 233.764C297.743 242.362 290.009 251.434 282.825 260.935C279.793 264.939 276.864 269.018 274.038 273.173C273.36 274.177 272.687 275.184 272.016 276.195C269.332 280.231 266.747 284.336 264.262 288.509C263.707 289.444 263.164 290.382 262.631 291.324C261.251 293.694 259.901 296.083 258.583 298.492C257.362 300.731 256.166 302.986 254.996 305.258C253.826 307.529 252.692 309.797 251.594 312.062C249.75 315.855 247.987 319.691 246.306 323.571C245.35 325.745 244.424 327.937 243.53 330.147C243.388 330.473 243.252 330.805 243.122 331.131C240.655 337.224 238.385 343.383 236.313 349.607C235.052 353.372 233.865 357.161 232.753 360.976C230.003 370.359 227.701 379.858 225.846 389.474C225.364 391.973 224.912 394.482 224.488 397C223.977 400.032 223.509 403.076 223.086 406.13C221.781 415.571 220.899 425.094 220.439 434.698C220.32 437.194 220.229 439.694 220.167 442.197C220.095 444.922 220.06 447.653 220.064 450.392C220.064 454.378 220.138 458.346 220.287 462.299C220.851 477.541 222.505 492.724 225.238 507.73C231.213 540.782 242.459 572.66 258.545 602.146L258.664 602.363L260.294 599.717C244.494 570.457 233.486 538.854 227.688 506.111C225.054 491.331 223.47 476.384 222.95 461.381C222.823 457.721 222.76 454.059 222.76 450.392C222.76 447.653 222.794 444.922 222.863 442.197C222.921 439.69 223.013 437.191 223.14 434.698C223.553 426.13 224.307 417.616 225.401 409.157C225.803 406.041 226.252 402.94 226.748 399.853C227.147 397.353 227.576 394.859 228.036 392.37C229.961 381.989 232.412 371.712 235.378 361.579C236.487 357.782 237.671 354.005 238.932 350.249C240.972 344.155 243.202 338.123 245.622 332.152C245.703 331.946 245.79 331.739 245.877 331.533C246.939 328.921 248.036 326.33 249.17 323.762C250.851 319.925 252.607 316.135 254.436 312.393C255.132 310.969 255.838 309.545 256.556 308.138C257.979 305.33 259.447 302.548 260.957 299.791C262.617 296.751 264.329 293.746 266.093 290.775C266.538 290.007 266.997 289.243 267.468 288.482C269.279 285.482 271.14 282.517 273.049 279.586C273.657 278.644 274.277 277.706 274.907 276.771C278.168 271.902 281.561 267.132 285.086 262.462C292.182 253.079 299.819 244.117 307.959 235.622C334.663 207.733 365.769 185.844 400.397 170.552C436.055 154.821 474.601 146.697 513.575 146.697C552.549 146.697 591.095 154.821 626.753 170.552C632.636 173.149 638.42 175.941 644.105 178.926C649.365 181.676 654.531 184.594 659.603 187.681C666.849 192.075 673.914 196.799 680.797 201.853C684.167 204.328 687.487 206.882 690.758 209.516C700.798 217.583 710.301 226.297 719.207 235.601C745.94 263.517 767.097 296.28 781.544 332.131C788.335 348.876 793.65 366.184 797.429 383.854C797.722 385.213 798.005 386.577 798.277 387.946C800.266 397.884 801.773 407.936 802.798 418.102C802.879 418.922 802.956 419.732 803.032 420.563C803.952 430.41 804.41 440.341 804.406 450.354C804.406 455.473 804.283 460.585 804.037 465.69C803.653 473.66 802.968 481.593 801.983 489.487C801.592 492.65 801.153 495.8 800.668 498.937C799.497 506.48 798.061 513.961 796.358 521.381C795.815 523.75 795.244 526.105 794.646 528.446C794.478 529.119 794.304 529.788 794.13 530.456C793.043 534.648 791.864 538.814 790.592 542.955C790.589 542.968 790.589 542.981 790.592 542.993C788.212 550.775 785.533 558.447 782.555 566.008C779.932 572.685 777.074 579.262 773.98 585.74C773.255 587.251 772.531 588.752 771.806 590.245C770.176 593.56 763.932 600.972 762.165 604.222H762.013L763.774 606.939L764.16 606.233C765.524 603.744 771.371 597.108 772.659 594.581C773.445 593.049 774.217 591.511 774.974 589.968C777.173 585.49 779.262 580.961 781.24 576.382C782.892 572.567 784.464 568.719 785.957 564.839C790.026 554.281 793.522 543.511 796.429 532.576C801.589 513.166 804.908 493.314 806.341 473.282C806.885 465.674 807.158 458.033 807.162 450.36C807.118 440.375 806.642 430.457 805.733 420.607ZM222.749 450.398C222.749 447.659 222.783 444.927 222.852 442.203H220.135C220.062 444.927 220.028 447.659 220.032 450.398C220.032 454.383 220.106 458.352 220.254 462.304L222.939 461.386C222.816 457.731 222.752 454.068 222.749 450.398ZM251.551 312.083C249.707 315.876 247.944 319.713 246.263 323.593C245.307 325.767 244.381 327.959 243.486 330.169C244.258 330.642 245.051 331.103 245.855 331.554C246.917 328.942 248.015 326.352 249.149 323.783C250.83 319.947 252.585 316.157 254.415 312.415L251.551 312.083Z" fill="#FF9C00"/>
<path d="M599.755 384.061C599.755 384.061 595.571 378.48 603.38 370.671C603.38 370.671 601.309 383.338 606.825 386.191C610.456 388.03 614.218 389.599 618.08 390.886C618.08 390.886 614.862 386.658 616.927 378.436L621.753 390.886C628.175 393.812 635.442 394.301 642.197 392.261V387.229L644.969 391.364C644.969 391.364 674.787 384.908 683.411 377.458C692.035 370.008 697.089 355.992 690.655 338.331C684.221 320.669 607.51 322.941 607.51 322.941L585.686 364.742C585.686 364.742 590.158 382.055 599.755 384.061Z" fill="#160907"/>
<path d="M147.619 264.782C147.64 264.698 147.69 264.624 147.759 264.57C147.827 264.517 147.912 264.489 147.999 264.489C148.087 264.489 148.171 264.519 148.239 264.574C148.306 264.63 148.352 264.707 148.369 264.793L150.434 274.532L152.531 270.853C152.565 270.793 152.615 270.744 152.674 270.71C152.733 270.676 152.8 270.657 152.868 270.657H168.057C168.127 270.658 168.195 270.677 168.254 270.714C168.313 270.75 168.362 270.802 168.394 270.863L170.378 274.597L173.367 264.761C173.389 264.676 173.441 264.601 173.512 264.55C173.584 264.499 173.671 264.474 173.759 264.48C173.847 264.486 173.93 264.522 173.994 264.582C174.058 264.642 174.1 264.722 174.111 264.81L175.785 275.216H180.089C183.893 269.434 185.702 263.027 182.029 257.892C175.426 248.653 166.383 255.62 163.134 258.653C159.873 255.62 150.847 248.67 144.244 257.892C140.815 262.685 142.141 268.581 145.44 274.043L147.619 264.782Z" fill="#D82E12"/>
<path d="M175.46 276.744C175.37 276.744 175.282 276.712 175.213 276.653C175.145 276.594 175.099 276.513 175.085 276.424L173.618 267.332L170.852 276.473C170.829 276.545 170.786 276.609 170.727 276.657C170.668 276.704 170.597 276.734 170.522 276.741C170.446 276.749 170.371 276.734 170.304 276.699C170.237 276.664 170.182 276.61 170.145 276.543L167.841 272.196H153.092L150.603 276.543C150.564 276.611 150.506 276.665 150.435 276.699C150.364 276.732 150.285 276.744 150.208 276.731C150.131 276.719 150.059 276.683 150.003 276.629C149.946 276.575 149.907 276.506 149.891 276.429L147.973 267.381L146.006 275.712C150.679 282.907 158.565 289.178 163.129 290.928C167.477 289.298 174.835 283.515 179.557 276.755L175.46 276.744Z" fill="#D82E12"/>
<path d="M487.798 353.335L480.695 421.894C480.695 421.894 405.614 371.6 414.749 350.476C418.667 341.406 420.531 329.119 421.379 318.05C421.613 314.996 421.77 312.034 421.874 309.257C422.265 298.66 421.874 290.78 421.874 290.78L479.363 292.807C479.363 292.807 478.19 302.41 476.255 315.865C475.837 318.772 475.38 321.843 474.896 325.071C474.592 327.063 474.277 329.1 473.951 331.179C470.658 352.031 487.798 353.335 487.798 353.335Z" fill="#AB570F"/>
<path d="M118.41 461.255C118.41 461.255 108.047 466.239 116.726 479.357C125.404 492.476 134.083 506.36 133.219 514.751C132.355 523.142 130.198 533.842 140.675 539.917C151.152 545.993 160.412 549.156 164.754 542.814C169.096 536.472 182.59 443.632 118.41 461.255ZM132.268 493.454C131.219 493.997 129.583 492.91 128.622 491.036C127.66 489.161 127.736 487.199 128.785 486.688C129.833 486.177 131.475 487.231 132.436 489.106C133.398 490.981 133.355 492.916 132.268 493.454ZM145.088 522.218C139.382 515.224 148.951 516.3 148.951 516.3C148.951 516.3 156.619 523.256 156.75 526.755C156.88 530.255 150.81 529.217 145.109 522.218H145.088Z" fill="#3F4F21"/>
<path d="M329.191 345.727C328.229 346.933 328.686 354.09 329.512 361.796C330.599 371.79 332.262 382.702 332.262 382.702L320.219 391.576L314.72 395.625L294.151 383.517L296.118 375.909L297.998 368.649C297.998 368.649 293.683 363.992 296.074 358.324C296.074 358.324 287.445 349.444 288.211 345.923C288.977 342.401 291.58 341.483 290.814 332.88C290.814 332.88 290.917 319.425 288.162 309.763C288.162 309.763 291.276 306.551 295.227 312.061C299.177 317.572 299.667 326.734 299.667 326.734L312.888 300.106C312.888 300.106 310.28 276.673 313.801 274.249C317.323 271.826 318.41 276.798 318.41 276.798L319.241 282.564C319.04 280.798 317.681 266.804 324.844 265.875L325.931 277.526L327.632 277.282C327.632 277.282 327.871 295.003 332.849 302.888V329.299C332.849 329.299 331.512 343.254 329.208 345.684L329.191 345.727Z" fill="#025B95"/>
<path d="M265.436 324.854L263.512 348.721L262.425 362.459L244.215 421.894L200.414 366.703C204.9 357.975 207.924 348.57 209.364 338.863C210.94 328.435 210.245 321.234 210.245 321.234L265.436 324.854Z" fill="#F78C68"/>
<path d="M760.128 474.423C760.128 474.423 747.733 480.102 745.206 497.34C745.206 497.34 742.489 485.792 750.249 467.809C750.249 467.809 742.472 455.718 729.647 451.93L725.023 475.423C725.023 475.423 721.034 471.483 722.083 464.337C723.131 457.191 726.283 430.916 649.975 443.735C649.975 443.735 670.37 449.42 678.777 467.809L691.178 466.293L677.722 474.01C677.722 474.01 680.439 483.248 685.086 485.362C689.732 487.476 714.931 492.927 714.931 492.927C714.931 492.927 685.923 494.188 680.043 492.927L682.657 501.459C685.254 509.947 692.928 516.055 701.807 516.262H702.742C715.355 516.05 720.61 513.105 727.55 515.001C727.55 515.001 711.79 517.311 706.948 519.414C702.106 521.517 685.504 522.571 685.086 524.674C684.667 526.777 695.411 575.121 735.533 550.759C735.533 550.759 746.043 543.608 747.515 531C747.515 531 769.128 539.467 778.714 520.832C788.3 502.198 770.225 476.95 760.128 474.423ZM710.013 463.201C708.801 458.066 709.247 455.343 709.643 454.12C709.727 453.875 709.886 453.661 710.098 453.511C710.309 453.361 710.563 453.281 710.823 453.284C715.54 453.36 715.763 458.718 716.942 466.293C718.181 474.298 711.79 470.717 710.013 463.201V463.201ZM717.078 508.377C710.975 512.898 703.622 509.828 700.568 508.181C700.255 508.013 699.994 507.763 699.813 507.456C699.633 507.15 699.541 506.8 699.546 506.445C699.552 506.089 699.655 505.742 699.845 505.442C700.035 505.141 700.304 504.899 700.623 504.741C706.166 502.019 723.523 503.611 717.099 508.377H717.078ZM737.185 497.465C736.982 497.672 736.73 497.825 736.452 497.908C736.173 497.991 735.879 498.002 735.595 497.939C735.312 497.877 735.049 497.743 734.832 497.551C734.614 497.358 734.45 497.113 734.353 496.84C733.381 494.122 731.294 486.77 736.19 483.672C741.087 480.575 740.255 494.079 737.196 497.465H737.185Z" fill="#3F4F21"/>
<path d="M667.278 600.125C667.278 600.125 666.457 593.973 662.523 591.294C658.588 588.615 651.176 581.681 652.741 578.686C654.306 575.692 667.267 566.872 667.267 566.872C662.503 566.168 657.649 567.294 653.681 570.024C653.681 570.024 646.198 554.335 680.663 546.896L667.278 600.125Z" fill="#3F4F20"/>
<path d="M777.187 606.988H774.03C773.546 596.195 770.492 579.224 759.96 555.166C755.72 545.443 750.896 535.984 745.516 526.842L748.233 525.212C753.691 534.473 758.582 544.057 762.878 553.911C769.09 568.149 776.404 588.522 777.187 606.988Z" fill="#3F4F21"/>
<path d="M763.737 606.988H760.237C750.521 586.93 738.114 574.621 723.284 570.377C702.459 564.399 683.956 568.855 683.765 568.986L681.988 566.372C682.793 565.828 701.916 560.937 724.159 567.344C740.195 571.947 753.493 585.272 763.737 606.988Z" fill="#3F4F21"/>
<path d="M765.181 577.148C746.042 574.001 745.514 570.86 745.514 570.86C768.339 573.648 774.007 566.388 774.007 566.388C774.181 547.422 752.362 539.254 748.514 538.2C744.667 537.145 733.298 553.22 733.298 553.22C731.559 546.759 741.509 536.982 741.509 536.982C741.509 536.982 737.162 534.184 730.331 533.798C723.5 533.412 722.652 539.596 718.017 543.786C713.381 547.976 713.919 544.139 717.06 539.439C720.201 534.738 714.588 532.662 714.588 532.662C654.81 538.45 667.26 600.135 667.26 600.135C668.45 579.109 689.296 568.425 692.965 567.686C696.633 566.947 698.551 569.822 703.436 572.795C707.311 575.142 712.718 573.115 714.811 572.17L705.713 576.631C704.485 585.87 718.457 587.283 718.457 587.283L732.081 580.126C732.081 580.126 725.272 587.462 722.842 590.603C720.413 593.744 730.695 600.135 730.695 600.135C770.165 615.606 774.882 579.256 774.882 577.506C774.882 575.756 765.181 577.148 765.181 577.148ZM717.126 581.881C716.935 581.809 716.765 581.692 716.632 581.538C716.498 581.385 716.405 581.2 716.361 581.002C716.317 580.803 716.323 580.597 716.378 580.401C716.434 580.205 716.538 580.026 716.68 579.881C718.267 578.251 722.375 574.343 722.375 577.675C722.375 580.81 718.924 582.511 717.126 581.881ZM742.906 561.953C742.77 558.921 752.226 556.649 757.117 555.682C757.44 555.619 757.774 555.649 758.08 555.768C758.387 555.887 758.654 556.091 758.85 556.355C759.046 556.619 759.163 556.934 759.188 557.262C759.213 557.59 759.145 557.918 758.992 558.209C755.226 565.665 743.085 565.594 742.906 561.953Z" fill="#606D29"/>
<path d="M767.9 521.012C777.203 535.483 794.191 526.859 794.191 526.859C796.365 537.043 805.538 542.075 805.538 542.075C840.269 558.829 845.209 518.485 844.698 516.8C844.187 515.115 830.568 515.566 826.422 514.229C822.276 512.893 809.244 512.246 809.244 512.246C814.765 510.154 819.287 512.143 829.612 511.322C829.867 511.322 830.123 511.279 830.373 511.251C833.904 510.786 837.201 509.225 839.799 506.788C842.397 504.351 844.165 501.16 844.855 497.666L846.339 490.481C841.633 491.97 817.83 493.231 817.83 493.231C817.83 493.231 838.013 486.775 841.622 484.694C845.23 482.613 846.741 474.841 846.741 474.841L835.139 469.597L845.388 469.858C850.822 454.169 867.022 447.92 867.022 447.92C803.669 443.464 808.331 464.679 809.739 470.44C811.146 476.2 808.212 479.727 808.212 479.727L802.576 460.897C792.398 465.005 787.001 475.494 787.001 475.494C794.773 489.574 793.447 499.225 793.447 499.225C790.028 485.341 779.448 481.678 779.448 481.678C771.378 484.504 758.602 506.551 767.9 521.012ZM814.092 471.603C814.456 465.31 814.217 460.924 818.064 460.489C818.276 460.468 818.489 460.514 818.673 460.62C818.857 460.727 819.003 460.888 819.091 461.082C819.515 462.049 820.091 464.239 819.504 468.532C818.624 474.814 813.689 478.243 814.07 471.603H814.092ZM830.438 501.731C830.711 501.834 830.949 502.011 831.128 502.241C831.307 502.472 831.418 502.747 831.451 503.036C831.483 503.326 831.436 503.619 831.312 503.884C831.189 504.148 830.996 504.373 830.753 504.535C828.389 506.121 822.602 509.208 817.282 505.997C811.624 502.611 825.688 499.943 830.416 501.731H830.438ZM799.729 487.324C803.973 489.465 802.848 495.644 802.267 497.932C802.21 498.163 802.095 498.376 801.933 498.551C801.771 498.726 801.567 498.856 801.341 498.929C801.114 499.003 800.873 499.017 800.639 498.971C800.405 498.925 800.187 498.82 800.006 498.666C797.213 496.144 795.441 485.172 799.707 487.324H799.729Z" fill="#606D29"/>
<path d="M781.453 606.439L784.55 605.83C782.92 595.146 782.654 577.903 788.354 552.264C790.636 541.904 793.539 531.691 797.049 521.68L794.093 520.593C790.525 530.729 787.58 541.073 785.273 551.568C781.887 566.768 778.649 588.174 781.453 606.439Z" fill="#3F4F21"/>
<path d="M693.259 393.24V398.609L643.638 438.524C643.638 438.524 631.568 416.086 643.638 403.342C648.376 398.337 649.393 397.109 648.882 391.81C648.088 383.61 643.638 376.806 643.638 376.806C643.638 376.806 647.284 357.357 652.507 343.429C657.588 329.875 664.158 321.539 670.309 341.396C670.706 342.662 671.097 344.037 671.483 345.537C673.01 351.444 674.488 356.618 675.901 361.15C686.243 394.424 693.259 393.24 693.259 393.24Z" fill="#F9A993"/>
<path opacity="0.53" d="M675.875 361.144C667.066 387.604 654.975 391.636 648.855 391.805C648.062 383.604 643.611 376.801 643.611 376.801C643.611 376.801 647.258 357.351 652.48 343.423C658.458 339.94 665.305 339.222 670.283 341.39C670.68 342.657 671.071 344.032 671.457 345.531C672.984 351.444 674.462 356.617 675.875 361.144Z" fill="#D14928"/>
<path d="M265.437 324.854L263.513 348.722C236.64 377.334 217.218 352.569 209.365 338.848C210.941 328.419 210.246 321.219 210.246 321.219L265.437 324.854Z" fill="#D34A28"/>
<path d="M317.498 497.937C317.498 497.937 299.733 555.911 315.161 603.13H153.272L162.266 584.11L164.44 579.49C164.44 579.49 158.038 574.545 166.07 569.279L166.184 569.209L160.114 550.569L140.963 491.661L140.692 482.02L137.975 386.284L191.427 364.9L203.529 360.058L238.602 406.309L262.426 362.46L262.475 362.498C263.018 362.938 268.034 366.932 275.132 371.557C281.332 375.605 289.13 380.127 296.95 383.181C314.248 389.946 339.028 403.5 339.028 403.5L317.498 497.937Z" fill="#4FC1AE"/>
<path d="M216.575 469.825L167.742 425.416L194.332 479.357L216.575 469.825Z" fill="#02B5A5"/>
<path d="M239.866 452.772C239.866 452.772 233.541 484.014 261.74 489.884C261.723 489.884 265.065 453.8 239.866 452.772Z" fill="#014A72"/>
<path d="M172.863 515.241C161.043 528.924 160.141 550.564 160.141 550.564L140.963 491.661L140.691 482.021C156.179 490.254 181.177 505.6 172.863 515.241Z" fill="#02B5A5"/>
<path d="M691.036 541.227C691.036 541.227 717.268 582.055 714.915 604.689L709.04 604.76L590.844 606.134L594.517 566.67L590.844 443.029C590.844 443.029 597.908 432.823 608.304 426.66C613.983 423.302 623.95 416.688 631.846 411.352C638.449 406.896 643.611 403.342 643.611 403.342V426.66C643.611 426.66 680.684 396.228 693.259 393.239C693.259 393.239 698.047 395.69 704.579 400C712.774 405.434 723.719 413.754 731.392 423.856C731.392 423.856 707.182 428.905 702.47 447.735C697.824 466.325 708.578 489.834 708.856 490.438L692.042 533.369C692.042 533.369 695.411 538.874 691.036 541.227Z" fill="#4FC1AE"/>
<path d="M155.347 512.061C155.347 512.061 156.782 517.071 167.503 516.74C178.225 516.408 148.195 483.324 148.195 483.324C148.195 483.324 149.043 507.838 155.347 512.061Z" fill="#049E8B"/>
<path d="M549.119 495.372C549.119 495.372 571.036 507.79 604.734 463.31C604.734 463.266 558.564 452.887 549.119 495.372Z" fill="#049E8B"/>
<path d="M368.035 520.832C357.476 535.347 339 520.936 327.555 509.328C323.991 505.715 320.633 501.905 317.496 497.916C317.496 497.916 315.491 502.991 310.513 489.857C305.535 476.722 351.096 427.492 351.096 427.492L368.035 444.551C370.12 451.971 371.78 459.504 373.008 467.114C375.888 484.661 377.312 508.078 368.035 520.832Z" fill="#F78C68"/>
<path d="M373.009 467.114C349.88 467.043 332.3 499.556 327.545 509.311C323.981 505.698 320.623 501.888 317.486 497.899C317.486 497.899 315.481 502.975 310.503 489.84C305.525 476.705 351.087 427.476 351.087 427.476L368.026 444.534C370.115 451.96 371.778 459.498 373.009 467.114V467.114Z" fill="#C24425"/>
<path d="M261.725 483.042C261.725 483.042 235.569 501.551 205.007 520.653C181.557 535.325 164.858 515.713 158.358 505.795C157.657 504.708 157.076 503.784 156.619 502.996C155.777 501.556 155.348 500.67 155.348 500.67C164.749 465.701 197.072 463.94 197.072 463.94L199.061 467.619L200.409 470.108C217.554 462.174 243.21 455.125 243.21 455.125C243.21 455.125 243.503 451.321 250.851 456.886C258.198 462.451 261.725 483.042 261.725 483.042Z" fill="#F78C68"/>
<path d="M320.219 391.576L314.719 395.625L294.15 383.517L296.118 375.909L301.954 376.453C304.52 376.699 307.003 377.498 309.231 378.796C311.459 380.093 313.38 381.858 314.861 383.968L320.219 391.576Z" fill="#004D81"/>
<path d="M199.061 467.619C169.173 476.586 160.624 497.508 158.358 505.796C157.657 504.709 157.076 503.785 156.619 502.997C155.777 501.557 155.348 500.671 155.348 500.671C164.749 465.701 197.072 463.94 197.072 463.94L199.061 467.619Z" fill="#AF3C21"/>
<path d="M479.342 292.802C479.342 292.802 478.168 302.404 476.234 315.86C452.095 339.184 430.08 318.865 421.891 309.257C422.282 298.66 421.891 290.78 421.891 290.78L479.342 292.802Z" fill="#893F09"/>
<path d="M313.627 399.402L300.731 391.522L305.937 395.821L305.741 405.673C306.203 408.754 305.801 412.841 304.78 417.531C299.889 440.083 280.787 476.602 275.298 482.678C268.674 490.019 261.713 489.878 261.713 489.878C261.284 485.115 260.492 480.391 259.343 475.749C253.192 451.745 239.834 452.745 239.834 452.745L259.783 444.442C260.403 439.692 264.636 441.654 264.636 441.654L261.979 410.597C261.787 408.412 262.312 406.224 263.473 404.364C267.402 398.087 275.592 388.686 280.32 383.425C281.41 382.212 282.776 381.28 284.303 380.707C285.83 380.134 287.472 379.936 289.091 380.132L305.823 382.164C306.817 382.285 307.776 382.608 308.641 383.114C309.505 383.619 310.257 384.297 310.85 385.104L317.914 394.729L313.627 399.402Z" fill="#025B95"/>
<path d="M304.786 417.531C299.895 440.083 280.793 476.602 275.305 482.678C268.68 490.019 261.719 489.878 261.719 489.878C261.29 485.115 260.498 480.391 259.35 475.749L274.158 453.821C274.158 453.821 267.583 446.007 269.626 433.421C271.669 420.835 292.771 412.939 292.771 412.939C292.771 412.939 298.314 410.901 304.786 417.531Z" fill="#004D81"/>
<path d="M357.471 575.463L337.141 594.06C270.56 538.63 266.359 480.537 267.952 471.298C268.788 466.445 273.234 460.62 277.266 456.191C279.455 453.779 281.769 451.484 284.2 449.316L317.013 473.227L324.784 492.873L357.471 575.463Z" fill="#AB570F"/>
<path d="M276.755 297.107C276.826 309.024 274.658 318.355 271.375 325.642C264.62 340.657 253.132 347.005 246.703 349.488C243.788 350.612 240.592 350.783 237.574 349.977C226.368 346.983 217.972 340.196 212.032 331.332C204.859 320.648 201.234 306.937 200.512 293.178C199.11 266.549 214.25 260.382 214.25 260.382C255.447 242.997 276.473 249.741 276.755 297.107Z" fill="#F78C68"/>
<path d="M611.189 500.698C615.536 550.401 584.158 599.674 584.158 599.674L557.998 597.054L573.692 503.747L562.714 489.02L555.818 479.781L559.568 476.059L584.338 451.441C584.338 451.441 585.968 452.865 588.403 455.142C591.766 458.256 596.712 462.978 601.195 467.799C606.086 473.054 610.433 478.423 611.607 481.966C614.64 491.101 611.189 500.698 611.189 500.698Z" fill="#AB570F"/>
<path d="M403.952 255.104C403.952 255.104 384.535 261.571 405.387 282.537C405.387 282.537 409.935 285.721 415.169 283.901C420.402 282.08 403.952 255.104 403.952 255.104Z" fill="#AB570F"/>
<path d="M495.166 265.261C492.226 290.64 482.95 319.094 455.925 316.817C437.992 315.301 426.101 305.557 418.249 293.927C405.049 274.364 403.25 249.518 403.25 249.518C439.437 177.486 495.911 227.536 495.911 227.536C496.795 240.108 496.546 252.734 495.166 265.261V265.261Z" fill="#AB570F"/>
<path d="M601.195 467.782L562.714 489.019L555.818 479.781L559.568 476.058L588.403 455.142C591.766 458.239 596.712 462.962 601.195 467.782Z" fill="#893F09"/>
<path d="M694.182 577.952L686.895 583.674L678.184 590.511L667.348 567.86L677.537 562.111L682.613 559.247L694.182 577.952Z" fill="#F9A993"/>
<path d="M675.271 336C675.271 347.771 673.64 356.053 670.989 362.156C665.223 375.394 654.577 378.377 644.98 384.523C631.937 392.871 618.895 367.992 613.852 352.064C613.472 350.858 613.14 349.706 612.852 348.624C608.776 333.196 619.732 313.002 619.732 313.002C622.819 300.378 675.271 298.694 675.271 336Z" fill="#F9A993"/>
<path d="M604.729 463.266C591.687 461.848 571.58 476.341 559.456 486.318C553.239 491.427 549.13 495.35 549.13 495.35L531.295 476.45L526.458 471.325C525.6 457.565 536.295 363.59 550.331 376.447C564.368 389.305 604.729 463.266 604.729 463.266Z" fill="#4FC1AE"/>
<path d="M201.898 290.112C201.898 290.112 191.947 283.705 191.284 295.862C190.621 308.018 201.67 319.376 204.658 316.023C207.647 312.67 201.898 290.112 201.898 290.112Z" fill="#F78C68"/>
<path d="M273.762 294.302C273.762 294.302 281.055 288.553 284.152 294.302C287.25 300.052 285.038 318.654 273.762 319.3C262.485 319.947 273.762 294.302 273.762 294.302Z" fill="#F78C68"/>
<path d="M559.456 486.319C553.239 491.427 549.13 495.351 549.13 495.351L531.295 476.45C534.01 469.452 538.568 463.317 544.484 458.696C544.484 458.696 543.989 474.771 559.456 486.319Z" fill="#02B5A5"/>
<path d="M399.42 574.627L405.642 563.639C404.618 562.116 404.237 560.251 404.582 558.449C405.305 553.65 409.549 548.993 409.549 548.993C409.549 548.993 407.984 548.211 401.74 541.57C399.213 538.885 399.115 535.815 399.887 533.109C401.034 529.114 404.082 525.914 404.082 525.914L357.472 449.181C372.993 400.43 351.098 368.72 351.098 368.72C401.463 345.896 417.679 341.858 417.679 341.858C426.374 361.917 470.294 403.337 470.294 403.337C482.674 395.484 482.994 352.031 482.994 352.031C525.295 361.427 550.32 376.486 550.32 376.486L539.147 414.841C549.114 427.829 547 445.192 545.185 454.854C543.658 463.006 537.723 496.818 535.702 513.632C535.327 516.751 535.088 519.289 535.033 520.963C534.854 526.62 535.033 533.462 534.783 539.483C534.533 544.869 533.914 549.596 532.311 552.243C528.914 557.857 536.223 559.894 535.028 565.677C533.832 571.459 545.897 597.245 545.897 597.245L558.309 604.353L390.785 604.728L391.176 589.207L399.42 574.627Z" fill="#4FC1AE"/>
<path d="M201.795 297.405C201.795 297.405 207.947 290.955 206.49 280.265C206.49 280.265 210.436 278.195 210.903 276.673C211.37 275.152 214.066 272.565 214.066 268.696L221.935 263.772L228.151 266.12C228.151 266.12 223.108 277.374 229.086 282.532C229.086 282.532 230.173 270.337 235.184 270.337L244.569 273.739C244.569 273.739 259.241 269.516 268.018 266.131C268.018 266.131 268.485 275.369 272.365 276.331L276.778 297.117C276.778 297.117 280.691 291.341 281.864 285.124C283.038 278.907 287.375 264.25 286.907 263.783C286.44 263.316 276.001 256.398 276.001 256.398C276.001 256.398 285.033 250.768 283.272 245.725C281.511 240.682 275.887 230.949 268.262 229.895L270.49 239.394C270.49 239.394 251.823 226.601 246.313 225.661C240.803 224.721 212.191 230.938 199.409 243.372C199.409 243.372 194.953 255.566 202.67 256.153C202.67 256.153 196.225 260.501 195.752 265.533C195.279 270.565 197.16 288.428 197.16 288.428C197.16 288.428 202.306 291.292 201.795 297.405Z" fill="#12192F"/>
<path d="M324.789 492.856C303.052 492.313 283.613 465.788 277.271 456.191C279.46 453.779 281.775 451.484 284.206 449.316L317.018 473.227L324.789 492.856Z" fill="#893F09"/>
<path d="M275.11 371.557L242.504 420.71C242.101 421.406 241.529 421.989 240.839 422.403C240.15 422.817 239.367 423.049 238.563 423.077C237.76 423.105 236.962 422.929 236.246 422.564C235.529 422.2 234.917 421.659 234.466 420.993L191.41 364.9L203.512 360.058L234.146 400.456C234.625 401.088 235.255 401.59 235.978 401.916C236.701 402.242 237.494 402.381 238.285 402.321C239.076 402.261 239.839 402.004 240.505 401.573C241.171 401.141 241.718 400.55 242.096 399.853L262.41 362.46L262.459 362.498L275.11 371.557Z" fill="#049E8B"/>
<path d="M198.675 593.733C182.916 595.048 166.754 586.669 162.265 584.142L164.439 579.523C164.439 579.523 158.037 574.577 166.069 569.312C178.671 581.897 198.675 593.733 198.675 593.733Z" fill="#02B5A5"/>
<path d="M181.73 434.703L183.089 442.202H224.124V434.703H181.73Z" fill="#049E8B"/>
<path d="M334.174 599.554C334.174 599.554 339.521 574.078 361.144 573.648L366.715 583.495C366.715 583.495 376.806 583.12 386.512 581.865C387.839 581.692 389.188 581.892 390.408 582.441C394.082 584.071 402.364 587.609 407.064 588.033C408.388 588.145 409.656 588.61 410.738 589.381C414.336 591.984 422.427 597.424 427.943 598.076C435.22 598.934 424.514 608.352 403.32 598.288L410.385 604.711H343.38L334.174 599.554Z" fill="#025B95"/>
<path d="M545.01 604.314C545.01 604.314 547.776 591.005 558.318 590.185C568.861 589.364 585.724 592.821 588.207 602.439L587.55 604.287L545.01 604.314Z" fill="#025B95"/>
<path d="M271.93 438.453C271.93 438.453 304.699 480.363 329.724 486.319L357.471 449.18C357.471 449.18 378.453 394.402 351.102 368.72C351.102 368.709 277.869 417.118 271.93 438.453Z" fill="#4FC1AE"/>
<path d="M417.678 341.847L401.098 347.558C401.098 347.558 453.751 419.482 474.461 414.824C495.171 410.167 494.497 354.829 494.497 354.829L483.009 352.041C483.009 352.041 483.737 389.278 470.304 403.342C470.282 403.325 434.383 370.833 417.678 341.847Z" fill="#049E8B"/>
<path d="M497.27 233.117C497.031 233.681 496.749 234.226 496.427 234.747C496.401 234.399 496.346 234.054 496.264 233.715C495.373 229.846 489.743 216.504 454.714 218.091C427.172 219.336 413.712 235.66 407.848 246.208C406.239 249.029 404.932 252.011 403.946 255.104C397.273 245.54 392.866 248.507 405.962 218.108C406.792 216.184 407.698 214.122 408.679 211.923C417.374 192.256 432.84 188.012 445.443 188.333C455.121 188.639 464.525 191.618 472.614 196.941C474.201 197.973 475.951 199.115 477.771 200.403C484.613 205.147 492.395 211.211 495.705 216.238C500.449 223.542 498.569 230.177 497.27 233.117Z" fill="#049E8B"/>
<path d="M494.492 255.104C494.492 255.104 501.013 247.773 502.921 255.104C504.828 262.435 503.073 283.607 487.797 281.189C472.521 278.77 494.492 255.104 494.492 255.104Z" fill="#AB570F"/>
<path d="M370.41 425.416C370.41 425.416 379.594 498.964 425.894 548.906C417.259 540.711 404.451 529.885 399.886 533.108C401.032 529.114 404.081 525.913 404.081 525.913L357.471 449.18L370.41 425.416Z" fill="#02B5A5"/>
<path d="M434.292 557.324C431.372 554.624 428.581 551.833 425.918 548.949C430.581 553.351 434.026 557.014 434.292 557.324Z" fill="#02B5A5"/>
<path d="M271.387 325.642C269.237 330.484 266.281 334.926 262.643 338.777C258.186 343.475 252.747 347.133 246.715 349.488C243.799 350.611 240.603 350.782 237.585 349.977C226.379 346.983 217.983 340.195 212.044 331.332L211.832 321.376C211.832 321.376 211.641 321.121 211.288 320.648C209.441 318.007 203.213 308.567 201.789 299.775V297.405C201.789 297.405 207.071 317.382 213.136 318.567L213.478 318.49L224.89 315.882L240.976 312.219C243.595 311.622 246.296 311.475 248.964 311.784L271.745 314.409C271.745 314.409 269.805 321.68 271.387 325.642Z" fill="#ECECEC"/>
<path d="M262.632 338.776C258.175 343.475 252.736 347.132 246.704 349.487C243.789 350.611 240.593 350.782 237.574 349.976C226.368 346.982 217.972 340.195 212.033 331.331L211.821 321.376C211.821 321.376 211.631 321.12 211.277 320.647C212.022 319.865 212.755 319.142 213.451 318.474L224.863 315.865C230.874 321.647 244.633 333.396 262.632 338.776Z" fill="#D7DDDC"/>
<path d="M269.756 314.197C269.756 314.197 275.522 306.459 276.614 298.345C276.668 297.932 276.712 297.519 276.744 297.106C276.744 297.106 276.065 309.518 271.745 314.409L269.756 314.197Z" fill="#ECECEC"/>
<path d="M495.166 265.261C493.476 279.814 489.732 295.378 481.7 305.578C475.722 313.186 467.451 317.789 455.925 316.816C437.991 315.3 426.101 305.556 418.248 293.927C420.966 285.895 416.428 275.45 416.205 274.907C432.927 269.891 454.626 249.208 462.772 255.109C469.103 259.696 487.384 263.706 495.166 265.261Z" fill="#ECECEC"/>
<path d="M636.269 308.627C635.693 308.954 635.045 309.137 634.383 309.158C633.72 309.18 633.062 309.04 632.465 308.752C629.748 307.453 624.857 307.121 622.271 318.843C618.521 335.733 612.891 335.108 608.826 347.618C604.761 360.128 604.734 366.698 604.734 366.698C604.734 366.698 603.142 357.628 604.734 348.558C604.734 348.558 580.366 365.769 599.756 384.061C599.756 384.061 566.129 370.176 578.486 351.683C589.665 334.961 599.137 317.566 601.56 308.295C602.197 305.847 603.004 303.447 603.973 301.111L604.734 299.29C604.734 299.29 597.642 299.611 594.952 297.231C594.952 297.231 605.332 297.193 610.652 289.302C616.086 281.21 646.975 262.179 661.088 283.906C661.088 283.906 674.674 280.422 680.722 299.736C686.771 319.05 700.699 326.908 700.699 326.908C700.699 326.908 731.011 349.813 700.699 370.475L683.412 377.447C683.412 377.447 698.346 350.819 683.298 335.342C682.67 334.696 681.903 334.202 681.056 333.898C680.208 333.594 679.302 333.487 678.407 333.586C671.636 334.353 653.453 334.733 649.062 317.615C648.288 314.526 646.508 311.782 644.002 309.817C641.785 308.11 639.035 307.013 636.269 308.627Z" fill="#13192F"/>
<path d="M714.915 604.689L709.04 604.76C712.415 580.702 687.51 544.542 687.51 544.542L689.02 540.651C690.536 536.76 687.933 536.977 687.51 533.521C687.086 530.065 693.129 515.37 695.074 512.778C697.02 510.186 702.171 478.852 702.171 478.852L708.856 490.438L692.042 533.369C692.042 533.369 695.406 538.89 691.031 541.243C691.036 541.227 717.268 582.055 714.915 604.689Z" fill="#02B5A5"/>
<path d="M675.207 333.821C675.207 333.821 682.271 328.327 683.901 333.196C685.532 338.065 685.097 357.107 673.652 353.672L675.207 333.821Z" fill="#F9A993"/>
<path opacity="0.53" d="M694.177 577.975L686.889 583.697C679.89 578.953 678.009 566.992 677.531 562.133L682.607 559.27L694.177 577.975Z" fill="#D14928"/>
<path d="M396.887 427.514L401.098 437.127C401.098 437.127 423.52 426.492 442.345 425.416L439.503 416.526C439.503 416.526 432.286 413.222 396.887 427.514Z" fill="#049E8B"/>
<path d="M399.42 574.626L405.642 563.638C404.618 562.116 404.238 560.25 404.583 558.448C410.164 563.203 432.178 581.213 449.198 584.962C449.198 584.962 422.206 583.115 399.42 574.626Z" fill="#02B5A5"/>
<path d="M535.702 513.594C535.327 516.713 535.088 519.251 535.033 520.925C534.854 526.582 535.033 533.424 534.783 539.445C529.335 545.522 522.512 550.206 514.883 553.107C525.741 546.488 535.702 513.594 535.702 513.594Z" fill="#02B5A5"/>
<path d="M535.033 565.638C528.338 574.876 509.139 581.142 509.139 581.142L532.311 552.204C528.914 557.818 536.223 559.856 535.033 565.638Z" fill="#02B5A5"/>
<path d="M731.392 423.862C731.392 423.862 773.008 509.888 771.899 519.865C770.791 529.843 775.779 554.503 697.357 582.767C697.357 582.767 686.075 581.382 680.766 556.139C680.766 556.139 725.403 531.75 726.343 527.881C727.283 524.011 723.403 528.424 723.958 521.229C724.512 514.034 708.861 490.433 708.861 490.433C708.861 490.433 674.538 429.557 731.392 423.862Z" fill="#4FC1AE"/>
<path d="M148.934 567.019C147.744 583.224 145.233 595.337 141.451 603.13H138.402C148.309 584.702 146.853 540.695 146.836 540.228L149.554 540.13C149.554 540.255 149.983 552.672 148.934 567.019Z" fill="#3F4F21"/>
<path d="M626.075 329.081L625.749 330.196C625.676 330.453 625.508 330.673 625.279 330.811C625.05 330.95 624.777 330.996 624.515 330.94C622.298 330.473 616.842 329.446 614.44 330.157C611.532 331.016 616.842 326.848 625.173 327.728C625.325 327.749 625.471 327.803 625.601 327.884C625.731 327.966 625.843 328.074 625.928 328.202C626.013 328.33 626.07 328.474 626.096 328.626C626.121 328.778 626.114 328.933 626.075 329.081Z" fill="#0D121E"/>
<path d="M666.213 224.037C681.66 224.037 694.183 211.514 694.183 196.066C694.183 180.619 681.66 168.096 666.213 168.096C650.765 168.096 638.242 180.619 638.242 196.066C638.242 211.514 650.765 224.037 666.213 224.037Z" fill="#ECECEC"/>
<path d="M155.347 512.061C155.347 512.061 149.228 476.238 197.078 463.94L167.732 425.416L137.936 386.289C137.936 386.289 108.313 396.614 109.487 431.427C110.661 466.239 155.347 512.061 155.347 512.061Z" fill="#4FC1AE"/>
<path d="M116.818 489.02C116.818 489.02 106.145 493.911 103.971 508.746C103.971 508.746 101.618 498.802 108.319 483.325C108.319 483.325 101.624 472.918 90.5864 469.657L86.6193 489.878C86.6193 489.878 83.1848 486.487 84.0869 480.336C84.989 474.184 87.7062 451.566 22.0215 462.604C22.0215 462.604 39.5744 467.494 46.8129 483.325L57.4859 482.02L45.8619 488.661C45.8619 488.661 48.2149 496.622 52.1983 498.443C56.1817 500.263 77.8918 504.964 77.8918 504.964C77.8918 504.964 52.8939 506.051 47.8563 504.964L50.1061 512.306C51.1737 515.889 53.3394 519.047 56.2976 521.333C59.2558 523.619 62.8573 524.919 66.5938 525.049H67.3981C78.2668 524.865 82.7773 522.332 88.7496 523.963C88.7496 523.963 75.1638 525.951 71.0174 527.767C66.871 529.582 52.5407 530.484 52.1983 532.293C51.8559 534.103 61.0617 575.719 95.624 554.732C95.624 554.732 104.672 548.575 105.949 537.722C105.949 537.722 124.551 545.01 132.806 528.968C141.06 512.925 125.507 491.194 116.818 489.02ZM73.6802 479.358C72.6368 474.939 73.0172 472.592 73.3596 471.543C73.4343 471.333 73.5719 471.151 73.7537 471.021C73.9355 470.892 74.1527 470.822 74.3758 470.82C78.4352 470.885 78.6254 475.488 79.6417 482.02C80.7068 488.911 75.2072 485.83 73.6802 479.358ZM79.7775 518.246C74.5225 522.137 68.197 519.496 65.5668 518.077C65.2978 517.932 65.0738 517.716 64.9194 517.452C64.7649 517.188 64.6859 516.887 64.691 516.581C64.696 516.276 64.7849 515.977 64.948 515.719C65.1111 515.46 65.342 515.252 65.6157 515.115C70.3653 512.762 85.3205 514.143 79.7775 518.246ZM97.075 508.85C96.9003 509.028 96.6829 509.159 96.4434 509.23C96.2039 509.301 95.9502 509.31 95.7064 509.256C95.4626 509.201 95.2367 509.086 95.0502 508.919C94.8636 508.753 94.7226 508.542 94.6404 508.306C93.8035 505.975 92.0048 499.611 96.2218 496.976C100.439 494.34 99.7106 505.937 97.075 508.85Z" fill="#3F4F21"/>
<path d="M36.889 597.223C36.889 597.223 36.188 591.924 32.7969 589.615C29.4059 587.305 23.0152 581.344 24.39 578.746C25.7649 576.148 36.889 568.578 36.889 568.578C32.7909 567.974 28.6161 568.945 25.2052 571.296C25.2052 571.296 18.7601 557.791 48.4261 551.39L36.889 597.223Z" fill="#3F4F20"/>
<path d="M131.502 603.13H128.785C128.367 593.837 125.736 579.219 116.672 558.519C113.022 550.151 108.869 542.01 104.238 534.141L106.553 532.723C111.252 540.694 115.463 548.944 119.161 557.427C124.53 569.698 130.828 587.213 131.502 603.13Z" fill="#3F4F21"/>
<path d="M119.898 603.13H116.888C108.524 585.865 97.8402 575.268 85.0967 571.611C67.1634 566.47 51.2409 570.301 51.0778 570.41L49.5508 568.16C50.2409 567.692 66.7015 563.508 85.8466 568.997C99.6607 572.964 111.105 584.436 119.898 603.13Z" fill="#3F4F21"/>
<path d="M121.166 577.431C104.695 574.714 104.238 571.997 104.238 571.997C123.9 574.399 128.763 568.149 128.763 568.149C128.915 551.846 110.134 544.782 106.82 543.885C103.505 542.988 93.7391 556.813 93.7391 556.813C92.2392 551.254 100.804 542.836 100.804 542.836C97.8559 541.186 94.5603 540.255 91.185 540.119C85.3213 539.793 84.5714 545.108 80.5826 548.716C76.5938 552.324 77.0557 549.02 79.762 544.961C82.4683 540.901 77.6317 539.13 77.6317 539.13C26.1958 544.113 36.8743 597.212 36.8743 597.212C37.9014 579.11 55.8455 569.915 59.0029 569.28C62.1602 568.644 63.8122 571.116 68.0184 573.676C71.3497 575.697 76.0069 573.953 77.8002 573.132L69.9693 576.975C68.9151 584.941 80.9412 586.142 80.9412 586.142L92.6685 579.98C92.6685 579.98 86.8049 586.294 84.7018 589.001C82.5987 591.707 91.4621 597.207 91.4621 597.207C125.438 610.521 129.502 579.23 129.502 577.724C129.502 576.219 121.166 577.431 121.166 577.431ZM79.8 581.507C79.6354 581.446 79.4886 581.345 79.3733 581.212C79.2579 581.08 79.1776 580.921 79.1397 580.749C79.1019 580.578 79.1077 580.4 79.1566 580.231C79.2055 580.062 79.2959 579.909 79.4196 579.784C80.7837 578.382 84.3105 575.018 84.3105 577.887C84.3214 580.594 81.3488 582.061 79.8 581.518V581.507ZM101.994 564.389C101.874 561.78 110.015 559.824 114.227 558.992C114.506 558.934 114.796 558.956 115.063 559.057C115.329 559.158 115.562 559.332 115.733 559.561C115.904 559.789 116.007 560.061 116.029 560.345C116.051 560.63 115.991 560.914 115.857 561.166C112.596 567.557 102.135 567.497 101.994 564.389Z" fill="#606D29"/>
<path d="M681.516 190.256H670.952V180.882H659.594V190.256H649.035V201.875H659.594V211.249H670.952V201.875H681.516V190.256Z" fill="#FF9C00"/>
<path opacity="0.2" d="M406.561 240.959L413.864 316.17C413.864 316.17 416.935 323.952 424.07 322.659C431.205 321.365 485.989 319.99 490.852 320.675C495.716 321.36 498.64 321.642 498.634 306.589C498.629 291.536 496.314 232.617 496.314 232.617C496.314 232.617 498.743 210.809 454.6 213.054C410.457 215.298 406.561 240.959 406.561 240.959Z" fill="#4FC1AE" stroke="white" stroke-width="2.71716" stroke-miterlimit="10"/>
<path d="M222.521 308.948C224.568 308.948 226.227 306.612 226.227 303.731C226.227 300.849 224.568 298.514 222.521 298.514C220.474 298.514 218.814 300.849 218.814 303.731C218.814 306.612 220.474 308.948 222.521 308.948Z" fill="#13192F"/>
<path d="M258.501 308.948C260.548 308.948 262.207 306.612 262.207 303.731C262.207 300.849 260.548 298.514 258.501 298.514C256.454 298.514 254.795 300.849 254.795 303.731C254.795 306.612 256.454 308.948 258.501 308.948Z" fill="#13192F"/>
<path d="M232.846 292.4L231.172 295.389C231.098 295.522 230.974 295.62 230.828 295.663C230.681 295.706 230.524 295.689 230.39 295.617C228.259 294.449 219.521 290.069 209.196 290.601C209.068 290.6 208.944 290.557 208.843 290.478C208.742 290.4 208.67 290.29 208.638 290.166C208.606 290.042 208.615 289.911 208.665 289.794C208.715 289.676 208.802 289.578 208.913 289.514C211.397 288.335 217.608 287.341 232.514 291.574C232.596 291.6 232.67 291.643 232.732 291.701C232.795 291.759 232.844 291.83 232.875 291.909C232.907 291.988 232.921 292.073 232.916 292.158C232.911 292.243 232.887 292.325 232.846 292.4V292.4Z" fill="#13192F"/>
<path d="M248.259 292.4L249.943 295.389C250.018 295.522 250.142 295.62 250.288 295.663C250.434 295.706 250.592 295.689 250.726 295.617C252.856 294.449 261.595 290.069 271.92 290.601C272.048 290.601 272.173 290.559 272.275 290.481C272.376 290.402 272.449 290.293 272.482 290.169C272.515 290.045 272.506 289.913 272.456 289.795C272.407 289.676 272.319 289.578 272.208 289.514C269.719 288.335 263.513 287.341 248.601 291.574C248.519 291.598 248.443 291.641 248.38 291.698C248.316 291.756 248.266 291.826 248.233 291.906C248.201 291.985 248.186 292.07 248.19 292.156C248.195 292.241 248.218 292.325 248.259 292.4V292.4Z" fill="#13192F"/>
<path d="M450.443 233.725L449.302 236.23C449.191 236.478 449.023 236.696 448.813 236.866C448.602 237.037 448.355 237.156 448.09 237.214C444.555 237.905 440.891 237.454 437.629 235.926C431.434 233.095 424.885 231.856 417.451 236.105C417.451 236.105 426.657 227.411 437.629 230.97C445.009 233.35 448.459 233.329 449.932 233.062C450.017 233.047 450.104 233.056 450.185 233.087C450.265 233.119 450.335 233.171 450.388 233.239C450.44 233.308 450.473 233.389 450.483 233.475C450.493 233.56 450.479 233.647 450.443 233.725V233.725Z" fill="#0E1423"/>
<path d="M465.8 234.476L465.164 236.427C465.126 236.54 465.119 236.661 465.142 236.777C465.165 236.894 465.218 237.003 465.296 237.093C465.374 237.184 465.473 237.252 465.585 237.292C465.697 237.333 465.818 237.343 465.935 237.323C470.343 236.525 486.363 233.954 492.319 237.535C492.319 237.535 482.146 228.194 466.658 233.595C466.457 233.666 466.275 233.782 466.126 233.935C465.977 234.088 465.865 234.273 465.8 234.476V234.476Z" fill="#0E1423"/>
<path d="M433.428 254.056C435.883 254.056 437.873 251.107 437.873 247.469C437.873 243.832 435.883 240.883 433.428 240.883C430.973 240.883 428.982 243.832 428.982 247.469C428.982 251.107 430.973 254.056 433.428 254.056Z" fill="#0E1423"/>
<path d="M477.733 254.055C479.906 254.055 481.668 251.299 481.668 247.898C481.668 244.498 479.906 241.741 477.733 241.741C475.56 241.741 473.799 244.498 473.799 247.898C473.799 251.299 475.56 254.055 477.733 254.055Z" fill="#0E1423"/>
<path d="M407.354 263.212L416.169 274.863L416.218 274.95L417.424 278.211L406.631 263.935C406.595 263.88 406.576 263.816 406.576 263.75C406.576 263.685 406.595 263.62 406.631 263.565L406.8 263.245C406.83 263.2 406.869 263.163 406.916 263.136C406.963 263.109 407.015 263.094 407.069 263.09C407.123 263.087 407.176 263.097 407.226 263.118C407.275 263.139 407.319 263.171 407.354 263.212V263.212Z" fill="#ECECEC"/>
<path d="M481.696 305.579C475.718 313.187 467.447 317.79 455.921 316.817C437.987 315.301 426.097 305.557 418.244 293.927C420.962 285.895 416.424 275.451 416.201 274.907C416.853 275.614 442.34 302.764 481.696 305.579Z" fill="#D7DDDC"/>
<path d="M636.366 326.365L637.681 329.044C637.707 329.09 637.741 329.13 637.782 329.163C637.824 329.195 637.871 329.219 637.922 329.233C637.972 329.246 638.025 329.25 638.077 329.242C638.13 329.235 638.18 329.218 638.225 329.191C639.485 328.305 644.023 325.528 652.109 324.946C652.2 324.936 652.284 324.895 652.347 324.83C652.41 324.764 652.449 324.679 652.456 324.588C652.463 324.497 652.438 324.407 652.386 324.332C652.334 324.258 652.257 324.204 652.169 324.18C649.24 323.55 643.654 323.061 636.551 325.81C636.501 325.833 636.456 325.866 636.419 325.906C636.382 325.947 636.354 325.995 636.337 326.047C636.319 326.099 636.313 326.154 636.318 326.209C636.323 326.264 636.339 326.317 636.366 326.365V326.365Z" fill="#0D121E"/>
<path d="M622.166 342.63C623.433 342.63 624.46 340.917 624.46 338.804C624.46 336.691 623.433 334.979 622.166 334.979C620.9 334.979 619.873 336.691 619.873 338.804C619.873 340.917 620.9 342.63 622.166 342.63Z" fill="#0A0E17"/>
<path d="M642.965 336.467L644.97 338.298C644.97 338.298 650.16 333.614 657.926 337.38L656.513 335.913C656.513 335.913 657.263 336.255 659.23 335.505C659.23 335.505 656.29 335.505 655.333 334.962C654.377 334.418 647.209 332.918 642.965 336.467Z" fill="#0A0E17"/>
<path d="M670.989 362.155C665.223 375.393 654.577 378.376 644.98 384.523C631.937 392.87 618.895 368.002 613.857 352.074C618.411 349.243 629.617 342.358 630.503 342.64C631.622 343.004 652.827 349.705 662.207 346.575C662.201 346.564 666.793 358.112 670.989 362.155Z" fill="#ECECEC"/>
<path d="M670.989 362.155C665.223 375.393 654.577 378.376 644.98 384.523C631.937 392.87 618.895 368.002 613.857 352.074C614.205 352.721 629.209 380.001 670.989 362.155Z" fill="#D7DDDC"/>
<path d="M662.201 346.564C662.201 346.564 673.39 338.575 675.205 333.82C677.021 329.065 674.037 343.2 663.087 348.667L662.201 346.564Z" fill="#D7DDDC"/>
<path d="M200.408 301.66C200.408 301.66 199.555 287.563 194.218 294.221C194.218 294.221 193.789 294.682 193.36 296.541C192.93 298.4 200.408 301.66 200.408 301.66Z" fill="#C24425"/>
<path d="M277.99 301.725C277.99 301.725 280.539 292.916 282.555 295.688C284.571 298.459 284.039 300.177 284.039 300.177L277.99 301.725Z" fill="#C24425"/>
<path d="M408.017 269.782C408.017 269.782 403.696 253.36 398.49 265.103L408.017 269.782Z" fill="#893F09"/>
<path d="M496.02 261.697C496.02 261.697 500.079 248.111 501.965 259.523L496.02 261.697Z" fill="#893F09"/>
<path opacity="0.53" d="M675.086 342.624C675.086 342.624 679.656 328.805 683.297 335.331V339.347L675.086 342.624Z" fill="#D14928"/>
<path d="M704.579 400C674.315 406.211 639.628 445.018 639.628 445.018L631.846 411.358C638.448 406.902 643.611 403.348 643.611 403.348V426.666C643.611 426.666 680.684 396.234 693.259 393.245C693.259 393.24 698.047 395.691 704.579 400Z" fill="#049E8B"/>
<path d="M606.027 453.283V460.016H624.64L626.134 455.125L606.027 453.283Z" fill="#049E8B"/>
<path d="M702.172 445.018C702.172 445.018 714.225 423.699 731.392 423.862L733.082 427.367C733.082 427.367 716.823 425.732 702.172 445.018Z" fill="#02B5A5"/>
<path d="M656.725 568.301L665.756 563.514C665.756 563.514 679.196 591.669 687.494 597.207L677.169 600.119C677.169 600.119 658.67 575.105 656.725 568.301Z" fill="#049E8B"/>
<path opacity="0.32" d="M321.43 312.854C321.43 312.854 306.051 333.505 299.916 344.651L296.568 338.434C296.568 338.434 312.589 312.854 321.43 312.854Z" fill="#002E55"/>
<path d="M329.535 361.797C329.443 361.846 329.349 361.889 329.252 361.927C323.66 364.101 313.297 380.083 313.297 380.083C315.335 361.34 328.399 346.63 329.214 345.728C328.23 346.934 328.687 354.08 329.535 361.797Z" fill="#004D81"/>
<g style="mix-blend-mode:multiply">
<g style="mix-blend-mode:multiply">
<path d="M789.359 391.169H784.186C782.106 391.169 780.42 392.855 780.42 394.935V418.107C780.42 420.187 782.106 421.873 784.186 421.873H789.359C791.439 421.873 793.125 420.187 793.125 418.107V394.935C793.125 392.855 791.439 391.169 789.359 391.169Z" fill="#AFBEC7"/>
</g>
<g style="mix-blend-mode:multiply">
<path d="M828.817 398.641H829.361C829.544 398.641 829.726 398.619 829.904 398.576C831.453 398.266 832.621 396.679 832.621 394.772C832.621 392.625 831.154 390.886 829.361 390.886H809.053C808.903 390.893 808.754 390.911 808.607 390.941C806.319 390.185 807.716 387.914 809.221 380.018C811.004 370.714 804.874 370.171 804.026 373.453C803.178 376.735 801.564 383.159 798.01 388.359C796.266 390.903 794.858 392.261 793.869 392.989V420.634H823.215C825.024 420.634 826.475 418.895 826.475 416.748C826.493 416.07 826.338 415.399 826.025 414.797C825.712 414.196 825.252 413.683 824.687 413.308H825.231C825.414 413.305 825.596 413.283 825.774 413.243L825.953 413.205C826.088 413.167 826.218 413.118 826.345 413.058C827.019 412.727 827.584 412.207 827.97 411.562C828.355 410.917 828.546 410.174 828.518 409.423C828.526 408.871 828.424 408.323 828.217 407.812C828.01 407.3 827.702 406.835 827.312 406.445V406.445C827.225 406.358 827.138 406.282 827.046 406.206C826.953 406.13 826.839 406.053 826.731 405.983H827.274C827.47 405.981 827.665 405.957 827.855 405.912H827.975C828.126 405.869 828.273 405.815 828.415 405.749C829.082 405.412 829.638 404.891 830.017 404.248C830.397 403.604 830.584 402.865 830.556 402.119C830.565 401.072 830.176 400.06 829.469 399.288V399.288C829.371 399.176 829.264 399.073 829.149 398.978V398.978C829.047 398.857 828.936 398.745 828.817 398.641V398.641Z" fill="#AFBEC7"/>
</g>
</g>
<path d="M787.425 388.707H782.425C780.297 388.707 778.572 390.432 778.572 392.56V415.558C778.572 417.686 780.297 419.411 782.425 419.411H787.425C789.553 419.411 791.278 417.686 791.278 415.558V392.56C791.278 390.432 789.553 388.707 787.425 388.707Z" fill="#025B95"/>
<path d="M830.813 392.284C830.813 390.11 829.34 388.398 827.552 388.398H807.211C807.062 388.405 806.913 388.423 806.766 388.452C804.478 387.697 805.874 385.425 807.385 377.529C809.162 368.226 803.005 367.682 802.185 370.965C801.364 374.247 799.723 380.67 796.169 385.871C795.053 387.63 793.656 389.195 792.033 390.501V418.146H821.379C823.188 418.146 824.639 416.407 824.639 414.26C824.658 413.582 824.504 412.91 824.191 412.308C823.878 411.706 823.417 411.194 822.851 410.82H823.395C825.21 410.82 826.655 409.081 826.655 406.935C826.674 406.257 826.52 405.586 826.208 404.984C825.897 404.383 825.437 403.87 824.873 403.495H825.416C827.231 403.495 828.677 401.756 828.677 399.609C828.695 398.931 828.54 398.26 828.228 397.658C827.915 397.056 827.454 396.544 826.889 396.169H827.432C829.34 396.169 830.813 394.43 830.813 392.284Z" fill="#F5F5F5"/>
<path d="M826.971 396.168H827.515C827.869 396.162 828.219 396.09 828.547 395.956H818.108C818.047 395.944 817.985 395.946 817.925 395.961C817.864 395.976 817.808 396.004 817.761 396.043C817.713 396.082 817.674 396.132 817.648 396.188C817.621 396.244 817.607 396.305 817.607 396.367C817.607 396.429 817.621 396.49 817.648 396.546C817.674 396.602 817.713 396.651 817.761 396.69C817.808 396.73 817.864 396.758 817.925 396.773C817.985 396.788 818.047 396.789 818.108 396.777H827.694C827.482 396.543 827.239 396.338 826.971 396.168V396.168Z" fill="#0083BA"/>
<path d="M817.623 403.533C817.635 403.652 817.694 403.762 817.786 403.84C817.879 403.917 817.998 403.955 818.118 403.946H825.497C825.322 403.772 825.129 403.617 824.921 403.484H825.465C825.942 403.482 826.412 403.358 826.829 403.125H818.134C818.074 403.118 818.013 403.123 817.954 403.14C817.896 403.157 817.841 403.185 817.794 403.223C817.747 403.261 817.707 403.308 817.678 403.361C817.648 403.414 817.63 403.472 817.623 403.533V403.533Z" fill="#0083BA"/>
<path d="M817.623 410.83C817.635 410.95 817.694 411.059 817.787 411.136C817.879 411.212 817.998 411.249 818.118 411.238H823.405C823.238 411.081 823.056 410.941 822.862 410.82H823.405C823.909 410.814 824.402 410.675 824.834 410.417H818.101C817.984 410.413 817.869 410.453 817.78 410.529C817.692 410.606 817.635 410.714 817.623 410.83V410.83Z" fill="#0083BA"/>
<path d="M785.522 415.917C786.579 415.917 787.435 415.06 787.435 414.004C787.435 412.947 786.579 412.091 785.522 412.091C784.466 412.091 783.609 412.947 783.609 414.004C783.609 415.06 784.466 415.917 785.522 415.917Z" fill="#004D81"/>
<path d="M98.3576 371.556C102.562 371.556 105.971 368.147 105.971 363.943C105.971 359.738 102.562 356.329 98.3576 356.329C94.1528 356.329 90.7441 359.738 90.7441 363.943C90.7441 368.147 94.1528 371.556 98.3576 371.556Z" fill="#FF9C00"/>
<path d="M214.299 199.783C217.469 199.783 220.038 197.214 220.038 194.044C220.038 190.875 217.469 188.306 214.299 188.306C211.13 188.306 208.561 190.875 208.561 194.044C208.561 197.214 211.13 199.783 214.299 199.783Z" fill="#FF9C00"/>
<path d="M322.86 194.044C324.444 194.044 325.729 192.76 325.729 191.175C325.729 189.59 324.444 188.306 322.86 188.306C321.275 188.306 319.99 189.59 319.99 191.175C319.99 192.76 321.275 194.044 322.86 194.044Z" fill="#FF9C00"/>
<path d="M557.749 265.946C561.642 265.946 564.798 262.791 564.798 258.898C564.798 255.005 561.642 251.85 557.749 251.85C553.857 251.85 550.701 255.005 550.701 258.898C550.701 262.791 553.857 265.946 557.749 265.946Z" fill="#FF9C00"/>
<path d="M558.422 184.3C559.844 184.3 560.997 182.653 560.997 180.621C560.997 178.59 559.844 176.942 558.422 176.942C556.999 176.942 555.846 178.59 555.846 180.621C555.846 182.653 556.999 184.3 558.422 184.3Z" fill="#FF9C00"/>
<path d="M768.703 247.219C772.26 247.219 775.143 244.336 775.143 240.78C775.143 237.223 772.26 234.34 768.703 234.34C765.147 234.34 762.264 237.223 762.264 240.78C762.264 244.336 765.147 247.219 768.703 247.219Z" fill="#FF9C00"/>
<path d="M796.695 364.764L798.451 367.791" stroke="#025B95" stroke-width="1.6303" stroke-linecap="round" stroke-linejoin="round"/>
<path d="M806.357 362.101V365.698" stroke="#025B95" stroke-width="1.6303" stroke-linecap="round" stroke-linejoin="round"/>
<path d="M816.684 366.53L814.287 368.677" stroke="#025B95" stroke-width="1.6303" stroke-linecap="round" stroke-linejoin="round"/>
<path d="M477.729 200.397C420.902 192.789 405.963 218.102 405.963 218.102C406.793 216.178 407.698 214.117 408.68 211.917C417.375 192.251 432.841 188.006 445.443 188.327C455.121 188.633 464.526 191.612 472.615 196.935C474.158 197.968 475.908 199.136 477.729 200.397Z" fill="#4FC1AE"/>
</g>
</g>
<defs>
<filter id="filter0_f_1513_21135" x="0.259766" y="0.0390625" width="958.035" height="752.203" filterUnits="userSpaceOnUse" color-interpolation-filters="sRGB">
<feFlood flood-opacity="0" result="BackgroundImageFix"/>
<feBlend mode="normal" in="SourceGraphic" in2="BackgroundImageFix" result="shape"/>
<feGaussianBlur stdDeviation="75" result="effect1_foregroundBlur_1513_21135"/>
</filter>
<linearGradient id="paint0_linear_1513_21135" x1="440.457" y1="641.932" x2="366.132" y2="180.296" gradientUnits="userSpaceOnUse">
<stop stop-color="#262626"/>
<stop offset="1" stop-color="#262626" stop-opacity="0"/>
</linearGradient>
<clipPath id="clip0_1513_21135">
<rect x="22" y="105.562" width="845" height="496.977" rx="20" fill="white"/>
</clipPath>
<clipPath id="clip1_1513_21135">
<rect width="845" height="463.244" fill="white" transform="translate(22 144)"/>
</clipPath>
</defs>
</svg>
