<svg width="100%" viewBox="0 0 959 753" fill="none" xmlns="http://www.w3.org/2000/svg">
<g filter="url(#filter0_f_1552_21981)">
<rect x="150.26" y="150.312" width="658.036" height="452.203" rx="38" fill="url(#paint0_linear_1552_21981)" fill-opacity="0.69"/>
</g>
<g clip-path="url(#clip0_1552_21981)">
<rect x="22" y="105.834" width="845" height="496.977" rx="20" fill="white"/>
<g clip-path="url(#clip1_1552_21981)">
<path d="M162.037 321.768C190.117 321.768 212.881 299.005 212.881 270.925C212.881 242.844 190.117 220.081 162.037 220.081C133.957 220.081 111.193 242.844 111.193 270.925C111.193 299.005 133.957 321.768 162.037 321.768Z" fill="#ECECEC"/>
<path d="M805.733 420.879C805.662 420.059 805.58 419.249 805.499 418.418C804.37 407.081 802.629 395.813 800.282 384.665C799.978 383.187 799.659 381.714 799.325 380.247C795.568 363.584 790.455 347.255 784.039 331.425C769.461 295.255 748.113 262.201 721.142 234.036C712.01 224.493 702.259 215.562 691.954 207.299C688.53 204.557 685.051 201.896 681.515 199.316C674.417 194.136 667.11 189.295 659.593 184.796C655.104 182.104 650.543 179.541 645.909 177.106C640 173.983 633.977 171.067 627.84 168.357C591.836 152.474 552.916 144.271 513.564 144.271C474.212 144.271 435.292 152.474 399.288 168.357C364.313 183.796 332.941 205.892 305.986 234.036C297.743 242.634 290.009 251.707 282.825 261.208C279.793 265.211 276.864 269.291 274.038 273.446C273.36 274.449 272.687 275.457 272.016 276.467C269.332 280.503 266.747 284.608 264.262 288.782C263.707 289.716 263.164 290.655 262.631 291.597C261.251 293.966 259.901 296.355 258.583 298.765C257.362 301.003 256.166 303.259 254.996 305.53C253.826 307.802 252.692 310.07 251.594 312.334C249.75 316.127 247.987 319.964 246.306 323.844C245.35 326.018 244.424 328.21 243.53 330.419C243.388 330.746 243.252 331.077 243.122 331.403C240.655 337.497 238.385 343.656 236.313 349.88C235.052 353.644 233.865 357.433 232.753 361.248C230.003 370.632 227.701 380.131 225.846 389.746C225.364 392.246 224.912 394.755 224.488 397.273C223.977 400.305 223.509 403.348 223.086 406.402C221.781 415.843 220.899 425.366 220.439 434.97C220.32 437.467 220.229 439.966 220.167 442.47C220.095 445.194 220.06 447.926 220.064 450.665C220.064 454.65 220.138 458.619 220.287 462.571C220.851 477.814 222.505 492.996 225.238 508.002C231.213 541.055 242.459 572.933 258.545 602.418L258.664 602.636L260.294 599.989C244.494 570.73 233.486 539.127 227.688 506.383C225.054 491.604 223.47 476.656 222.95 461.653C222.823 457.994 222.76 454.331 222.76 450.665C222.76 447.926 222.794 445.194 222.863 442.47C222.921 439.963 223.013 437.463 223.14 434.97C223.553 426.402 224.307 417.889 225.401 409.429C225.803 406.313 226.252 403.212 226.748 400.126C227.147 397.626 227.576 395.131 228.036 392.642C229.961 382.261 232.412 371.985 235.378 361.852C236.487 358.055 237.671 354.278 238.932 350.521C240.972 344.427 243.202 338.395 245.622 332.425C245.703 332.218 245.79 332.012 245.877 331.805C246.939 329.193 248.036 326.603 249.17 324.034C250.851 320.197 252.607 316.408 254.436 312.665C255.132 311.242 255.838 309.818 256.556 308.41C257.979 305.603 259.447 302.82 260.957 300.063C262.617 297.024 264.329 294.019 266.093 291.048C266.538 290.28 266.997 289.515 267.468 288.754C269.279 285.755 271.14 282.789 273.049 279.858C273.657 278.917 274.277 277.978 274.907 277.043C278.168 272.174 281.561 267.405 285.086 262.735C292.182 253.351 299.819 244.389 307.959 235.895C334.663 208.006 365.769 186.116 400.397 170.824C436.055 155.094 474.601 146.969 513.575 146.969C552.549 146.969 591.095 155.094 626.753 170.824C632.636 173.422 638.42 176.213 644.105 179.198C649.365 181.948 654.531 184.866 659.603 187.953C666.849 192.348 673.914 197.072 680.797 202.126C684.167 204.6 687.487 207.154 690.758 209.788C700.798 217.856 710.301 226.569 719.207 235.873C745.94 263.79 767.097 296.553 781.544 332.403C788.335 349.149 793.65 366.456 797.429 384.127C797.722 385.486 798.005 386.849 798.277 388.219C800.266 398.157 801.773 408.208 802.798 418.374C802.879 419.195 802.956 420.004 803.032 420.836C803.952 430.683 804.41 440.613 804.406 450.627C804.406 455.746 804.283 460.858 804.037 465.962C803.653 473.933 802.968 481.865 801.983 489.759C801.592 492.922 801.153 496.072 800.668 499.21C799.497 506.753 798.061 514.234 796.358 521.653C795.815 524.023 795.244 526.378 794.646 528.718C794.478 529.392 794.304 530.06 794.13 530.729C793.043 534.921 791.864 539.087 790.592 543.228C790.589 543.24 790.589 543.253 790.592 543.266C788.212 551.048 785.533 558.719 782.555 566.28C779.932 572.957 777.074 579.535 773.98 586.012C773.255 587.523 772.531 589.025 771.806 590.517C770.176 593.832 763.932 601.245 762.165 604.494H762.013L763.774 607.212L764.16 606.505C765.524 604.016 771.371 597.381 772.659 594.854C773.445 593.321 774.217 591.783 774.974 590.24C777.173 585.762 779.262 581.234 781.24 576.654C782.892 572.839 784.464 568.992 785.957 565.112C790.026 554.554 793.522 543.783 796.429 532.848C801.589 513.439 804.908 493.586 806.341 473.554C806.885 465.946 807.158 458.306 807.162 450.632C807.118 440.648 806.642 430.73 805.733 420.879ZM222.749 450.67C222.749 447.931 222.783 445.2 222.852 442.475H220.135C220.062 445.2 220.028 447.931 220.032 450.67C220.032 454.655 220.106 458.624 220.254 462.577L222.939 461.658C222.816 458.003 222.752 454.34 222.749 450.67ZM251.551 312.356C249.707 316.149 247.944 319.986 246.263 323.866C245.307 326.039 244.381 328.231 243.486 330.441C244.258 330.914 245.051 331.376 245.855 331.827C246.917 329.215 248.015 326.624 249.149 324.056C250.83 320.219 252.585 316.43 254.415 312.687L251.551 312.356Z" fill="#FF9C00"/>
<path d="M599.755 384.333C599.755 384.333 595.571 378.752 603.38 370.943C603.38 370.943 601.309 383.61 606.825 386.463C610.456 388.302 614.218 389.872 618.08 391.159C618.08 391.159 614.862 386.931 616.927 378.709L621.753 391.159C628.175 394.085 635.442 394.573 642.197 392.534V387.501L644.969 391.637C644.969 391.637 674.787 385.181 683.411 377.73C692.035 370.28 697.089 356.265 690.655 338.603C684.221 320.942 607.51 323.213 607.51 323.213L585.686 365.014C585.686 365.014 590.158 382.328 599.755 384.333Z" fill="#160907"/>
<path d="M147.619 265.055C147.64 264.971 147.69 264.896 147.759 264.843C147.827 264.79 147.912 264.761 147.999 264.761C148.087 264.761 148.171 264.791 148.239 264.847C148.306 264.903 148.352 264.98 148.369 265.066L150.434 274.804L152.531 271.125C152.565 271.066 152.615 271.017 152.674 270.982C152.733 270.948 152.8 270.93 152.868 270.929H168.057C168.127 270.93 168.195 270.95 168.254 270.986C168.313 271.023 168.362 271.074 168.394 271.136L170.378 274.869L173.367 265.033C173.389 264.948 173.441 264.874 173.512 264.823C173.584 264.771 173.671 264.747 173.759 264.752C173.847 264.758 173.93 264.794 173.994 264.854C174.058 264.914 174.1 264.995 174.111 265.082L175.785 275.489H180.089C183.893 269.707 185.702 263.3 182.029 258.164C175.426 248.926 166.383 255.893 163.134 258.925C159.873 255.893 150.847 248.942 144.244 258.164C140.815 262.957 142.141 268.853 145.44 274.315L147.619 265.055Z" fill="#D82E12"/>
<path d="M175.46 277.017C175.37 277.017 175.282 276.984 175.213 276.925C175.145 276.867 175.099 276.785 175.085 276.696L173.618 267.604L170.852 276.745C170.829 276.817 170.786 276.881 170.727 276.929C170.668 276.977 170.597 277.006 170.522 277.014C170.446 277.021 170.371 277.007 170.304 276.971C170.237 276.936 170.182 276.882 170.145 276.816L167.841 272.468H153.092L150.603 276.816C150.564 276.883 150.506 276.938 150.435 276.971C150.364 277.005 150.285 277.016 150.208 277.004C150.131 276.991 150.059 276.956 150.003 276.902C149.946 276.848 149.907 276.778 149.891 276.702L147.973 267.653L146.006 275.984C150.679 283.179 158.565 289.45 163.129 291.2C167.477 289.57 174.835 283.788 179.557 277.028L175.46 277.017Z" fill="#D82E12"/>
<path d="M487.798 353.607L480.695 422.167C480.695 422.167 405.614 371.872 414.749 350.749C418.667 341.679 420.531 329.392 421.379 318.322C421.613 315.268 421.77 312.306 421.874 309.529C422.265 298.933 421.874 291.053 421.874 291.053L479.363 293.08C479.363 293.08 478.19 302.682 476.255 316.138C475.837 319.045 475.38 322.115 474.896 325.343C474.592 327.336 474.277 329.372 473.951 331.452C470.658 352.303 487.798 353.607 487.798 353.607Z" fill="#AB570F"/>
<path d="M118.41 461.528C118.41 461.528 108.047 466.511 116.726 479.63C125.404 492.748 134.083 506.633 133.219 515.023C132.355 523.414 130.198 534.114 140.675 540.19C151.152 546.265 160.412 549.428 164.754 543.086C169.096 536.744 182.59 443.904 118.41 461.528ZM132.268 493.726C131.219 494.27 129.583 493.183 128.622 491.308C127.66 489.433 127.736 487.471 128.785 486.961C129.833 486.45 131.475 487.504 132.436 489.379C133.398 491.254 133.355 493.188 132.268 493.726ZM145.088 522.49C139.382 515.496 148.951 516.572 148.951 516.572C148.951 516.572 156.619 523.528 156.75 527.028C156.88 530.528 150.81 529.49 145.109 522.49H145.088Z" fill="#3F4F21"/>
<path d="M329.191 345.999C328.229 347.206 328.686 354.363 329.512 362.069C330.599 372.062 332.262 382.975 332.262 382.975L320.219 391.849L314.72 395.897L294.151 383.79L296.118 376.182L297.998 368.922C297.998 368.922 293.683 364.264 296.074 358.596C296.074 358.596 287.445 349.717 288.211 346.195C288.977 342.674 291.58 341.755 290.814 333.153C290.814 333.153 290.917 319.697 288.162 310.035C288.162 310.035 291.276 306.823 295.227 312.334C299.177 317.844 299.667 327.006 299.667 327.006L312.888 300.378C312.888 300.378 310.28 276.945 313.801 274.522C317.323 272.098 318.41 277.07 318.41 277.07L319.241 282.836C319.04 281.07 317.681 267.077 324.844 266.147L325.931 277.799L327.632 277.554C327.632 277.554 327.871 295.275 332.849 303.161V329.572C332.849 329.572 331.512 343.527 329.208 345.956L329.191 345.999Z" fill="#025B95"/>
<path d="M265.436 325.126L263.512 348.994L262.425 362.732L244.215 422.167L200.414 366.976C204.9 358.248 207.924 348.843 209.364 339.136C210.94 328.707 210.245 321.507 210.245 321.507L265.436 325.126Z" fill="#F78C68"/>
<path d="M760.128 474.695C760.128 474.695 747.733 480.374 745.206 497.612C745.206 497.612 742.489 486.064 750.249 468.082C750.249 468.082 742.472 455.991 729.647 452.203L725.023 475.695C725.023 475.695 721.034 471.756 722.083 464.609C723.131 457.463 726.283 431.188 649.975 444.008C649.975 444.008 670.37 449.692 678.777 468.082L691.178 466.566L677.722 474.282C677.722 474.282 680.439 483.521 685.086 485.635C689.732 487.749 714.931 493.199 714.931 493.199C714.931 493.199 685.923 494.46 680.043 493.199L682.657 501.731C685.254 510.22 692.928 516.328 701.807 516.534H702.742C715.355 516.322 720.61 513.377 727.55 515.274C727.55 515.274 711.79 517.583 706.948 519.686C702.106 521.789 685.504 522.844 685.086 524.947C684.667 527.05 695.411 575.394 735.533 551.032C735.533 551.032 746.043 543.88 747.515 531.272C747.515 531.272 769.128 539.739 778.714 521.105C788.3 502.47 770.225 477.222 760.128 474.695ZM710.013 463.474C708.801 458.338 709.247 455.616 709.643 454.393C709.727 454.147 709.886 453.934 710.098 453.784C710.309 453.633 710.563 453.554 710.823 453.556C715.54 453.632 715.763 458.99 716.942 466.566C718.181 474.571 711.79 470.989 710.013 463.474V463.474ZM717.078 508.649C710.975 513.171 703.622 510.1 700.568 508.454C700.255 508.286 699.994 508.035 699.813 507.729C699.633 507.423 699.541 507.072 699.546 506.717C699.552 506.362 699.655 506.015 699.845 505.714C700.035 505.414 700.304 505.171 700.623 505.014C706.166 502.291 723.523 503.883 717.099 508.649H717.078ZM737.185 497.737C736.982 497.945 736.73 498.098 736.452 498.181C736.173 498.264 735.879 498.275 735.595 498.212C735.312 498.149 735.049 498.016 734.832 497.823C734.614 497.631 734.45 497.386 734.353 497.112C733.381 494.395 731.294 487.042 736.19 483.945C741.087 480.847 740.255 494.351 737.196 497.737H737.185Z" fill="#3F4F21"/>
<path d="M667.278 600.397C667.278 600.397 666.457 594.246 662.523 591.566C658.588 588.887 651.176 581.953 652.741 578.959C654.306 575.964 667.267 567.144 667.267 567.144C662.503 566.44 657.649 567.567 653.681 570.296C653.681 570.296 646.198 554.608 680.663 547.168L667.278 600.397Z" fill="#3F4F20"/>
<path d="M777.187 607.26H774.03C773.546 596.468 770.492 579.496 759.96 555.438C755.72 545.715 750.896 536.257 745.516 527.115L748.233 525.484C753.691 534.745 758.582 544.329 762.878 554.183C769.09 568.421 776.404 588.794 777.187 607.26Z" fill="#3F4F21"/>
<path d="M763.737 607.26H760.237C750.521 587.202 738.114 574.893 723.284 570.649C702.459 564.671 683.956 569.128 683.765 569.258L681.988 566.644C682.793 566.101 701.916 561.21 724.159 567.617C740.195 572.22 753.493 585.545 763.737 607.26Z" fill="#3F4F21"/>
<path d="M765.181 577.421C746.042 574.274 745.514 571.133 745.514 571.133C768.339 573.921 774.007 566.661 774.007 566.661C774.181 547.695 752.362 539.527 748.514 538.473C744.667 537.419 733.298 553.494 733.298 553.494C731.559 547.032 741.509 537.256 741.509 537.256C741.509 537.256 737.162 534.457 730.331 534.071C723.5 533.685 722.652 539.87 718.017 544.06C713.381 548.249 713.919 544.413 717.06 539.712C720.201 535.011 714.588 532.936 714.588 532.936C654.81 538.723 667.26 600.408 667.26 600.408C668.45 579.383 689.296 568.699 692.965 567.96C696.633 567.221 698.551 570.095 703.436 573.068C707.311 575.416 712.718 573.389 714.811 572.443L705.713 576.905C704.485 586.143 718.457 587.556 718.457 587.556L732.081 580.399C732.081 580.399 725.272 587.735 722.842 590.876C720.413 594.017 730.695 600.408 730.695 600.408C770.165 615.88 774.882 579.529 774.882 577.78C774.882 576.03 765.181 577.421 765.181 577.421ZM717.126 582.154C716.935 582.083 716.765 581.965 716.632 581.812C716.498 581.658 716.405 581.474 716.361 581.275C716.317 581.077 716.323 580.87 716.378 580.674C716.434 580.479 716.538 580.3 716.68 580.154C718.267 578.524 722.375 574.617 722.375 577.948C722.375 581.084 718.924 582.785 717.126 582.154ZM742.906 562.227C742.77 559.194 752.226 556.923 757.117 555.955C757.44 555.893 757.774 555.923 758.08 556.042C758.387 556.161 758.654 556.364 758.85 556.628C759.046 556.893 759.163 557.207 759.188 557.535C759.213 557.863 759.145 558.191 758.992 558.482C755.226 565.938 743.085 565.868 742.906 562.227Z" fill="#606D29"/>
<path d="M767.9 521.284C777.203 535.756 794.191 527.131 794.191 527.131C796.365 537.315 805.538 542.347 805.538 542.347C840.269 559.101 845.209 518.757 844.698 517.072C844.187 515.388 830.568 515.839 826.422 514.502C822.276 513.165 809.244 512.518 809.244 512.518C814.765 510.426 819.287 512.415 829.612 511.595C829.867 511.595 830.123 511.551 830.373 511.524C833.904 511.058 837.201 509.497 839.799 507.06C842.397 504.623 844.165 501.433 844.855 497.938L846.339 490.754C841.633 492.243 817.83 493.504 817.83 493.504C817.83 493.504 838.013 487.048 841.622 484.966C845.23 482.885 846.741 475.114 846.741 475.114L835.139 469.87L845.388 470.131C850.822 454.442 867.022 448.192 867.022 448.192C803.669 443.736 808.331 464.952 809.739 470.712C811.146 476.473 808.212 479.999 808.212 479.999L802.576 461.169C792.398 465.278 787.001 475.766 787.001 475.766C794.773 489.846 793.447 499.498 793.447 499.498C790.028 485.613 779.448 481.95 779.448 481.95C771.378 484.776 758.602 506.823 767.9 521.284ZM814.092 471.875C814.456 465.582 814.217 461.197 818.064 460.762C818.276 460.741 818.489 460.786 818.673 460.893C818.857 460.999 819.003 461.16 819.091 461.354C819.515 462.322 820.091 464.512 819.504 468.805C818.624 475.087 813.689 478.516 814.07 471.875H814.092ZM830.438 502.003C830.711 502.107 830.949 502.283 831.128 502.514C831.307 502.744 831.418 503.019 831.451 503.309C831.483 503.599 831.436 503.892 831.312 504.156C831.189 504.42 830.996 504.646 830.753 504.807C828.389 506.394 822.602 509.481 817.282 506.269C811.624 502.883 825.688 500.215 830.416 502.003H830.438ZM799.729 487.597C803.973 489.738 802.848 495.917 802.267 498.204C802.21 498.436 802.095 498.649 801.933 498.823C801.771 498.998 801.567 499.128 801.341 499.202C801.114 499.275 800.873 499.29 800.639 499.243C800.405 499.197 800.187 499.092 800.006 498.938C797.213 496.417 795.441 485.445 799.707 487.597H799.729Z" fill="#606D29"/>
<path d="M781.453 606.711L784.55 606.103C782.92 595.419 782.654 578.176 788.354 552.536C790.636 542.176 793.539 531.963 797.049 521.952L794.093 520.865C790.525 531.001 787.58 541.346 785.273 551.841C781.887 567.041 778.649 588.447 781.453 606.711Z" fill="#3F4F21"/>
<path d="M693.259 393.512V398.881L643.638 438.796C643.638 438.796 631.568 416.358 643.638 403.615C648.376 398.61 649.393 397.381 648.882 392.083C648.088 383.882 643.638 377.079 643.638 377.079C643.638 377.079 647.284 357.629 652.507 343.701C657.588 330.148 664.158 321.812 670.309 341.669C670.706 342.935 671.097 344.31 671.483 345.81C673.01 351.717 674.488 356.89 675.901 361.422C686.243 394.697 693.259 393.512 693.259 393.512Z" fill="#F9A993"/>
<path opacity="0.53" d="M675.875 361.417C667.066 387.876 654.975 391.909 648.855 392.077C648.062 383.877 643.611 377.073 643.611 377.073C643.611 377.073 647.258 357.624 652.48 343.695C658.458 340.212 665.305 339.495 670.283 341.663C670.68 342.929 671.071 344.304 671.457 345.804C672.984 351.716 674.462 356.89 675.875 361.417Z" fill="#D14928"/>
<path d="M265.437 325.127L263.513 348.994C236.64 377.606 217.218 352.842 209.365 339.12C210.941 328.692 210.246 321.491 210.246 321.491L265.437 325.127Z" fill="#D34A28"/>
<path d="M317.498 498.21C317.498 498.21 299.733 556.183 315.161 603.402H153.272L162.266 584.382L164.44 579.763C164.44 579.763 158.038 574.818 166.07 569.552L166.184 569.481L160.114 550.841L140.963 491.933L140.692 482.293L137.975 386.556L191.427 365.172L203.529 360.33L238.602 406.582L262.426 362.732L262.475 362.77C263.018 363.21 268.034 367.205 275.132 371.829C281.332 375.878 289.13 380.399 296.95 383.453C314.248 390.219 339.028 403.772 339.028 403.772L317.498 498.21Z" fill="#4FC1AE"/>
<path d="M216.575 470.098L167.742 425.688L194.332 479.63L216.575 470.098Z" fill="#02B5A5"/>
<path d="M239.866 453.045C239.866 453.045 233.541 484.287 261.74 490.156C261.723 490.156 265.065 454.072 239.866 453.045Z" fill="#014A72"/>
<path d="M172.863 515.513C161.043 529.197 160.141 550.836 160.141 550.836L140.963 491.933L140.691 482.293C156.179 490.526 181.177 505.873 172.863 515.513Z" fill="#02B5A5"/>
<path d="M691.036 541.499C691.036 541.499 717.268 582.327 714.915 604.961L709.04 605.032L590.844 606.407L594.517 566.943L590.844 443.301C590.844 443.301 597.908 433.095 608.304 426.933C613.983 423.574 623.95 416.961 631.846 411.624C638.449 407.168 643.611 403.614 643.611 403.614V426.933C643.611 426.933 680.684 396.501 693.259 393.512C693.259 393.512 698.047 395.963 704.579 400.272C712.774 405.706 723.719 414.026 731.392 424.129C731.392 424.129 707.182 429.177 702.47 448.007C697.824 466.598 708.578 490.107 708.856 490.71L692.042 533.641C692.042 533.641 695.411 539.146 691.036 541.499Z" fill="#4FC1AE"/>
<path d="M155.347 512.333C155.347 512.333 156.782 517.344 167.503 517.012C178.225 516.681 148.195 483.597 148.195 483.597C148.195 483.597 149.043 508.111 155.347 512.333Z" fill="#049E8B"/>
<path d="M549.119 495.645C549.119 495.645 571.036 508.062 604.734 463.582C604.734 463.539 558.564 453.159 549.119 495.645Z" fill="#049E8B"/>
<path d="M368.035 521.105C357.476 535.62 339 521.208 327.555 509.6C323.991 505.987 320.633 502.177 317.496 498.188C317.496 498.188 315.491 503.264 310.513 490.129C305.535 476.994 351.096 427.765 351.096 427.765L368.035 444.823C370.12 452.244 371.78 459.777 373.008 467.386C375.888 484.934 377.312 508.35 368.035 521.105Z" fill="#F78C68"/>
<path d="M373.009 467.386C349.88 467.315 332.3 499.829 327.545 509.584C323.981 505.971 320.623 502.161 317.486 498.171C317.486 498.171 315.481 503.247 310.503 490.112C305.525 476.978 351.087 427.748 351.087 427.748L368.026 444.806C370.115 452.232 371.778 459.771 373.009 467.386V467.386Z" fill="#C24425"/>
<path d="M261.725 483.314C261.725 483.314 235.569 501.823 205.007 520.925C181.557 535.598 164.858 515.985 158.358 506.068C157.657 504.981 157.076 504.057 156.619 503.269C155.777 501.829 155.348 500.943 155.348 500.943C164.749 465.973 197.072 464.212 197.072 464.212L199.061 467.891L200.409 470.38C217.554 462.446 243.21 455.398 243.21 455.398C243.21 455.398 243.503 451.594 250.851 457.159C258.198 462.723 261.725 483.314 261.725 483.314Z" fill="#F78C68"/>
<path d="M320.219 391.849L314.719 395.897L294.15 383.79L296.118 376.182L301.954 376.725C304.52 376.971 307.003 377.771 309.231 379.068C311.459 380.366 313.38 382.13 314.861 384.241L320.219 391.849Z" fill="#004D81"/>
<path d="M199.061 467.892C169.173 476.859 160.624 497.781 158.358 506.068C157.657 504.981 157.076 504.057 156.619 503.269C155.777 501.829 155.348 500.943 155.348 500.943C164.749 465.974 197.072 464.213 197.072 464.213L199.061 467.892Z" fill="#AF3C21"/>
<path d="M479.342 293.074C479.342 293.074 478.168 302.677 476.234 316.132C452.095 339.456 430.08 319.137 421.891 309.529C422.282 298.933 421.891 291.053 421.891 291.053L479.342 293.074Z" fill="#893F09"/>
<path d="M313.627 399.674L300.731 391.795L305.937 396.093L305.741 405.946C306.203 409.027 305.801 413.114 304.78 417.803C299.889 440.356 280.787 476.875 275.298 482.95C268.674 490.292 261.713 490.151 261.713 490.151C261.284 485.387 260.492 480.664 259.343 476.021C253.192 452.018 239.834 453.018 239.834 453.018L259.783 444.714C260.403 439.965 264.636 441.926 264.636 441.926L261.979 410.869C261.787 408.684 262.312 406.496 263.473 404.636C267.402 398.359 275.592 388.958 280.32 383.698C281.41 382.485 282.776 381.552 284.303 380.979C285.83 380.406 287.472 380.209 289.091 380.404L305.823 382.437C306.817 382.557 307.776 382.881 308.641 383.386C309.505 383.892 310.257 384.569 310.85 385.377L317.914 395.001L313.627 399.674Z" fill="#025B95"/>
<path d="M304.786 417.803C299.895 440.356 280.793 476.875 275.305 482.95C268.68 490.292 261.719 490.151 261.719 490.151C261.29 485.387 260.498 480.664 259.35 476.021L274.158 454.094C274.158 454.094 267.583 446.279 269.626 433.693C271.669 421.107 292.771 413.211 292.771 413.211C292.771 413.211 298.314 411.173 304.786 417.803Z" fill="#004D81"/>
<path d="M357.471 575.736L337.141 594.332C270.56 538.902 266.359 480.809 267.952 471.571C268.788 466.718 273.234 460.892 277.266 456.463C279.455 454.051 281.769 451.757 284.2 449.589L317.013 473.5L324.784 493.145L357.471 575.736Z" fill="#AB570F"/>
<path d="M276.755 297.379C276.826 309.297 274.658 318.627 271.375 325.915C264.62 340.93 253.132 347.277 246.703 349.761C243.788 350.884 240.592 351.055 237.574 350.25C226.368 347.255 217.972 340.468 212.032 331.605C204.859 320.921 201.234 307.21 200.512 293.45C199.11 266.822 214.25 260.654 214.25 260.654C255.447 243.27 276.473 250.014 276.755 297.379Z" fill="#F78C68"/>
<path d="M611.189 500.971C615.536 550.673 584.158 599.946 584.158 599.946L557.998 597.327L573.692 504.019L562.714 489.292L555.818 480.054L559.568 476.331L584.338 451.714C584.338 451.714 585.968 453.138 588.403 455.415C591.766 458.528 596.712 463.251 601.195 468.071C606.086 473.326 610.433 478.695 611.607 482.238C614.64 491.374 611.189 500.971 611.189 500.971Z" fill="#AB570F"/>
<path d="M403.952 255.377C403.952 255.377 384.535 261.844 405.387 282.809C405.387 282.809 409.935 285.994 415.169 284.173C420.402 282.353 403.952 255.377 403.952 255.377Z" fill="#AB570F"/>
<path d="M495.166 265.534C492.226 290.912 482.95 319.366 455.925 317.089C437.992 315.573 426.101 305.829 418.249 294.2C405.049 274.636 403.25 249.791 403.25 249.791C439.437 177.759 495.911 227.809 495.911 227.809C496.795 240.381 496.546 253.007 495.166 265.534V265.534Z" fill="#AB570F"/>
<path d="M601.195 468.054L562.714 489.292L555.818 480.053L559.568 476.331L588.403 455.414C591.766 458.512 596.712 463.234 601.195 468.054Z" fill="#893F09"/>
<path d="M694.182 578.224L686.895 583.947L678.184 590.783L667.348 568.133L677.537 562.383L682.613 559.52L694.182 578.224Z" fill="#F9A993"/>
<path d="M675.271 336.272C675.271 348.042 673.64 356.324 670.989 362.427C665.223 375.665 654.577 378.649 644.98 384.795C631.937 393.142 618.895 368.264 613.852 352.336C613.472 351.129 613.14 349.977 612.852 348.896C608.776 333.468 619.732 313.274 619.732 313.274C622.819 300.65 675.271 298.965 675.271 336.272Z" fill="#F9A993"/>
<path d="M604.729 463.538C591.687 462.12 571.58 476.613 559.456 486.591C553.239 491.699 549.13 495.623 549.13 495.623L531.295 476.722L526.458 471.598C525.6 457.838 536.295 363.862 550.331 376.72C564.368 389.577 604.729 463.538 604.729 463.538Z" fill="#4FC1AE"/>
<path d="M201.898 290.384C201.898 290.384 191.947 283.977 191.284 296.134C190.621 308.291 201.67 319.648 204.658 316.295C207.647 312.942 201.898 290.384 201.898 290.384Z" fill="#F78C68"/>
<path d="M273.762 294.575C273.762 294.575 281.055 288.825 284.152 294.575C287.25 300.324 285.038 318.926 273.762 319.573C262.485 320.219 273.762 294.575 273.762 294.575Z" fill="#F78C68"/>
<path d="M559.456 486.591C553.239 491.7 549.13 495.623 549.13 495.623L531.295 476.723C534.01 469.724 538.568 463.59 544.484 458.969C544.484 458.969 543.989 475.043 559.456 486.591Z" fill="#02B5A5"/>
<path d="M399.42 574.899L405.642 563.911C404.618 562.389 404.237 560.523 404.582 558.721C405.305 553.923 409.549 549.266 409.549 549.266C409.549 549.266 407.984 548.483 401.74 541.842C399.213 539.158 399.115 536.087 399.887 533.381C401.034 529.387 404.082 526.186 404.082 526.186L357.472 449.453C372.993 400.702 351.098 368.993 351.098 368.993C401.463 346.169 417.679 342.131 417.679 342.131C426.374 362.189 470.294 403.609 470.294 403.609C482.674 395.757 482.994 352.304 482.994 352.304C525.295 361.7 550.32 376.758 550.32 376.758L539.147 415.114C549.114 428.102 547 445.465 545.185 455.127C543.658 463.278 537.723 497.091 535.702 513.905C535.327 517.024 535.088 519.562 535.033 521.235C534.854 526.893 535.033 533.734 534.783 539.756C534.533 545.141 533.914 549.869 532.311 552.515C528.914 558.129 536.223 560.167 535.028 565.949C533.832 571.731 545.897 597.517 545.897 597.517L558.309 604.625L390.785 605L391.176 589.48L399.42 574.899Z" fill="#4FC1AE"/>
<path d="M201.795 297.678C201.795 297.678 207.947 291.227 206.49 280.538C206.49 280.538 210.436 278.467 210.903 276.946C211.37 275.424 214.066 272.837 214.066 268.968L221.935 264.045L228.151 266.392C228.151 266.392 223.108 277.647 229.086 282.804C229.086 282.804 230.173 270.609 235.184 270.609L244.569 274.011C244.569 274.011 259.241 269.789 268.018 266.403C268.018 266.403 268.485 275.642 272.365 276.603L276.778 297.39C276.778 297.39 280.691 291.613 281.864 285.396C283.038 279.179 287.375 264.523 286.907 264.056C286.44 263.588 276.001 256.67 276.001 256.67C276.001 256.67 285.033 251.04 283.272 245.997C281.511 240.954 275.887 231.221 268.262 230.167L270.49 239.666C270.49 239.666 251.823 226.874 246.313 225.934C240.803 224.994 212.191 231.21 199.409 243.644C199.409 243.644 194.953 255.839 202.67 256.426C202.67 256.426 196.225 260.773 195.752 265.805C195.279 270.838 197.16 288.7 197.16 288.7C197.16 288.7 202.306 291.564 201.795 297.678Z" fill="#12192F"/>
<path d="M324.789 493.129C303.052 492.585 283.613 466.06 277.271 456.463C279.46 454.051 281.775 451.757 284.206 449.589L317.018 473.5L324.789 493.129Z" fill="#893F09"/>
<path d="M275.11 371.829L242.504 420.983C242.101 421.679 241.529 422.261 240.839 422.675C240.15 423.089 239.367 423.321 238.563 423.349C237.76 423.378 236.962 423.201 236.246 422.837C235.529 422.472 234.917 421.931 234.466 421.265L191.41 365.172L203.512 360.33L234.146 400.729C234.625 401.361 235.255 401.863 235.978 402.189C236.701 402.514 237.494 402.653 238.285 402.593C239.076 402.533 239.839 402.276 240.505 401.845C241.171 401.414 241.718 400.823 242.096 400.126L262.41 362.732L262.459 362.77L275.11 371.829Z" fill="#049E8B"/>
<path d="M198.675 594.006C182.916 595.321 166.754 586.941 162.265 584.414L164.439 579.795C164.439 579.795 158.037 574.85 166.069 569.584C178.671 582.17 198.675 594.006 198.675 594.006Z" fill="#02B5A5"/>
<path d="M181.73 434.976L183.089 442.475H224.124V434.976H181.73Z" fill="#049E8B"/>
<path d="M334.174 599.826C334.174 599.826 339.521 574.35 361.144 573.921L366.715 583.768C366.715 583.768 376.806 583.393 386.512 582.138C387.839 581.965 389.188 582.164 390.408 582.714C394.082 584.344 402.364 587.882 407.064 588.306C408.388 588.417 409.656 588.883 410.738 589.653C414.336 592.256 422.427 597.696 427.943 598.348C435.22 599.207 424.514 608.624 403.32 598.56L410.385 604.983H343.38L334.174 599.826Z" fill="#025B95"/>
<path d="M545.01 604.587C545.01 604.587 547.776 591.278 558.318 590.457C568.861 589.637 585.724 593.093 588.207 602.712L587.55 604.559L545.01 604.587Z" fill="#025B95"/>
<path d="M271.93 438.726C271.93 438.726 304.699 480.635 329.724 486.591L357.471 449.453C357.471 449.453 378.453 394.675 351.102 368.992C351.102 368.981 277.869 417.39 271.93 438.726Z" fill="#4FC1AE"/>
<path d="M417.678 342.119L401.098 347.831C401.098 347.831 453.751 419.754 474.461 415.097C495.171 410.44 494.497 355.102 494.497 355.102L483.009 352.314C483.009 352.314 483.737 389.55 470.304 403.614C470.282 403.598 434.383 371.106 417.678 342.119Z" fill="#049E8B"/>
<path d="M497.27 233.39C497.031 233.954 496.749 234.499 496.427 235.02C496.401 234.672 496.346 234.327 496.264 233.987C495.373 230.118 489.743 216.777 454.714 218.364C427.172 219.608 413.712 235.933 407.848 246.481C406.239 249.301 404.932 252.283 403.946 255.377C397.273 245.812 392.866 248.78 405.962 218.38C406.792 216.456 407.698 214.395 408.679 212.196C417.374 192.529 432.84 188.285 445.443 188.605C455.121 188.911 464.525 191.891 472.614 197.213C474.201 198.246 475.951 199.387 477.771 200.675C484.613 205.419 492.395 211.484 495.705 216.511C500.449 223.814 498.569 230.45 497.27 233.39Z" fill="#049E8B"/>
<path d="M494.492 255.376C494.492 255.376 501.013 248.045 502.921 255.376C504.828 262.707 503.073 283.879 487.797 281.461C472.521 279.043 494.492 255.376 494.492 255.376Z" fill="#AB570F"/>
<path d="M370.41 425.688C370.41 425.688 379.594 499.237 425.894 549.178C417.259 540.983 404.451 530.158 399.886 533.381C401.032 529.386 404.081 526.185 404.081 526.185L357.471 449.453L370.41 425.688Z" fill="#02B5A5"/>
<path d="M434.292 557.596C431.372 554.897 428.581 552.105 425.918 549.222C430.581 553.623 434.026 557.286 434.292 557.596Z" fill="#02B5A5"/>
<path d="M271.387 325.914C269.237 330.757 266.281 335.198 262.643 339.049C258.186 343.748 252.747 347.405 246.715 349.76C243.799 350.884 240.603 351.055 237.585 350.249C226.379 347.255 217.983 340.468 212.044 331.604L211.832 321.649C211.832 321.649 211.641 321.393 211.288 320.92C209.441 318.279 203.213 308.84 201.789 300.047V297.678C201.789 297.678 207.071 317.654 213.136 318.839L213.478 318.763L224.89 316.154L240.976 312.492C243.595 311.894 246.296 311.747 248.964 312.057L271.745 314.682C271.745 314.682 269.805 321.953 271.387 325.914Z" fill="#ECECEC"/>
<path d="M262.632 339.049C258.175 343.747 252.736 347.405 246.704 349.76C243.789 350.883 240.593 351.054 237.574 350.249C226.368 347.255 217.972 340.467 212.033 331.604L211.821 321.648C211.821 321.648 211.631 321.393 211.277 320.92C212.022 320.137 212.755 319.415 213.451 318.746L224.863 316.138C230.874 321.92 244.633 333.669 262.632 339.049Z" fill="#D7DDDC"/>
<path d="M269.756 314.47C269.756 314.47 275.522 306.731 276.614 298.618C276.668 298.205 276.712 297.792 276.744 297.379C276.744 297.379 276.065 309.791 271.745 314.682L269.756 314.47Z" fill="#ECECEC"/>
<path d="M495.166 265.533C493.476 280.086 489.732 295.65 481.7 305.85C475.722 313.458 467.451 318.061 455.925 317.089C437.991 315.572 426.101 305.829 418.248 294.199C420.966 286.167 416.428 275.722 416.205 275.179C432.927 270.163 454.626 249.48 462.772 255.382C469.103 259.968 487.384 263.979 495.166 265.533Z" fill="#ECECEC"/>
<path d="M636.269 308.899C635.693 309.226 635.045 309.409 634.383 309.431C633.72 309.453 633.062 309.313 632.465 309.024C629.748 307.725 624.857 307.394 622.271 319.116C618.521 336.005 612.891 335.381 608.826 347.89C604.761 360.4 604.734 366.97 604.734 366.97C604.734 366.97 603.142 357.9 604.734 348.83C604.734 348.83 580.366 366.041 599.756 384.333C599.756 384.333 566.129 370.448 578.486 351.955C589.665 335.234 599.137 317.839 601.56 308.568C602.197 306.12 603.004 303.719 603.973 301.383L604.734 299.563C604.734 299.563 597.642 299.884 594.952 297.503C594.952 297.503 605.332 297.465 610.652 289.575C616.086 281.483 646.975 262.452 661.088 284.178C661.088 284.178 674.674 280.695 680.722 300.008C686.771 319.322 700.699 327.18 700.699 327.18C700.699 327.18 731.011 350.086 700.699 370.747L683.412 377.719C683.412 377.719 698.346 351.091 683.298 335.614C682.67 334.968 681.903 334.475 681.056 334.17C680.208 333.866 679.302 333.76 678.407 333.859C671.636 334.625 653.453 335.006 649.062 317.887C648.288 314.798 646.508 312.054 644.002 310.089C641.785 308.383 639.035 307.285 636.269 308.899Z" fill="#13192F"/>
<path d="M714.915 604.961L709.04 605.032C712.415 580.974 687.51 544.814 687.51 544.814L689.02 540.923C690.536 537.032 687.933 537.25 687.51 533.793C687.086 530.337 693.129 515.643 695.074 513.051C697.02 510.458 702.171 479.124 702.171 479.124L708.856 490.71L692.042 533.641C692.042 533.641 695.406 539.163 691.031 541.516C691.036 541.499 717.268 582.327 714.915 604.961Z" fill="#02B5A5"/>
<path d="M675.207 334.093C675.207 334.093 682.271 328.599 683.901 333.468C685.532 338.337 685.097 357.379 673.652 353.945L675.207 334.093Z" fill="#F9A993"/>
<path opacity="0.53" d="M694.177 578.247L686.889 583.969C679.89 579.225 678.009 567.264 677.531 562.406L682.607 559.542L694.177 578.247Z" fill="#D14928"/>
<path d="M396.887 427.786L401.098 437.4C401.098 437.4 423.52 426.765 442.345 425.689L439.503 416.798C439.503 416.798 432.286 413.494 396.887 427.786Z" fill="#049E8B"/>
<path d="M399.42 574.899L405.642 563.911C404.618 562.388 404.238 560.523 404.583 558.721C410.164 563.476 432.178 581.485 449.198 585.235C449.198 585.235 422.206 583.387 399.42 574.899Z" fill="#02B5A5"/>
<path d="M535.702 513.866C535.327 516.986 535.088 519.523 535.033 521.197C534.854 526.854 535.033 533.696 534.783 539.717C529.335 545.794 522.512 550.479 514.883 553.379C525.741 546.76 535.702 513.866 535.702 513.866Z" fill="#02B5A5"/>
<path d="M535.033 565.91C528.338 575.149 509.139 581.414 509.139 581.414L532.311 552.477C528.914 558.09 536.223 560.128 535.033 565.91Z" fill="#02B5A5"/>
<path d="M731.392 424.135C731.392 424.135 773.008 510.16 771.899 520.138C770.791 530.115 775.779 554.776 697.357 583.04C697.357 583.04 686.075 581.654 680.766 556.412C680.766 556.412 725.403 532.022 726.343 528.153C727.283 524.284 723.403 528.697 723.958 521.502C724.512 514.307 708.861 490.705 708.861 490.705C708.861 490.705 674.538 429.83 731.392 424.135Z" fill="#4FC1AE"/>
<path d="M148.934 567.291C147.744 583.497 145.233 595.61 141.451 603.403H138.402C148.309 584.975 146.853 540.968 146.836 540.5L149.554 540.402C149.554 540.527 149.983 552.945 148.934 567.291Z" fill="#3F4F21"/>
<path d="M626.075 329.354L625.749 330.468C625.676 330.725 625.508 330.946 625.279 331.084C625.05 331.222 624.777 331.268 624.515 331.212C622.298 330.745 616.842 329.718 614.44 330.43C611.532 331.289 616.842 327.12 625.173 328.001C625.325 328.022 625.471 328.075 625.601 328.157C625.731 328.238 625.843 328.347 625.928 328.475C626.013 328.602 626.07 328.747 626.096 328.898C626.121 329.05 626.114 329.205 626.075 329.354Z" fill="#0D121E"/>
<path d="M666.213 224.309C681.66 224.309 694.183 211.786 694.183 196.339C694.183 180.891 681.66 168.368 666.213 168.368C650.765 168.368 638.242 180.891 638.242 196.339C638.242 211.786 650.765 224.309 666.213 224.309Z" fill="#ECECEC"/>
<path d="M155.347 512.334C155.347 512.334 149.228 476.511 197.078 464.213L167.732 425.689L137.936 386.562C137.936 386.562 108.313 396.887 109.487 431.699C110.661 466.511 155.347 512.334 155.347 512.334Z" fill="#4FC1AE"/>
<path d="M116.818 489.292C116.818 489.292 106.145 494.183 103.971 509.019C103.971 509.019 101.618 499.074 108.319 483.597C108.319 483.597 101.624 473.19 90.5864 469.93L86.6193 490.151C86.6193 490.151 83.1848 486.76 84.0869 480.608C84.989 474.457 87.7062 451.839 22.0215 462.876C22.0215 462.876 39.5744 467.767 46.8129 483.597L57.4859 482.293L45.8619 488.934C45.8619 488.934 48.2149 496.895 52.1983 498.715C56.1817 500.536 77.8918 505.237 77.8918 505.237C77.8918 505.237 52.8939 506.323 47.8563 505.237L50.1061 512.578C51.1737 516.162 53.3394 519.319 56.2976 521.606C59.2558 523.892 62.8573 525.192 66.5938 525.322H67.3981C78.2668 525.137 82.7773 522.605 88.7496 524.235C88.7496 524.235 75.1638 526.224 71.0174 528.039C66.871 529.854 52.5407 530.756 52.1983 532.566C51.8559 534.375 61.0617 575.992 95.624 555.004C95.624 555.004 104.672 548.847 105.949 537.995C105.949 537.995 124.551 545.282 132.806 529.24C141.06 513.198 125.507 491.466 116.818 489.292ZM73.6802 479.63C72.6368 475.212 73.0172 472.864 73.3596 471.815C73.4343 471.605 73.5719 471.423 73.7537 471.294C73.9355 471.165 74.1527 471.094 74.3758 471.093C78.4352 471.158 78.6254 475.761 79.6417 482.293C80.7068 489.184 75.2072 486.102 73.6802 479.63ZM79.7775 518.518C74.5225 522.409 68.197 519.768 65.5668 518.35C65.2978 518.204 65.0738 517.988 64.9194 517.724C64.7649 517.461 64.6859 517.159 64.691 516.854C64.696 516.548 64.7849 516.25 64.948 515.991C65.1111 515.733 65.342 515.524 65.6157 515.388C70.3653 513.035 85.3205 514.415 79.7775 518.518ZM97.075 509.122C96.9003 509.301 96.6829 509.432 96.4434 509.503C96.2039 509.574 95.9502 509.583 95.7064 509.528C95.4626 509.474 95.2367 509.358 95.0502 509.192C94.8636 509.026 94.7226 508.815 94.6404 508.579C93.8035 506.247 92.0048 499.884 96.2218 497.248C100.439 494.612 99.7106 506.209 97.075 509.122Z" fill="#3F4F21"/>
<path d="M36.889 597.495C36.889 597.495 36.188 592.197 32.7969 589.887C29.4059 587.578 23.0152 581.616 24.39 579.019C25.7649 576.421 36.889 568.851 36.889 568.851C32.7909 568.247 28.6161 569.217 25.2052 571.568C25.2052 571.568 18.7601 558.064 48.4261 551.662L36.889 597.495Z" fill="#3F4F20"/>
<path d="M131.502 603.402H128.785C128.367 594.11 125.736 579.491 116.672 558.792C113.022 550.423 108.869 542.282 104.238 534.413L106.553 532.995C111.252 540.967 115.463 549.217 119.161 557.7C124.53 569.97 130.828 587.485 131.502 603.402Z" fill="#3F4F21"/>
<path d="M119.898 603.402H116.888C108.524 586.137 97.8402 575.54 85.0967 571.883C67.1634 566.742 51.2409 570.573 51.0778 570.682L49.5508 568.432C50.2409 567.965 66.7015 563.78 85.8466 569.269C99.6607 573.236 111.105 584.708 119.898 603.402Z" fill="#3F4F21"/>
<path d="M121.166 577.703C104.695 574.986 104.238 572.269 104.238 572.269C123.9 574.671 128.763 568.422 128.763 568.422C128.915 552.119 110.134 545.054 106.82 544.157C103.505 543.261 93.7391 557.086 93.7391 557.086C92.2392 551.526 100.804 543.109 100.804 543.109C97.8559 541.459 94.5603 540.528 91.185 540.391C85.3213 540.065 84.5714 545.38 80.5826 548.989C76.5938 552.597 77.0557 549.293 79.762 545.233C82.4683 541.174 77.6317 539.402 77.6317 539.402C26.1958 544.386 36.8743 597.484 36.8743 597.484C37.9014 579.383 55.8455 570.188 59.0029 569.552C62.1602 568.916 63.8122 571.389 68.0184 573.948C71.3497 575.97 76.0069 574.225 77.8002 573.405L69.9693 577.247C68.9151 585.214 80.9412 586.415 80.9412 586.415L92.6685 580.252C92.6685 580.252 86.8049 586.567 84.7018 589.273C82.5987 591.979 91.4621 597.479 91.4621 597.479C125.438 610.793 129.502 579.502 129.502 577.997C129.502 576.492 121.166 577.703 121.166 577.703ZM79.8 581.779C79.6354 581.718 79.4886 581.617 79.3733 581.485C79.2579 581.352 79.1776 581.193 79.1397 581.022C79.1019 580.85 79.1077 580.672 79.1566 580.503C79.2055 580.335 79.2959 580.181 79.4196 580.057C80.7837 578.654 84.3105 575.291 84.3105 578.16C84.3214 580.866 81.3488 582.334 79.8 581.79V581.779ZM101.994 564.661C101.874 562.053 110.015 560.096 114.227 559.265C114.506 559.206 114.796 559.229 115.063 559.33C115.329 559.43 115.562 559.605 115.733 559.833C115.904 560.061 116.007 560.333 116.029 560.618C116.051 560.902 115.991 561.187 115.857 561.439C112.596 567.829 102.135 567.77 101.994 564.661Z" fill="#606D29"/>
<path d="M681.516 190.529H670.952V181.154H659.594V190.529H649.035V202.147H659.594V211.521H670.952V202.147H681.516V190.529Z" fill="#FF9C00"/>
<path opacity="0.2" d="M406.561 241.231L413.864 316.443C413.864 316.443 416.935 324.224 424.07 322.931C431.205 321.638 485.989 320.263 490.852 320.948C495.716 321.632 498.64 321.915 498.634 306.862C498.629 291.809 496.314 232.89 496.314 232.89C496.314 232.89 498.743 211.082 454.6 213.326C410.457 215.571 406.561 241.231 406.561 241.231Z" fill="#4FC1AE" stroke="white" stroke-width="2.71716" stroke-miterlimit="10"/>
<path d="M222.521 309.22C224.568 309.22 226.227 306.884 226.227 304.003C226.227 301.122 224.568 298.786 222.521 298.786C220.474 298.786 218.814 301.122 218.814 304.003C218.814 306.884 220.474 309.22 222.521 309.22Z" fill="#13192F"/>
<path d="M258.501 309.22C260.548 309.22 262.207 306.884 262.207 304.003C262.207 301.122 260.548 298.786 258.501 298.786C256.454 298.786 254.795 301.122 254.795 304.003C254.795 306.884 256.454 309.22 258.501 309.22Z" fill="#13192F"/>
<path d="M232.846 292.672L231.172 295.661C231.098 295.794 230.974 295.893 230.828 295.936C230.681 295.978 230.524 295.962 230.39 295.89C228.259 294.721 219.521 290.341 209.196 290.874C209.068 290.873 208.944 290.829 208.843 290.751C208.742 290.672 208.67 290.562 208.638 290.439C208.606 290.315 208.615 290.184 208.665 290.066C208.715 289.948 208.802 289.85 208.913 289.787C211.397 288.608 217.608 287.613 232.514 291.846C232.596 291.872 232.67 291.915 232.732 291.973C232.795 292.031 232.844 292.102 232.875 292.181C232.907 292.26 232.921 292.345 232.916 292.43C232.911 292.515 232.887 292.598 232.846 292.672V292.672Z" fill="#13192F"/>
<path d="M248.259 292.672L249.943 295.661C250.018 295.794 250.142 295.893 250.288 295.936C250.434 295.978 250.592 295.962 250.726 295.89C252.856 294.721 261.595 290.341 271.92 290.874C272.048 290.874 272.173 290.831 272.275 290.753C272.376 290.675 272.449 290.565 272.482 290.441C272.515 290.317 272.506 290.186 272.456 290.067C272.407 289.949 272.319 289.85 272.208 289.787C269.719 288.608 263.513 287.613 248.601 291.846C248.519 291.871 248.443 291.913 248.38 291.971C248.316 292.028 248.266 292.099 248.233 292.178C248.201 292.257 248.186 292.343 248.19 292.428C248.195 292.514 248.218 292.597 248.259 292.672V292.672Z" fill="#13192F"/>
<path d="M450.443 233.998L449.302 236.503C449.191 236.75 449.023 236.968 448.813 237.139C448.602 237.31 448.355 237.429 448.09 237.487C444.555 238.177 440.891 237.726 437.629 236.199C431.434 233.367 424.885 232.128 417.451 236.378C417.451 236.378 426.657 227.683 437.629 231.243C445.009 233.623 448.459 233.601 449.932 233.335C450.017 233.32 450.104 233.329 450.185 233.36C450.265 233.391 450.335 233.444 450.388 233.512C450.44 233.58 450.473 233.662 450.483 233.747C450.493 233.833 450.479 233.919 450.443 233.998V233.998Z" fill="#0E1423"/>
<path d="M465.8 234.748L465.164 236.699C465.126 236.812 465.119 236.933 465.142 237.05C465.165 237.167 465.218 237.275 465.296 237.366C465.374 237.456 465.473 237.525 465.585 237.565C465.697 237.605 465.818 237.616 465.935 237.596C470.343 236.797 486.363 234.227 492.319 237.808C492.319 237.808 482.146 228.466 466.658 233.868C466.457 233.939 466.275 234.055 466.126 234.208C465.977 234.36 465.865 234.545 465.8 234.748V234.748Z" fill="#0E1423"/>
<path d="M433.428 254.328C435.883 254.328 437.873 251.379 437.873 247.742C437.873 244.104 435.883 241.155 433.428 241.155C430.973 241.155 428.982 244.104 428.982 247.742C428.982 251.379 430.973 254.328 433.428 254.328Z" fill="#0E1423"/>
<path d="M477.733 254.328C479.906 254.328 481.668 251.571 481.668 248.171C481.668 244.77 479.906 242.014 477.733 242.014C475.56 242.014 473.799 244.77 473.799 248.171C473.799 251.571 475.56 254.328 477.733 254.328Z" fill="#0E1423"/>
<path d="M407.354 263.485L416.169 275.136L416.218 275.223L417.424 278.483L406.631 264.207C406.595 264.153 406.576 264.088 406.576 264.023C406.576 263.957 406.595 263.893 406.631 263.838L406.8 263.517C406.83 263.472 406.869 263.435 406.916 263.408C406.963 263.382 407.015 263.366 407.069 263.363C407.123 263.36 407.176 263.369 407.226 263.39C407.275 263.411 407.319 263.444 407.354 263.485V263.485Z" fill="#ECECEC"/>
<path d="M481.696 305.851C475.718 313.459 467.447 318.062 455.921 317.089C437.987 315.573 426.097 305.829 418.244 294.2C420.962 286.168 416.424 275.723 416.201 275.18C416.853 275.886 442.34 303.036 481.696 305.851Z" fill="#D7DDDC"/>
<path d="M636.366 326.637L637.681 329.316C637.707 329.362 637.741 329.403 637.782 329.435C637.824 329.468 637.871 329.491 637.922 329.505C637.972 329.519 638.025 329.522 638.077 329.515C638.13 329.508 638.18 329.49 638.225 329.463C639.485 328.577 644.023 325.8 652.109 325.219C652.2 325.209 652.284 325.167 652.347 325.102C652.41 325.037 652.449 324.951 652.456 324.86C652.463 324.77 652.438 324.679 652.386 324.605C652.334 324.53 652.257 324.477 652.169 324.453C649.24 323.822 643.654 323.333 636.551 326.083C636.501 326.105 636.456 326.138 636.419 326.179C636.382 326.219 636.354 326.267 636.337 326.319C636.319 326.372 636.313 326.427 636.318 326.481C636.323 326.536 636.339 326.589 636.366 326.637V326.637Z" fill="#0D121E"/>
<path d="M622.166 342.903C623.433 342.903 624.46 341.19 624.46 339.077C624.46 336.964 623.433 335.251 622.166 335.251C620.9 335.251 619.873 336.964 619.873 339.077C619.873 341.19 620.9 342.903 622.166 342.903Z" fill="#0A0E17"/>
<path d="M642.965 336.739L644.97 338.571C644.97 338.571 650.16 333.886 657.926 337.652L656.513 336.185C656.513 336.185 657.263 336.527 659.23 335.777C659.23 335.777 656.29 335.777 655.333 335.234C654.377 334.691 647.209 333.191 642.965 336.739Z" fill="#0A0E17"/>
<path d="M670.989 362.427C665.223 375.665 654.577 378.649 644.98 384.795C631.937 393.142 618.895 368.275 613.857 352.347C618.411 349.515 629.617 342.63 630.503 342.913C631.622 343.277 652.827 349.977 662.207 346.847C662.201 346.836 666.793 358.384 670.989 362.427Z" fill="#ECECEC"/>
<path d="M670.989 362.427C665.223 375.665 654.577 378.649 644.98 384.795C631.937 393.142 618.895 368.275 613.857 352.347C614.205 352.993 629.209 380.274 670.989 362.427Z" fill="#D7DDDC"/>
<path d="M662.201 346.836C662.201 346.836 673.39 338.848 675.205 334.093C677.021 329.338 674.037 343.473 663.087 348.939L662.201 346.836Z" fill="#D7DDDC"/>
<path d="M200.408 301.933C200.408 301.933 199.555 287.836 194.218 294.493C194.218 294.493 193.789 294.955 193.36 296.813C192.93 298.672 200.408 301.933 200.408 301.933Z" fill="#C24425"/>
<path d="M277.99 301.998C277.99 301.998 280.539 293.189 282.555 295.96C284.571 298.732 284.039 300.449 284.039 300.449L277.99 301.998Z" fill="#C24425"/>
<path d="M408.017 270.055C408.017 270.055 403.696 253.632 398.49 265.376L408.017 270.055Z" fill="#893F09"/>
<path d="M496.02 261.969C496.02 261.969 500.079 248.383 501.965 259.795L496.02 261.969Z" fill="#893F09"/>
<path opacity="0.53" d="M675.086 342.896C675.086 342.896 679.656 329.077 683.297 335.604V339.62L675.086 342.896Z" fill="#D14928"/>
<path d="M704.579 400.272C674.315 406.484 639.628 445.29 639.628 445.29L631.846 411.63C638.448 407.174 643.611 403.62 643.611 403.62V426.939C643.611 426.939 680.684 396.506 693.259 393.518C693.259 393.512 698.047 395.963 704.579 400.272Z" fill="#049E8B"/>
<path d="M606.027 453.556V460.289H624.64L626.134 455.398L606.027 453.556Z" fill="#049E8B"/>
<path d="M702.172 445.291C702.172 445.291 714.225 423.972 731.392 424.135L733.082 427.64C733.082 427.64 716.823 426.004 702.172 445.291Z" fill="#02B5A5"/>
<path d="M656.725 568.574L665.756 563.786C665.756 563.786 679.196 591.941 687.494 597.479L677.169 600.392C677.169 600.392 658.67 575.378 656.725 568.574Z" fill="#049E8B"/>
<path opacity="0.32" d="M321.43 313.127C321.43 313.127 306.051 333.777 299.916 344.923L296.568 338.706C296.568 338.706 312.589 313.127 321.43 313.127Z" fill="#002E55"/>
<path d="M329.535 362.069C329.443 362.118 329.349 362.162 329.252 362.2C323.66 364.373 313.297 380.356 313.297 380.356C315.335 361.613 328.399 346.902 329.214 346C328.23 347.206 328.687 354.353 329.535 362.069Z" fill="#004D81"/>
<g style="mix-blend-mode:multiply">
<g style="mix-blend-mode:multiply">
<path d="M789.359 391.441H784.186C782.106 391.441 780.42 393.128 780.42 395.207V418.379C780.42 420.459 782.106 422.145 784.186 422.145H789.359C791.439 422.145 793.125 420.459 793.125 418.379V395.207C793.125 393.128 791.439 391.441 789.359 391.441Z" fill="#AFBEC7"/>
</g>
<g style="mix-blend-mode:multiply">
<path d="M828.817 398.914H829.361C829.544 398.914 829.726 398.892 829.904 398.848C831.453 398.539 832.621 396.952 832.621 395.044C832.621 392.898 831.154 391.159 829.361 391.159H809.053C808.903 391.166 808.754 391.184 808.607 391.213C806.319 390.458 807.716 388.186 809.221 380.29C811.004 370.986 804.874 370.443 804.026 373.725C803.178 377.008 801.564 383.431 798.01 388.632C796.266 391.175 794.858 392.534 793.869 393.262V420.906H823.215C825.024 420.906 826.475 419.167 826.475 417.021C826.493 416.343 826.338 415.672 826.025 415.07C825.712 414.468 825.252 413.956 824.687 413.581H825.231C825.414 413.578 825.596 413.556 825.774 413.516L825.953 413.478C826.088 413.439 826.218 413.39 826.345 413.331C827.019 413 827.584 412.48 827.97 411.835C828.355 411.19 828.546 410.446 828.518 409.695C828.526 409.143 828.424 408.596 828.217 408.084C828.01 407.573 827.702 407.108 827.312 406.717V406.717C827.225 406.63 827.138 406.554 827.046 406.478C826.953 406.402 826.839 406.326 826.731 406.255H827.274C827.47 406.254 827.665 406.23 827.855 406.185H827.975C828.126 406.142 828.273 406.087 828.415 406.022C829.082 405.684 829.638 405.163 830.017 404.52C830.397 403.877 830.584 403.138 830.556 402.391C830.565 401.344 830.176 400.333 829.469 399.56V399.56C829.371 399.449 829.264 399.345 829.149 399.25V399.25C829.047 399.13 828.936 399.017 828.817 398.914V398.914Z" fill="#AFBEC7"/>
</g>
</g>
<path d="M787.425 388.979H782.425C780.297 388.979 778.572 390.705 778.572 392.832V415.831C778.572 417.958 780.297 419.683 782.425 419.683H787.425C789.553 419.683 791.278 417.958 791.278 415.831V392.832C791.278 390.705 789.553 388.979 787.425 388.979Z" fill="#025B95"/>
<path d="M830.813 392.556C830.813 390.382 829.34 388.67 827.552 388.67H807.211C807.062 388.678 806.913 388.696 806.766 388.725C804.478 387.969 805.874 385.698 807.385 377.802C809.162 368.498 803.005 367.955 802.185 371.237C801.364 374.519 799.723 380.943 796.169 386.144C795.053 387.903 793.656 389.467 792.033 390.774V418.418H821.379C823.188 418.418 824.639 416.679 824.639 414.532C824.658 413.854 824.504 413.183 824.191 412.581C823.878 411.979 823.417 411.467 822.851 411.093H823.395C825.21 411.093 826.655 409.354 826.655 407.207C826.674 406.53 826.52 405.858 826.208 405.257C825.897 404.655 825.437 404.142 824.873 403.767H825.416C827.231 403.767 828.677 402.028 828.677 399.882C828.695 399.204 828.54 398.532 828.228 397.93C827.915 397.329 827.454 396.816 826.889 396.442H827.432C829.34 396.442 830.813 394.703 830.813 392.556Z" fill="#F5F5F5"/>
<path d="M826.971 396.441H827.515C827.869 396.434 828.219 396.363 828.547 396.229H818.108C818.047 396.217 817.985 396.218 817.925 396.233C817.864 396.248 817.808 396.276 817.761 396.316C817.713 396.355 817.674 396.404 817.648 396.46C817.621 396.516 817.607 396.577 817.607 396.639C817.607 396.701 817.621 396.762 817.648 396.818C817.674 396.874 817.713 396.924 817.761 396.963C817.808 397.002 817.864 397.03 817.925 397.045C817.985 397.06 818.047 397.062 818.108 397.049H827.694C827.482 396.815 827.239 396.61 826.971 396.441V396.441Z" fill="#0083BA"/>
<path d="M817.623 403.805C817.635 403.925 817.694 404.035 817.786 404.112C817.879 404.189 817.998 404.227 818.118 404.218H825.497C825.322 404.045 825.129 403.89 824.921 403.756H825.465C825.942 403.754 826.412 403.631 826.829 403.397H818.134C818.074 403.391 818.013 403.396 817.954 403.413C817.896 403.429 817.841 403.458 817.794 403.495C817.747 403.533 817.707 403.58 817.678 403.633C817.648 403.686 817.63 403.745 817.623 403.805V403.805Z" fill="#0083BA"/>
<path d="M817.623 411.103C817.635 411.222 817.694 411.332 817.787 411.408C817.879 411.484 817.998 411.521 818.118 411.51H823.405C823.238 411.354 823.056 411.214 822.862 411.092H823.405C823.909 411.087 824.402 410.948 824.834 410.69H818.101C817.984 410.685 817.869 410.725 817.78 410.802C817.692 410.878 817.635 410.986 817.623 411.103V411.103Z" fill="#0083BA"/>
<path d="M785.522 416.189C786.579 416.189 787.435 415.333 787.435 414.276C787.435 413.22 786.579 412.363 785.522 412.363C784.466 412.363 783.609 413.22 783.609 414.276C783.609 415.333 784.466 416.189 785.522 416.189Z" fill="#004D81"/>
<path d="M98.3576 371.829C102.562 371.829 105.971 368.42 105.971 364.215C105.971 360.01 102.562 356.602 98.3576 356.602C94.1528 356.602 90.7441 360.01 90.7441 364.215C90.7441 368.42 94.1528 371.829 98.3576 371.829Z" fill="#FF9C00"/>
<path d="M214.299 200.055C217.469 200.055 220.038 197.486 220.038 194.317C220.038 191.147 217.469 188.578 214.299 188.578C211.13 188.578 208.561 191.147 208.561 194.317C208.561 197.486 211.13 200.055 214.299 200.055Z" fill="#FF9C00"/>
<path d="M322.86 194.317C324.444 194.317 325.729 193.032 325.729 191.447C325.729 189.863 324.444 188.578 322.86 188.578C321.275 188.578 319.99 189.863 319.99 191.447C319.99 193.032 321.275 194.317 322.86 194.317Z" fill="#FF9C00"/>
<path d="M557.749 266.219C561.642 266.219 564.798 263.063 564.798 259.17C564.798 255.278 561.642 252.122 557.749 252.122C553.857 252.122 550.701 255.278 550.701 259.17C550.701 263.063 553.857 266.219 557.749 266.219Z" fill="#FF9C00"/>
<path d="M558.422 184.573C559.844 184.573 560.997 182.926 560.997 180.894C560.997 178.862 559.844 177.215 558.422 177.215C556.999 177.215 555.846 178.862 555.846 180.894C555.846 182.926 556.999 184.573 558.422 184.573Z" fill="#FF9C00"/>
<path d="M768.703 247.492C772.26 247.492 775.143 244.609 775.143 241.052C775.143 237.495 772.26 234.612 768.703 234.612C765.147 234.612 762.264 237.495 762.264 241.052C762.264 244.609 765.147 247.492 768.703 247.492Z" fill="#FF9C00"/>
<path d="M796.695 365.036L798.451 368.063" stroke="#025B95" stroke-width="1.6303" stroke-linecap="round" stroke-linejoin="round"/>
<path d="M806.357 362.373V365.971" stroke="#025B95" stroke-width="1.6303" stroke-linecap="round" stroke-linejoin="round"/>
<path d="M816.684 366.803L814.287 368.949" stroke="#025B95" stroke-width="1.6303" stroke-linecap="round" stroke-linejoin="round"/>
<path d="M477.729 200.669C420.902 193.061 405.963 218.374 405.963 218.374C406.793 216.45 407.698 214.389 408.68 212.19C417.375 192.523 432.841 188.279 445.443 188.599C455.121 188.905 464.526 191.885 472.615 197.207C474.158 198.24 475.908 199.408 477.729 200.669Z" fill="#4FC1AE"/>
</g>
</g>
<defs>
<filter id="filter0_f_1552_21981" x="0.259766" y="0.311523" width="958.035" height="752.203" filterUnits="userSpaceOnUse" color-interpolation-filters="sRGB">
<feFlood flood-opacity="0" result="BackgroundImageFix"/>
<feBlend mode="normal" in="SourceGraphic" in2="BackgroundImageFix" result="shape"/>
<feGaussianBlur stdDeviation="75" result="effect1_foregroundBlur_1552_21981"/>
</filter>
<linearGradient id="paint0_linear_1552_21981" x1="440.457" y1="642.205" x2="366.132" y2="180.568" gradientUnits="userSpaceOnUse">
<stop stop-color="#262626"/>
<stop offset="1" stop-color="#262626" stop-opacity="0"/>
</linearGradient>
<clipPath id="clip0_1552_21981">
<rect x="22" y="105.834" width="845" height="496.977" rx="20" fill="white"/>
</clipPath>
<clipPath id="clip1_1552_21981">
<rect width="845" height="463.244" fill="white" transform="translate(22 144.272)"/>
</clipPath>
</defs>
</svg>
