<svg width="100%" viewBox="0 0 92 83" fill="none" xmlns="http://www.w3.org/2000/svg">
<rect x="0.605469" y="0.0488281" width="82.789" height="82.789" rx="10" fill="#02B5A5"/>
<path d="M65.9618 66.8665C62.6232 66.8665 59.3173 66.2089 56.2328 64.9313C53.1484 63.6537 50.3457 61.781 47.985 59.4203C45.6243 57.0595 43.7516 54.2569 42.474 51.1725C41.1964 48.088 40.5388 44.7821 40.5388 41.4435C40.5388 38.1049 41.1964 34.799 42.474 31.7145C43.7516 28.6301 45.6243 25.8275 47.985 23.4667C50.3457 21.106 53.1484 19.2333 56.2328 17.9557C59.3173 16.6781 62.6232 16.0205 65.9618 16.0205L65.9618 41.4435L65.9618 66.8665Z" fill="#D8F366"/>
<path d="M40.5379 66.8665C37.1993 66.8665 33.8934 66.2089 30.809 64.9313C27.7245 63.6537 24.9219 61.781 22.5612 59.4203C20.2004 57.0595 18.3278 54.2569 17.0502 51.1725C15.7725 48.088 15.115 44.7821 15.115 41.4435C15.115 38.1049 15.7725 34.799 17.0502 31.7145C18.3278 28.6301 20.2004 25.8275 22.5612 23.4667C24.9219 21.106 27.7245 19.2333 30.809 17.9557C33.8935 16.6781 37.1994 16.0205 40.5379 16.0205L40.5379 41.4435L40.5379 66.8665Z" fill="#D8F366"/>
</svg>
