<svg width="100%" viewBox="0 0 93 92" fill="none" xmlns="http://www.w3.org/2000/svg">
<rect x="0.576172" y="0.0488281" width="82.789" height="82.789" rx="10" fill="#02B5A5"/>
<path d="M43.4031 64.178L65.2664 42.3147C65.8948 41.6863 66.9694 42.1285 66.9735 43.0172L67.0747 64.9817C67.0773 65.5376 66.626 65.9889 66.0701 65.9863L44.1056 65.8851C43.217 65.881 42.7747 64.8064 43.4031 64.178Z" fill="#EDDDFF"/>
<path d="M43.4012 38.9231L65.2644 17.0598C65.8928 16.4314 66.9674 16.8737 66.9715 17.7623L67.0728 39.7268C67.0753 40.2827 66.6241 40.734 66.0682 40.7314L44.1037 40.6302C43.215 40.6261 42.7728 39.5515 43.4012 38.9231Z" fill="#EDDDFF"/>
<path d="M18.5418 64.178L40.4051 42.3147C41.0335 41.6863 42.1081 42.1285 42.1122 43.0172L42.2134 64.9817C42.216 65.5376 41.7647 65.9889 41.2088 65.9863L19.2443 65.8851C18.3556 65.881 17.9134 64.8064 18.5418 64.178Z" fill="#EDDDFF"/>
</svg>
